<svg xmlns="http://www.w3.org/2000/svg" xmlns:xlink="http://www.w3.org/1999/xlink" contentStyleType="text/css" data-diagram-type="ACTIVITY" height="835px" preserveAspectRatio="none" style="width:2149px;height:835px;background:#FFFFFF;" version="1.1" viewBox="0 0 2149 835" width="2149px" zoomAndPan="magnify"><?plantuml 1.2026.3?><defs/><g><g class="title" data-source-line="3"><text fill="#1F3A68" font-family="Arial" font-size="14" font-weight="700" lengthAdjust="spacing" textLength="301.0547" x="923.2837" y="33.1318">Activity Diagram - Auditor Pipeline Execution</text></g><ellipse cx="530.1802" cy="62.0986" fill="#0969DA" rx="10" ry="10" style="stroke:#222222;stroke-width:1;"/><rect fill="#F4F7FB" height="47.5977" rx="3" ry="3" style="stroke:#C4D3E8;stroke-width:0.5;" width="161.4102" x="449.4751" y="92.0986"/><text fill="#1F3A68" font-family="Arial" font-size="12" lengthAdjust="spacing" textLength="141.4102" x="459.4751" y="113.3545">Auditor selects audit mode</text><text fill="#1F3A68" font-family="Arial" font-size="12" lengthAdjust="spacing" textLength="124.0313" x="459.4751" y="127.1533">(Full / Pre / Live / Final)</text><rect fill="#F4F7FB" height="33.7988" rx="3" ry="3" style="stroke:#C4D3E8;stroke-width:0.5;" width="172.0684" x="444.146" y="159.6963"/><text fill="#1F3A68" font-family="Arial" font-size="12" lengthAdjust="spacing" textLength="152.0684" x="454.146" y="180.9521">Query current contract stage</text><polygon fill="#F4F7FB" points="406.4419,213.4951,653.9185,213.4951,665.9185,225.4951,653.9185,237.4951,406.4419,237.4951,394.4419,225.4951,406.4419,213.4951" style="stroke:#C4D3E8;stroke-width:0.5;"/><text fill="#1F3A68" font-family="Arial" font-size="12" lengthAdjust="spacing" textLength="247.4766" x="406.4419" y="229.8516">Is requested mode available for current stage?</text><text fill="#7286A5" font-family="Arial" font-size="10" lengthAdjust="spacing" textLength="11.123" x="383.3188" y="223.376">no</text><text fill="#7286A5" font-family="Arial" font-size="10" lengthAdjust="spacing" textLength="15.5615" x="665.9185" y="223.376">yes</text><rect fill="#F4F7FB" height="33.7988" rx="3" ry="3" style="stroke:#C4D3E8;stroke-width:0.5;" width="154.0684" x="19.6006" y="247.4951"/><text fill="#1F3A68" font-family="Arial" font-size="12" lengthAdjust="spacing" textLength="134.0684" x="29.6006" y="268.751">Show availability warning</text><rect fill="#F4F7FB" height="33.7988" rx="3" ry="3" style="stroke:#C4D3E8;stroke-width:0.5;" width="161.2695" x="16" y="301.2939"/><text fill="#1F3A68" font-family="Arial" font-size="12" lengthAdjust="spacing" textLength="141.2695" x="26" y="322.5498">Disable "Run Audit" button</text><ellipse cx="96.6348" cy="366.0928" fill="none" rx="11" ry="11" style="stroke:#222222;stroke-width:1;"/><ellipse cx="96.6348" cy="366.0928" fill="#222222" rx="6" ry="6" style="stroke:#222222;stroke-width:1;"/><rect fill="#F4F7FB" height="33.7988" rx="3" ry="3" style="stroke:#C4D3E8;stroke-width:0.5;" width="134.0527" x="904.6992" y="247.4951"/><text fill="#1F3A68" font-family="Arial" font-size="12" lengthAdjust="spacing" textLength="114.0527" x="914.6992" y="268.751">Initialize AuditService</text><rect fill="#F4F7FB" height="33.7988" rx="3" ry="3" style="stroke:#C4D3E8;stroke-width:0.5;" width="266.123" x="838.6641" y="301.2939"/><text fill="#1F3A68" font-family="Arial" font-size="12" lengthAdjust="spacing" textLength="246.123" x="848.6641" y="322.5498">Fetch events from block deploy_block to latest</text><polygon fill="#F4F7FB" points="920.3623,355.0928,1023.0889,355.0928,1035.0889,367.0928,1023.0889,379.0928,920.3623,379.0928,908.3623,367.0928,920.3623,355.0928" style="stroke:#C4D3E8;stroke-width:0.5;"/><text fill="#1F3A68" font-family="Arial" font-size="12" lengthAdjust="spacing" textLength="102.7266" x="920.3623" y="371.4492">Mode == Pre-vote?</text><text fill="#7286A5" font-family="Arial" font-size="10" lengthAdjust="spacing" textLength="15.5615" x="892.8008" y="364.9736">yes</text><text fill="#7286A5" font-family="Arial" font-size="10" lengthAdjust="spacing" textLength="72.8027" x="1035.0889" y="364.9736">Live / Final / Full</text><rect fill="#0969DA" height="6" rx="2.5" ry="2.5" style="stroke:#0969DA;stroke-width:1;" width="572.2285" x="187.2695" y="389.0928"/><rect fill="#F4F7FB" height="33.7988" rx="3" ry="3" style="stroke:#C4D3E8;stroke-width:0.5;" width="182.7617" x="199.2695" y="415.0928"/><text fill="#1F3A68" font-family="Arial" font-size="12" lengthAdjust="spacing" textLength="162.7617" x="209.2695" y="436.3486">Check Candidate Count (&gt;= 2)</text><rect fill="#F4F7FB" height="33.7988" rx="3" ry="3" style="stroke:#C4D3E8;stroke-width:0.5;" width="160.0684" x="410.0313" y="415.0928"/><text fill="#1F3A68" font-family="Arial" font-size="12" lengthAdjust="spacing" textLength="140.0684" x="420.0313" y="436.3486">Check Whitelist Populated</text><rect fill="#F4F7FB" height="33.7988" rx="3" ry="3" style="stroke:#C4D3E8;stroke-width:0.5;" width="149.3984" x="598.0996" y="415.0928"/><text fill="#1F3A68" font-family="Arial" font-size="12" lengthAdjust="spacing" textLength="129.3984" x="608.0996" y="436.3486">Check Stage == SETUP</text><rect fill="#0969DA" height="6" rx="2.5" ry="2.5" style="stroke:#0969DA;stroke-width:1;" width="572.2285" x="187.2695" y="468.8916"/><rect fill="#0969DA" height="6" rx="2.5" ry="2.5" style="stroke:#0969DA;stroke-width:1;" width="1360.124" x="769.498" y="389.0928"/><rect fill="#F4F7FB" height="33.7988" rx="3" ry="3" style="stroke:#C4D3E8;stroke-width:0.5;" width="176.7383" x="781.498" y="415.0928"/><text fill="#1F3A68" font-family="Arial" font-size="12" lengthAdjust="spacing" textLength="156.7383" x="791.498" y="436.3486">Check Double Vote (SEC-01)</text><rect fill="#F4F7FB" height="33.7988" rx="3" ry="3" style="stroke:#C4D3E8;stroke-width:0.5;" width="227.3984" x="986.2363" y="415.0928"/><text fill="#1F3A68" font-family="Arial" font-size="12" lengthAdjust="spacing" textLength="207.3984" x="996.2363" y="436.3486">Check Whitelist Enforcement (SEC-02)</text><rect fill="#F4F7FB" height="33.7988" rx="3" ry="3" style="stroke:#C4D3E8;stroke-width:0.5;" width="213.418" x="1223.6348" y="415.0928"/><text fill="#1F3A68" font-family="Arial" font-size="12" lengthAdjust="spacing" textLength="193.418" x="1233.6348" y="436.3486">Check Stage Enforcement (SEC-03)</text><rect fill="#F4F7FB" height="33.7988" rx="3" ry="3" style="stroke:#C4D3E8;stroke-width:0.5;" width="221.4395" x="1450.0381" y="415.0928"/><text fill="#1F3A68" font-family="Arial" font-size="12" lengthAdjust="spacing" textLength="201.4395" x="1460.0381" y="436.3486">Check Candidate Validation (SEC-04)</text><rect fill="#F4F7FB" height="33.7988" rx="3" ry="3" style="stroke:#C4D3E8;stroke-width:0.5;" width="209.3926" x="1681.4775" y="415.0928"/><text fill="#1F3A68" font-family="Arial" font-size="12" lengthAdjust="spacing" textLength="189.3926" x="1691.4775" y="436.3486">Check Owner-only Admin (SEC-05)</text><rect fill="#F4F7FB" height="33.7988" rx="3" ry="3" style="stroke:#C4D3E8;stroke-width:0.5;" width="216.752" x="1900.8701" y="415.0928"/><text fill="#1F3A68" font-family="Arial" font-size="12" lengthAdjust="spacing" textLength="196.752" x="1910.8701" y="436.3486">Check Vote Count Integrity (SEC-06)</text><rect fill="#0969DA" height="6" rx="2.5" ry="2.5" style="stroke:#0969DA;stroke-width:1;" width="1360.124" x="769.498" y="468.8916"/><polygon fill="#F4F7FB" points="971.7256,480.8916,983.7256,492.8916,971.7256,504.8916,959.7256,492.8916,971.7256,480.8916" style="stroke:#C4D3E8;stroke-width:0.5;"/><rect fill="#F4F7FB" height="33.7988" rx="3" ry="3" style="stroke:#C4D3E8;stroke-width:0.5;" width="130.7188" x="906.3662" y="524.8916"/><text fill="#1F3A68" font-family="Arial" font-size="12" lengthAdjust="spacing" textLength="110.7188" x="916.3662" y="546.1475">Compile AuditReport</text><rect fill="#F4F7FB" height="33.7988" rx="3" ry="3" style="stroke:#C4D3E8;stroke-width:0.5;" width="194.0938" x="874.6787" y="578.6904"/><text fill="#1F3A68" font-family="Arial" font-size="12" lengthAdjust="spacing" textLength="174.0938" x="884.6787" y="599.9463">Calculate total votes &amp; turnout %</text><rect fill="#F4F7FB" height="33.7988" rx="3" ry="3" style="stroke:#C4D3E8;stroke-width:0.5;" width="182.7441" x="880.3535" y="632.4893"/><text fill="#1F3A68" font-family="Arial" font-size="12" lengthAdjust="spacing" textLength="162.7441" x="890.3535" y="653.7451">Identify winner / tie / no-winner</text><rect fill="#F4F7FB" height="33.7988" rx="3" ry="3" style="stroke:#C4D3E8;stroke-width:0.5;" width="104.7148" x="919.3682" y="686.2881"/><text fill="#1F3A68" font-family="Arial" font-size="12" lengthAdjust="spacing" textLength="84.7148" x="929.3682" y="707.5439">Update Audit UI</text><rect fill="#F4F7FB" height="33.7988" rx="3" ry="3" style="stroke:#C4D3E8;stroke-width:0.5;" width="241.4316" x="851.0098" y="740.0869"/><text fill="#1F3A68" font-family="Arial" font-size="12" lengthAdjust="spacing" textLength="221.4316" x="861.0098" y="761.3428">Enable Copy Report / JSON / CSV export</text><ellipse cx="971.7256" cy="804.8857" fill="none" rx="11" ry="11" style="stroke:#222222;stroke-width:1;"/><ellipse cx="971.7256" cy="804.8857" fill="#222222" rx="6" ry="6" style="stroke:#222222;stroke-width:1;"/><line style="stroke:#0969DA;stroke-width:1;" x1="530.1802" x2="530.1802" y1="72.0986" y2="92.0986"/><polygon fill="#0969DA" points="526.1802,82.0986,530.1802,92.0986,534.1802,82.0986,530.1802,86.0986" style="stroke:#0969DA;stroke-width:1;"/><line style="stroke:#0969DA;stroke-width:1;" x1="530.1802" x2="530.1802" y1="139.6963" y2="159.6963"/><polygon fill="#0969DA" points="526.1802,149.6963,530.1802,159.6963,534.1802,149.6963,530.1802,153.6963" style="stroke:#0969DA;stroke-width:1;"/><line style="stroke:#0969DA;stroke-width:1;" x1="96.6348" x2="96.6348" y1="281.2939" y2="301.2939"/><polygon fill="#0969DA" points="92.6348,291.2939,96.6348,301.2939,100.6348,291.2939,96.6348,295.2939" style="stroke:#0969DA;stroke-width:1;"/><line style="stroke:#0969DA;stroke-width:1;" x1="96.6348" x2="96.6348" y1="335.0928" y2="355.0928"/><polygon fill="#0969DA" points="92.6348,345.0928,96.6348,355.0928,100.6348,345.0928,96.6348,349.0928" style="stroke:#0969DA;stroke-width:1;"/><line style="stroke:#0969DA;stroke-width:1;" x1="971.7256" x2="971.7256" y1="281.2939" y2="301.2939"/><polygon fill="#0969DA" points="967.7256,291.2939,971.7256,301.2939,975.7256,291.2939,971.7256,295.2939" style="stroke:#0969DA;stroke-width:1;"/><line style="stroke:#0969DA;stroke-width:1;" x1="290.6504" x2="290.6504" y1="395.0928" y2="415.0928"/><polygon fill="#0969DA" points="286.6504,405.0928,290.6504,415.0928,294.6504,405.0928,290.6504,409.0928" style="stroke:#0969DA;stroke-width:1;"/><line style="stroke:#0969DA;stroke-width:1;" x1="490.0654" x2="490.0654" y1="395.0928" y2="415.0928"/><polygon fill="#0969DA" points="486.0654,405.0928,490.0654,415.0928,494.0654,405.0928,490.0654,409.0928" style="stroke:#0969DA;stroke-width:1;"/><line style="stroke:#0969DA;stroke-width:1;" x1="672.7988" x2="672.7988" y1="395.0928" y2="415.0928"/><polygon fill="#0969DA" points="668.7988,405.0928,672.7988,415.0928,676.7988,405.0928,672.7988,409.0928" style="stroke:#0969DA;stroke-width:1;"/><line style="stroke:#0969DA;stroke-width:1;" x1="290.6504" x2="290.6504" y1="448.8916" y2="468.8916"/><polygon fill="#0969DA" points="286.6504,458.8916,290.6504,468.8916,294.6504,458.8916,290.6504,462.8916" style="stroke:#0969DA;stroke-width:1;"/><line style="stroke:#0969DA;stroke-width:1;" x1="490.0654" x2="490.0654" y1="448.8916" y2="468.8916"/><polygon fill="#0969DA" points="486.0654,458.8916,490.0654,468.8916,494.0654,458.8916,490.0654,462.8916" style="stroke:#0969DA;stroke-width:1;"/><line style="stroke:#0969DA;stroke-width:1;" x1="672.7988" x2="672.7988" y1="448.8916" y2="468.8916"/><polygon fill="#0969DA" points="668.7988,458.8916,672.7988,468.8916,676.7988,458.8916,672.7988,462.8916" style="stroke:#0969DA;stroke-width:1;"/><line style="stroke:#0969DA;stroke-width:1;" x1="869.8672" x2="869.8672" y1="395.0928" y2="415.0928"/><polygon fill="#0969DA" points="865.8672,405.0928,869.8672,415.0928,873.8672,405.0928,869.8672,409.0928" style="stroke:#0969DA;stroke-width:1;"/><line style="stroke:#0969DA;stroke-width:1;" x1="1099.9355" x2="1099.9355" y1="395.0928" y2="415.0928"/><polygon fill="#0969DA" points="1095.9355,405.0928,1099.9355,415.0928,1103.9355,405.0928,1099.9355,409.0928" style="stroke:#0969DA;stroke-width:1;"/><line style="stroke:#0969DA;stroke-width:1;" x1="1330.3438" x2="1330.3438" y1="395.0928" y2="415.0928"/><polygon fill="#0969DA" points="1326.3438,405.0928,1330.3438,415.0928,1334.3438,405.0928,1330.3438,409.0928" style="stroke:#0969DA;stroke-width:1;"/><line style="stroke:#0969DA;stroke-width:1;" x1="1560.7578" x2="1560.7578" y1="395.0928" y2="415.0928"/><polygon fill="#0969DA" points="1556.7578,405.0928,1560.7578,415.0928,1564.7578,405.0928,1560.7578,409.0928" style="stroke:#0969DA;stroke-width:1;"/><line style="stroke:#0969DA;stroke-width:1;" x1="1786.1738" x2="1786.1738" y1="395.0928" y2="415.0928"/><polygon fill="#0969DA" points="1782.1738,405.0928,1786.1738,415.0928,1790.1738,405.0928,1786.1738,409.0928" style="stroke:#0969DA;stroke-width:1;"/><line style="stroke:#0969DA;stroke-width:1;" x1="2009.2461" x2="2009.2461" y1="395.0928" y2="415.0928"/><polygon fill="#0969DA" points="2005.2461,405.0928,2009.2461,415.0928,2013.2461,405.0928,2009.2461,409.0928" style="stroke:#0969DA;stroke-width:1;"/><line style="stroke:#0969DA;stroke-width:1;" x1="869.8672" x2="869.8672" y1="448.8916" y2="468.8916"/><polygon fill="#0969DA" points="865.8672,458.8916,869.8672,468.8916,873.8672,458.8916,869.8672,462.8916" style="stroke:#0969DA;stroke-width:1;"/><line style="stroke:#0969DA;stroke-width:1;" x1="1099.9355" x2="1099.9355" y1="448.8916" y2="468.8916"/><polygon fill="#0969DA" points="1095.9355,458.8916,1099.9355,468.8916,1103.9355,458.8916,1099.9355,462.8916" style="stroke:#0969DA;stroke-width:1;"/><line style="stroke:#0969DA;stroke-width:1;" x1="1330.3438" x2="1330.3438" y1="448.8916" y2="468.8916"/><polygon fill="#0969DA" points="1326.3438,458.8916,1330.3438,468.8916,1334.3438,458.8916,1330.3438,462.8916" style="stroke:#0969DA;stroke-width:1;"/><line style="stroke:#0969DA;stroke-width:1;" x1="1560.7578" x2="1560.7578" y1="448.8916" y2="468.8916"/><polygon fill="#0969DA" points="1556.7578,458.8916,1560.7578,468.8916,1564.7578,458.8916,1560.7578,462.8916" style="stroke:#0969DA;stroke-width:1;"/><line style="stroke:#0969DA;stroke-width:1;" x1="1786.1738" x2="1786.1738" y1="448.8916" y2="468.8916"/><polygon fill="#0969DA" points="1782.1738,458.8916,1786.1738,468.8916,1790.1738,458.8916,1786.1738,462.8916" style="stroke:#0969DA;stroke-width:1;"/><line style="stroke:#0969DA;stroke-width:1;" x1="2009.2461" x2="2009.2461" y1="448.8916" y2="468.8916"/><polygon fill="#0969DA" points="2005.2461,458.8916,2009.2461,468.8916,2013.2461,458.8916,2009.2461,462.8916" style="stroke:#0969DA;stroke-width:1;"/><line style="stroke:#0969DA;stroke-width:1;" x1="908.3623" x2="473.3838" y1="367.0928" y2="367.0928"/><line style="stroke:#0969DA;stroke-width:1;" x1="473.3838" x2="473.3838" y1="367.0928" y2="389.0928"/><polygon fill="#0969DA" points="469.3838,379.0928,473.3838,389.0928,477.3838,379.0928,473.3838,383.0928" style="stroke:#0969DA;stroke-width:1;"/><line style="stroke:#0969DA;stroke-width:1;" x1="1035.0889" x2="1451.0527" y1="367.0928" y2="367.0928"/><line style="stroke:#0969DA;stroke-width:1;" x1="1451.0527" x2="1451.0527" y1="367.0928" y2="389.0928"/><polygon fill="#0969DA" points="1447.0527,379.0928,1451.0527,389.0928,1455.0527,379.0928,1451.0527,383.0928" style="stroke:#0969DA;stroke-width:1;"/><line style="stroke:#0969DA;stroke-width:1;" x1="473.3838" x2="473.3838" y1="474.8916" y2="492.8916"/><line style="stroke:#0969DA;stroke-width:1;" x1="473.3838" x2="959.7256" y1="492.8916" y2="492.8916"/><polygon fill="#0969DA" points="949.7256,488.8916,959.7256,492.8916,949.7256,496.8916,953.7256,492.8916" style="stroke:#0969DA;stroke-width:1;"/><line style="stroke:#0969DA;stroke-width:1;" x1="1451.0527" x2="1451.0527" y1="474.8916" y2="492.8916"/><line style="stroke:#0969DA;stroke-width:1;" x1="1451.0527" x2="983.7256" y1="492.8916" y2="492.8916"/><polygon fill="#0969DA" points="993.7256,488.8916,983.7256,492.8916,993.7256,496.8916,989.7256,492.8916" style="stroke:#0969DA;stroke-width:1;"/><line style="stroke:#0969DA;stroke-width:1;" x1="971.7256" x2="971.7256" y1="335.0928" y2="355.0928"/><polygon fill="#0969DA" points="967.7256,345.0928,971.7256,355.0928,975.7256,345.0928,971.7256,349.0928" style="stroke:#0969DA;stroke-width:1;"/><line style="stroke:#0969DA;stroke-width:1;" x1="971.7256" x2="971.7256" y1="504.8916" y2="524.8916"/><polygon fill="#0969DA" points="967.7256,514.8916,971.7256,524.8916,975.7256,514.8916,971.7256,518.8916" style="stroke:#0969DA;stroke-width:1;"/><line style="stroke:#0969DA;stroke-width:1;" x1="971.7256" x2="971.7256" y1="558.6904" y2="578.6904"/><polygon fill="#0969DA" points="967.7256,568.6904,971.7256,578.6904,975.7256,568.6904,971.7256,572.6904" style="stroke:#0969DA;stroke-width:1;"/><line style="stroke:#0969DA;stroke-width:1;" x1="971.7256" x2="971.7256" y1="612.4893" y2="632.4893"/><polygon fill="#0969DA" points="967.7256,622.4893,971.7256,632.4893,975.7256,622.4893,971.7256,626.4893" style="stroke:#0969DA;stroke-width:1;"/><line style="stroke:#0969DA;stroke-width:1;" x1="971.7256" x2="971.7256" y1="666.2881" y2="686.2881"/><polygon fill="#0969DA" points="967.7256,676.2881,971.7256,686.2881,975.7256,676.2881,971.7256,680.2881" style="stroke:#0969DA;stroke-width:1;"/><line style="stroke:#0969DA;stroke-width:1;" x1="971.7256" x2="971.7256" y1="720.0869" y2="740.0869"/><polygon fill="#0969DA" points="967.7256,730.0869,971.7256,740.0869,975.7256,730.0869,971.7256,734.0869" style="stroke:#0969DA;stroke-width:1;"/><line style="stroke:#0969DA;stroke-width:1;" x1="971.7256" x2="971.7256" y1="773.8857" y2="793.8857"/><polygon fill="#0969DA" points="967.7256,783.8857,971.7256,793.8857,975.7256,783.8857,971.7256,787.8857" style="stroke:#0969DA;stroke-width:1;"/><line style="stroke:#0969DA;stroke-width:1;" x1="394.4419" x2="96.6348" y1="225.4951" y2="225.4951"/><line style="stroke:#0969DA;stroke-width:1;" x1="96.6348" x2="96.6348" y1="225.4951" y2="247.4951"/><polygon fill="#0969DA" points="92.6348,237.4951,96.6348,247.4951,100.6348,237.4951,96.6348,241.4951" style="stroke:#0969DA;stroke-width:1;"/><line style="stroke:#0969DA;stroke-width:1;" x1="665.9185" x2="971.7256" y1="225.4951" y2="225.4951"/><line style="stroke:#0969DA;stroke-width:1;" x1="971.7256" x2="971.7256" y1="225.4951" y2="247.4951"/><polygon fill="#0969DA" points="967.7256,237.4951,971.7256,247.4951,975.7256,237.4951,971.7256,241.4951" style="stroke:#0969DA;stroke-width:1;"/><line style="stroke:#0969DA;stroke-width:1;" x1="530.1802" x2="530.1802" y1="193.4951" y2="213.4951"/><polygon fill="#0969DA" points="526.1802,203.4951,530.1802,213.4951,534.1802,203.4951,530.1802,207.4951" style="stroke:#0969DA;stroke-width:1;"/><?plantuml-src dLDDRzD04BtxLmoLGCaXBT-7H0LLRYe50GqrBHUaQhkU9AEkPyrwDctuzSpQJWC2H8GFMQypxysycJUFYAsB9SBXuT6rzLNb-KXMME4XnSfbcP0uX1Chj2RPm2cPPJ0LZE0abYG-m9ngTCG8qtkqKSXpbZLYWcJPU1lJe4Ch3PXqXygN-9K7Pz4vE89vGFrzJ-jqd14RDvnauqyHmmPi305Pm7gMOAo04YznacMqWC6iWO3V8ZQ2PSi9Pct8cHkjTw59j-0MytO8gefXm7wOWJxZOkNljWXoITkT2Koyd7J_drBJKXrSHEx47i1D5F7S1JJYwmnTWp3OODEJpfY4ZAFls44A36kos5EUeTWLu5ghQc0HV0KtpjjRAB5sVdFTNSI3CwAgL6P29QaVahhZuzIhqThBJir3vlIewDk7IvimNw4ovePBAfKJSX-r8OCtn_1yEFa51sPfYF-4_h8YqG4t0dDVnrHQkI-qI9rFTHVJpvVp7Ggvt1NRjV3d-QTJlV5lOQS-fWbTQKTWK4ppqTDd_o5hoXffrV6fDItB_itf5FxEy69lXjrmhjGt-g8Br9Eyt9la_8unZ3ox3PoK5Mq9NkrDqBQmSyUC1PSXxKD7ydhujy5fuOlEe-FSLpMvtlGNMFiWlUTpusph6ZMsw6oJVHju0X83-oZmk8-RbTezMkWM4giOzO1GSWJxKVUbZxkissQrYU1ord-TShkhkQytqALNwBlY_ACUUN45UByhgLlSjlWV?></g></svg>