<svg xmlns="http://www.w3.org/2000/svg" xmlns:xlink="http://www.w3.org/1999/xlink" contentStyleType="text/css" data-diagram-type="ACTIVITY" height="480px" preserveAspectRatio="none" style="width:1070px;height:480px;background:#FFFFFF;" version="1.1" viewBox="0 0 1070 480" width="1070px" zoomAndPan="magnify"><?plantuml 1.2026.3?><defs/><g><g class="title" data-source-line="3"><text fill="#1F3A68" font-family="Arial" font-size="14" font-weight="700" lengthAdjust="spacing" textLength="318.2061" x="375.057" y="33.1318">Activity Diagram - Pre-vote Validation (5 Levels)</text></g><ellipse cx="242.7278" cy="62.0986" fill="#0969DA" rx="10" ry="10" style="stroke:#222222;stroke-width:1;"/><rect fill="#F4F7FB" height="33.7988" rx="3" ry="3" style="stroke:#C4D3E8;stroke-width:0.5;" width="154.7188" x="165.3684" y="92.0986"/><text fill="#1F3A68" font-family="Arial" font-size="12" lengthAdjust="spacing" textLength="134.7188" x="175.3684" y="113.3545">Voter submits private key</text><polygon fill="#F4F7FB" points="190.0374,145.8975,295.4182,145.8975,307.4182,157.8975,295.4182,169.8975,190.0374,169.8975,178.0374,157.8975,190.0374,145.8975" style="stroke:#C4D3E8;stroke-width:0.5;"/><text fill="#1F3A68" font-family="Arial" font-size="12" lengthAdjust="spacing" textLength="105.3809" x="190.0374" y="162.2539">Is private key valid?</text><text fill="#7286A5" font-family="Arial" font-size="10" lengthAdjust="spacing" textLength="11.123" x="166.9143" y="155.7783">no</text><text fill="#7286A5" font-family="Arial" font-size="10" lengthAdjust="spacing" textLength="15.5615" x="307.4182" y="155.7783">yes</text><rect fill="#F4F7FB" height="33.7988" rx="3" ry="3" style="stroke:#C4D3E8;stroke-width:0.5;" width="136.7188" x="16" y="179.8975"/><text fill="#1F3A68" font-family="Arial" font-size="12" lengthAdjust="spacing" textLength="116.7188" x="26" y="201.1533">Return INVALID_KEY</text><ellipse cx="84.3594" cy="243.6963" fill="none" rx="10" ry="10" style="stroke:#0969DA;stroke-width:1.5;"/><line style="stroke:#0969DA;stroke-width:2.5;" x1="78.1722" x2="90.5466" y1="237.5091" y2="249.8835"/><line style="stroke:#0969DA;stroke-width:2.5;" x1="90.5466" x2="78.1722" y1="237.5091" y2="249.8835"/><rect fill="#F4F7FB" height="33.7988" rx="3" ry="3" style="stroke:#C4D3E8;stroke-width:0.5;" width="157.3906" x="334.4426" y="179.8975"/><text fill="#1F3A68" font-family="Arial" font-size="12" lengthAdjust="spacing" textLength="137.3906" x="344.4426" y="201.1533">Derive Ethereum Address</text><polygon fill="#F4F7FB" points="356.1028,233.6963,470.1731,233.6963,482.1731,245.6963,470.1731,257.6963,356.1028,257.6963,344.1028,245.6963,356.1028,233.6963" style="stroke:#C4D3E8;stroke-width:0.5;"/><text fill="#1F3A68" font-family="Arial" font-size="12" lengthAdjust="spacing" textLength="114.0703" x="356.1028" y="250.0527">Is contract deployed?</text><text fill="#7286A5" font-family="Arial" font-size="10" lengthAdjust="spacing" textLength="11.123" x="332.9797" y="243.5771">no</text><text fill="#7286A5" font-family="Arial" font-size="10" lengthAdjust="spacing" textLength="15.5615" x="482.1731" y="243.5771">yes</text><rect fill="#F4F7FB" height="33.7988" rx="3" ry="3" style="stroke:#C4D3E8;stroke-width:0.5;" width="150.6875" x="162.7188" y="267.6963"/><text fill="#1F3A68" font-family="Arial" font-size="12" lengthAdjust="spacing" textLength="130.6875" x="172.7188" y="288.9521">Return NO_CONTRACT</text><ellipse cx="238.0625" cy="346.4951" fill="none" rx="10" ry="10" style="stroke:#0969DA;stroke-width:1.5;"/><line style="stroke:#0969DA;stroke-width:2.5;" x1="231.8753" x2="244.2497" y1="340.3079" y2="352.6823"/><line style="stroke:#0969DA;stroke-width:2.5;" x1="244.2497" x2="231.8753" y1="340.3079" y2="352.6823"/><polygon fill="#F4F7FB" points="535.4744,267.6963,656.8689,267.6963,668.8689,279.6963,656.8689,291.6963,535.4744,291.6963,523.4744,279.6963,535.4744,267.6963" style="stroke:#C4D3E8;stroke-width:0.5;"/><text fill="#1F3A68" font-family="Arial" font-size="12" lengthAdjust="spacing" textLength="121.3945" x="535.4744" y="284.0527">Is address whitelisted?</text><text fill="#7286A5" font-family="Arial" font-size="10" lengthAdjust="spacing" textLength="11.123" x="512.3513" y="277.5771">no</text><text fill="#7286A5" font-family="Arial" font-size="10" lengthAdjust="spacing" textLength="15.5615" x="668.8689" y="277.5771">yes</text><rect fill="#F4F7FB" height="33.7988" rx="3" ry="3" style="stroke:#C4D3E8;stroke-width:0.5;" width="172.0273" x="335.448" y="301.6963"/><text fill="#1F3A68" font-family="Arial" font-size="12" lengthAdjust="spacing" textLength="152.0273" x="345.448" y="322.9521">Return NOT_WHITELISTED</text><ellipse cx="421.4617" cy="380.4951" fill="none" rx="10" ry="10" style="stroke:#0969DA;stroke-width:1.5;"/><line style="stroke:#0969DA;stroke-width:2.5;" x1="415.2745" x2="427.6489" y1="374.3079" y2="386.6823"/><line style="stroke:#0969DA;stroke-width:2.5;" x1="427.6489" x2="415.2745" y1="374.3079" y2="386.6823"/><polygon fill="#F4F7FB" points="696.1716,301.6963,845.5916,301.6963,857.5916,313.6963,845.5916,325.6963,696.1716,325.6963,684.1716,313.6963,696.1716,301.6963" style="stroke:#C4D3E8;stroke-width:0.5;"/><text fill="#1F3A68" font-family="Arial" font-size="12" lengthAdjust="spacing" textLength="149.4199" x="696.1716" y="318.0527">Has address already voted?</text><text fill="#7286A5" font-family="Arial" font-size="10" lengthAdjust="spacing" textLength="15.5615" x="668.6101" y="311.5771">yes</text><text fill="#7286A5" font-family="Arial" font-size="10" lengthAdjust="spacing" textLength="11.123" x="857.5916" y="311.5771">no</text><rect fill="#F4F7FB" height="33.7988" rx="3" ry="3" style="stroke:#C4D3E8;stroke-width:0.5;" width="163.3848" x="537.4753" y="335.6963"/><text fill="#1F3A68" font-family="Arial" font-size="12" lengthAdjust="spacing" textLength="143.3848" x="547.4753" y="356.9521">Return ALREADY_VOTED</text><ellipse cx="619.1677" cy="414.4951" fill="none" rx="10" ry="10" style="stroke:#0969DA;stroke-width:1.5;"/><line style="stroke:#0969DA;stroke-width:2.5;" x1="612.9805" x2="625.3549" y1="408.3079" y2="420.6823"/><line style="stroke:#0969DA;stroke-width:2.5;" x1="625.3549" x2="612.9805" y1="408.3079" y2="420.6823"/><polygon fill="#F4F7FB" points="855.2156,335.6963,989.9753,335.6963,1001.9753,347.6963,989.9753,359.6963,855.2156,359.6963,843.2156,347.6963,855.2156,335.6963" style="stroke:#C4D3E8;stroke-width:0.5;"/><text fill="#1F3A68" font-family="Arial" font-size="12" lengthAdjust="spacing" textLength="134.7598" x="855.2156" y="352.0527">Balance &gt;= 0.0003 ETH?</text><text fill="#7286A5" font-family="Arial" font-size="10" lengthAdjust="spacing" textLength="11.123" x="832.0925" y="345.5771">no</text><text fill="#7286A5" font-family="Arial" font-size="10" lengthAdjust="spacing" textLength="15.5615" x="1001.9753" y="345.5771">yes</text><rect fill="#F4F7FB" height="33.7988" rx="3" ry="3" style="stroke:#C4D3E8;stroke-width:0.5;" width="204.7109" x="730.8601" y="369.6963"/><text fill="#1F3A68" font-family="Arial" font-size="12" lengthAdjust="spacing" textLength="184.7109" x="740.8601" y="390.9521">Return INSUFFICIENT_BALANCE</text><ellipse cx="833.2156" cy="448.4951" fill="none" rx="10" ry="10" style="stroke:#0969DA;stroke-width:1.5;"/><line style="stroke:#0969DA;stroke-width:2.5;" x1="827.0284" x2="839.4028" y1="442.3079" y2="454.6823"/><line style="stroke:#0969DA;stroke-width:2.5;" x1="839.4028" x2="827.0284" y1="442.3079" y2="454.6823"/><rect fill="#F4F7FB" height="33.7988" rx="3" ry="3" style="stroke:#C4D3E8;stroke-width:0.5;" width="76.6895" x="973.6306" y="369.6963"/><text fill="#1F3A68" font-family="Arial" font-size="12" lengthAdjust="spacing" textLength="56.6895" x="983.6306" y="390.9521">Return OK</text><ellipse cx="1011.9753" cy="449.4951" fill="none" rx="11" ry="11" style="stroke:#222222;stroke-width:1;"/><ellipse cx="1011.9753" cy="449.4951" fill="#222222" rx="6" ry="6" style="stroke:#222222;stroke-width:1;"/><line style="stroke:#0969DA;stroke-width:1;" x1="242.7278" x2="242.7278" y1="72.0986" y2="92.0986"/><polygon fill="#0969DA" points="238.7278,82.0986,242.7278,92.0986,246.7278,82.0986,242.7278,86.0986" style="stroke:#0969DA;stroke-width:1;"/><line style="stroke:#0969DA;stroke-width:1;" x1="84.3594" x2="84.3594" y1="213.6963" y2="233.6963"/><polygon fill="#0969DA" points="80.3594,223.6963,84.3594,233.6963,88.3594,223.6963,84.3594,227.6963" style="stroke:#0969DA;stroke-width:1;"/><line style="stroke:#0969DA;stroke-width:1;" x1="238.0625" x2="238.0625" y1="301.4951" y2="336.4951"/><polygon fill="#0969DA" points="234.0625,326.4951,238.0625,336.4951,242.0625,326.4951,238.0625,330.4951" style="stroke:#0969DA;stroke-width:1;"/><line style="stroke:#0969DA;stroke-width:1;" x1="421.4617" x2="421.4617" y1="335.4951" y2="370.4951"/><polygon fill="#0969DA" points="417.4617,360.4951,421.4617,370.4951,425.4617,360.4951,421.4617,364.4951" style="stroke:#0969DA;stroke-width:1;"/><line style="stroke:#0969DA;stroke-width:1;" x1="619.1677" x2="619.1677" y1="369.4951" y2="404.4951"/><polygon fill="#0969DA" points="615.1677,394.4951,619.1677,404.4951,623.1677,394.4951,619.1677,398.4951" style="stroke:#0969DA;stroke-width:1;"/><line style="stroke:#0969DA;stroke-width:1;" x1="833.2156" x2="833.2156" y1="403.4951" y2="438.4951"/><polygon fill="#0969DA" points="829.2156,428.4951,833.2156,438.4951,837.2156,428.4951,833.2156,432.4951" style="stroke:#0969DA;stroke-width:1;"/><line style="stroke:#0969DA;stroke-width:1;" x1="1011.9753" x2="1011.9753" y1="403.4951" y2="438.4951"/><polygon fill="#0969DA" points="1007.9753,428.4951,1011.9753,438.4951,1015.9753,428.4951,1011.9753,432.4951" style="stroke:#0969DA;stroke-width:1;"/><line style="stroke:#0969DA;stroke-width:1;" x1="843.2156" x2="833.2156" y1="347.6963" y2="347.6963"/><line style="stroke:#0969DA;stroke-width:1;" x1="833.2156" x2="833.2156" y1="347.6963" y2="369.6963"/><polygon fill="#0969DA" points="829.2156,359.6963,833.2156,369.6963,837.2156,359.6963,833.2156,363.6963" style="stroke:#0969DA;stroke-width:1;"/><line style="stroke:#0969DA;stroke-width:1;" x1="1001.9753" x2="1011.9753" y1="347.6963" y2="347.6963"/><line style="stroke:#0969DA;stroke-width:1;" x1="1011.9753" x2="1011.9753" y1="347.6963" y2="369.6963"/><polygon fill="#0969DA" points="1007.9753,359.6963,1011.9753,369.6963,1015.9753,359.6963,1011.9753,363.6963" style="stroke:#0969DA;stroke-width:1;"/><line style="stroke:#0969DA;stroke-width:1;" x1="684.1716" x2="619.1677" y1="313.6963" y2="313.6963"/><line style="stroke:#0969DA;stroke-width:1;" x1="619.1677" x2="619.1677" y1="313.6963" y2="335.6963"/><polygon fill="#0969DA" points="615.1677,325.6963,619.1677,335.6963,623.1677,325.6963,619.1677,329.6963" style="stroke:#0969DA;stroke-width:1;"/><line style="stroke:#0969DA;stroke-width:1;" x1="857.5916" x2="922.5955" y1="313.6963" y2="313.6963"/><line style="stroke:#0969DA;stroke-width:1;" x1="922.5955" x2="922.5955" y1="313.6963" y2="335.6963"/><polygon fill="#0969DA" points="918.5955,325.6963,922.5955,335.6963,926.5955,325.6963,922.5955,329.6963" style="stroke:#0969DA;stroke-width:1;"/><line style="stroke:#0969DA;stroke-width:1;" x1="523.4744" x2="421.4617" y1="279.6963" y2="279.6963"/><line style="stroke:#0969DA;stroke-width:1;" x1="421.4617" x2="421.4617" y1="279.6963" y2="301.6963"/><polygon fill="#0969DA" points="417.4617,291.6963,421.4617,301.6963,425.4617,291.6963,421.4617,295.6963" style="stroke:#0969DA;stroke-width:1;"/><line style="stroke:#0969DA;stroke-width:1;" x1="668.8689" x2="770.8816" y1="279.6963" y2="279.6963"/><line style="stroke:#0969DA;stroke-width:1;" x1="770.8816" x2="770.8816" y1="279.6963" y2="301.6963"/><polygon fill="#0969DA" points="766.8816,291.6963,770.8816,301.6963,774.8816,291.6963,770.8816,295.6963" style="stroke:#0969DA;stroke-width:1;"/><line style="stroke:#0969DA;stroke-width:1;" x1="344.1028" x2="238.0625" y1="245.6963" y2="245.6963"/><line style="stroke:#0969DA;stroke-width:1;" x1="238.0625" x2="238.0625" y1="245.6963" y2="267.6963"/><polygon fill="#0969DA" points="234.0625,257.6963,238.0625,267.6963,242.0625,257.6963,238.0625,261.6963" style="stroke:#0969DA;stroke-width:1;"/><line style="stroke:#0969DA;stroke-width:1;" x1="482.1731" x2="596.1716" y1="245.6963" y2="245.6963"/><line style="stroke:#0969DA;stroke-width:1;" x1="596.1716" x2="596.1716" y1="245.6963" y2="267.6963"/><polygon fill="#0969DA" points="592.1716,257.6963,596.1716,267.6963,600.1716,257.6963,596.1716,261.6963" style="stroke:#0969DA;stroke-width:1;"/><line style="stroke:#0969DA;stroke-width:1;" x1="413.1379" x2="413.1379" y1="213.6963" y2="233.6963"/><polygon fill="#0969DA" points="409.1379,223.6963,413.1379,233.6963,417.1379,223.6963,413.1379,227.6963" style="stroke:#0969DA;stroke-width:1;"/><line style="stroke:#0969DA;stroke-width:1;" x1="178.0374" x2="84.3594" y1="157.8975" y2="157.8975"/><line style="stroke:#0969DA;stroke-width:1;" x1="84.3594" x2="84.3594" y1="157.8975" y2="179.8975"/><polygon fill="#0969DA" points="80.3594,169.8975,84.3594,179.8975,88.3594,169.8975,84.3594,173.8975" style="stroke:#0969DA;stroke-width:1;"/><line style="stroke:#0969DA;stroke-width:1;" x1="307.4182" x2="413.1379" y1="157.8975" y2="157.8975"/><line style="stroke:#0969DA;stroke-width:1;" x1="413.1379" x2="413.1379" y1="157.8975" y2="179.8975"/><polygon fill="#0969DA" points="409.1379,169.8975,413.1379,179.8975,417.1379,169.8975,413.1379,173.8975" style="stroke:#0969DA;stroke-width:1;"/><line style="stroke:#0969DA;stroke-width:1;" x1="242.7278" x2="242.7278" y1="125.8975" y2="145.8975"/><polygon fill="#0969DA" points="238.7278,135.8975,242.7278,145.8975,246.7278,135.8975,242.7278,139.8975" style="stroke:#0969DA;stroke-width:1;"/><?plantuml-src VP3BRi8m44Nt_ehf3XOyfAeRehOA98Y8AAaWfM8LkSbGh3enifrK-VkQLqa2r0i_nZFtt9a7bYUyI17w_K6SY2mJ-K1lCSC-Ap9EY6QQ8zY9PYNJ5JYCVacQGG_U9FPAeH5MbBEKQYPow3o1ZoLorIL4QIer8QELoP6WYi-CQGKxoKfgYhwniWZRGCThnA3SYxrsmLWmShde4Z1hj41To1oyO6NxdXFFtRLr-C0y9GQ7qAbGdN8TD7e8hf6GM6HWfwb4fOu59sGYSYrfeY757HSLNYFhs22C9s4GBUn9PFrzxj67iuclGUWH33zRff4pfUzWcgWe_fXvaUjxoyXrh4RI6Na7UqRFw8LDkKIQchcAElsgh6x1zXUkxQpZLNXbe6tYOgJTpzdBc7AQ9mWlpp3i3uV3Ht2ZsTqfjArumV9zElKcdXj4yTZsxM3YMZShsgx-6L4R4ivlIoejThUwPnjoFt9v7M_7_HS0?></g></svg>