<svg xmlns="http://www.w3.org/2000/svg" xmlns:xlink="http://www.w3.org/1999/xlink" contentStyleType="text/css" data-diagram-type="ACTIVITY" height="480px" preserveAspectRatio="none" style="width:1137px;height:480px;background:#FFFFFF;" version="1.1" viewBox="0 0 1137 480" width="1137px" zoomAndPan="magnify">
<!-- MYCELIUM-BG -->
<rect x="0" y="0" width="1137" height="480" fill="white"/>
<?plantuml 1.2026.3?><defs/><g><g class="title" data-source-line="3"><text fill="#1F3A68" font-family="Arial" font-size="14" font-weight="700" lengthAdjust="spacing" textLength="478.29" x="328.8453" y="33.1318">&#1044;&#1080;&#1072;&#1075;&#1088;&#1072;&#1084;&#1084;&#1072; &#1072;&#1082;&#1090;&#1080;&#1074;&#1085;&#1086;&#1089;&#1090;&#1080;: &#1042;&#1072;&#1083;&#1080;&#1076;&#1072;&#1094;&#1080;&#1103; &#1087;&#1077;&#1088;&#1077;&#1076; &#1075;&#1086;&#1083;&#1086;&#1089;&#1086;&#1074;&#1072;&#1085;&#1080;&#1077;&#1084; (5 &#1091;&#1088;&#1086;&#1074;&#1085;&#1077;&#1081;)</text></g><ellipse cx="276.1342" cy="62.0986" fill="#0969DA" rx="10" ry="10" style="stroke:#222222;stroke-width:1;"/><rect fill="#F4F7FB" height="33.7988" rx="3" ry="3" style="stroke:#C4D3E8;stroke-width:0.5;" width="222.9805" x="164.644" y="92.0986"/><text fill="#1F3A68" font-family="Arial" font-size="12" lengthAdjust="spacing" textLength="202.9805" x="174.644" y="113.3545">&#1048;&#1079;&#1073;&#1080;&#1088;&#1072;&#1090;&#1077;&#1083;&#1100; &#1074;&#1074;&#1086;&#1076;&#1080;&#1090; &#1087;&#1088;&#1080;&#1074;&#1072;&#1090;&#1085;&#1099;&#1081; &#1082;&#1083;&#1102;&#1095;</text><polygon fill="#F4F7FB" points="200.9321,145.8975,351.3364,145.8975,363.3364,157.8975,351.3364,169.8975,200.9321,169.8975,188.9321,157.8975,200.9321,145.8975" style="stroke:#C4D3E8;stroke-width:0.5;"/><text fill="#1F3A68" font-family="Arial" font-size="12" lengthAdjust="spacing" textLength="150.4043" x="200.9321" y="162.2539">&#1055;&#1088;&#1080;&#1074;&#1072;&#1090;&#1085;&#1099;&#1081; &#1082;&#1083;&#1102;&#1095; &#1074;&#1072;&#1083;&#1080;&#1076;&#1077;&#1085;?</text><text fill="#7286A5" font-family="Arial" font-size="10" lengthAdjust="spacing" textLength="15.6641" x="173.268" y="155.7783">&#1085;&#1077;&#1090;</text><text fill="#7286A5" font-family="Arial" font-size="10" lengthAdjust="spacing" textLength="11.3965" x="363.3364" y="155.7783">&#1076;&#1072;</text><rect fill="#F4F7FB" height="33.7988" rx="3" ry="3" style="stroke:#C4D3E8;stroke-width:0.5;" width="146.0996" x="16" y="179.8975"/><text fill="#1F3A68" font-family="Arial" font-size="12" lengthAdjust="spacing" textLength="126.0996" x="26" y="201.1533">&#1042;&#1086;&#1079;&#1074;&#1088;&#1072;&#1090; INVALID_KEY</text><ellipse cx="89.0498" cy="243.6963" fill="none" rx="10" ry="10" style="stroke:#0969DA;stroke-width:1.5;"/><line style="stroke:#0969DA;stroke-width:2.5;" x1="82.8626" x2="95.237" y1="237.5091" y2="249.8835"/><line style="stroke:#0969DA;stroke-width:2.5;" x1="95.237" x2="82.8626" y1="237.5091" y2="249.8835"/><rect fill="#F4F7FB" height="33.7988" rx="3" ry="3" style="stroke:#C4D3E8;stroke-width:0.5;" width="188.3164" x="369.0604" y="179.8975"/><text fill="#1F3A68" font-family="Arial" font-size="12" lengthAdjust="spacing" textLength="168.3164" x="379.0604" y="201.1533">&#1042;&#1099;&#1095;&#1080;&#1089;&#1083;&#1077;&#1085;&#1080;&#1077; Ethereum-&#1072;&#1076;&#1088;&#1077;&#1089;&#1072;</text><polygon fill="#F4F7FB" points="404.9266,233.6963,521.5106,233.6963,533.5106,245.6963,521.5106,257.6963,404.9266,257.6963,392.9266,245.6963,404.9266,233.6963" style="stroke:#C4D3E8;stroke-width:0.5;"/><text fill="#1F3A68" font-family="Arial" font-size="12" lengthAdjust="spacing" textLength="116.584" x="404.9266" y="250.0527">&#1050;&#1086;&#1085;&#1090;&#1088;&#1072;&#1082;&#1090; &#1088;&#1072;&#1079;&#1074;&#1077;&#1088;&#1085;&#1091;&#1090;?</text><text fill="#7286A5" font-family="Arial" font-size="10" lengthAdjust="spacing" textLength="15.6641" x="377.2626" y="243.5771">&#1085;&#1077;&#1090;</text><text fill="#7286A5" font-family="Arial" font-size="10" lengthAdjust="spacing" textLength="11.3965" x="533.5106" y="243.5771">&#1076;&#1072;</text><rect fill="#F4F7FB" height="33.7988" rx="3" ry="3" style="stroke:#C4D3E8;stroke-width:0.5;" width="160.0684" x="192.0996" y="267.6963"/><text fill="#1F3A68" font-family="Arial" font-size="12" lengthAdjust="spacing" textLength="140.0684" x="202.0996" y="288.9521">&#1042;&#1086;&#1079;&#1074;&#1088;&#1072;&#1090; NO_CONTRACT</text><ellipse cx="272.1338" cy="346.4951" fill="none" rx="10" ry="10" style="stroke:#0969DA;stroke-width:1.5;"/><line style="stroke:#0969DA;stroke-width:2.5;" x1="265.9466" x2="278.321" y1="340.3079" y2="352.6823"/><line style="stroke:#0969DA;stroke-width:2.5;" x1="278.321" x2="265.9466" y1="340.3079" y2="352.6823"/><polygon fill="#F4F7FB" points="601.2402,267.6963,697.9902,267.6963,709.9902,279.6963,697.9902,291.6963,601.2402,291.6963,589.2402,279.6963,601.2402,267.6963" style="stroke:#C4D3E8;stroke-width:0.5;"/><text fill="#1F3A68" font-family="Arial" font-size="12" lengthAdjust="spacing" textLength="96.75" x="601.2402" y="284.0527">&#1040;&#1076;&#1088;&#1077;&#1089; &#1074; whitelist?</text><text fill="#7286A5" font-family="Arial" font-size="10" lengthAdjust="spacing" textLength="15.6641" x="573.5762" y="277.5771">&#1085;&#1077;&#1090;</text><text fill="#7286A5" font-family="Arial" font-size="10" lengthAdjust="spacing" textLength="11.3965" x="709.9902" y="277.5771">&#1076;&#1072;</text><rect fill="#F4F7FB" height="33.7988" rx="3" ry="3" style="stroke:#C4D3E8;stroke-width:0.5;" width="181.4082" x="382.168" y="301.6963"/><text fill="#1F3A68" font-family="Arial" font-size="12" lengthAdjust="spacing" textLength="161.4082" x="392.168" y="322.9521">&#1042;&#1086;&#1079;&#1074;&#1088;&#1072;&#1090; NOT_WHITELISTED</text><ellipse cx="472.8721" cy="380.4951" fill="none" rx="10" ry="10" style="stroke:#0969DA;stroke-width:1.5;"/><line style="stroke:#0969DA;stroke-width:2.5;" x1="466.6849" x2="479.0593" y1="374.3079" y2="386.6823"/><line style="stroke:#0969DA;stroke-width:2.5;" x1="479.0593" x2="466.6849" y1="374.3079" y2="386.6823"/><polygon fill="#F4F7FB" points="786.155,301.6963,875.9382,301.6963,887.9382,313.6963,875.9382,325.6963,786.155,325.6963,774.155,313.6963,786.155,301.6963" style="stroke:#C4D3E8;stroke-width:0.5;"/><text fill="#1F3A68" font-family="Arial" font-size="12" lengthAdjust="spacing" textLength="89.7832" x="786.155" y="318.0527">&#1059;&#1078;&#1077; &#1075;&#1086;&#1083;&#1086;&#1089;&#1086;&#1074;&#1072;&#1083;?</text><text fill="#7286A5" font-family="Arial" font-size="10" lengthAdjust="spacing" textLength="11.3965" x="762.7585" y="311.5771">&#1076;&#1072;</text><text fill="#7286A5" font-family="Arial" font-size="10" lengthAdjust="spacing" textLength="15.6641" x="887.9382" y="311.5771">&#1085;&#1077;&#1090;</text><rect fill="#F4F7FB" height="33.7988" rx="3" ry="3" style="stroke:#C4D3E8;stroke-width:0.5;" width="172.7656" x="588.8879" y="335.6963"/><text fill="#1F3A68" font-family="Arial" font-size="12" lengthAdjust="spacing" textLength="152.7656" x="598.8879" y="356.9521">&#1042;&#1086;&#1079;&#1074;&#1088;&#1072;&#1090; ALREADY_VOTED</text><ellipse cx="675.2708" cy="414.4951" fill="none" rx="10" ry="10" style="stroke:#0969DA;stroke-width:1.5;"/><line style="stroke:#0969DA;stroke-width:2.5;" x1="669.0836" x2="681.4579" y1="408.3079" y2="420.6823"/><line style="stroke:#0969DA;stroke-width:2.5;" x1="681.4579" x2="669.0836" y1="408.3079" y2="420.6823"/><polygon fill="#F4F7FB" points="920.6995,335.6963,1052.9456,335.6963,1064.9456,347.6963,1052.9456,359.6963,920.6995,359.6963,908.6995,347.6963,920.6995,335.6963" style="stroke:#C4D3E8;stroke-width:0.5;"/><text fill="#1F3A68" font-family="Arial" font-size="12" lengthAdjust="spacing" textLength="132.2461" x="920.6995" y="352.0527">&#1041;&#1072;&#1083;&#1072;&#1085;&#1089; &gt;= 0.0003 ETH?</text><text fill="#7286A5" font-family="Arial" font-size="10" lengthAdjust="spacing" textLength="15.6641" x="893.0354" y="345.5771">&#1085;&#1077;&#1090;</text><text fill="#7286A5" font-family="Arial" font-size="10" lengthAdjust="spacing" textLength="11.3965" x="1064.9456" y="345.5771">&#1076;&#1072;</text><rect fill="#F4F7FB" height="33.7988" rx="3" ry="3" style="stroke:#C4D3E8;stroke-width:0.5;" width="214.0918" x="791.6536" y="369.6963"/><text fill="#1F3A68" font-family="Arial" font-size="12" lengthAdjust="spacing" textLength="194.0918" x="801.6536" y="390.9521">&#1042;&#1086;&#1079;&#1074;&#1088;&#1072;&#1090; INSUFFICIENT_BALANCE</text><ellipse cx="898.6995" cy="448.4951" fill="none" rx="10" ry="10" style="stroke:#0969DA;stroke-width:1.5;"/><line style="stroke:#0969DA;stroke-width:2.5;" x1="892.5123" x2="904.8866" y1="442.3079" y2="454.6823"/><line style="stroke:#0969DA;stroke-width:2.5;" x1="904.8866" x2="892.5123" y1="442.3079" y2="454.6823"/><rect fill="#F4F7FB" height="33.7988" rx="3" ry="3" style="stroke:#C4D3E8;stroke-width:0.5;" width="86.0703" x="1031.9104" y="369.6963"/><text fill="#1F3A68" font-family="Arial" font-size="12" lengthAdjust="spacing" textLength="66.0703" x="1041.9104" y="390.9521">&#1042;&#1086;&#1079;&#1074;&#1088;&#1072;&#1090; OK</text><ellipse cx="1074.9456" cy="449.4951" fill="none" rx="11" ry="11" style="stroke:#222222;stroke-width:1;"/><ellipse cx="1074.9456" cy="449.4951" fill="#222222" rx="6" ry="6" style="stroke:#222222;stroke-width:1;"/><line style="stroke:#0969DA;stroke-width:1;" x1="276.1342" x2="276.1342" y1="72.0986" y2="92.0986"/><polygon fill="#0969DA" points="272.1342,82.0986,276.1342,92.0986,280.1342,82.0986,276.1342,86.0986" style="stroke:#0969DA;stroke-width:1;"/><line style="stroke:#0969DA;stroke-width:1;" x1="89.0498" x2="89.0498" y1="213.6963" y2="233.6963"/><polygon fill="#0969DA" points="85.0498,223.6963,89.0498,233.6963,93.0498,223.6963,89.0498,227.6963" style="stroke:#0969DA;stroke-width:1;"/><line style="stroke:#0969DA;stroke-width:1;" x1="272.1338" x2="272.1338" y1="301.4951" y2="336.4951"/><polygon fill="#0969DA" points="268.1338,326.4951,272.1338,336.4951,276.1338,326.4951,272.1338,330.4951" style="stroke:#0969DA;stroke-width:1;"/><line style="stroke:#0969DA;stroke-width:1;" x1="472.8721" x2="472.8721" y1="335.4951" y2="370.4951"/><polygon fill="#0969DA" points="468.8721,360.4951,472.8721,370.4951,476.8721,360.4951,472.8721,364.4951" style="stroke:#0969DA;stroke-width:1;"/><line style="stroke:#0969DA;stroke-width:1;" x1="675.2708" x2="675.2708" y1="369.4951" y2="404.4951"/><polygon fill="#0969DA" points="671.2708,394.4951,675.2708,404.4951,679.2708,394.4951,675.2708,398.4951" style="stroke:#0969DA;stroke-width:1;"/><line style="stroke:#0969DA;stroke-width:1;" x1="898.6995" x2="898.6995" y1="403.4951" y2="438.4951"/><polygon fill="#0969DA" points="894.6995,428.4951,898.6995,438.4951,902.6995,428.4951,898.6995,432.4951" style="stroke:#0969DA;stroke-width:1;"/><line style="stroke:#0969DA;stroke-width:1;" x1="1074.9456" x2="1074.9456" y1="403.4951" y2="438.4951"/><polygon fill="#0969DA" points="1070.9456,428.4951,1074.9456,438.4951,1078.9456,428.4951,1074.9456,432.4951" style="stroke:#0969DA;stroke-width:1;"/><line style="stroke:#0969DA;stroke-width:1;" x1="908.6995" x2="898.6995" y1="347.6963" y2="347.6963"/><line style="stroke:#0969DA;stroke-width:1;" x1="898.6995" x2="898.6995" y1="347.6963" y2="369.6963"/><polygon fill="#0969DA" points="894.6995,359.6963,898.6995,369.6963,902.6995,359.6963,898.6995,363.6963" style="stroke:#0969DA;stroke-width:1;"/><line style="stroke:#0969DA;stroke-width:1;" x1="1064.9456" x2="1074.9456" y1="347.6963" y2="347.6963"/><line style="stroke:#0969DA;stroke-width:1;" x1="1074.9456" x2="1074.9456" y1="347.6963" y2="369.6963"/><polygon fill="#0969DA" points="1070.9456,359.6963,1074.9456,369.6963,1078.9456,359.6963,1074.9456,363.6963" style="stroke:#0969DA;stroke-width:1;"/><line style="stroke:#0969DA;stroke-width:1;" x1="774.155" x2="675.2708" y1="313.6963" y2="313.6963"/><line style="stroke:#0969DA;stroke-width:1;" x1="675.2708" x2="675.2708" y1="313.6963" y2="335.6963"/><polygon fill="#0969DA" points="671.2708,325.6963,675.2708,335.6963,679.2708,325.6963,675.2708,329.6963" style="stroke:#0969DA;stroke-width:1;"/><line style="stroke:#0969DA;stroke-width:1;" x1="887.9382" x2="986.8225" y1="313.6963" y2="313.6963"/><line style="stroke:#0969DA;stroke-width:1;" x1="986.8225" x2="986.8225" y1="313.6963" y2="335.6963"/><polygon fill="#0969DA" points="982.8225,325.6963,986.8225,335.6963,990.8225,325.6963,986.8225,329.6963" style="stroke:#0969DA;stroke-width:1;"/><line style="stroke:#0969DA;stroke-width:1;" x1="589.2402" x2="472.8721" y1="279.6963" y2="279.6963"/><line style="stroke:#0969DA;stroke-width:1;" x1="472.8721" x2="472.8721" y1="279.6963" y2="301.6963"/><polygon fill="#0969DA" points="468.8721,291.6963,472.8721,301.6963,476.8721,291.6963,472.8721,295.6963" style="stroke:#0969DA;stroke-width:1;"/><line style="stroke:#0969DA;stroke-width:1;" x1="709.9902" x2="831.0466" y1="279.6963" y2="279.6963"/><line style="stroke:#0969DA;stroke-width:1;" x1="831.0466" x2="831.0466" y1="279.6963" y2="301.6963"/><polygon fill="#0969DA" points="827.0466,291.6963,831.0466,301.6963,835.0466,291.6963,831.0466,295.6963" style="stroke:#0969DA;stroke-width:1;"/><line style="stroke:#0969DA;stroke-width:1;" x1="392.9266" x2="272.1338" y1="245.6963" y2="245.6963"/><line style="stroke:#0969DA;stroke-width:1;" x1="272.1338" x2="272.1338" y1="245.6963" y2="267.6963"/><polygon fill="#0969DA" points="268.1338,257.6963,272.1338,267.6963,276.1338,257.6963,272.1338,261.6963" style="stroke:#0969DA;stroke-width:1;"/><line style="stroke:#0969DA;stroke-width:1;" x1="533.5106" x2="649.6152" y1="245.6963" y2="245.6963"/><line style="stroke:#0969DA;stroke-width:1;" x1="649.6152" x2="649.6152" y1="245.6963" y2="267.6963"/><polygon fill="#0969DA" points="645.6152,257.6963,649.6152,267.6963,653.6152,257.6963,649.6152,261.6963" style="stroke:#0969DA;stroke-width:1;"/><line style="stroke:#0969DA;stroke-width:1;" x1="463.2186" x2="463.2186" y1="213.6963" y2="233.6963"/><polygon fill="#0969DA" points="459.2186,223.6963,463.2186,233.6963,467.2186,223.6963,463.2186,227.6963" style="stroke:#0969DA;stroke-width:1;"/><line style="stroke:#0969DA;stroke-width:1;" x1="188.9321" x2="89.0498" y1="157.8975" y2="157.8975"/><line style="stroke:#0969DA;stroke-width:1;" x1="89.0498" x2="89.0498" y1="157.8975" y2="179.8975"/><polygon fill="#0969DA" points="85.0498,169.8975,89.0498,179.8975,93.0498,169.8975,89.0498,173.8975" style="stroke:#0969DA;stroke-width:1;"/><line style="stroke:#0969DA;stroke-width:1;" x1="363.3364" x2="463.2186" y1="157.8975" y2="157.8975"/><line style="stroke:#0969DA;stroke-width:1;" x1="463.2186" x2="463.2186" y1="157.8975" y2="179.8975"/><polygon fill="#0969DA" points="459.2186,169.8975,463.2186,179.8975,467.2186,169.8975,463.2186,173.8975" style="stroke:#0969DA;stroke-width:1;"/><line style="stroke:#0969DA;stroke-width:1;" x1="276.1342" x2="276.1342" y1="125.8975" y2="145.8975"/><polygon fill="#0969DA" points="272.1342,135.8975,276.1342,145.8975,280.1342,135.8975,276.1342,139.8975" style="stroke:#0969DA;stroke-width:1;"/><?plantuml-src VPBFJjj04CRl-nJJ6paG8bMzn6ehDp728d8aS46Sh0eMOSbEAkA8AxXIEL3rdtf0N3Zq1T8Gjq1m-WgpRzJFQs5AOcDBtlNiDpE_-RJF_DvkCDoJLA-lUBlzCEptLg836SgwFmm38I8_2YJn3xxc4L-fOtply8u8criL8ppcb6Vg9DitYRyZFaLqmYFraQ_L5-A_d20luGdn5Szm2ZNMCPGfb0dVqT8BKXyWckbg2T_KX1X4xmuZ8Pfypd_u5qgXDveaF5MV2Benr1E4OtJ0MGQIdQVgZ6-8Ro7xh4uDuU_J4bzM2aXpvCG9fwzhXEbxI066Yck2y3GnrGmGuno1R6VBxDXjRztQCRH0zlQ430OIQPYxI59dwXI09oYVvAEIXUg7SXWke-aaSmMdexo81hr0erJ5scVOItg3pjh251x5fOHbb4xNQtKTTyDikKOXoaZrEaTR07oznu8nT7JWHpBm1r5bq_B6hhUzPhjMnzvqhRRnI7mFK0LHWFpat_1huSPC7r0MyifWpCw6PRPtlAtk0ieypdz89LCMOD_qVS7TXKUlNbAZtcWqdfFbhZrfKXMVxMo-NLsrMxRbkDuRisCwBSiepPn7VSh1gcxTzVBQWwZ_limRVrzKHnx-ybt-_GS0?></g></svg>