<svg xmlns="http://www.w3.org/2000/svg" xmlns:xlink="http://www.w3.org/1999/xlink" contentStyleType="text/css" data-diagram-type="CLASS" height="401px" preserveAspectRatio="none" style="width:1780px;height:401px;background:#FFFFFF;" version="1.1" viewBox="0 0 1780 401" width="1780px" zoomAndPan="magnify">
<!-- MYCELIUM-BG -->
<rect x="0" y="0" width="1780" height="401" fill="white"/>
<?plantuml 1.2026.3?><defs/><g><g class="title" data-source-line="3"><text fill="#1F3A68" font-family="Arial" font-size="14" font-weight="700" lengthAdjust="spacing" textLength="345.3789" x="714.1836" y="23.1318">Class Diagram (Models &amp; DTOs) - MYCELIUM CORE</text></g><!--class ElectionStage--><g class="entity" data-qualified-name="ElectionStage" data-source-line="5" id="ent0002"><rect fill="#F4F7FB" height="83.9468" rx="3" ry="3" style="stroke:#C4D3E8;stroke-width:0.5;" width="97.8799" x="909" y="69.5986"/><rect fill="#E7EEF7" height="30" rx="3" ry="3" style="stroke:#E7EEF7;stroke-width:0.5;" width="97.8799" x="909" y="69.5986"/><rect fill="#E7EEF7" height="3" style="stroke:#E7EEF7;stroke-width:0.5;" width="97.8799" x="909" y="96.5986"/><rect fill="none" height="83.9468" rx="3" ry="3" style="stroke:#C4D3E8;stroke-width:0.5;" width="97.8799" x="909" y="69.5986"/><ellipse cx="923" cy="84.5986" fill="#EB937F" rx="10" ry="10" style="stroke:#181818;stroke-width:1;"/><path d="M922.875,85.6299 L922.875,87.3955 L925.9375,87.3955 L925.9375,86.7393 Q925.9375,86.3174 926.0938,86.1299 Q926.2656,85.9424 926.5313,85.9424 Q926.7969,85.9424 926.9688,86.1299 Q927.1406,86.3174 927.1406,86.7393 L927.1406,88.5986 L921.4844,88.5986 Q921.0469,88.5986 920.8594,88.4424 Q920.6719,88.2705 920.6719,87.9893 Q920.6719,87.7236 920.8594,87.5674 Q921.0469,87.3955 921.4844,87.3955 L921.6719,87.3955 L921.6719,82.6924 L921.4844,82.6924 Q921.0469,82.6924 920.8594,82.5361 Q920.6719,82.3643 920.6719,82.0986 Q920.6719,81.8174 920.8594,81.6611 Q921.0469,81.4893 921.4844,81.4893 L926.875,81.4893 L926.875,83.3174 Q926.875,83.7549 926.7031,83.9424 Q926.5469,84.1143 926.2656,84.1143 Q926,84.1143 925.8281,83.9424 Q925.6719,83.7549 925.6719,83.3174 L925.6719,82.6924 L922.875,82.6924 L922.875,84.4268 L923.9219,84.4268 Q923.9219,83.958 924.0156,83.833 Q924.1875,83.5361 924.5313,83.5361 Q924.7969,83.5361 924.9531,83.7236 Q925.125,83.9111 925.125,84.3486 L925.125,85.7236 Q925.125,86.1143 925.0313,86.2549 Q924.8438,86.5361 924.5313,86.5361 Q924.1875,86.5361 924.0156,86.2393 Q923.9219,86.1143 923.9219,85.6299 L922.875,85.6299 Z " fill="#1F3A68"/><text fill="#7286A5" font-family="Arial" font-size="11" lengthAdjust="spacing" textLength="67.8799" x="936" y="88.592">ElectionStage</text><line style="stroke:#C4D3E8;stroke-width:0.5;" x1="910" x2="1005.8799" y1="99.5986" y2="99.5986"/><text fill="#7286A5" font-family="Arial" font-size="11" lengthAdjust="spacing" textLength="36.6738" x="915" y="113.9165">SETUP</text><text fill="#7286A5" font-family="Arial" font-size="11" lengthAdjust="spacing" textLength="39.73" x="915" y="126.5654">ACTIVE</text><text fill="#7286A5" font-family="Arial" font-size="11" lengthAdjust="spacing" textLength="51.3369" x="915" y="139.2144">FINISHED</text><line style="stroke:#C4D3E8;stroke-width:0.5;" x1="910" x2="1005.8799" y1="145.5454" y2="145.5454"/></g><!--class Candidate--><g class="entity" data-qualified-name="Candidate" data-source-line="11" id="ent0003"><rect fill="#F4F7FB" height="109.2446" rx="3" ry="3" style="stroke:#C4D3E8;stroke-width:0.5;" width="100.8237" x="1000.5" y="265.0986"/><rect fill="#E7EEF7" height="30" rx="3" ry="3" style="stroke:#E7EEF7;stroke-width:0.5;" width="100.8237" x="1000.5" y="265.0986"/><rect fill="#E7EEF7" height="3" style="stroke:#E7EEF7;stroke-width:0.5;" width="100.8237" x="1000.5" y="292.0986"/><rect fill="none" height="109.2446" rx="3" ry="3" style="stroke:#C4D3E8;stroke-width:0.5;" width="100.8237" x="1000.5" y="265.0986"/><ellipse cx="1023.8032" cy="280.0986" fill="#ADD1B2" rx="10" ry="10" style="stroke:#181818;stroke-width:1;"/><path d="M1025.2876,277.3018 Q1025.397,277.1455 1025.522,277.0674 Q1025.6626,276.9893 1025.8188,276.9893 Q1026.0845,276.9893 1026.2407,277.1768 Q1026.4126,277.3643 1026.4126,277.7861 L1026.4126,278.8174 Q1026.4126,279.2393 1026.2407,279.4268 Q1026.0845,279.6143 1025.8188,279.6143 Q1025.5688,279.6143 1025.4282,279.4736 Q1025.2876,279.3486 1025.2095,278.9736 Q1025.1782,278.7236 1025.0532,278.5986 Q1024.8032,278.333 1024.3657,278.1768 Q1023.9438,278.0205 1023.5063,278.0205 Q1022.9751,278.0205 1022.522,278.2549 Q1022.0688,278.4893 1021.7251,279.0205 Q1021.3813,279.5361 1021.3813,280.2705 L1021.3813,281.0518 Q1021.3813,281.9111 1022.0063,282.4893 Q1022.647,283.0674 1023.7563,283.0674 Q1024.4282,283.0674 1024.897,282.8955 Q1025.1626,282.7861 1025.4595,282.4736 Q1025.647,282.2861 1025.7563,282.2393 Q1025.8657,282.1768 1025.9907,282.1768 Q1026.2407,282.1768 1026.4126,282.3643 Q1026.6001,282.5361 1026.6001,282.7861 Q1026.6001,283.0361 1026.3501,283.3174 Q1025.9907,283.7236 1025.4282,283.958 Q1024.6782,284.2705 1023.772,284.2705 Q1022.6938,284.2705 1021.8501,283.833 Q1021.147,283.4893 1020.6626,282.7236 Q1020.1782,281.958 1020.1782,281.0674 L1020.1782,280.2549 Q1020.1782,279.3174 1020.6157,278.5049 Q1021.0532,277.6924 1021.8188,277.2549 Q1022.6001,276.8174 1023.4595,276.8174 Q1023.9907,276.8174 1024.4438,276.9424 Q1024.897,277.0518 1025.2876,277.3018 Z " fill="#1F3A68"/><text fill="#7286A5" font-family="Arial" font-size="11" lengthAdjust="spacing" textLength="50.1499" x="1038.8706" y="284.092">Candidate</text><line style="stroke:#C4D3E8;stroke-width:0.5;" x1="1001.5" x2="1100.3237" y1="295.0986" y2="295.0986"/><g data-visibility-modifier="PUBLIC_FIELD"><ellipse cx="1011.5" cy="306.9231" fill="none" rx="3" ry="3" style="stroke:#038048;stroke-width:1;"/></g><text fill="#7286A5" font-family="Arial" font-size="11" lengthAdjust="spacing" textLength="45.8477" x="1019.5" y="309.4165">name: str</text><g data-visibility-modifier="PUBLIC_FIELD"><ellipse cx="1011.5" cy="319.572" fill="none" rx="3" ry="3" style="stroke:#038048;stroke-width:1;"/></g><text fill="#7286A5" font-family="Arial" font-size="11" lengthAdjust="spacing" textLength="42.7861" x="1019.5" y="322.0654">party: str</text><g data-visibility-modifier="PUBLIC_FIELD"><ellipse cx="1011.5" cy="332.2209" fill="none" rx="3" ry="3" style="stroke:#038048;stroke-width:1;"/></g><text fill="#7286A5" font-family="Arial" font-size="11" lengthAdjust="spacing" textLength="57.4653" x="1019.5" y="334.7144">address: str</text><g data-visibility-modifier="PUBLIC_FIELD"><ellipse cx="1011.5" cy="344.8699" fill="none" rx="3" ry="3" style="stroke:#038048;stroke-width:1;"/></g><text fill="#7286A5" font-family="Arial" font-size="11" lengthAdjust="spacing" textLength="75.8237" x="1019.5" y="347.3633">registered: bool</text><g data-visibility-modifier="PUBLIC_FIELD"><ellipse cx="1011.5" cy="357.5188" fill="none" rx="3" ry="3" style="stroke:#038048;stroke-width:1;"/></g><text fill="#7286A5" font-family="Arial" font-size="11" lengthAdjust="spacing" textLength="71.5483" x="1019.5" y="360.0122">vote_count: int</text><line style="stroke:#C4D3E8;stroke-width:0.5;" x1="1001.5" x2="1100.3237" y1="366.3433" y2="366.3433"/></g><!--class Voter--><g class="entity" data-qualified-name="Voter" data-source-line="19" id="ent0004"><rect fill="#F4F7FB" height="83.9468" rx="3" ry="3" style="stroke:#C4D3E8;stroke-width:0.5;" width="146.666" x="1136.5" y="277.5986"/><rect fill="#E7EEF7" height="30" rx="3" ry="3" style="stroke:#E7EEF7;stroke-width:0.5;" width="146.666" x="1136.5" y="277.5986"/><rect fill="#E7EEF7" height="3" style="stroke:#E7EEF7;stroke-width:0.5;" width="146.666" x="1136.5" y="304.5986"/><rect fill="none" height="83.9468" rx="3" ry="3" style="stroke:#C4D3E8;stroke-width:0.5;" width="146.666" x="1136.5" y="277.5986"/><ellipse cx="1192.6873" cy="292.5986" fill="#ADD1B2" rx="10" ry="10" style="stroke:#181818;stroke-width:1;"/><path d="M1194.1716,289.8018 Q1194.281,289.6455 1194.406,289.5674 Q1194.5466,289.4893 1194.7029,289.4893 Q1194.9685,289.4893 1195.1248,289.6768 Q1195.2966,289.8643 1195.2966,290.2861 L1195.2966,291.3174 Q1195.2966,291.7393 1195.1248,291.9268 Q1194.9685,292.1143 1194.7029,292.1143 Q1194.4529,292.1143 1194.3123,291.9736 Q1194.1716,291.8486 1194.0935,291.4736 Q1194.0623,291.2236 1193.9373,291.0986 Q1193.6873,290.833 1193.2498,290.6768 Q1192.8279,290.5205 1192.3904,290.5205 Q1191.8591,290.5205 1191.406,290.7549 Q1190.9529,290.9893 1190.6091,291.5205 Q1190.2654,292.0361 1190.2654,292.7705 L1190.2654,293.5518 Q1190.2654,294.4111 1190.8904,294.9893 Q1191.531,295.5674 1192.6404,295.5674 Q1193.3123,295.5674 1193.781,295.3955 Q1194.0466,295.2861 1194.3435,294.9736 Q1194.531,294.7861 1194.6404,294.7393 Q1194.7498,294.6768 1194.8748,294.6768 Q1195.1248,294.6768 1195.2966,294.8643 Q1195.4841,295.0361 1195.4841,295.2861 Q1195.4841,295.5361 1195.2341,295.8174 Q1194.8748,296.2236 1194.3123,296.458 Q1193.5623,296.7705 1192.656,296.7705 Q1191.5779,296.7705 1190.7341,296.333 Q1190.031,295.9893 1189.5466,295.2236 Q1189.0623,294.458 1189.0623,293.5674 L1189.0623,292.7549 Q1189.0623,291.8174 1189.4998,291.0049 Q1189.9373,290.1924 1190.7029,289.7549 Q1191.4841,289.3174 1192.3435,289.3174 Q1192.8748,289.3174 1193.3279,289.4424 Q1193.781,289.5518 1194.1716,289.8018 Z " fill="#1F3A68"/><text fill="#7286A5" font-family="Arial" font-size="11" lengthAdjust="spacing" textLength="26.2915" x="1211.6873" y="296.592">Voter</text><line style="stroke:#C4D3E8;stroke-width:0.5;" x1="1137.5" x2="1282.166" y1="307.5986" y2="307.5986"/><g data-visibility-modifier="PUBLIC_FIELD"><ellipse cx="1147.5" cy="319.4231" fill="none" rx="3" ry="3" style="stroke:#038048;stroke-width:1;"/></g><text fill="#7286A5" font-family="Arial" font-size="11" lengthAdjust="spacing" textLength="57.4653" x="1155.5" y="321.9165">address: str</text><g data-visibility-modifier="PUBLIC_FIELD"><ellipse cx="1147.5" cy="332.072" fill="none" rx="3" ry="3" style="stroke:#038048;stroke-width:1;"/></g><text fill="#7286A5" font-family="Arial" font-size="11" lengthAdjust="spacing" textLength="121.666" x="1155.5" y="334.5654">private_key: Optional[str]</text><line style="stroke:#C4D3E8;stroke-width:0.5;" x1="1137.5" x2="1282.166" y1="340.8965" y2="340.8965"/><g data-visibility-modifier="PUBLIC_METHOD"><ellipse cx="1147.5" cy="352.7209" fill="#84BE84" rx="3" ry="3" style="stroke:#038048;stroke-width:1;"/></g><text fill="#7286A5" font-family="Arial" font-size="11" lengthAdjust="spacing" textLength="109.7422" x="1155.5" y="355.2144">to_export_dict() -&gt; dict</text></g><!--class VoteReceipt--><g class="entity" data-qualified-name="VoteReceipt" data-source-line="25" id="ent0005"><rect fill="#F4F7FB" height="121.8936" rx="3" ry="3" style="stroke:#C4D3E8;stroke-width:0.5;" width="146.6768" x="1252.5" y="50.5986"/><rect fill="#E7EEF7" height="30" rx="3" ry="3" style="stroke:#E7EEF7;stroke-width:0.5;" width="146.6768" x="1252.5" y="50.5986"/><rect fill="#E7EEF7" height="3" style="stroke:#E7EEF7;stroke-width:0.5;" width="146.6768" x="1252.5" y="77.5986"/><rect fill="none" height="121.8936" rx="3" ry="3" style="stroke:#C4D3E8;stroke-width:0.5;" width="146.6768" x="1252.5" y="50.5986"/><ellipse cx="1292.0382" cy="65.5986" fill="#ADD1B2" rx="10" ry="10" style="stroke:#181818;stroke-width:1;"/><path d="M1293.5225,62.8018 Q1293.6319,62.6455 1293.7569,62.5674 Q1293.8975,62.4893 1294.0538,62.4893 Q1294.3194,62.4893 1294.4757,62.6768 Q1294.6475,62.8643 1294.6475,63.2861 L1294.6475,64.3174 Q1294.6475,64.7393 1294.4757,64.9268 Q1294.3194,65.1143 1294.0538,65.1143 Q1293.8038,65.1143 1293.6632,64.9736 Q1293.5225,64.8486 1293.4444,64.4736 Q1293.4132,64.2236 1293.2882,64.0986 Q1293.0382,63.833 1292.6007,63.6768 Q1292.1788,63.5205 1291.7413,63.5205 Q1291.21,63.5205 1290.7569,63.7549 Q1290.3038,63.9893 1289.96,64.5205 Q1289.6163,65.0361 1289.6163,65.7705 L1289.6163,66.5518 Q1289.6163,67.4111 1290.2413,67.9893 Q1290.8819,68.5674 1291.9913,68.5674 Q1292.6632,68.5674 1293.1319,68.3955 Q1293.3975,68.2861 1293.6944,67.9736 Q1293.8819,67.7861 1293.9913,67.7393 Q1294.1007,67.6768 1294.2257,67.6768 Q1294.4757,67.6768 1294.6475,67.8643 Q1294.835,68.0361 1294.835,68.2861 Q1294.835,68.5361 1294.585,68.8174 Q1294.2257,69.2236 1293.6632,69.458 Q1292.9132,69.7705 1292.0069,69.7705 Q1290.9288,69.7705 1290.085,69.333 Q1289.3819,68.9893 1288.8975,68.2236 Q1288.4132,67.458 1288.4132,66.5674 L1288.4132,65.7549 Q1288.4132,64.8174 1288.8507,64.0049 Q1289.2882,63.1924 1290.0538,62.7549 Q1290.835,62.3174 1291.6944,62.3174 Q1292.2257,62.3174 1292.6788,62.4424 Q1293.1319,62.5518 1293.5225,62.8018 Z " fill="#1F3A68"/><text fill="#7286A5" font-family="Arial" font-size="11" lengthAdjust="spacing" textLength="59.9253" x="1310.7133" y="69.592">VoteReceipt</text><line style="stroke:#C4D3E8;stroke-width:0.5;" x1="1253.5" x2="1398.1768" y1="80.5986" y2="80.5986"/><g data-visibility-modifier="PUBLIC_FIELD"><ellipse cx="1263.5" cy="92.4231" fill="none" rx="3" ry="3" style="stroke:#038048;stroke-width:1;"/></g><text fill="#7286A5" font-family="Arial" font-size="11" lengthAdjust="spacing" textLength="56.8584" x="1271.5" y="94.9165">tx_hash: str</text><g data-visibility-modifier="PUBLIC_FIELD"><ellipse cx="1263.5" cy="105.072" fill="none" rx="3" ry="3" style="stroke:#038048;stroke-width:1;"/></g><text fill="#7286A5" font-family="Arial" font-size="11" lengthAdjust="spacing" textLength="86.8237" x="1271.5" y="107.5654">block_number: int</text><g data-visibility-modifier="PUBLIC_FIELD"><ellipse cx="1263.5" cy="117.7209" fill="none" rx="3" ry="3" style="stroke:#038048;stroke-width:1;"/></g><text fill="#7286A5" font-family="Arial" font-size="11" lengthAdjust="spacing" textLength="88.0376" x="1271.5" y="120.2144">voter_address: str</text><g data-visibility-modifier="PUBLIC_FIELD"><ellipse cx="1263.5" cy="130.3699" fill="none" rx="3" ry="3" style="stroke:#038048;stroke-width:1;"/></g><text fill="#7286A5" font-family="Arial" font-size="11" lengthAdjust="spacing" textLength="111.2891" x="1271.5" y="132.8633">candidate_address: str</text><g data-visibility-modifier="PUBLIC_FIELD"><ellipse cx="1263.5" cy="143.0188" fill="none" rx="3" ry="3" style="stroke:#038048;stroke-width:1;"/></g><text fill="#7286A5" font-family="Arial" font-size="11" lengthAdjust="spacing" textLength="121.6768" x="1271.5" y="145.5122">qr_bytes: Optional[bytes]</text><line style="stroke:#C4D3E8;stroke-width:0.5;" x1="1253.5" x2="1398.1768" y1="151.8433" y2="151.8433"/><g data-visibility-modifier="PUBLIC_METHOD"><ellipse cx="1263.5" cy="163.6677" fill="#84BE84" rx="3" ry="3" style="stroke:#038048;stroke-width:1;"/></g><text fill="#7286A5" font-family="Arial" font-size="11" lengthAdjust="spacing" textLength="73.0522" x="1271.5" y="166.1611">to_dict() -&gt; dict</text></g><!--class AuditCheck--><g class="entity" data-qualified-name="AuditCheck" data-source-line="34" id="ent0006"><rect fill="#F4F7FB" height="83.9468" rx="3" ry="3" style="stroke:#C4D3E8;stroke-width:0.5;" width="105.7007" x="1459" y="277.5986"/><rect fill="#E7EEF7" height="30" rx="3" ry="3" style="stroke:#E7EEF7;stroke-width:0.5;" width="105.7007" x="1459" y="277.5986"/><rect fill="#E7EEF7" height="3" style="stroke:#E7EEF7;stroke-width:0.5;" width="105.7007" x="1459" y="304.5986"/><rect fill="none" height="83.9468" rx="3" ry="3" style="stroke:#C4D3E8;stroke-width:0.5;" width="105.7007" x="1459" y="277.5986"/><ellipse cx="1481.7521" cy="292.5986" fill="#ADD1B2" rx="10" ry="10" style="stroke:#181818;stroke-width:1;"/><path d="M1483.2365,289.8018 Q1483.3459,289.6455 1483.4709,289.5674 Q1483.6115,289.4893 1483.7678,289.4893 Q1484.0334,289.4893 1484.1896,289.6768 Q1484.3615,289.8643 1484.3615,290.2861 L1484.3615,291.3174 Q1484.3615,291.7393 1484.1896,291.9268 Q1484.0334,292.1143 1483.7678,292.1143 Q1483.5178,292.1143 1483.3771,291.9736 Q1483.2365,291.8486 1483.1584,291.4736 Q1483.1271,291.2236 1483.0021,291.0986 Q1482.7521,290.833 1482.3146,290.6768 Q1481.8928,290.5205 1481.4553,290.5205 Q1480.924,290.5205 1480.4709,290.7549 Q1480.0178,290.9893 1479.674,291.5205 Q1479.3303,292.0361 1479.3303,292.7705 L1479.3303,293.5518 Q1479.3303,294.4111 1479.9553,294.9893 Q1480.5959,295.5674 1481.7053,295.5674 Q1482.3771,295.5674 1482.8459,295.3955 Q1483.1115,295.2861 1483.4084,294.9736 Q1483.5959,294.7861 1483.7053,294.7393 Q1483.8146,294.6768 1483.9396,294.6768 Q1484.1896,294.6768 1484.3615,294.8643 Q1484.549,295.0361 1484.549,295.2861 Q1484.549,295.5361 1484.299,295.8174 Q1483.9396,296.2236 1483.3771,296.458 Q1482.6271,296.7705 1481.7209,296.7705 Q1480.6428,296.7705 1479.799,296.333 Q1479.0959,295.9893 1478.6115,295.2236 Q1478.1271,294.458 1478.1271,293.5674 L1478.1271,292.7549 Q1478.1271,291.8174 1478.5646,291.0049 Q1479.0021,290.1924 1479.7678,289.7549 Q1480.549,289.3174 1481.4084,289.3174 Q1481.9396,289.3174 1482.3928,289.4424 Q1482.8459,289.5518 1483.2365,289.8018 Z " fill="#1F3A68"/><text fill="#7286A5" font-family="Arial" font-size="11" lengthAdjust="spacing" textLength="56.2515" x="1496.6971" y="296.592">AuditCheck</text><line style="stroke:#C4D3E8;stroke-width:0.5;" x1="1460" x2="1563.7007" y1="307.5986" y2="307.5986"/><g data-visibility-modifier="PUBLIC_FIELD"><ellipse cx="1470" cy="319.4231" fill="none" rx="3" ry="3" style="stroke:#038048;stroke-width:1;"/></g><text fill="#7286A5" font-family="Arial" font-size="11" lengthAdjust="spacing" textLength="80.7007" x="1478" y="321.9165">check_name: str</text><g data-visibility-modifier="PUBLIC_FIELD"><ellipse cx="1470" cy="332.072" fill="none" rx="3" ry="3" style="stroke:#038048;stroke-width:1;"/></g><text fill="#7286A5" font-family="Arial" font-size="11" lengthAdjust="spacing" textLength="47.6792" x="1478" y="334.5654">status: str</text><g data-visibility-modifier="PUBLIC_FIELD"><ellipse cx="1470" cy="344.7209" fill="none" rx="3" ry="3" style="stroke:#038048;stroke-width:1;"/></g><text fill="#7286A5" font-family="Arial" font-size="11" lengthAdjust="spacing" textLength="50.1284" x="1478" y="347.2144">details: str</text><line style="stroke:#C4D3E8;stroke-width:0.5;" x1="1460" x2="1563.7007" y1="353.5454" y2="353.5454"/></g><!--class AuditReport--><g class="entity" data-qualified-name="AuditReport" data-source-line="40" id="ent0007"><rect fill="#F4F7FB" height="109.2446" rx="3" ry="3" style="stroke:#C4D3E8;stroke-width:0.5;" width="154.0083" x="1435" y="57.0986"/><rect fill="#E7EEF7" height="30" rx="3" ry="3" style="stroke:#E7EEF7;stroke-width:0.5;" width="154.0083" x="1435" y="57.0986"/><rect fill="#E7EEF7" height="3" style="stroke:#E7EEF7;stroke-width:0.5;" width="154.0083" x="1435" y="84.0986"/><rect fill="none" height="109.2446" rx="3" ry="3" style="stroke:#C4D3E8;stroke-width:0.5;" width="154.0083" x="1435" y="57.0986"/><ellipse cx="1478.96" cy="72.0986" fill="#ADD1B2" rx="10" ry="10" style="stroke:#181818;stroke-width:1;"/><path d="M1480.4443,69.3018 Q1480.5537,69.1455 1480.6787,69.0674 Q1480.8193,68.9893 1480.9756,68.9893 Q1481.2412,68.9893 1481.3975,69.1768 Q1481.5693,69.3643 1481.5693,69.7861 L1481.5693,70.8174 Q1481.5693,71.2393 1481.3975,71.4268 Q1481.2412,71.6143 1480.9756,71.6143 Q1480.7256,71.6143 1480.585,71.4736 Q1480.4443,71.3486 1480.3662,70.9736 Q1480.335,70.7236 1480.21,70.5986 Q1479.96,70.333 1479.5225,70.1768 Q1479.1006,70.0205 1478.6631,70.0205 Q1478.1318,70.0205 1477.6787,70.2549 Q1477.2256,70.4893 1476.8818,71.0205 Q1476.5381,71.5361 1476.5381,72.2705 L1476.5381,73.0518 Q1476.5381,73.9111 1477.1631,74.4893 Q1477.8037,75.0674 1478.9131,75.0674 Q1479.585,75.0674 1480.0537,74.8955 Q1480.3193,74.7861 1480.6162,74.4736 Q1480.8037,74.2861 1480.9131,74.2393 Q1481.0225,74.1768 1481.1475,74.1768 Q1481.3975,74.1768 1481.5693,74.3643 Q1481.7568,74.5361 1481.7568,74.7861 Q1481.7568,75.0361 1481.5068,75.3174 Q1481.1475,75.7236 1480.585,75.958 Q1479.835,76.2705 1478.9287,76.2705 Q1477.8506,76.2705 1477.0068,75.833 Q1476.3037,75.4893 1475.8193,74.7236 Q1475.335,73.958 1475.335,73.0674 L1475.335,72.2549 Q1475.335,71.3174 1475.7725,70.5049 Q1476.21,69.6924 1476.9756,69.2549 Q1477.7568,68.8174 1478.6162,68.8174 Q1479.1475,68.8174 1479.6006,68.9424 Q1480.0537,69.0518 1480.4443,69.3018 Z " fill="#1F3A68"/><text fill="#7286A5" font-family="Arial" font-size="11" lengthAdjust="spacing" textLength="58.0884" x="1497.96" y="76.092">AuditReport</text><line style="stroke:#C4D3E8;stroke-width:0.5;" x1="1436" x2="1588.0083" y1="87.0986" y2="87.0986"/><g data-visibility-modifier="PUBLIC_FIELD"><ellipse cx="1446" cy="98.9231" fill="none" rx="3" ry="3" style="stroke:#038048;stroke-width:1;"/></g><text fill="#7286A5" font-family="Arial" font-size="11" lengthAdjust="spacing" textLength="70.3076" x="1454" y="101.4165">session_id: str</text><g data-visibility-modifier="PUBLIC_FIELD"><ellipse cx="1446" cy="111.572" fill="none" rx="3" ry="3" style="stroke:#038048;stroke-width:1;"/></g><text fill="#7286A5" font-family="Arial" font-size="11" lengthAdjust="spacing" textLength="129.0083" x="1454" y="114.0654">audit_timestamp: datetime</text><g data-visibility-modifier="PUBLIC_FIELD"><ellipse cx="1446" cy="124.2209" fill="none" rx="3" ry="3" style="stroke:#038048;stroke-width:1;"/></g><text fill="#7286A5" font-family="Arial" font-size="11" lengthAdjust="spacing" textLength="119.8291" x="1454" y="126.7144">checks: List[AuditCheck]</text><g data-visibility-modifier="PUBLIC_FIELD"><ellipse cx="1446" cy="136.8699" fill="none" rx="3" ry="3" style="stroke:#038048;stroke-width:1;"/></g><text fill="#7286A5" font-family="Arial" font-size="11" lengthAdjust="spacing" textLength="86.2275" x="1454" y="139.3633">passed_count: int</text><g data-visibility-modifier="PUBLIC_FIELD"><ellipse cx="1446" cy="149.5188" fill="none" rx="3" ry="3" style="stroke:#038048;stroke-width:1;"/></g><text fill="#7286A5" font-family="Arial" font-size="11" lengthAdjust="spacing" textLength="77.0537" x="1454" y="152.0122">failed_count: int</text><line style="stroke:#C4D3E8;stroke-width:0.5;" x1="1436" x2="1588.0083" y1="158.3433" y2="158.3433"/></g><!--class SessionContext--><g class="entity" data-qualified-name="SessionContext" data-source-line="48" id="ent0008"><rect fill="#F4F7FB" height="109.2446" rx="3" ry="3" style="stroke:#C4D3E8;stroke-width:0.5;" width="174.7944" x="1042.5" y="57.0986"/><rect fill="#E7EEF7" height="30" rx="3" ry="3" style="stroke:#E7EEF7;stroke-width:0.5;" width="174.7944" x="1042.5" y="57.0986"/><rect fill="#E7EEF7" height="3" style="stroke:#E7EEF7;stroke-width:0.5;" width="174.7944" x="1042.5" y="84.0986"/><rect fill="none" height="109.2446" rx="3" ry="3" style="stroke:#C4D3E8;stroke-width:0.5;" width="174.7944" x="1042.5" y="57.0986"/><ellipse cx="1087.3757" cy="72.0986" fill="#ADD1B2" rx="10" ry="10" style="stroke:#181818;stroke-width:1;"/><path d="M1088.8601,69.3018 Q1088.9695,69.1455 1089.0945,69.0674 Q1089.2351,68.9893 1089.3914,68.9893 Q1089.657,68.9893 1089.8132,69.1768 Q1089.9851,69.3643 1089.9851,69.7861 L1089.9851,70.8174 Q1089.9851,71.2393 1089.8132,71.4268 Q1089.657,71.6143 1089.3914,71.6143 Q1089.1414,71.6143 1089.0007,71.4736 Q1088.8601,71.3486 1088.782,70.9736 Q1088.7507,70.7236 1088.6257,70.5986 Q1088.3757,70.333 1087.9382,70.1768 Q1087.5164,70.0205 1087.0789,70.0205 Q1086.5476,70.0205 1086.0945,70.2549 Q1085.6414,70.4893 1085.2976,71.0205 Q1084.9539,71.5361 1084.9539,72.2705 L1084.9539,73.0518 Q1084.9539,73.9111 1085.5789,74.4893 Q1086.2195,75.0674 1087.3289,75.0674 Q1088.0007,75.0674 1088.4695,74.8955 Q1088.7351,74.7861 1089.032,74.4736 Q1089.2195,74.2861 1089.3289,74.2393 Q1089.4382,74.1768 1089.5632,74.1768 Q1089.8132,74.1768 1089.9851,74.3643 Q1090.1726,74.5361 1090.1726,74.7861 Q1090.1726,75.0361 1089.9226,75.3174 Q1089.5632,75.7236 1089.0007,75.958 Q1088.2507,76.2705 1087.3445,76.2705 Q1086.2664,76.2705 1085.4226,75.833 Q1084.7195,75.4893 1084.2351,74.7236 Q1083.7507,73.958 1083.7507,73.0674 L1083.7507,72.2549 Q1083.7507,71.3174 1084.1882,70.5049 Q1084.6257,69.6924 1085.3914,69.2549 Q1086.1726,68.8174 1087.032,68.8174 Q1087.5632,68.8174 1088.0164,68.9424 Q1088.4695,69.0518 1088.8601,69.3018 Z " fill="#1F3A68"/><text fill="#7286A5" font-family="Arial" font-size="11" lengthAdjust="spacing" textLength="77.043" x="1106.3757" y="76.092">SessionContext</text><line style="stroke:#C4D3E8;stroke-width:0.5;" x1="1043.5" x2="1216.2944" y1="87.0986" y2="87.0986"/><g data-visibility-modifier="PUBLIC_FIELD"><ellipse cx="1053.5" cy="98.9231" fill="none" rx="3" ry="3" style="stroke:#038048;stroke-width:1;"/></g><text fill="#7286A5" font-family="Arial" font-size="11" lengthAdjust="spacing" textLength="117.3906" x="1061.5" y="101.4165">session_id: Optional[str]</text><g data-visibility-modifier="PUBLIC_FIELD"><ellipse cx="1053.5" cy="111.572" fill="none" rx="3" ry="3" style="stroke:#038048;stroke-width:1;"/></g><text fill="#7286A5" font-family="Arial" font-size="11" lengthAdjust="spacing" textLength="149.7944" x="1061.5" y="114.0654">contract_address: Optional[str]</text><g data-visibility-modifier="PUBLIC_FIELD"><ellipse cx="1053.5" cy="124.2209" fill="none" rx="3" ry="3" style="stroke:#038048;stroke-width:1;"/></g><text fill="#7286A5" font-family="Arial" font-size="11" lengthAdjust="spacing" textLength="81.9414" x="1061.5" y="126.7144">deploy_block: int</text><g data-visibility-modifier="PUBLIC_FIELD"><ellipse cx="1053.5" cy="136.8699" fill="none" rx="3" ry="3" style="stroke:#038048;stroke-width:1;"/></g><text fill="#7286A5" font-family="Arial" font-size="11" lengthAdjust="spacing" textLength="85.5884" x="1061.5" y="139.3633">voters: List[Voter]</text><g data-visibility-modifier="PUBLIC_FIELD"><ellipse cx="1053.5" cy="149.5188" fill="none" rx="3" ry="3" style="stroke:#038048;stroke-width:1;"/></g><text fill="#7286A5" font-family="Arial" font-size="11" lengthAdjust="spacing" textLength="132.6982" x="1061.5" y="152.0122">candidates: List[Candidate]</text><line style="stroke:#C4D3E8;stroke-width:0.5;" x1="1043.5" x2="1216.2944" y1="158.3433" y2="158.3433"/></g><!--class PrecheckStatus--><g class="entity" data-qualified-name="PrecheckStatus" data-source-line="56" id="ent0009"><rect fill="#F4F7FB" height="134.5425" rx="3" ry="3" style="stroke:#C4D3E8;stroke-width:0.5;" width="145.2461" x="1620.5" y="252.0986"/><rect fill="#E7EEF7" height="30" rx="3" ry="3" style="stroke:#E7EEF7;stroke-width:0.5;" width="145.2461" x="1620.5" y="252.0986"/><rect fill="#E7EEF7" height="3" style="stroke:#E7EEF7;stroke-width:0.5;" width="145.2461" x="1620.5" y="279.0986"/><rect fill="none" height="134.5425" rx="3" ry="3" style="stroke:#C4D3E8;stroke-width:0.5;" width="145.2461" x="1620.5" y="252.0986"/><ellipse cx="1651.6938" cy="267.0986" fill="#EB937F" rx="10" ry="10" style="stroke:#181818;stroke-width:1;"/><path d="M1651.5688,268.1299 L1651.5688,269.8955 L1654.6313,269.8955 L1654.6313,269.2393 Q1654.6313,268.8174 1654.7876,268.6299 Q1654.9594,268.4424 1655.2251,268.4424 Q1655.4907,268.4424 1655.6626,268.6299 Q1655.8344,268.8174 1655.8344,269.2393 L1655.8344,271.0986 L1650.1782,271.0986 Q1649.7407,271.0986 1649.5532,270.9424 Q1649.3657,270.7705 1649.3657,270.4893 Q1649.3657,270.2236 1649.5532,270.0674 Q1649.7407,269.8955 1650.1782,269.8955 L1650.3657,269.8955 L1650.3657,265.1924 L1650.1782,265.1924 Q1649.7407,265.1924 1649.5532,265.0361 Q1649.3657,264.8643 1649.3657,264.5986 Q1649.3657,264.3174 1649.5532,264.1611 Q1649.7407,263.9893 1650.1782,263.9893 L1655.5688,263.9893 L1655.5688,265.8174 Q1655.5688,266.2549 1655.3969,266.4424 Q1655.2407,266.6143 1654.9594,266.6143 Q1654.6938,266.6143 1654.5219,266.4424 Q1654.3657,266.2549 1654.3657,265.8174 L1654.3657,265.1924 L1651.5688,265.1924 L1651.5688,266.9268 L1652.6157,266.9268 Q1652.6157,266.458 1652.7094,266.333 Q1652.8813,266.0361 1653.2251,266.0361 Q1653.4907,266.0361 1653.6469,266.2236 Q1653.8188,266.4111 1653.8188,266.8486 L1653.8188,268.2236 Q1653.8188,268.6143 1653.7251,268.7549 Q1653.5376,269.0361 1653.2251,269.0361 Q1652.8813,269.0361 1652.7094,268.7393 Q1652.6157,268.6143 1652.6157,268.1299 L1651.5688,268.1299 Z " fill="#1F3A68"/><text fill="#7286A5" font-family="Arial" font-size="11" lengthAdjust="spacing" textLength="77.0376" x="1668.5147" y="271.092">PrecheckStatus</text><line style="stroke:#C4D3E8;stroke-width:0.5;" x1="1621.5" x2="1764.7461" y1="282.0986" y2="282.0986"/><text fill="#7286A5" font-family="Arial" font-size="11" lengthAdjust="spacing" textLength="15.8931" x="1626.5" y="296.4165">OK</text><text fill="#7286A5" font-family="Arial" font-size="11" lengthAdjust="spacing" textLength="70.9199" x="1626.5" y="309.0654">INVALID_KEY</text><text fill="#7286A5" font-family="Arial" font-size="11" lengthAdjust="spacing" textLength="103.2861" x="1626.5" y="321.7144">NOT_WHITELISTED</text><text fill="#7286A5" font-family="Arial" font-size="11" lengthAdjust="spacing" textLength="95.3638" x="1626.5" y="334.3633">ALREADY_VOTED</text><text fill="#7286A5" font-family="Arial" font-size="11" lengthAdjust="spacing" textLength="133.2461" x="1626.5" y="347.0122">INSUFFICIENT_BALANCE</text><text fill="#7286A5" font-family="Arial" font-size="11" lengthAdjust="spacing" textLength="83.7246" x="1626.5" y="359.6611">NO_CONTRACT</text><text fill="#7286A5" font-family="Arial" font-size="11" lengthAdjust="spacing" textLength="103.8931" x="1626.5" y="372.3101">UNKNOWN_ERROR</text><line style="stroke:#C4D3E8;stroke-width:0.5;" x1="1621.5" x2="1764.7461" y1="378.6411" y2="378.6411"/></g><!--class PrecheckResult--><g class="entity" data-qualified-name="PrecheckResult" data-source-line="66" id="ent0010"><rect fill="#F4F7FB" height="121.8936" rx="3" ry="3" style="stroke:#C4D3E8;stroke-width:0.5;" width="137.4976" x="1624.5" y="50.5986"/><rect fill="#E7EEF7" height="30" rx="3" ry="3" style="stroke:#E7EEF7;stroke-width:0.5;" width="137.4976" x="1624.5" y="50.5986"/><rect fill="#E7EEF7" height="3" style="stroke:#E7EEF7;stroke-width:0.5;" width="137.4976" x="1624.5" y="77.5986"/><rect fill="none" height="121.8936" rx="3" ry="3" style="stroke:#C4D3E8;stroke-width:0.5;" width="137.4976" x="1624.5" y="50.5986"/><ellipse cx="1652.2094" cy="65.5986" fill="#ADD1B2" rx="10" ry="10" style="stroke:#181818;stroke-width:1;"/><path d="M1653.6938,62.8018 Q1653.8031,62.6455 1653.9281,62.5674 Q1654.0688,62.4893 1654.225,62.4893 Q1654.4906,62.4893 1654.6469,62.6768 Q1654.8188,62.8643 1654.8188,63.2861 L1654.8188,64.3174 Q1654.8188,64.7393 1654.6469,64.9268 Q1654.4906,65.1143 1654.225,65.1143 Q1653.975,65.1143 1653.8344,64.9736 Q1653.6938,64.8486 1653.6156,64.4736 Q1653.5844,64.2236 1653.4594,64.0986 Q1653.2094,63.833 1652.7719,63.6768 Q1652.35,63.5205 1651.9125,63.5205 Q1651.3813,63.5205 1650.9281,63.7549 Q1650.475,63.9893 1650.1313,64.5205 Q1649.7875,65.0361 1649.7875,65.7705 L1649.7875,66.5518 Q1649.7875,67.4111 1650.4125,67.9893 Q1651.0531,68.5674 1652.1625,68.5674 Q1652.8344,68.5674 1653.3031,68.3955 Q1653.5688,68.2861 1653.8656,67.9736 Q1654.0531,67.7861 1654.1625,67.7393 Q1654.2719,67.6768 1654.3969,67.6768 Q1654.6469,67.6768 1654.8188,67.8643 Q1655.0063,68.0361 1655.0063,68.2861 Q1655.0063,68.5361 1654.7563,68.8174 Q1654.3969,69.2236 1653.8344,69.458 Q1653.0844,69.7705 1652.1781,69.7705 Q1651.1,69.7705 1650.2563,69.333 Q1649.5531,68.9893 1649.0688,68.2236 Q1648.5844,67.458 1648.5844,66.5674 L1648.5844,65.7549 Q1648.5844,64.8174 1649.0219,64.0049 Q1649.4594,63.1924 1650.225,62.7549 Q1651.0063,62.3174 1651.8656,62.3174 Q1652.3969,62.3174 1652.85,62.4424 Q1653.3031,62.5518 1653.6938,62.8018 Z " fill="#1F3A68"/><text fill="#7286A5" font-family="Arial" font-size="11" lengthAdjust="spacing" textLength="77.0322" x="1668.2559" y="69.592">PrecheckResult</text><line style="stroke:#C4D3E8;stroke-width:0.5;" x1="1625.5" x2="1760.9976" y1="80.5986" y2="80.5986"/><g data-visibility-modifier="PUBLIC_FIELD"><ellipse cx="1635.5" cy="92.4231" fill="none" rx="3" ry="3" style="stroke:#038048;stroke-width:1;"/></g><text fill="#7286A5" font-family="Arial" font-size="11" lengthAdjust="spacing" textLength="112.4976" x="1643.5" y="94.9165">status: PrecheckStatus</text><g data-visibility-modifier="PUBLIC_FIELD"><ellipse cx="1635.5" cy="105.072" fill="none" rx="3" ry="3" style="stroke:#038048;stroke-width:1;"/></g><text fill="#7286A5" font-family="Arial" font-size="11" lengthAdjust="spacing" textLength="57.4653" x="1643.5" y="107.5654">address: str</text><g data-visibility-modifier="PUBLIC_FIELD"><ellipse cx="1635.5" cy="117.7209" fill="none" rx="3" ry="3" style="stroke:#038048;stroke-width:1;"/></g><text fill="#7286A5" font-family="Arial" font-size="11" lengthAdjust="spacing" textLength="78.8853" x="1643.5" y="120.2144">balance_wei: int</text><g data-visibility-modifier="PUBLIC_FIELD"><ellipse cx="1635.5" cy="130.3699" fill="none" rx="3" ry="3" style="stroke:#038048;stroke-width:1;"/></g><text fill="#7286A5" font-family="Arial" font-size="11" lengthAdjust="spacing" textLength="80.7114" x="1643.5" y="132.8633">required_wei: int</text><g data-visibility-modifier="PUBLIC_FIELD"><ellipse cx="1635.5" cy="143.0188" fill="none" rx="3" ry="3" style="stroke:#038048;stroke-width:1;"/></g><text fill="#7286A5" font-family="Arial" font-size="11" lengthAdjust="spacing" textLength="65.4038" x="1643.5" y="145.5122">error_text: str</text><line style="stroke:#C4D3E8;stroke-width:0.5;" x1="1625.5" x2="1760.9976" y1="151.8433" y2="151.8433"/><g data-visibility-modifier="PUBLIC_METHOD"><ellipse cx="1635.5" cy="163.6677" fill="#84BE84" rx="3" ry="3" style="stroke:#038048;stroke-width:1;"/></g><text fill="#7286A5" font-family="Arial" font-size="11" lengthAdjust="spacing" textLength="59.9146" x="1643.5" y="166.1611">is_ok(): bool</text></g><!--class ParsedError--><g class="entity" data-qualified-name="ParsedError" data-source-line="75" id="ent0011"><rect fill="#F4F7FB" height="96.5957" rx="3" ry="3" style="stroke:#C4D3E8;stroke-width:0.5;" width="158.2837" x="7" y="63.0986"/><rect fill="#E7EEF7" height="30" rx="3" ry="3" style="stroke:#E7EEF7;stroke-width:0.5;" width="158.2837" x="7" y="63.0986"/><rect fill="#E7EEF7" height="3" style="stroke:#E7EEF7;stroke-width:0.5;" width="158.2837" x="7" y="90.0986"/><rect fill="none" height="96.5957" rx="3" ry="3" style="stroke:#C4D3E8;stroke-width:0.5;" width="158.2837" x="7" y="63.0986"/><ellipse cx="52.4934" cy="78.0986" fill="#ADD1B2" rx="10" ry="10" style="stroke:#181818;stroke-width:1;"/><path d="M53.9778,75.3018 Q54.0872,75.1455 54.2122,75.0674 Q54.3528,74.9893 54.509,74.9893 Q54.7747,74.9893 54.9309,75.1768 Q55.1028,75.3643 55.1028,75.7861 L55.1028,76.8174 Q55.1028,77.2393 54.9309,77.4268 Q54.7747,77.6143 54.509,77.6143 Q54.259,77.6143 54.1184,77.4736 Q53.9778,77.3486 53.8997,76.9736 Q53.8684,76.7236 53.7434,76.5986 Q53.4934,76.333 53.0559,76.1768 Q52.634,76.0205 52.1965,76.0205 Q51.6653,76.0205 51.2122,76.2549 Q50.759,76.4893 50.4153,77.0205 Q50.0715,77.5361 50.0715,78.2705 L50.0715,79.0518 Q50.0715,79.9111 50.6965,80.4893 Q51.3372,81.0674 52.4465,81.0674 Q53.1184,81.0674 53.5872,80.8955 Q53.8528,80.7861 54.1497,80.4736 Q54.3372,80.2861 54.4465,80.2393 Q54.5559,80.1768 54.6809,80.1768 Q54.9309,80.1768 55.1028,80.3643 Q55.2903,80.5361 55.2903,80.7861 Q55.2903,81.0361 55.0403,81.3174 Q54.6809,81.7236 54.1184,81.958 Q53.3684,82.2705 52.4622,82.2705 Q51.384,82.2705 50.5403,81.833 Q49.8372,81.4893 49.3528,80.7236 Q48.8684,79.958 48.8684,79.0674 L48.8684,78.2549 Q48.8684,77.3174 49.3059,76.5049 Q49.7434,75.6924 50.509,75.2549 Q51.2903,74.8174 52.1497,74.8174 Q52.6809,74.8174 53.134,74.9424 Q53.5872,75.0518 53.9778,75.3018 Z " fill="#1F3A68"/><text fill="#7286A5" font-family="Arial" font-size="11" lengthAdjust="spacing" textLength="59.2969" x="71.4934" y="82.092">ParsedError</text><line style="stroke:#C4D3E8;stroke-width:0.5;" x1="8" x2="164.2837" y1="93.0986" y2="93.0986"/><g data-visibility-modifier="PUBLIC_FIELD"><ellipse cx="18" cy="104.9231" fill="none" rx="3" ry="3" style="stroke:#038048;stroke-width:1;"/></g><text fill="#7286A5" font-family="Arial" font-size="11" lengthAdjust="spacing" textLength="133.2837" x="26" y="107.4165">message_key: Optional[str]</text><g data-visibility-modifier="PUBLIC_FIELD"><ellipse cx="18" cy="117.572" fill="none" rx="3" ry="3" style="stroke:#038048;stroke-width:1;"/></g><text fill="#7286A5" font-family="Arial" font-size="11" lengthAdjust="spacing" textLength="86.8076" x="26" y="120.0654">raw_message: str</text><g data-visibility-modifier="PUBLIC_FIELD"><ellipse cx="18" cy="130.2209" fill="none" rx="3" ry="3" style="stroke:#038048;stroke-width:1;"/></g><text fill="#7286A5" font-family="Arial" font-size="11" lengthAdjust="spacing" textLength="118.0029" x="26" y="132.7144">action_key: Optional[str]</text><g data-visibility-modifier="PUBLIC_FIELD"><ellipse cx="18" cy="142.8699" fill="none" rx="3" ry="3" style="stroke:#038048;stroke-width:1;"/></g><text fill="#7286A5" font-family="Arial" font-size="11" lengthAdjust="spacing" textLength="109.4468" x="26" y="145.3633">action_id: Optional[str]</text><line style="stroke:#C4D3E8;stroke-width:0.5;" x1="8" x2="164.2837" y1="151.6943" y2="151.6943"/></g><!--class VoterStatus--><g class="entity" data-qualified-name="VoterStatus" data-source-line="82" id="ent0012"><rect fill="#F4F7FB" height="134.5425" rx="3" ry="3" style="stroke:#C4D3E8;stroke-width:0.5;" width="164.4121" x="437" y="44.0986"/><rect fill="#E7EEF7" height="30" rx="3" ry="3" style="stroke:#E7EEF7;stroke-width:0.5;" width="164.4121" x="437" y="44.0986"/><rect fill="#E7EEF7" height="3" style="stroke:#E7EEF7;stroke-width:0.5;" width="164.4121" x="437" y="71.0986"/><rect fill="none" height="134.5425" rx="3" ry="3" style="stroke:#C4D3E8;stroke-width:0.5;" width="164.4121" x="437" y="44.0986"/><ellipse cx="486.468" cy="59.0986" fill="#ADD1B2" rx="10" ry="10" style="stroke:#181818;stroke-width:1;"/><path d="M487.9524,56.3018 Q488.0618,56.1455 488.1868,56.0674 Q488.3274,55.9893 488.4836,55.9893 Q488.7493,55.9893 488.9055,56.1768 Q489.0774,56.3643 489.0774,56.7861 L489.0774,57.8174 Q489.0774,58.2393 488.9055,58.4268 Q488.7493,58.6143 488.4836,58.6143 Q488.2336,58.6143 488.093,58.4736 Q487.9524,58.3486 487.8743,57.9736 Q487.843,57.7236 487.718,57.5986 Q487.468,57.333 487.0305,57.1768 Q486.6086,57.0205 486.1711,57.0205 Q485.6399,57.0205 485.1868,57.2549 Q484.7336,57.4893 484.3899,58.0205 Q484.0461,58.5361 484.0461,59.2705 L484.0461,60.0518 Q484.0461,60.9111 484.6711,61.4893 Q485.3118,62.0674 486.4211,62.0674 Q487.093,62.0674 487.5618,61.8955 Q487.8274,61.7861 488.1243,61.4736 Q488.3118,61.2861 488.4211,61.2393 Q488.5305,61.1768 488.6555,61.1768 Q488.9055,61.1768 489.0774,61.3643 Q489.2649,61.5361 489.2649,61.7861 Q489.2649,62.0361 489.0149,62.3174 Q488.6555,62.7236 488.093,62.958 Q487.343,63.2705 486.4368,63.2705 Q485.3586,63.2705 484.5149,62.833 Q483.8118,62.4893 483.3274,61.7236 Q482.843,60.958 482.843,60.0674 L482.843,59.2549 Q482.843,58.3174 483.2805,57.5049 Q483.718,56.6924 484.4836,56.2549 Q485.2649,55.8174 486.1243,55.8174 Q486.6555,55.8174 487.1086,55.9424 Q487.5618,56.0518 487.9524,56.3018 Z " fill="#1F3A68"/><text fill="#7286A5" font-family="Arial" font-size="11" lengthAdjust="spacing" textLength="57.4761" x="505.468" y="63.092">VoterStatus</text><line style="stroke:#C4D3E8;stroke-width:0.5;" x1="438" x2="600.4121" y1="74.0986" y2="74.0986"/><g data-visibility-modifier="PUBLIC_FIELD"><ellipse cx="448" cy="85.9231" fill="none" rx="3" ry="3" style="stroke:#038048;stroke-width:1;"/></g><text fill="#7286A5" font-family="Arial" font-size="11" lengthAdjust="spacing" textLength="72.7676" x="456" y="88.4165">key_valid: bool</text><g data-visibility-modifier="PUBLIC_FIELD"><ellipse cx="448" cy="98.572" fill="none" rx="3" ry="3" style="stroke:#038048;stroke-width:1;"/></g><text fill="#7286A5" font-family="Arial" font-size="11" lengthAdjust="spacing" textLength="57.4653" x="456" y="101.0654">address: str</text><g data-visibility-modifier="PUBLIC_FIELD"><ellipse cx="448" cy="111.2209" fill="none" rx="3" ry="3" style="stroke:#038048;stroke-width:1;"/></g><text fill="#7286A5" font-family="Arial" font-size="11" lengthAdjust="spacing" textLength="139.4121" x="456" y="113.7144">is_whitelisted: Optional[bool]</text><g data-visibility-modifier="PUBLIC_FIELD"><ellipse cx="448" cy="123.8699" fill="none" rx="3" ry="3" style="stroke:#038048;stroke-width:1;"/></g><text fill="#7286A5" font-family="Arial" font-size="11" lengthAdjust="spacing" textLength="124.7544" x="456" y="126.3633">has_voted: Optional[bool]</text><g data-visibility-modifier="PUBLIC_FIELD"><ellipse cx="448" cy="136.5188" fill="none" rx="3" ry="3" style="stroke:#038048;stroke-width:1;"/></g><text fill="#7286A5" font-family="Arial" font-size="11" lengthAdjust="spacing" textLength="125.356" x="456" y="139.0122">balance_eth: Optional[str]</text><g data-visibility-modifier="PUBLIC_FIELD"><ellipse cx="448" cy="149.1677" fill="none" rx="3" ry="3" style="stroke:#038048;stroke-width:1;"/></g><text fill="#7286A5" font-family="Arial" font-size="11" lengthAdjust="spacing" textLength="125.9575" x="456" y="151.6611">stage_name: Optional[str]</text><g data-visibility-modifier="PUBLIC_FIELD"><ellipse cx="448" cy="161.8167" fill="none" rx="3" ry="3" style="stroke:#038048;stroke-width:1;"/></g><text fill="#7286A5" font-family="Arial" font-size="11" lengthAdjust="spacing" textLength="88.6392" x="456" y="164.3101">error: Optional[str]</text><line style="stroke:#C4D3E8;stroke-width:0.5;" x1="438" x2="600.4121" y1="170.6411" y2="170.6411"/></g><g class="entity" data-qualified-name="GMN13" data-source-line="93" id="ent0014"><path d="M200,82.0986 L200,107.5986 L165.37,111.5986 L200,115.5986 L200,141.2939 A3,3 0 0 0 203,144.2939 L398.75,144.2939 A3,3 0 0 0 401.75,141.2939 L401.75,89.0986 L391.75,79.0986 L203,79.0986 A3,3 0 0 0 200,82.0986" fill="#FEFFDD" style="stroke:#181818;stroke-width:0.5;"/><path d="M391.75,79.0986 L391.75,87.5986 A1.5,1.5 0 0 0 393.25,89.0986 L401.75,89.0986 L391.75,79.0986" fill="#FEFFDD" style="stroke:#181818;stroke-width:0.5;"/><text fill="#1F3A68" font-family="Arial" font-size="12" lengthAdjust="spacing" textLength="151.418" x="206" y="95.3545">Returns i18n keys instead of</text><text fill="#1F3A68" font-family="Arial" font-size="12" lengthAdjust="spacing" textLength="141.3984" x="206" y="109.1533">hardcoded strings. UI calls</text><text fill="#1F3A68" font-family="Arial" font-size="12" lengthAdjust="spacing" textLength="180.75" x="206" y="122.9521">t(message_key) and t(action_key)</text><text fill="#1F3A68" font-family="Arial" font-size="12" lengthAdjust="spacing" textLength="165.4277" x="206" y="136.751">itself, keeping layer separation.</text></g><g class="entity" data-qualified-name="GMN16" data-source-line="100" id="ent0017"><path d="M636.5,82.0986 L636.5,107.5986 L601.05,111.5986 L636.5,115.5986 L636.5,141.2939 A3,3 0 0 0 639.5,144.2939 L870.6055,144.2939 A3,3 0 0 0 873.6055,141.2939 L873.6055,89.0986 L863.6055,79.0986 L639.5,79.0986 A3,3 0 0 0 636.5,82.0986" fill="#FEFFDD" style="stroke:#181818;stroke-width:0.5;"/><path d="M863.6055,79.0986 L863.6055,87.5986 A1.5,1.5 0 0 0 865.1055,89.0986 L873.6055,89.0986 L863.6055,79.0986" fill="#FEFFDD" style="stroke:#181818;stroke-width:0.5;"/><text fill="#1F3A68" font-family="Arial" font-size="12" lengthAdjust="spacing" textLength="183.457" x="642.5" y="95.3545">Aggregated snapshot for VoteTab.</text><text fill="#1F3A68" font-family="Arial" font-size="12" lengthAdjust="spacing" textLength="216.1055" x="642.5" y="109.1533">Built by AppController.get_voter_status()</text><text fill="#1F3A68" font-family="Arial" font-size="12" lengthAdjust="spacing" textLength="179.4199" x="642.5" y="122.9521">to avoid 3 synchronous RPC calls</text><text fill="#1F3A68" font-family="Arial" font-size="12" lengthAdjust="spacing" textLength="100.043" x="642.5" y="136.751">from the UI thread.</text></g><!--reverse link SessionContext to Voter--><g class="link" data-entity-1="ent0008" data-entity-2="ent0004" data-link-type="composition" data-source-line="106" id="lnk19"><path codeLine="106" d="M1155.1536,177.3749 C1168.6236,212.0649 1181.56,245.3686 1193.97,277.3086" fill="none" id="SessionContext-backto-Voter" style="stroke:#0969DA;stroke-width:1;"/><polygon fill="#0969DA" points="1150.81,166.1886,1149.253,173.2296,1155.1536,177.3749,1156.7106,170.3339,1150.81,166.1886" style="stroke:#0969DA;stroke-width:1;"/><text fill="#7286A5" font-family="Arial" font-size="10" lengthAdjust="spacing" textLength="52.8223" x="1174" y="219.4785">aggregation</text><text fill="#7286A5" font-family="Arial" font-size="10" lengthAdjust="spacing" textLength="5.5615" x="1148.3219" y="183.6602">1</text><text fill="#7286A5" font-family="Arial" font-size="10" lengthAdjust="spacing" textLength="24.4531" x="1165.22" y="267.5221">many</text></g><!--reverse link SessionContext to Candidate--><g class="link" data-entity-1="ent0008" data-entity-2="ent0003" data-link-type="composition" data-source-line="107" id="lnk20"><path codeLine="107" d="M1105.1526,177.3928 C1093.4926,207.7928 1083.25,234.5086 1071.58,264.9186" fill="none" id="SessionContext-backto-Candidate" style="stroke:#0969DA;stroke-width:1;"/><polygon fill="#0969DA" points="1109.45,166.1886,1103.5666,170.3582,1105.1526,177.3928,1111.036,173.2232,1109.45,166.1886" style="stroke:#0969DA;stroke-width:1;"/><text fill="#7286A5" font-family="Arial" font-size="10" lengthAdjust="spacing" textLength="52.8223" x="1094" y="219.4785">aggregation</text><text fill="#7286A5" font-family="Arial" font-size="10" lengthAdjust="spacing" textLength="5.5615" x="1101.4042" y="183.6602">1</text><text fill="#7286A5" font-family="Arial" font-size="10" lengthAdjust="spacing" textLength="24.4531" x="1048.8308" y="254.8536">many</text></g><!--reverse link AuditReport to AuditCheck--><g class="link" data-entity-1="ent0007" data-entity-2="ent0006" data-link-type="composition" data-source-line="108" id="lnk21"><path codeLine="108" d="M1512,178.1886 C1512,212.8786 1512,245.3686 1512,277.3086" fill="none" id="AuditReport-backto-AuditCheck" style="stroke:#0969DA;stroke-width:1;"/><polygon fill="#0969DA" points="1512,166.1886,1508,172.1886,1512,178.1886,1516,172.1886,1512,166.1886" style="stroke:#0969DA;stroke-width:1;"/><text fill="#7286A5" font-family="Arial" font-size="10" lengthAdjust="spacing" textLength="53.3594" x="1513" y="219.4785">composition</text><text fill="#7286A5" font-family="Arial" font-size="10" lengthAdjust="spacing" textLength="5.5615" x="1506.7012" y="183.6602">1</text><text fill="#7286A5" font-family="Arial" font-size="10" lengthAdjust="spacing" textLength="24.4531" x="1486.0022" y="267.5221">many</text></g><!--link PrecheckResult to PrecheckStatus--><g class="link" data-entity-1="ent0010" data-entity-2="ent0009" data-link-type="dependency" data-source-line="110" id="lnk22"><path codeLine="110" d="M1693,172.7386 C1693,197.5586 1693,220.4186 1693,245.8886" fill="none" id="PrecheckResult-to-PrecheckStatus" style="stroke:#0969DA;stroke-width:1;"/><polygon fill="#0969DA" points="1693,251.8886,1697,242.8886,1693,246.8886,1689,242.8886,1693,251.8886" style="stroke:#0969DA;stroke-width:1;"/><text fill="#7286A5" font-family="Arial" font-size="10" lengthAdjust="spacing" textLength="21.123" x="1694" y="219.4785">uses</text></g><?plantuml-src XLLBRziu4BxhLt1pM3ZRZOjYBmiV2hYoWWfnf42MKmH5GD3Is292aIf99J6A_Uyxb6LPScNK5ulp_ERz1vUPg7CWq-b7cgcoLFAZBQ24AQzBuNcMMm745ymOik1ifrb99lSg1s78dsIHnkQQt93x9pzOXkjxuiT9u7aWwv840ZBBbLnPjWFoqoFuMmNf-g7vcljf-1WqdxTX5Aw-1WllFy_B6aS-apdFcJsgVI2IbJ0ZnkhsNJ5jztq2otCDnlH96dRSMD2GpyX6AT6INvK5ZBIMTaQuj2UlZyZGdSSHWvNchmYAlW2wZYiN71FVaV_S2bX5uRrIsjASPtQ2cVbCtDVGHm8PyCfsdkmxBPWf-fusGcKl5BEu0Nr0USAkwGYqx9YnCUOFJJTx2wO7kddtO5_2EwzpRlq2ifSERkPUzBmWnZ9R3xpcO1aNBMbeC06NfCwYGRm8Y_9yK54dIIql0MsNrOouyDopZmFDBx78tqyudxiECGRoVg4Fz2s26j8xRAi33bz92-_ZyCQgdg6yPfazfNvCAeTAg3rjAljBIOzXD2tuV5xJ8xSRYsU7kHco1mrD7bPD-bl8yLtp5qQFysMue7V1K_EEufH--ngcEAch5CUj6SDb4imNJ_GnFbB2QBM-lGtzC8XI-cM-d4T-qAfJFuxI12UtUQ-ZkoZ-5j4WIUBabCGZeWHCBNf9RFjZ2FZoh6sOO383-WQydoqDFsgE4trE1wsLfgviVIFSKFKokMx7_mIHQMoDmAbq-B3B3EwfoxEjsHjjXGPTskouosej_zVU6QwTGVq-43H7NvdWmyqraYQCyAtW5eJRT7qVJks80RSBTMrsYN_CDTXYF0ZZLdWxycFy9liZ0KfqIZJV5PQeRJ_jg9U0hRKqX7_wLxfuyKjY32n7KMGNJESPdfdS1Slbpap9EiIH4C8rZPtqwdLDS2wGT2h5DOfmQq1i_qRJKA4-4MoFszq0NWxcvAOuG3bn2CznzWg2TkQx7HuI73f48bbb2cN95Xl7IQLiCqMHBpN7Jj_ioRogtFBGIWZGqnrOUbZOX-QVE5XM4VQgU4x-8MOliq8hgR3moOFV1RVLgYHuWrt0jj2OaZxMioLrzUcA_7LpGwvA9lTNxGsR4TQYHidVQ9nkxL2hlwZFL7f7OORRhwoKuOsETpRyDtXFpZRKZDIuJxt_0G00?></g></svg>