<svg xmlns="http://www.w3.org/2000/svg" xmlns:xlink="http://www.w3.org/1999/xlink" contentStyleType="text/css" data-diagram-type="DESCRIPTION" height="1204px" preserveAspectRatio="none" style="width:862px;height:1204px;background:#FFFFFF;" version="1.1" viewBox="0 0 862 1204" width="862px" zoomAndPan="magnify">
<!-- MYCELIUM-BG -->
<rect x="0" y="0" width="862" height="1204" fill="white"/>
<?plantuml 1.2026.3?><defs/><g><g class="title" data-source-line="3"><text fill="#1F3A68" font-family="Arial" font-size="14" font-weight="700" lengthAdjust="spacing" textLength="263.7305" x="295.6348" y="23.1318">Use Case Diagram &#8212; MYCELIUM CORE</text></g><!--cluster MYCELIUM CORE--><g class="cluster" data-qualified-name="MYCELIUM CORE" data-source-line="11" id="ent0005"><rect fill="none" height="892" rx="3" ry="3" style="stroke:#181818;stroke-width:1;" width="724" x="124" y="53.9286"/><text fill="#1F3A68" font-family="Arial" font-size="12" font-weight="700" lengthAdjust="spacing" textLength="102" x="435" y="67.1845">MYCELIUM CORE</text></g><!--entity UC_DEPLOY--><g class="entity" data-qualified-name="MYCELIUM CORE.UC_DEPLOY" data-source-line="14" id="ent0006"><ellipse cx="226.2846" cy="306.8855" fill="#F1F1F1" rx="85.2846" ry="19.4569" style="stroke:#181818;stroke-width:0.5;"/><text fill="#1F3A68" font-family="Arial" font-size="12" lengthAdjust="spacing" textLength="149.4082" x="151.5805" y="310.285">Deploy VotingCore Contract</text></g><!--entity UC_CAND--><g class="entity" data-qualified-name="MYCELIUM CORE.UC_CAND" data-source-line="15" id="ent0007"><ellipse cx="226.3849" cy="377.8056" fill="#F1F1F1" rx="67.3849" ry="15.877" style="stroke:#181818;stroke-width:0.5;"/><text fill="#1F3A68" font-family="Arial" font-size="12" lengthAdjust="spacing" textLength="108.7266" x="172.0216" y="381.205">Register Candidates</text></g><!--entity UC_GEN--><g class="entity" data-qualified-name="MYCELIUM CORE.UC_GEN" data-source-line="16" id="ent0008"><ellipse cx="226.4347" cy="445.8156" fill="#F1F1F1" rx="69.9347" ry="16.3869" style="stroke:#181818;stroke-width:0.5;"/><text fill="#1F3A68" font-family="Arial" font-size="12" lengthAdjust="spacing" textLength="114.7207" x="169.0744" y="449.215">Generate Test Voters</text></g><!--entity UC_IO--><g class="entity" data-qualified-name="MYCELIUM CORE.UC_IO" data-source-line="17" id="ent0009"><ellipse cx="226.4833" cy="517.1253" fill="#F1F1F1" rx="86.4833" ry="19.6967" style="stroke:#181818;stroke-width:0.5;"/><text fill="#1F3A68" font-family="Arial" font-size="12" lengthAdjust="spacing" textLength="152.0449" x="150.4608" y="520.5247">Import / Export Voters JSON</text></g><!--entity UC_FUND--><g class="entity" data-qualified-name="MYCELIUM CORE.UC_FUND" data-source-line="18" id="ent0010"><ellipse cx="226.5755" cy="588.0437" fill="#F1F1F1" rx="71.0755" ry="16.6151" style="stroke:#181818;stroke-width:0.5;"/><text fill="#1F3A68" font-family="Arial" font-size="12" lengthAdjust="spacing" textLength="117.375" x="167.888" y="591.4431">Fund Voters with ETH</text></g><!--entity UC_WL--><g class="entity" data-qualified-name="MYCELIUM CORE.UC_WL" data-source-line="19" id="ent0011"><ellipse cx="226.3104" cy="656.8907" fill="#F1F1F1" rx="72.8104" ry="16.9621" style="stroke:#181818;stroke-width:0.5;"/><text fill="#1F3A68" font-family="Arial" font-size="12" lengthAdjust="spacing" textLength="121.3828" x="165.619" y="660.2901">Add Voters to Whitelist</text></g><!--entity UC_START--><g class="entity" data-qualified-name="MYCELIUM CORE.UC_START" data-source-line="20" id="ent0012"><ellipse cx="226.3364" cy="721.6859" fill="#F1F1F1" rx="47.3364" ry="12.7572" style="stroke:#181818;stroke-width:0.5;"/><text fill="#1F3A68" font-family="Arial" font-size="12" lengthAdjust="spacing" textLength="62.7012" x="194.9858" y="725.0853">Start Voting</text></g><!--entity UC_FINISH--><g class="entity" data-qualified-name="MYCELIUM CORE.UC_FINISH" data-source-line="21" id="ent0013"><ellipse cx="226.419" cy="782.7124" fill="#F1F1F1" rx="51.919" ry="12.7838" style="stroke:#181818;stroke-width:0.5;"/><text fill="#1F3A68" font-family="Arial" font-size="12" lengthAdjust="spacing" textLength="69.3691" x="191.7344" y="786.1118">Finish Voting</text></g><!--entity UC_SESSION--><g class="entity" data-qualified-name="MYCELIUM CORE.UC_SESSION" data-source-line="22" id="ent0014"><ellipse cx="226.6622" cy="846.8611" fill="#F1F1F1" rx="67.6622" ry="15.9324" style="stroke:#181818;stroke-width:0.5;"/><text fill="#1F3A68" font-family="Arial" font-size="12" lengthAdjust="spacing" textLength="109.3828" x="171.9708" y="850.2605">Create New Session</text></g><!--entity UC_RESET--><g class="entity" data-qualified-name="MYCELIUM CORE.UC_RESET" data-source-line="23" id="ent0015"><ellipse cx="226.3155" cy="234.8917" fill="#F1F1F1" rx="72.8155" ry="16.9631" style="stroke:#181818;stroke-width:0.5;"/><text fill="#1F3A68" font-family="Arial" font-size="12" lengthAdjust="spacing" textLength="121.3945" x="165.6182" y="238.2911">Reset Blockchain Data</text></g><!--entity UC_AUTH--><g class="entity" data-qualified-name="MYCELIUM CORE.UC_AUTH" data-source-line="26" id="ent0016"><ellipse cx="746.5906" cy="909.9467" fill="#F1F1F1" rx="85.5906" ry="19.5181" style="stroke:#181818;stroke-width:0.5;"/><text fill="#1F3A68" font-family="Arial" font-size="12" lengthAdjust="spacing" textLength="150.082" x="671.5496" y="913.3462">Authenticate via Private Key</text></g><!--entity UC_VOTE--><g class="entity" data-qualified-name="MYCELIUM CORE.UC_VOTE" data-source-line="27" id="ent0017"><ellipse cx="486.7598" cy="894.6859" fill="#F1F1F1" rx="40.2598" ry="12.7572" style="stroke:#181818;stroke-width:0.5;"/><text fill="#1F3A68" font-family="Arial" font-size="12" lengthAdjust="spacing" textLength="52.6934" x="460.4132" y="898.0853">Cast Vote</text></g><!--entity UC_QR--><g class="entity" data-qualified-name="MYCELIUM CORE.UC_QR" data-source-line="28" id="ent0018"><ellipse cx="746.3775" cy="838.8041" fill="#F1F1F1" rx="67.3775" ry="15.8755" style="stroke:#181818;stroke-width:0.5;"/><text fill="#1F3A68" font-family="Arial" font-size="12" lengthAdjust="spacing" textLength="108.709" x="692.023" y="842.2035">Receive QR Receipt</text></g><!--entity UC_MASS--><g class="entity" data-qualified-name="MYCELIUM CORE.UC_MASS" data-source-line="29" id="ent0019"><ellipse cx="226.312" cy="913.691" fill="#F1F1F1" rx="66.812" ry="15.7624" style="stroke:#181818;stroke-width:0.5;"/><text fill="#1F3A68" font-family="Arial" font-size="12" lengthAdjust="spacing" textLength="107.3672" x="172.6284" y="917.0905">Mass Vote (Testing)</text></g><!--entity UC_AUDIT--><g class="entity" data-qualified-name="MYCELIUM CORE.UC_AUDIT" data-source-line="32" id="ent0020"><ellipse cx="226.4912" cy="101.0269" fill="#F1F1F1" rx="63.4912" ry="15.0982" style="stroke:#181818;stroke-width:0.5;"/><text fill="#1F3A68" font-family="Arial" font-size="12" lengthAdjust="spacing" textLength="99.3809" x="176.8008" y="104.4263">Run Security Audit</text></g><!--entity UC_RESULTS--><g class="entity" data-qualified-name="MYCELIUM CORE.UC_RESULTS" data-source-line="33" id="ent0021"><ellipse cx="487.2186" cy="102.8724" fill="#F1F1F1" rx="70.2186" ry="16.4437" style="stroke:#181818;stroke-width:0.5;"/><text fill="#1F3A68" font-family="Arial" font-size="12" lengthAdjust="spacing" textLength="115.3828" x="429.5272" y="106.2718">View Election Results</text></g><!--entity UC_EXPORT--><g class="entity" data-qualified-name="MYCELIUM CORE.UC_EXPORT" data-source-line="34" id="ent0022"><ellipse cx="226.7021" cy="166.9691" fill="#F1F1F1" rx="65.7021" ry="15.5404" style="stroke:#181818;stroke-width:0.5;"/><text fill="#1F3A68" font-family="Arial" font-size="12" lengthAdjust="spacing" textLength="104.7188" x="174.3427" y="170.3685">Export Audit Report</text></g><!--entity ADMIN--><g class="entity" data-qualified-name="ADMIN" data-source-line="7" id="ent0002"><ellipse cx="41.3438" cy="513.4286" fill="#F1F1F1" rx="8" ry="8" style="stroke:#181818;stroke-width:0.5;"/><path d="M41.3438,521.4286 L41.3438,548.4286 M28.3438,529.4286 L54.3438,529.4286 M41.3438,548.4286 L28.3438,563.4286 M41.3438,548.4286 L54.3438,563.4286" fill="none" style="stroke:#181818;stroke-width:0.5;"/><text fill="#1F3A68" font-family="Arial" font-size="12" lengthAdjust="spacing" textLength="70.6875" x="6" y="576.1845">Administrator</text></g><!--entity VOTER--><g class="entity" data-qualified-name="VOTER" data-source-line="8" id="ent0003"><ellipse cx="41.3408" cy="989.4286" fill="#F1F1F1" rx="8" ry="8" style="stroke:#181818;stroke-width:0.5;"/><path d="M41.3408,997.4286 L41.3408,1024.4286 M28.3408,1005.4286 L54.3408,1005.4286 M41.3408,1024.4286 L28.3408,1039.4286 M41.3408,1024.4286 L54.3408,1039.4286" fill="none" style="stroke:#181818;stroke-width:0.5;"/><text fill="#1F3A68" font-family="Arial" font-size="12" lengthAdjust="spacing" textLength="28.6816" x="27" y="1052.1845">Voter</text></g><!--entity AUDITOR--><g class="entity" data-qualified-name="AUDITOR" data-source-line="9" id="ent0004"><ellipse cx="41.5107" cy="72.4286" fill="#F1F1F1" rx="8" ry="8" style="stroke:#181818;stroke-width:0.5;"/><path d="M41.5107,80.4286 L41.5107,107.4286 M28.5107,88.4286 L54.5107,88.4286 M41.5107,107.4286 L28.5107,122.4286 M41.5107,107.4286 L54.5107,122.4286" fill="none" style="stroke:#181818;stroke-width:0.5;"/><text fill="#1F3A68" font-family="Arial" font-size="12" lengthAdjust="spacing" textLength="38.0215" x="22.5" y="135.1845">Auditor</text></g><!--link ADMIN to UC_DEPLOY--><g class="link" data-entity-1="ent0002" data-entity-2="ent0006" data-link-type="dependency" data-source-line="37" id="lnk23"><path d="M46.67,504.6086 C53.54,460.4186 71.28,387.3486 116,343.9286 C127.88,332.3986 137.8048,326.4349 153.4848,320.9649" fill="none" id="ADMIN-to-UC_DEPLOY" style="stroke:#0969DA;stroke-width:1;"/><polygon fill="#0969DA" points="159.15,318.9886,149.3347,318.1763,154.429,320.6356,151.9698,325.7299,159.15,318.9886" style="stroke:#0969DA;stroke-width:1;"/></g><!--link ADMIN to UC_CAND--><g class="link" data-entity-1="ent0002" data-entity-2="ent0007" data-link-type="dependency" data-source-line="38" id="lnk24"><path d="M54.76,504.8986 C66.23,475.6986 86.13,436.0186 116,411.9286 C131.34,399.5586 145.3977,393.2336 163.9777,388.2136" fill="none" id="ADMIN-to-UC_CAND" style="stroke:#0969DA;stroke-width:1;"/><polygon fill="#0969DA" points="169.77,386.6486,160.0382,385.1346,164.9431,387.9528,162.1249,392.8576,169.77,386.6486" style="stroke:#0969DA;stroke-width:1;"/></g><!--link ADMIN to UC_GEN--><g class="link" data-entity-1="ent0002" data-entity-2="ent0008" data-link-type="dependency" data-source-line="39" id="lnk25"><path d="M77.01,507.9186 C88.67,497.8286 102.24,487.4686 116,479.9286 C134.16,469.9886 149.8639,464.1326 168.9639,458.7626" fill="none" id="ADMIN-to-UC_GEN" style="stroke:#0969DA;stroke-width:1;"/><polygon fill="#0969DA" points="174.74,457.1386,164.9933,455.7239,169.9266,458.4919,167.1586,463.4253,174.74,457.1386" style="stroke:#0969DA;stroke-width:1;"/></g><!--link ADMIN to UC_IO--><g class="link" data-entity-1="ent0002" data-entity-2="ent0009" data-link-type="dependency" data-source-line="40" id="lnk26"><path d="M77.35,537.1686 C98.51,534.2786 120.3753,531.2917 146.1853,527.7617" fill="none" id="ADMIN-to-UC_IO" style="stroke:#0969DA;stroke-width:1;"/><polygon fill="#0969DA" points="152.13,526.9486,142.671,524.2051,147.1761,527.6262,143.755,532.1313,152.13,526.9486" style="stroke:#0969DA;stroke-width:1;"/></g><!--link ADMIN to UC_FUND--><g class="link" data-entity-1="ent0002" data-entity-2="ent0010" data-link-type="dependency" data-source-line="41" id="lnk27"><path d="M77.35,550.6886 C105.77,557.8286 140.3809,566.5365 171.8209,574.4365" fill="none" id="ADMIN-to-UC_FUND" style="stroke:#0969DA;stroke-width:1;"/><polygon fill="#0969DA" points="177.64,575.8986,169.8861,569.826,172.7907,574.6801,167.9365,577.5848,177.64,575.8986" style="stroke:#0969DA;stroke-width:1;"/></g><!--link ADMIN to UC_WL--><g class="link" data-entity-1="ent0002" data-entity-2="ent0011" data-link-type="dependency" data-source-line="42" id="lnk28"><path d="M69.55,578.9986 C82.2,594.1186 98.36,610.6586 116,621.9286 C132.73,632.6186 147.2379,638.6157 165.7679,643.9957" fill="none" id="ADMIN-to-UC_WL" style="stroke:#0969DA;stroke-width:1;"/><polygon fill="#0969DA" points="171.53,645.6686,164.0022,639.3178,166.7283,644.2745,161.7716,647.0006,171.53,645.6686" style="stroke:#0969DA;stroke-width:1;"/></g><!--link ADMIN to UC_START--><g class="link" data-entity-1="ent0002" data-entity-2="ent0012" data-link-type="dependency" data-source-line="43" id="lnk29"><path d="M51.55,579.1986 C61.69,613.1086 81.42,662.1386 116,690.9286 C134.3,706.1586 153.7271,712.8436 175.4171,716.7936" fill="none" id="ADMIN-to-UC_START" style="stroke:#0969DA;stroke-width:1;"/><polygon fill="#0969DA" points="181.32,717.8686,173.1823,712.3209,176.4009,716.9728,171.749,720.1914,181.32,717.8686" style="stroke:#0969DA;stroke-width:1;"/></g><!--link ADMIN to UC_FINISH--><g class="link" data-entity-1="ent0002" data-entity-2="ent0013" data-link-type="dependency" data-source-line="44" id="lnk30"><path d="M45.27,578.9886 C50.78,625.8686 67.19,705.9986 116,751.9286 C132.33,767.2986 149.8143,774.0148 170.7743,777.9748" fill="none" id="ADMIN-to-UC_FINISH" style="stroke:#0969DA;stroke-width:1;"/><polygon fill="#0969DA" points="176.67,779.0886,168.569,773.4873,171.7569,778.1604,167.0839,781.3483,176.67,779.0886" style="stroke:#0969DA;stroke-width:1;"/></g><!--link ADMIN to UC_SESSION--><g class="link" data-entity-1="ent0002" data-entity-2="ent0014" data-link-type="dependency" data-source-line="45" id="lnk31"><path d="M41.9,579.3286 C43.06,637.2186 53.9,748.5386 116,812.9286 C129.2,826.6086 141.9988,833.2494 160.1188,838.1594" fill="none" id="ADMIN-to-UC_SESSION" style="stroke:#0969DA;stroke-width:1;"/><polygon fill="#0969DA" points="165.91,839.7286,158.2694,833.514,161.084,838.4209,156.1771,841.2355,165.91,839.7286" style="stroke:#0969DA;stroke-width:1;"/></g><!--link ADMIN to UC_RESET--><g class="link" data-entity-1="ent0002" data-entity-2="ent0015" data-link-type="dependency" data-source-line="46" id="lnk32"><path d="M41.92,504.9286 C43.05,447.0486 53.82,334.9986 116,269.9286 C128.55,256.7986 140.2585,250.2875 157.5585,245.1475" fill="none" id="ADMIN-to-UC_RESET" style="stroke:#0969DA;stroke-width:1;"/><polygon fill="#0969DA" points="163.31,243.4386,153.5435,242.1675,158.5171,244.8627,155.822,249.8362,163.31,243.4386" style="stroke:#0969DA;stroke-width:1;"/></g><!--link VOTER to UC_AUTH--><g class="link" data-entity-1="ent0003" data-entity-2="ent0016" data-link-type="dependency" data-source-line="49" id="lnk33"><path d="M56.1,1037.4386 C67.7,1052.2286 85.82,1071.3986 107,1079.9286 C323.03,1166.9186 425.41,1189.3286 631,1079.9286 C691.78,1047.5786 724.113,972.6701 737.243,935.2601" fill="none" id="VOTER-to-UC_AUTH" style="stroke:#0969DA;stroke-width:1;"/><polygon fill="#0969DA" points="739.23,929.5986,732.4752,936.7661,737.5741,934.3165,740.0237,939.4155,739.23,929.5986" style="stroke:#0969DA;stroke-width:1;"/></g><!--link VOTER to UC_VOTE--><g class="link" data-entity-1="ent0003" data-entity-2="ent0017" data-link-type="dependency" data-source-line="50" id="lnk34"><path d="M56.06,1014.5486 C95.71,1004.6286 214.85,974.5486 313,946.9286 C364.02,932.5686 417.3392,916.2856 451.5892,905.6656" fill="none" id="VOTER-to-UC_VOTE" style="stroke:#0969DA;stroke-width:1;"/><polygon fill="#0969DA" points="457.32,903.8886,447.5391,902.7335,452.5443,905.3694,449.9084,910.3746,457.32,903.8886" style="stroke:#0969DA;stroke-width:1;"/></g><!--link VOTER to UC_QR--><g class="link" data-entity-1="ent0003" data-entity-2="ent0018" data-link-type="dependency" data-source-line="51" id="lnk35"><path d="M56.41,1019.2786 C125.55,1025.2686 436.78,1043.5986 631,910.9286 C648.77,898.7886 643.77,885.8186 661,872.9286 C673.41,863.6386 683.0812,858.5932 697.2312,853.2932" fill="none" id="VOTER-to-UC_QR" style="stroke:#0969DA;stroke-width:1;"/><polygon fill="#0969DA" points="702.85,851.1886,693.0188,850.5996,698.1677,852.9424,695.8249,858.0913,702.85,851.1886" style="stroke:#0969DA;stroke-width:1;"/></g><!--link VOTER to UC_MASS--><g class="link" data-entity-1="ent0003" data-entity-2="ent0019" data-link-type="dependency" data-source-line="52" id="lnk36"><path d="M56.16,1001.7286 C68.31,988.1786 87.19,969.1486 107,956.9286 C129.54,943.0286 151.5057,934.4244 174.4657,927.3544" fill="none" id="VOTER-to-UC_MASS" style="stroke:#0969DA;stroke-width:1;"/><polygon fill="#0969DA" points="180.2,925.5886,170.4214,924.4144,175.4214,927.0601,172.7757,932.0601,180.2,925.5886" style="stroke:#0969DA;stroke-width:1;"/></g><!--link AUDITOR to UC_AUDIT--><g class="link" data-entity-1="ent0004" data-entity-2="ent0020" data-link-type="dependency" data-source-line="55" id="lnk37"><path d="M60.72,100.9286 C84.4,100.9286 121,100.9286 156.95,100.9286" fill="none" id="AUDITOR-to-UC_AUDIT" style="stroke:#0969DA;stroke-width:1;"/><polygon fill="#0969DA" points="162.95,100.9286,153.95,96.9286,157.95,100.9286,153.95,104.9286,162.95,100.9286" style="stroke:#0969DA;stroke-width:1;"/></g><!--link AUDITOR to UC_RESULTS--><g class="link" data-entity-1="ent0004" data-entity-2="ent0021" data-link-type="dependency" data-source-line="56" id="lnk38"><path d="M60.79,90.0886 C75.22,82.1986 96.17,72.1786 116,67.9286 C231.93,43.0986 366.255,70.4313 436.115,88.6913" fill="none" id="AUDITOR-to-UC_RESULTS" style="stroke:#0969DA;stroke-width:1;"/><polygon fill="#0969DA" points="441.92,90.2086,434.2241,84.0627,437.0825,88.9442,432.201,91.8027,441.92,90.2086" style="stroke:#0969DA;stroke-width:1;"/></g><!--link AUDITOR to UC_EXPORT--><g class="link" data-entity-1="ent0004" data-entity-2="ent0022" data-link-type="dependency" data-source-line="57" id="lnk39"><path d="M60.7,109.5186 C75.43,116.3086 96.82,125.7986 116,132.9286 C138.11,141.1486 157.4579,147.3317 178.0479,153.4417" fill="none" id="AUDITOR-to-UC_EXPORT" style="stroke:#0969DA;stroke-width:1;"/><polygon fill="#0969DA" points="183.8,155.1486,176.3098,148.7535,179.0066,153.7262,174.0339,156.423,183.8,155.1486" style="stroke:#0969DA;stroke-width:1;"/></g><!--link UC_VOTE to UC_AUTH--><g class="link" data-entity-1="ent0017" data-entity-2="ent0016" data-link-type="dependency" data-source-line="60" id="lnk40"><path d="M527.11,897.2086 C563.2,899.3086 611.9502,902.1495 657.5902,904.8095" fill="none" id="UC_VOTE-to-UC_AUTH" style="stroke:#0969DA;stroke-width:1;stroke-dasharray:7,7;"/><polygon fill="#0969DA" points="663.58,905.1586,654.828,900.6418,658.5885,904.8677,654.3625,908.6282,663.58,905.1586" style="stroke:#0969DA;stroke-width:1;"/><text fill="#7286A5" font-family="Arial" font-size="10" lengthAdjust="spacing" textLength="42.8125" x="588" y="899.3085">&#171;include&#187;</text></g><!--link UC_VOTE to UC_QR--><g class="link" data-entity-1="ent0017" data-entity-2="ent0018" data-link-type="dependency" data-source-line="61" id="lnk41"><path d="M520.87,887.7786 C565.21,878.1386 638.6771,862.1638 690.2171,850.9538" fill="none" id="UC_VOTE-to-UC_QR" style="stroke:#0969DA;stroke-width:1;stroke-dasharray:7,7;"/><polygon fill="#0969DA" points="696.08,849.6786,686.4355,847.6828,691.1942,850.7413,688.1357,855.5,696.08,849.6786" style="stroke:#0969DA;stroke-width:1;"/><text fill="#7286A5" font-family="Arial" font-size="10" lengthAdjust="spacing" textLength="42.8125" x="588" y="863.3085">&#171;include&#187;</text></g><!--link UC_MASS to UC_VOTE--><g class="link" data-entity-1="ent0019" data-entity-2="ent0017" data-link-type="dependency" data-source-line="62" id="lnk42"><path d="M290.74,909.2786 C339.76,905.6786 400.1261,901.2385 441.4861,898.1985" fill="none" id="UC_MASS-to-UC_VOTE" style="stroke:#0969DA;stroke-width:1;stroke-dasharray:7,7;"/><polygon fill="#0969DA" points="447.47,897.7586,438.201,894.4291,442.4835,898.1251,438.7874,902.4076,447.47,897.7586" style="stroke:#0969DA;stroke-width:1;"/><text fill="#7286A5" font-family="Arial" font-size="10" lengthAdjust="spacing" textLength="42.8125" x="344" y="900.3085">&#171;include&#187;</text></g><!--link UC_AUDIT to UC_RESULTS--><g class="link" data-entity-1="ent0020" data-entity-2="ent0021" data-link-type="dependency" data-source-line="63" id="lnk43"><path d="M290.08,101.4186 C328.33,101.7086 371.3102,102.043 410.7302,102.343" fill="none" id="UC_AUDIT-to-UC_RESULTS" style="stroke:#0969DA;stroke-width:1;stroke-dasharray:7,7;"/><polygon fill="#0969DA" points="416.73,102.3886,407.7607,98.3203,411.7301,102.3506,407.6998,106.32,416.73,102.3886" style="stroke:#0969DA;stroke-width:1;"/><text fill="#7286A5" font-family="Arial" font-size="10" lengthAdjust="spacing" textLength="42.8125" x="344" y="99.3085">&#171;include&#187;</text></g><?plantuml-src VPNDRfj04CVlFCNKbxQ7EFSgYaI19BGsE7mupIbQBLDxLLWYTd4QLPNo47d2F4cMXSMiuqIoB1X-CpiV_u5FZDEoBH3cyzCxMbTLpK_b5YkSixOg7KSoMIBa0i4ZwizdPDEG2bwUdc5vwmMBC5-25oU1uvJuMuAieM6RhOI2DKWbgxdZ42hh1cPkKJ7EX6o8kfq14U3wop0oZzUrnDwyZhCW6RtQWeryxeTPd3XE5vhmZKfiPYKnWt-E0_0PNfwVr0-i8ySYnF1OaQr0sfKry_6-h1z19S7ungiRHTPS-L6fJywzEpzOBUBRgK-26nKR6nMK5wmW4eM1FJVof-WbSbH986Ge9EXIH_OoYAPeMDtNZOHJ2FxgYnw67saS6OymdZfSjBmmr0EJMmYoAqDUv7OURZ6YQb8tMoQnL3KO_6OnXLD9-lDLImoHPcwIMQTt3TuUK1TX5APNKynhi2i_mWT8KGYbYp5YaAPX7DcD5IZXUrdJFtHB60UVI6Bu94Y3p9goBkZ3wRgjaZINZ7Ovx1Y1LSDstVLFV3HntJopCoR3f0pGoTBEaYBR8Lmde2_lnpPU9rDkIOJGWU1BDttLfgy6NBffQWksL_k7nIGjLpsaRSFaO--mBq7jnnHTCzNleEmNKMKfsbAAIIFpHPPE-K5oEgZ2knj31xzMSPAztIwWDUVz0PDazMR3oScvjJcMTLWHozQlWcNIMhSiWwOjcnQkPJ52jLsDBcrqLA1bVazeHmlMxopZEKZ9iWtgiMnQ9vRbNK4SxtB_FjmVsu__mBoVyy638oDLhq7a1NBAfj8RqbUVYB4y-0PdPyEdu_pyBQEMuWZHbMS8JHzXT9866d8_uFuxhm00?></g></svg>