<svg xmlns="http://www.w3.org/2000/svg" xmlns:xlink="http://www.w3.org/1999/xlink" contentStyleType="text/css" data-diagram-type="DESCRIPTION" height="1322px" preserveAspectRatio="none" style="width:938px;height:1322px;background:#FFFFFF;" version="1.1" viewBox="0 0 938 1322" width="938px" zoomAndPan="magnify"><?plantuml 1.2026.3?><defs/><g><g class="title" data-source-line="3"><text fill="#1F3A68" font-family="Arial" font-size="14" font-weight="700" lengthAdjust="spacing" textLength="407.4355" x="261.7822" y="23.1318">&#1044;&#1080;&#1072;&#1075;&#1088;&#1072;&#1084;&#1084;&#1072; &#1074;&#1072;&#1088;&#1080;&#1072;&#1085;&#1090;&#1086;&#1074; &#1080;&#1089;&#1087;&#1086;&#1083;&#1100;&#1079;&#1086;&#1074;&#1072;&#1085;&#1080;&#1103; &#8212; MYCELIUM CORE</text></g><!--cluster MYCELIUM CORE--><g class="cluster" data-qualified-name="MYCELIUM CORE" data-source-line="11" id="ent0005"><rect fill="none" height="992" rx="3" ry="3" style="stroke:#181818;stroke-width:1;" width="784" x="140" y="58.0786"/><text fill="#1F3A68" font-family="Arial" font-size="12" font-weight="700" lengthAdjust="spacing" textLength="102" x="481" y="71.3345">MYCELIUM CORE</text></g><!--entity UC_DEPLOY--><g class="entity" data-qualified-name="MYCELIUM CORE.UC_DEPLOY" data-source-line="14" id="ent0006"><ellipse cx="268.5902" cy="333.2967" fill="#F1F1F1" rx="91.5902" ry="20.718" style="stroke:#181818;stroke-width:0.5;"/><text fill="#1F3A68" font-family="Arial" font-size="12" lengthAdjust="spacing" textLength="163.1953" x="186.9926" y="336.6961">&#1044;&#1077;&#1087;&#1083;&#1086;&#1081; &#1082;&#1086;&#1085;&#1090;&#1088;&#1072;&#1082;&#1090;&#1072; VotingCore</text></g><!--entity UC_CAND--><g class="entity" data-qualified-name="MYCELIUM CORE.UC_CAND" data-source-line="15" id="ent0007"><ellipse cx="268.3606" cy="407.0508" fill="#F1F1F1" rx="80.3606" ry="18.4721" style="stroke:#181818;stroke-width:0.5;"/><text fill="#1F3A68" font-family="Arial" font-size="12" lengthAdjust="spacing" textLength="138.4863" x="199.1174" y="410.4502">&#1056;&#1077;&#1075;&#1080;&#1089;&#1090;&#1088;&#1072;&#1094;&#1080;&#1103; &#1082;&#1072;&#1085;&#1076;&#1080;&#1076;&#1072;&#1090;&#1086;&#1074;</text></g><!--entity UC_GEN--><g class="entity" data-qualified-name="MYCELIUM CORE.UC_GEN" data-source-line="16" id="ent0008"><ellipse cx="268.3722" cy="484.2531" fill="#F1F1F1" rx="103.8722" ry="23.1744" style="stroke:#181818;stroke-width:0.5;"/><text fill="#1F3A68" font-family="Arial" font-size="12" lengthAdjust="spacing" textLength="189.5801" x="173.5822" y="487.6525">&#1043;&#1077;&#1085;&#1077;&#1088;&#1072;&#1094;&#1080;&#1103; &#1090;&#1077;&#1089;&#1090;&#1086;&#1074;&#1099;&#1093; &#1080;&#1079;&#1073;&#1080;&#1088;&#1072;&#1090;&#1077;&#1083;&#1077;&#1081;</text></g><!--entity UC_IO--><g class="entity" data-qualified-name="MYCELIUM CORE.UC_IO" data-source-line="17" id="ent0009"><ellipse cx="268.4702" cy="566.9727" fill="#F1F1F1" rx="112.4702" ry="24.894" style="stroke:#181818;stroke-width:0.5;"/><text fill="#1F3A68" font-family="Arial" font-size="12" lengthAdjust="spacing" textLength="207.7852" x="164.5776" y="570.3721">&#1048;&#1084;&#1087;&#1086;&#1088;&#1090; / &#1069;&#1082;&#1089;&#1087;&#1086;&#1088;&#1090; &#1080;&#1079;&#1073;&#1080;&#1088;&#1072;&#1090;&#1077;&#1083;&#1077;&#1081; JSON</text></g><!--entity UC_FUND--><g class="entity" data-qualified-name="MYCELIUM CORE.UC_FUND" data-source-line="18" id="ent0010"><ellipse cx="268.742" cy="652.227" fill="#F1F1F1" rx="111.242" ry="24.6484" style="stroke:#181818;stroke-width:0.5;"/><text fill="#1F3A68" font-family="Arial" font-size="12" lengthAdjust="spacing" textLength="205.1953" x="166.1443" y="655.6264">&#1060;&#1080;&#1085;&#1072;&#1085;&#1089;&#1080;&#1088;&#1086;&#1074;&#1072;&#1085;&#1080;&#1077; &#1080;&#1079;&#1073;&#1080;&#1088;&#1072;&#1090;&#1077;&#1083;&#1077;&#1081; (ETH)</text></g><!--entity UC_WL--><g class="entity" data-qualified-name="MYCELIUM CORE.UC_WL" data-source-line="19" id="ent0011"><ellipse cx="268.6711" cy="729.0129" fill="#F1F1F1" rx="75.1711" ry="17.4342" style="stroke:#181818;stroke-width:0.5;"/><text fill="#1F3A68" font-family="Arial" font-size="12" lengthAdjust="spacing" textLength="126.7852" x="205.2785" y="732.4123">&#1044;&#1086;&#1073;&#1072;&#1074;&#1083;&#1077;&#1085;&#1080;&#1077; &#1074; Whitelist</text></g><!--entity UC_START--><g class="entity" data-qualified-name="MYCELIUM CORE.UC_START" data-source-line="20" id="ent0012"><ellipse cx="268.541" cy="797.8868" fill="#F1F1F1" rx="69.541" ry="16.3082" style="stroke:#181818;stroke-width:0.5;"/><text fill="#1F3A68" font-family="Arial" font-size="12" lengthAdjust="spacing" textLength="113.8008" x="211.6406" y="801.2862">&#1053;&#1072;&#1095;&#1072;&#1090;&#1100; &#1075;&#1086;&#1083;&#1086;&#1089;&#1086;&#1074;&#1072;&#1085;&#1080;&#1077;</text></g><!--entity UC_FINISH--><g class="entity" data-qualified-name="MYCELIUM CORE.UC_FINISH" data-source-line="21" id="ent0013"><ellipse cx="268.5314" cy="868.2849" fill="#F1F1F1" rx="79.0314" ry="18.2063" style="stroke:#181818;stroke-width:0.5;"/><text fill="#1F3A68" font-family="Arial" font-size="12" lengthAdjust="spacing" textLength="135.5098" x="200.7765" y="871.6843">&#1047;&#1072;&#1074;&#1077;&#1088;&#1096;&#1080;&#1090;&#1100; &#1075;&#1086;&#1083;&#1086;&#1089;&#1086;&#1074;&#1072;&#1085;&#1080;&#1077;</text></g><!--entity UC_SESSION--><g class="entity" data-qualified-name="MYCELIUM CORE.UC_SESSION" data-source-line="22" id="ent0014"><ellipse cx="268.6992" cy="939.1185" fill="#F1F1F1" rx="75.6992" ry="17.5398" style="stroke:#181818;stroke-width:0.5;"/><text fill="#1F3A68" font-family="Arial" font-size="12" lengthAdjust="spacing" textLength="127.9863" x="204.706" y="942.5179">&#1057;&#1086;&#1079;&#1076;&#1072;&#1090;&#1100; &#1085;&#1086;&#1074;&#1091;&#1102; &#1089;&#1077;&#1089;&#1089;&#1080;&#1102;</text></g><!--entity UC_RESET--><g class="entity" data-qualified-name="MYCELIUM CORE.UC_RESET" data-source-line="23" id="ent0015"><ellipse cx="268.5632" cy="257.0913" fill="#F1F1F1" rx="90.5632" ry="20.5126" style="stroke:#181818;stroke-width:0.5;"/><text fill="#1F3A68" font-family="Arial" font-size="12" lengthAdjust="spacing" textLength="160.9629" x="188.0817" y="260.4907">&#1057;&#1073;&#1088;&#1086;&#1089;&#1080;&#1090;&#1100; &#1076;&#1072;&#1085;&#1085;&#1099;&#1077; &#1073;&#1083;&#1086;&#1082;&#1095;&#1077;&#1081;&#1085;&#1072;</text></g><!--entity UC_AUTH--><g class="entity" data-qualified-name="MYCELIUM CORE.UC_AUTH" data-source-line="26" id="ent0016"><ellipse cx="824.1558" cy="1015.3098" fill="#F1F1F1" rx="84.1558" ry="19.2312" style="stroke:#181818;stroke-width:0.5;"/><text fill="#1F3A68" font-family="Arial" font-size="12" lengthAdjust="spacing" textLength="146.918" x="750.6969" y="1018.7092">&#1040;&#1091;&#1090;&#1077;&#1085;&#1090;&#1080;&#1092;&#1080;&#1082;&#1072;&#1094;&#1080;&#1103; &#1087;&#1086; &#1082;&#1083;&#1102;&#1095;&#1091;</text></g><!--entity UC_VOTE--><g class="entity" data-qualified-name="MYCELIUM CORE.UC_VOTE" data-source-line="27" id="ent0017"><ellipse cx="560.3254" cy="998.8437" fill="#F1F1F1" rx="56.8254" ry="13.7651" style="stroke:#181818;stroke-width:0.5;"/><text fill="#1F3A68" font-family="Arial" font-size="12" lengthAdjust="spacing" textLength="82.6348" x="519.008" y="1002.2431">&#1055;&#1086;&#1076;&#1072;&#1095;&#1072; &#1075;&#1086;&#1083;&#1086;&#1089;&#1072;</text></g><!--entity UC_QR--><g class="entity" data-qualified-name="MYCELIUM CORE.UC_QR" data-source-line="28" id="ent0018"><ellipse cx="823.8218" cy="942.043" fill="#F1F1F1" rx="82.8218" ry="18.9644" style="stroke:#181818;stroke-width:0.5;"/><text fill="#1F3A68" font-family="Arial" font-size="12" lengthAdjust="spacing" textLength="143.9648" x="751.8394" y="945.4424">&#1055;&#1086;&#1083;&#1091;&#1095;&#1077;&#1085;&#1080;&#1077; QR-&#1082;&#1074;&#1080;&#1090;&#1072;&#1085;&#1094;&#1080;&#1080;</text></g><!--entity UC_MASS--><g class="entity" data-qualified-name="MYCELIUM CORE.UC_MASS" data-source-line="29" id="ent0019"><ellipse cx="268.7357" cy="1013.0258" fill="#F1F1F1" rx="92.7357" ry="20.9471" style="stroke:#181818;stroke-width:0.5;"/><text fill="#1F3A68" font-family="Arial" font-size="12" lengthAdjust="spacing" textLength="165.6797" x="185.8958" y="1016.4252">&#1052;&#1072;&#1089;&#1089;&#1086;&#1074;&#1086;&#1077; &#1075;&#1086;&#1083;&#1086;&#1089;&#1086;&#1074;&#1072;&#1085;&#1080;&#1077; (&#1058;&#1077;&#1089;&#1090;)</text></g><!--entity UC_AUDIT--><g class="entity" data-qualified-name="MYCELIUM CORE.UC_AUDIT" data-source-line="32" id="ent0020"><ellipse cx="268.291" cy="110.9368" fill="#F1F1F1" rx="89.791" ry="20.3582" style="stroke:#181818;stroke-width:0.5;"/><text fill="#1F3A68" font-family="Arial" font-size="12" lengthAdjust="spacing" textLength="159.2813" x="188.6504" y="114.3362">&#1047;&#1072;&#1087;&#1091;&#1089;&#1082; &#1072;&#1091;&#1076;&#1080;&#1090;&#1072; &#1073;&#1077;&#1079;&#1086;&#1087;&#1072;&#1089;&#1085;&#1086;&#1089;&#1090;&#1080;</text></g><!--entity UC_RESULTS--><g class="entity" data-qualified-name="MYCELIUM CORE.UC_RESULTS" data-source-line="33" id="ent0021"><ellipse cx="560.3616" cy="109.051" fill="#F1F1F1" rx="75.3616" ry="17.4723" style="stroke:#181818;stroke-width:0.5;"/><text fill="#1F3A68" font-family="Arial" font-size="12" lengthAdjust="spacing" textLength="127.2188" x="496.7522" y="112.4504">&#1055;&#1088;&#1086;&#1089;&#1084;&#1086;&#1090;&#1088; &#1088;&#1077;&#1079;&#1091;&#1083;&#1100;&#1090;&#1072;&#1090;&#1086;&#1074;</text></g><!--entity UC_EXPORT--><g class="entity" data-qualified-name="MYCELIUM CORE.UC_EXPORT" data-source-line="34" id="ent0022"><ellipse cx="268.5729" cy="184.0932" fill="#F1F1F1" rx="75.5729" ry="17.5146" style="stroke:#181818;stroke-width:0.5;"/><text fill="#1F3A68" font-family="Arial" font-size="12" lengthAdjust="spacing" textLength="127.6992" x="204.7233" y="187.4926">&#1069;&#1082;&#1089;&#1087;&#1086;&#1088;&#1090; &#1086;&#1090;&#1095;&#1077;&#1090;&#1072; &#1072;&#1091;&#1076;&#1080;&#1090;&#1072;</text></g><!--entity ADMIN--><g class="entity" data-qualified-name="ADMIN" data-source-line="7" id="ent0002"><ellipse cx="49.4883" cy="564.5786" fill="#F1F1F1" rx="8" ry="8" style="stroke:#181818;stroke-width:0.5;"/><path d="M49.4883,572.5786 L49.4883,599.5786 M36.4883,580.5786 L62.4883,580.5786 M49.4883,599.5786 L36.4883,614.5786 M49.4883,599.5786 L62.4883,614.5786" fill="none" style="stroke:#181818;stroke-width:0.5;"/><text fill="#1F3A68" font-family="Arial" font-size="12" lengthAdjust="spacing" textLength="86.9766" x="6" y="627.3345">&#1040;&#1076;&#1084;&#1080;&#1085;&#1080;&#1089;&#1090;&#1088;&#1072;&#1090;&#1086;&#1088;</text></g><!--entity VOTER--><g class="entity" data-qualified-name="VOTER" data-source-line="8" id="ent0003"><ellipse cx="49.7373" cy="1093.5786" fill="#F1F1F1" rx="8" ry="8" style="stroke:#181818;stroke-width:0.5;"/><path d="M49.7373,1101.5786 L49.7373,1128.5786 M36.7373,1109.5786 L62.7373,1109.5786 M49.7373,1128.5786 L36.7373,1143.5786 M49.7373,1128.5786 L62.7373,1143.5786" fill="none" style="stroke:#181818;stroke-width:0.5;"/><text fill="#1F3A68" font-family="Arial" font-size="12" lengthAdjust="spacing" textLength="66.4746" x="16.5" y="1156.3345">&#1048;&#1079;&#1073;&#1080;&#1088;&#1072;&#1090;&#1077;&#1083;&#1100;</text></g><!--entity AUDITOR--><g class="entity" data-qualified-name="AUDITOR" data-source-line="9" id="ent0004"><ellipse cx="49.2764" cy="82.5786" fill="#F1F1F1" rx="8" ry="8" style="stroke:#181818;stroke-width:0.5;"/><path d="M49.2764,90.5786 L49.2764,117.5786 M36.2764,98.5786 L62.2764,98.5786 M49.2764,117.5786 L36.2764,132.5786 M49.2764,117.5786 L62.2764,132.5786" fill="none" style="stroke:#181818;stroke-width:0.5;"/><text fill="#1F3A68" font-family="Arial" font-size="12" lengthAdjust="spacing" textLength="46.5527" x="26" y="145.3345">&#1040;&#1091;&#1076;&#1080;&#1090;&#1086;&#1088;</text></g><!--link ADMIN to UC_DEPLOY--><g class="link" data-entity-1="ent0002" data-entity-2="ent0006" data-link-type="dependency" data-source-line="37" id="lnk23"><path d="M53.86,555.9586 C60.32,506.6586 78.94,420.1286 132,371.0786 C147.16,357.0586 161.2978,349.7962 181.1778,344.1562" fill="none" id="ADMIN-to-UC_DEPLOY" style="stroke:#0969DA;stroke-width:1;"/><polygon fill="#0969DA" points="186.95,342.5186,177.2,341.1269,182.1398,343.8833,179.3834,348.8231,186.95,342.5186" style="stroke:#0969DA;stroke-width:1;"/></g><!--link ADMIN to UC_CAND--><g class="link" data-entity-1="ent0002" data-entity-2="ent0007" data-link-type="dependency" data-source-line="38" id="lnk24"><path d="M61.23,556.0286 C73.06,521.7386 95.42,471.8386 132,443.0786 C150.08,428.8586 167.4411,421.6097 189.5111,416.3897" fill="none" id="ADMIN-to-UC_CAND" style="stroke:#0969DA;stroke-width:1;"/><polygon fill="#0969DA" points="195.35,415.0086,185.671,413.1876,190.4842,416.1595,187.5123,420.9728,195.35,415.0086" style="stroke:#0969DA;stroke-width:1;"/></g><!--link ADMIN to UC_GEN--><g class="link" data-entity-1="ent0002" data-entity-2="ent0008" data-link-type="dependency" data-source-line="39" id="lnk25"><path d="M87.86,555.8086 C100.96,544.3386 116.34,532.5286 132,524.0786 C150.89,513.8886 166.9294,507.6666 187.4594,501.6866" fill="none" id="ADMIN-to-UC_GEN" style="stroke:#0969DA;stroke-width:1;"/><polygon fill="#0969DA" points="193.22,500.0086,183.4605,498.6852,188.4195,501.4069,185.6977,506.366,193.22,500.0086" style="stroke:#0969DA;stroke-width:1;"/></g><!--link ADMIN to UC_IO--><g class="link" data-entity-1="ent0002" data-entity-2="ent0009" data-link-type="dependency" data-source-line="40" id="lnk26"><path d="M93.11,587.9686 C114.84,585.3686 136.2727,582.8031 162.8727,579.6131" fill="none" id="ADMIN-to-UC_IO" style="stroke:#0969DA;stroke-width:1;"/><polygon fill="#0969DA" points="168.83,578.8986,159.4177,575.9987,163.8656,579.494,160.3703,583.9418,168.83,578.8986" style="stroke:#0969DA;stroke-width:1;"/></g><!--link ADMIN to UC_FUND--><g class="link" data-entity-1="ent0002" data-entity-2="ent0010" data-link-type="dependency" data-source-line="41" id="lnk27"><path d="M93.11,604.6586 C122.86,612.7486 157.4504,622.1538 191.8604,631.5138" fill="none" id="ADMIN-to-UC_FUND" style="stroke:#0969DA;stroke-width:1;"/><polygon fill="#0969DA" points="197.65,633.0886,190.0155,626.8666,192.8253,631.7762,187.9156,634.5861,197.65,633.0886" style="stroke:#0969DA;stroke-width:1;"/></g><!--link ADMIN to UC_WL--><g class="link" data-entity-1="ent0002" data-entity-2="ent0011" data-link-type="dependency" data-source-line="42" id="lnk28"><path d="M72.07,630.3686 C86.43,652.0186 107.19,678.0886 132,694.0786 C152.83,707.4986 172.7178,714.5001 196.1478,719.6101" fill="none" id="ADMIN-to-UC_WL" style="stroke:#0969DA;stroke-width:1;"/><polygon fill="#0969DA" points="202.01,720.8886,194.0691,715.0627,197.1248,719.8232,192.3644,722.879,202.01,720.8886" style="stroke:#0969DA;stroke-width:1;"/></g><!--link ADMIN to UC_START--><g class="link" data-entity-1="ent0002" data-entity-2="ent0012" data-link-type="dependency" data-source-line="43" id="lnk29"><path d="M58.34,630.2186 C68.55,669.3386 90.26,729.9086 132,764.0786 C151.61,780.1286 171.8949,787.6217 196.0149,792.1917" fill="none" id="ADMIN-to-UC_START" style="stroke:#0969DA;stroke-width:1;"/><polygon fill="#0969DA" points="201.91,793.3086,193.812,787.7031,196.9974,792.3778,192.3227,795.5633,201.91,793.3086" style="stroke:#0969DA;stroke-width:1;"/></g><!--link ADMIN to UC_FINISH--><g class="link" data-entity-1="ent0002" data-entity-2="ent0013" data-link-type="dependency" data-source-line="44" id="lnk30"><path d="M52.61,630.3986 C57.64,683.0186 74.63,778.5286 132,832.0786 C148.82,847.7686 165.8346,855.4254 187.9946,860.5554" fill="none" id="ADMIN-to-UC_FINISH" style="stroke:#0969DA;stroke-width:1;"/><polygon fill="#0969DA" points="193.84,861.9086,185.974,855.9819,188.9688,860.781,184.1697,863.7758,193.84,861.9086" style="stroke:#0969DA;stroke-width:1;"/></g><!--link ADMIN to UC_SESSION--><g class="link" data-entity-1="ent0002" data-entity-2="ent0014" data-link-type="dependency" data-source-line="45" id="lnk31"><path d="M55.53,630.0986 C66.24,703.6686 93.54,864.5086 132,903.0786 C148.85,919.9686 166.7852,927.9322 189.7552,932.8922" fill="none" id="ADMIN-to-UC_SESSION" style="stroke:#0969DA;stroke-width:1;"/><polygon fill="#0969DA" points="195.62,934.1586,187.667,928.3491,190.7326,933.1033,185.9785,936.1689,195.62,934.1586" style="stroke:#0969DA;stroke-width:1;"/></g><!--link ADMIN to UC_RESET--><g class="link" data-entity-1="ent0002" data-entity-2="ent0015" data-link-type="dependency" data-source-line="46" id="lnk32"><path d="M49.66,556.0586 C50.32,493.4486 61.02,366.5086 132,295.0786 C146.55,280.4286 160.488,272.947 180.358,267.307" fill="none" id="ADMIN-to-UC_RESET" style="stroke:#0969DA;stroke-width:1;"/><polygon fill="#0969DA" points="186.13,265.6686,176.3798,264.2782,181.32,267.0339,178.5643,271.9741,186.13,265.6686" style="stroke:#0969DA;stroke-width:1;"/></g><!--link VOTER to UC_AUTH--><g class="link" data-entity-1="ent0003" data-entity-2="ent0016" data-link-type="dependency" data-source-line="49" id="lnk33"><path d="M82.58,1158.0086 C94.16,1168.4686 108.09,1178.5686 123,1184.0786 C367.74,1274.4486 479.9,1307.0186 710,1184.0786 C770.55,1151.7286 802.3647,1076.6511 815.0947,1039.7211" fill="none" id="VOTER-to-UC_AUTH" style="stroke:#0969DA;stroke-width:1;"/><polygon fill="#0969DA" points="817.05,1034.0486,810.3354,1041.2538,815.4206,1038.7757,817.8986,1043.8609,817.05,1034.0486" style="stroke:#0969DA;stroke-width:1;"/></g><!--link VOTER to UC_VOTE--><g class="link" data-entity-1="ent0003" data-entity-2="ent0017" data-link-type="dependency" data-source-line="50" id="lnk34"><path d="M82.58,1115.9786 C141.84,1104.5486 272.32,1078.5386 381,1051.0786 C431.23,1038.3786 482.9077,1022.9408 518.7477,1011.8608" fill="none" id="VOTER-to-UC_VOTE" style="stroke:#0969DA;stroke-width:1;"/><polygon fill="#0969DA" points="524.48,1010.0886,514.7001,1008.9253,519.7031,1011.5654,517.063,1016.5684,524.48,1010.0886" style="stroke:#0969DA;stroke-width:1;"/></g><!--link VOTER to UC_QR--><g class="link" data-entity-1="ent0003" data-entity-2="ent0018" data-link-type="dependency" data-source-line="51" id="lnk35"><path d="M82.78,1125.8686 C184.84,1136.1286 505.77,1155.0186 710,1016.0786 C727.79,1003.9686 722.95,991.1986 740,978.0786 C750.71,969.8386 758.0716,965.4472 770.4616,960.0972" fill="none" id="VOTER-to-UC_QR" style="stroke:#0969DA;stroke-width:1;"/><polygon fill="#0969DA" points="775.97,957.7186,766.1217,957.6142,771.3797,959.7007,769.2931,964.9587,775.97,957.7186" style="stroke:#0969DA;stroke-width:1;"/></g><!--link VOTER to UC_MASS--><g class="link" data-entity-1="ent0003" data-entity-2="ent0019" data-link-type="dependency" data-source-line="52" id="lnk36"><path d="M82.82,1090.3586 C94.73,1079.9486 108.79,1069.0286 123,1061.0786 C148.26,1046.9386 172.5977,1037.825 198.7577,1030.065" fill="none" id="VOTER-to-UC_MASS" style="stroke:#0969DA;stroke-width:1;"/><polygon fill="#0969DA" points="204.51,1028.3586,194.7441,1027.0833,199.7165,1029.7806,197.0192,1034.753,204.51,1028.3586" style="stroke:#0969DA;stroke-width:1;"/></g><!--link AUDITOR to UC_AUDIT--><g class="link" data-entity-1="ent0004" data-entity-2="ent0020" data-link-type="dependency" data-source-line="55" id="lnk37"><path d="M73.31,111.0786 C98.34,111.0786 134.07,111.0786 172.44,111.0786" fill="none" id="AUDITOR-to-UC_AUDIT" style="stroke:#0969DA;stroke-width:1;"/><polygon fill="#0969DA" points="178.44,111.0786,169.44,107.0786,173.44,111.0786,169.44,115.0786,178.44,111.0786" style="stroke:#0969DA;stroke-width:1;"/></g><!--link AUDITOR to UC_RESULTS--><g class="link" data-entity-1="ent0004" data-entity-2="ent0021" data-link-type="dependency" data-source-line="56" id="lnk38"><path d="M73.08,97.2686 C88.93,88.4186 110.97,77.7386 132,73.0786 C267.25,43.0986 425.8213,74.215 505.6113,94.285" fill="none" id="AUDITOR-to-UC_RESULTS" style="stroke:#0969DA;stroke-width:1;"/><polygon fill="#0969DA" points="511.43,95.7486,503.6776,89.674,506.581,94.5289,501.7261,97.4324,511.43,95.7486" style="stroke:#0969DA;stroke-width:1;"/></g><!--link AUDITOR to UC_EXPORT--><g class="link" data-entity-1="ent0004" data-entity-2="ent0022" data-link-type="dependency" data-source-line="57" id="lnk39"><path d="M73.21,123.0386 C89.3,131.1686 111.57,141.7486 132,149.0786 C157.96,158.3886 181.694,164.9353 206.574,170.8753" fill="none" id="AUDITOR-to-UC_EXPORT" style="stroke:#0969DA;stroke-width:1;"/><polygon fill="#0969DA" points="212.41,172.2686,204.5849,166.288,207.5467,171.1075,202.7272,174.0693,212.41,172.2686" style="stroke:#0969DA;stroke-width:1;"/></g><!--link UC_VOTE to UC_AUTH--><g class="link" data-entity-1="ent0017" data-entity-2="ent0016" data-link-type="dependency" data-source-line="60" id="lnk40"><path d="M616,1002.4086 C652.67,1004.6586 695.6612,1007.2814 736.7612,1009.8014" fill="none" id="UC_VOTE-to-UC_AUTH" style="stroke:#0969DA;stroke-width:1;stroke-dasharray:7,7;"/><polygon fill="#0969DA" points="742.75,1010.1686,734.0117,1005.6253,737.7594,1009.8626,733.5221,1013.6103,742.75,1010.1686" style="stroke:#0969DA;stroke-width:1;"/><text fill="#7286A5" font-family="Arial" font-size="10" lengthAdjust="spacing" textLength="42.8125" x="667" y="1003.4585">&#171;include&#187;</text></g><!--link UC_VOTE to UC_QR--><g class="link" data-entity-1="ent0017" data-entity-2="ent0018" data-link-type="dependency" data-source-line="61" id="lnk41"><path d="M603.81,989.8586 C647.03,980.4286 708.6576,966.9964 757.3376,956.3864" fill="none" id="UC_VOTE-to-UC_QR" style="stroke:#0969DA;stroke-width:1;stroke-dasharray:7,7;"/><polygon fill="#0969DA" points="763.2,955.1086,753.5546,953.117,758.3147,956.1734,755.2583,960.9335,763.2,955.1086" style="stroke:#0969DA;stroke-width:1;"/><text fill="#7286A5" font-family="Arial" font-size="10" lengthAdjust="spacing" textLength="42.8125" x="667" y="965.4585">&#171;include&#187;</text></g><!--link UC_MASS to UC_VOTE--><g class="link" data-entity-1="ent0019" data-entity-2="ent0017" data-link-type="dependency" data-source-line="62" id="lnk42"><path d="M359.27,1008.7386 C406.68,1006.4486 457.357,1004.0085 498.287,1002.0285" fill="none" id="UC_MASS-to-UC_VOTE" style="stroke:#0969DA;stroke-width:1;stroke-dasharray:7,7;"/><polygon fill="#0969DA" points="504.28,1001.7386,495.0972,998.1782,499.2858,1001.9802,495.4838,1006.1688,504.28,1001.7386" style="stroke:#0969DA;stroke-width:1;"/><text fill="#7286A5" font-family="Arial" font-size="10" lengthAdjust="spacing" textLength="42.8125" x="412" y="1002.4585">&#171;include&#187;</text></g><!--link UC_AUDIT to UC_RESULTS--><g class="link" data-entity-1="ent0020" data-entity-2="ent0021" data-link-type="dependency" data-source-line="63" id="lnk43"><path d="M358.48,110.4586 C398.94,110.1786 440.2701,109.9006 478.8501,109.6306" fill="none" id="UC_AUDIT-to-UC_RESULTS" style="stroke:#0969DA;stroke-width:1;stroke-dasharray:7,7;"/><polygon fill="#0969DA" points="484.85,109.5886,475.8222,105.6517,479.8501,109.6236,475.8782,113.6515,484.85,109.5886" style="stroke:#0969DA;stroke-width:1;"/><text fill="#7286A5" font-family="Arial" font-size="10" lengthAdjust="spacing" textLength="42.8125" x="412" y="107.4585">&#171;include&#187;</text></g><?plantuml-src XLRTJXfH4BxVfvXoKtkXtZV6XC1QQO3LtKNhbI6mrKrWju7bgcaYsjOc6jka9FMYJN_IsoQ04X54Nk6SL_19EdDspy91Z55GXfblPhxvPk29wvKgZR83IqlBkoM_MlMzvM3VgJfBRgDQqRJ03IeEi1RhipQxu0VuV8C_RM1TriQNP1xnGtRBki3wlCd6-E-Gdx8hCj6RQFqCTmSjoEsaz6oca8EKOUgQLd5U1n3uK7FtzWCekpMd5BY-fsd5Kk3N8C6-i4lCr1S8JNv8kIaHFqX0iGx9T2wJZttFCLy7_KAV7bKWlBOCMpSdYFm8CVlJA8LqnZPCJQFiHMyFUqqeTIRWhQO1F8MxrW7-Gh9STJst7jIA15ceEv0grfrwz3PwDkfE2IsOhOLrZDaGURW6Di0_ex09Di02sh3b1wwtb_9hZgYaaDfDwnjPOqV1-8KO5rFzVnHi8XeHYwtWensoBq5IoNnQWVYA42FMcmedXWYHmlW9_u23cwKF7zSIyOMULm3FSIfZOf0VmZAmVzXFCpRCXuANbf6NU1b3WVihHamgQegmM3Qizn3QWcwlFvDmQuMPXbi8qK68hl2EWBgmlUy6JWL79mEtiqhO3qnnJ6duAI3djpGvB6cg71besKdJLcA_YNJ8CVz4ydeKOIsJprZh2iHlzBiAnqdX8p6S8tu6Y43J8dBEuWfqoyeO-Hc03h4d70N4fSWwuYVKVqS8SO0T8e74juGoTKkt5OcZC9r7f8sB9CP1cz_dxx6rmKISA0LIw92VyMD-9FCa2xRQy4-ivpBaV9gjk31QtNi1Gqny74zrqrp4H5snqIGWB83rPVocgKH_nrJDQ1gtnCZS0S42-nCkHwolNDAor1FGABkFBZyfOep5Dja0CBEyEssQH4ySnp4LH7CMgzYVy8GNIUqx6kiDFkCL07o920Y9HuuWrVt7UHQojgKWpAmemI29OJbJjKa8_TM6OThtpnwKVCyBh_HKp-8Gm-BYgdB256jqanHRU5KKapWCYYNQRSKcrbQno7rKG-MAgQxnuYZcXvPWRiFYCqL6Hh9MR95o5PjGes9vK5VpMGu_g2PfGvNCc2V3dtbZpaZJpXl7ApjUoPrMS5G-VXs8suFdiB8IVKrONRtlisdEyw3sf8VmdkCZYfHEKUqpVk-q_m00?></g></svg>