<svg xmlns="http://www.w3.org/2000/svg" xmlns:xlink="http://www.w3.org/1999/xlink" contentStyleType="text/css" data-diagram-type="STATE" height="590px" preserveAspectRatio="none" style="width:601px;height:590px;background:#FFFFFF;" version="1.1" viewBox="0 0 601 590" width="601px" zoomAndPan="magnify">
<!-- MYCELIUM-BG -->
<rect x="0" y="0" width="601" height="590" fill="white"/>

<rect width="100%" height="100%" fill="white"/>
<?plantuml 1.2026.3?><defs/><g><g class="title" data-source-line="3"><text fill="#1F3A68" font-family="Arial" font-size="14" font-weight="700" lengthAdjust="spacing" textLength="241.958" x="176.492" y="23.1318">State Diagram - GethManager States</text></g><g class="entity" data-qualified-name="Stopped" id="ent0002"><rect fill="#F4F7FB" height="61.3965" rx="3" ry="3" style="stroke:#C4D3E8;stroke-width:0.5;" width="120.043" x="212.44" y="124.0986"/><line style="stroke:#C4D3E8;stroke-width:0.5;" x1="212.44" x2="332.483" y1="147.8975" y2="147.8975"/><text fill="#1F3A68" font-family="Arial" font-size="12" lengthAdjust="spacing" textLength="44.707" x="250.108" y="140.3545">Stopped</text><text fill="#1F3A68" font-family="Arial" font-size="12" lengthAdjust="spacing" textLength="100.043" x="217.44" y="164.1533">- _process is None</text><text fill="#1F3A68" font-family="Arial" font-size="12" lengthAdjust="spacing" textLength="94.0488" x="217.44" y="177.9521">- port 8545 is free</text></g><g class="entity" data-qualified-name="Starting" id="ent0003"><rect fill="#F4F7FB" height="61.3965" rx="3" ry="3" style="stroke:#C4D3E8;stroke-width:0.5;" width="181.3789" x="20.94" y="258.0986"/><line style="stroke:#C4D3E8;stroke-width:0.5;" x1="20.94" x2="202.3189" y1="281.8975" y2="281.8975"/><text fill="#1F3A68" font-family="Arial" font-size="12" lengthAdjust="spacing" textLength="41.3555" x="90.9517" y="274.3545">Starting</text><text fill="#1F3A68" font-family="Arial" font-size="12" lengthAdjust="spacing" textLength="123.375" x="25.94" y="298.1533">- process.poll() is None</text><text fill="#1F3A68" font-family="Arial" font-size="12" lengthAdjust="spacing" textLength="161.3789" x="25.94" y="311.9521">- wait-for-rpc grace period (5s)</text></g><g class="entity" data-qualified-name="Running" id="ent0004"><rect fill="#F4F7FB" height="61.3965" rx="3" ry="3" style="stroke:#C4D3E8;stroke-width:0.5;" width="164.7148" x="196.94" y="392.0986"/><line style="stroke:#C4D3E8;stroke-width:0.5;" x1="196.94" x2="361.6548" y1="415.8975" y2="415.8975"/><text fill="#1F3A68" font-family="Arial" font-size="12" lengthAdjust="spacing" textLength="44.7012" x="256.9468" y="408.3545">Running</text><text fill="#1F3A68" font-family="Arial" font-size="12" lengthAdjust="spacing" textLength="144.7148" x="201.94" y="432.1533">- RPC is ready (block &gt;= 0)</text><text fill="#1F3A68" font-family="Arial" font-size="12" lengthAdjust="spacing" textLength="120.0469" x="201.94" y="445.9521">- MonitorThread active</text></g><g class="start_entity" data-qualified-name=".start." data-source-line="5" id="ent0002"><ellipse cx="272.44" cy="53.0986" fill="#0969DA" rx="10" ry="10" style="stroke:#222222;stroke-width:1;"/></g><g class="entity" data-qualified-name="Crashed" id="ent0006"><rect fill="#F4F7FB" height="50" rx="3" ry="3" style="stroke:#C4D3E8;stroke-width:0.5;" width="65.3574" x="246.94" y="526.0986"/><line style="stroke:#C4D3E8;stroke-width:0.5;" x1="246.94" x2="312.2974" y1="549.8975" y2="549.8975"/><text fill="#1F3A68" font-family="Arial" font-size="12" lengthAdjust="spacing" textLength="45.3574" x="256.94" y="542.3545">Crashed</text></g><!--link *start* to Stopped--><g class="link" data-entity-1="ent0002" data-entity-2="ent0002" data-link-type="dependency" data-source-line="5" id="lnk3"><path d="M272.44,63.2786 C272.44,76.9486 272.44,97.2386 272.44,117.9486" fill="none" id="*start*-to-Stopped" style="stroke:#0969DA;stroke-width:1;"/><polygon fill="#0969DA" points="272.44,123.9486,276.44,114.9486,272.44,118.9486,268.44,114.9486,272.44,123.9486" style="stroke:#0969DA;stroke-width:1;"/></g><!--link Stopped to Starting--><g class="link" data-entity-1="ent0002" data-entity-2="ent0003" data-link-type="dependency" data-source-line="12" id="lnk4"><path d="M212.18,162.7286 C178.44,170.0686 138.79,184.9386 116.44,215.0986 C107.5,227.1586 105.4824,237.6865 106.2124,251.9065" fill="none" id="Stopped-to-Starting" style="stroke:#0969DA;stroke-width:1;"/><polygon fill="#0969DA" points="106.52,257.8986,110.0533,248.7054,106.2637,252.9052,102.0638,249.1155,106.52,257.8986" style="stroke:#0969DA;stroke-width:1;"/><text fill="#7286A5" font-family="Arial" font-size="10" lengthAdjust="spacing" textLength="128.3838" x="117.44" y="225.4785">start() [spawns geth process]</text></g><!--link Starting to Running--><g class="link" data-entity-1="ent0003" data-entity-2="ent0004" data-link-type="dependency" data-source-line="19" id="lnk5"><path d="M119.49,319.3686 C124.65,333.7786 132.64,350.4386 144.44,362.0986 C159.11,376.5886 172.4436,385.3532 191.3136,393.9832" fill="none" id="Starting-to-Running" style="stroke:#0969DA;stroke-width:1;"/><polygon fill="#0969DA" points="196.77,396.4786,190.249,389.0978,192.223,394.3991,186.9217,396.3731,196.77,396.4786" style="stroke:#0969DA;stroke-width:1;"/><text fill="#7286A5" font-family="Arial" font-size="10" lengthAdjust="spacing" textLength="100.0293" x="145.44" y="359.4785">wait_for_rpc() success</text></g><!--link Starting to Crashed--><g class="link" data-entity-1="ent0003" data-entity-2="ent0006" data-link-type="dependency" data-source-line="20" id="lnk7"><path d="M79.92,319.1486 C47.62,353.1086 6,409.7086 35.44,453.0986 C83.43,523.8286 186.0469,542.4116 240.7169,547.6016" fill="none" id="Starting-to-Crashed" style="stroke:#0969DA;stroke-width:1;"/><polygon fill="#0969DA" points="246.69,548.1686,238.1083,543.336,241.7124,547.6961,237.3523,551.3002,246.69,548.1686" style="stroke:#0969DA;stroke-width:1;"/><text fill="#7286A5" font-family="Arial" font-size="10" lengthAdjust="spacing" textLength="142.8467" x="36.44" y="426.4785">process terminates during grace</text></g><!--link Running to Crashed--><g class="link" data-entity-1="ent0004" data-entity-2="ent0006" data-link-type="dependency" data-source-line="27" id="lnk8"><path d="M279.44,453.2586 C279.44,475.3086 279.44,499.0386 279.44,519.7186" fill="none" id="Running-to-Crashed" style="stroke:#0969DA;stroke-width:1;"/><polygon fill="#0969DA" points="279.44,525.7186,283.44,516.7186,279.44,520.7186,275.44,516.7186,279.44,525.7186" style="stroke:#0969DA;stroke-width:1;"/><text fill="#7286A5" font-family="Arial" font-size="10" lengthAdjust="spacing" textLength="146.1865" x="280.44" y="493.4785">process terminates unexpectedly</text></g><!--link Running to Stopped--><g class="link" data-entity-1="ent0004" data-entity-2="ent0002" data-link-type="dependency" data-source-line="28" id="lnk9"><path d="M278.66,392.0486 C277.32,340.9386 274.728,242.5766 273.378,191.3366" fill="none" id="Running-to-Stopped" style="stroke:#0969DA;stroke-width:1;"/><polygon fill="#0969DA" points="273.22,185.3386,269.4584,194.4409,273.3517,190.3369,277.4556,194.2302,273.22,185.3386" style="stroke:#0969DA;stroke-width:1;"/><text fill="#7286A5" font-family="Arial" font-size="10" lengthAdjust="spacing" textLength="130.3467" x="278.44" y="292.4785">stop() [shutting_down = True]</text></g><!--link Crashed to Stopped--><g class="link" data-entity-1="ent0006" data-entity-2="ent0002" data-link-type="dependency" data-source-line="29" id="lnk10"><path d="M312.17,549.2486 C349.06,546.3186 407.51,535.3186 435.44,496.0986 C496.97,409.6886 469.93,350.2786 417.44,258.0986 C398.37,224.6086 368.6017,202.2903 337.7617,185.2503" fill="none" id="Crashed-to-Stopped" style="stroke:#0969DA;stroke-width:1;"/><polygon fill="#0969DA" points="332.51,182.3486,338.453,190.2023,336.8864,184.7667,342.322,183.2001,332.51,182.3486" style="stroke:#0969DA;stroke-width:1;"/><text fill="#7286A5" font-family="Arial" font-size="10" lengthAdjust="spacing" textLength="119.502" x="466.44" y="359.4785">stop() [user acknowledges]</text></g><?plantuml-src XP9FImCn4CNl-HJZhHLswy622FPImLD5Qc-bB36PxePcav0_haNyxYQx6skfu9uIydlptipibL1C1evGbhEAwRRLQkORRB4KePM4UE4bmgkd7k5HqDhI5WfuGj-igA8rsk7D4RAzta5HBE9T6uES4DUBnYjy4eXVljt78fMncg5p81myQuKNWD7MmztyTfw8lKKaNuHaOB2YrWjLHzgbusGAMsTefnpKCI6C1hjJbf7FONxaHMPBewMCTSup_U8wAdonrxQmXa4S1qCmQ8NcC9cxwP1mn5F4TL1ga2PX5OLL54O35rZoEwUNbhgcxpxFngDjXKeJ1XviudhFt54kFpHqCYjW_R9CJLYa_0YJDwdP0HOFS3Ez85TQ2Q_jfaaiKER5Up_fpFmRB2ZyCCWySdayKvsMwUAftquJVEgsuhfJy00R6t17SlM_DS75luooWzATH5vZtESt?></g></svg>