<svg xmlns="http://www.w3.org/2000/svg" xmlns:xlink="http://www.w3.org/1999/xlink" contentStyleType="text/css" data-diagram-type="STATE" height="481px" preserveAspectRatio="none" style="width:705px;height:481px;background:#FFFFFF;" version="1.1" viewBox="0 0 705 481" width="705px" zoomAndPan="magnify"><?plantuml 1.2026.3?><defs/><g><g class="title" data-source-line="3"><text fill="#1F3A68" font-family="Arial" font-size="14" font-weight="700" lengthAdjust="spacing" textLength="258.2959" x="220.0928" y="23.1318">State Diagram - SessionContext States</text></g><g class="entity" data-qualified-name="NotInitialized" id="ent0002"><rect fill="#F4F7FB" height="61.3965" rx="3" ry="3" style="stroke:#C4D3E8;stroke-width:0.5;" width="163.4023" x="181" y="124.0986"/><line style="stroke:#C4D3E8;stroke-width:0.5;" x1="181" x2="344.4023" y1="147.8975" y2="147.8975"/><text fill="#1F3A68" font-family="Arial" font-size="12" lengthAdjust="spacing" textLength="68.7012" x="228.3506" y="140.3545">NotInitialized</text><text fill="#1F3A68" font-family="Arial" font-size="12" lengthAdjust="spacing" textLength="108.0527" x="186" y="164.1533">- session_id is None</text><text fill="#1F3A68" font-family="Arial" font-size="12" lengthAdjust="spacing" textLength="143.4023" x="186" y="177.9521">- contract_address is None</text></g><g class="entity" data-qualified-name="SetupStage" id="ent0003"><rect fill="#F4F7FB" height="75.1953" rx="3" ry="3" style="stroke:#C4D3E8;stroke-width:0.5;" width="166.7305" x="7" y="258.0986"/><line style="stroke:#C4D3E8;stroke-width:0.5;" x1="7" x2="173.7305" y1="281.8975" y2="281.8975"/><text fill="#1F3A68" font-family="Arial" font-size="12" lengthAdjust="spacing" textLength="62.7188" x="59.0059" y="274.3545">SetupStage</text><text fill="#1F3A68" font-family="Arial" font-size="12" lengthAdjust="spacing" textLength="143.4023" x="12" y="298.1533">- contract_address is None</text><text fill="#1F3A68" font-family="Arial" font-size="12" lengthAdjust="spacing" textLength="128.7246" x="12" y="311.9521">- candidate_list is empty</text><text fill="#1F3A68" font-family="Arial" font-size="12" lengthAdjust="spacing" textLength="146.7305" x="12" y="325.751">- UI: Deploy button is active</text></g><g class="entity" data-qualified-name="ContractDeployed" id="ent0004"><rect fill="#F4F7FB" height="61.3965" rx="3" ry="3" style="stroke:#C4D3E8;stroke-width:0.5;" width="180.084" x="172.5" y="406.0986"/><line style="stroke:#C4D3E8;stroke-width:0.5;" x1="172.5" x2="352.584" y1="429.8975" y2="429.8975"/><text fill="#1F3A68" font-family="Arial" font-size="12" lengthAdjust="spacing" textLength="96.0527" x="214.5156" y="422.3545">ContractDeployed</text><text fill="#1F3A68" font-family="Arial" font-size="12" lengthAdjust="spacing" textLength="139.3945" x="177.5" y="446.1533">- contract_address is valid</text><text fill="#1F3A68" font-family="Arial" font-size="12" lengthAdjust="spacing" textLength="160.084" x="177.5" y="459.9521">- UI: Deploy button is disabled</text></g><g class="start_entity" data-qualified-name=".start." data-source-line="5" id="ent0002"><ellipse cx="262.5" cy="53.0986" fill="#0969DA" rx="10" ry="10" style="stroke:#222222;stroke-width:1;"/></g><!--link *start* to NotInitialized--><g class="link" data-entity-1="ent0002" data-entity-2="ent0002" data-link-type="dependency" data-source-line="5" id="lnk3"><path d="M262.5,63.2786 C262.5,76.9486 262.5,97.2386 262.5,117.9486" fill="none" id="*start*-to-NotInitialized" style="stroke:#0969DA;stroke-width:1;"/><polygon fill="#0969DA" points="262.5,123.9486,266.5,114.9486,262.5,118.9486,258.5,114.9486,262.5,123.9486" style="stroke:#0969DA;stroke-width:1;"/></g><!--link NotInitialized to SetupStage--><g class="link" data-entity-1="ent0002" data-entity-2="ent0003" data-link-type="dependency" data-source-line="12" id="lnk4"><path d="M180.59,159.0686 C140.3,165.4286 95.01,180.5386 69.5,215.0986 C60.34,227.4986 60.4396,238.0106 66.1696,252.4706" fill="none" id="NotInitialized-to-SetupStage" style="stroke:#0969DA;stroke-width:1;"/><polygon fill="#0969DA" points="68.38,258.0486,68.7831,248.208,66.538,253.4003,61.3458,251.1552,68.38,258.0486" style="stroke:#0969DA;stroke-width:1;"/><text fill="#7286A5" font-family="Arial" font-size="10" lengthAdjust="spacing" textLength="165.6396" x="70.5" y="225.4785">create_session() [session_id created]</text></g><!--link SetupStage to ContractDeployed--><g class="link" data-entity-1="ent0003" data-entity-2="ent0004" data-link-type="dependency" data-source-line="20" id="lnk5"><path d="M116.75,333.0986 C128.24,347.5486 142.5,363.6486 157.5,376.0986 C170.88,387.2086 181.4101,394.3925 196.5701,403.0525" fill="none" id="SetupStage-to-ContractDeployed" style="stroke:#0969DA;stroke-width:1;"/><polygon fill="#0969DA" points="201.78,406.0286,195.9492,398.0912,197.4384,403.5486,191.9811,405.0377,201.78,406.0286" style="stroke:#0969DA;stroke-width:1;"/><text fill="#7286A5" font-family="Arial" font-size="10" lengthAdjust="spacing" textLength="77.2607" x="158.5" y="373.4785">deploy_contract()</text></g><!--link ContractDeployed to NotInitialized--><g class="link" data-entity-1="ent0004" data-entity-2="ent0002" data-link-type="dependency" data-source-line="27" id="lnk6"><path d="M262.5,405.7786 C262.5,351.9286 262.5,245.0586 262.5,191.2986" fill="none" id="ContractDeployed-to-NotInitialized" style="stroke:#0969DA;stroke-width:1;"/><polygon fill="#0969DA" points="262.5,185.2986,258.5,194.2986,262.5,190.2986,266.5,194.2986,262.5,185.2986" style="stroke:#0969DA;stroke-width:1;"/><text fill="#7286A5" font-family="Arial" font-size="10" lengthAdjust="spacing" textLength="162.8516" x="263.5" y="299.4785">new_session() [archives old session]</text></g><!--link ContractDeployed to NotInitialized--><g class="link" data-entity-1="ent0004" data-entity-2="ent0002" data-link-type="dependency" data-source-line="28" id="lnk7"><path d="M348.09,406.0486 C381.2,389.9486 415.61,366.3486 434.5,333.0986 C450.97,304.1186 450.97,287.0786 434.5,258.0986 C414.84,223.4886 383.7905,201.8901 349.4605,185.7601" fill="none" id="ContractDeployed-to-NotInitialized-1" style="stroke:#0969DA;stroke-width:1;"/><polygon fill="#0969DA" points="344.03,183.2086,350.4747,190.6562,348.5554,185.3349,353.8767,183.4156,344.03,183.2086" style="stroke:#0969DA;stroke-width:1;"/><text fill="#7286A5" font-family="Arial" font-size="10" lengthAdjust="spacing" textLength="240.9814" x="448.5" y="299.4785">reset_blockchain_data() [chain deleted + new session]</text></g><?plantuml-src ZLAzRi8m4Dxz5DSDMW4xGnTOMBgWJWXPnZx1gOwDuWijhVhkFIUa3IIjkYNsztk-EmhMLmvXEfrf6uiYXXaViC0fLOLNYeazmfeD8op9x4jJm0JMc1B5i8Y1yOsRwwJKvduBayaZF4LU1M8odjxHAPLg-lKfV2YuFPgBT6gaDJcW9820mpWhtgMnh8rpfN2-qPzAtS1pf3LoTPISUnIsBL42wOlLQ0oRZcjpwRPjx0upHxuI-YD67sc28vTzFINEE2oEVEu3drTpMEBHnpFiAkOOCbOiw5INww1piSKbGCEeX-FgJzr66utRAZriBZGWC5ph9EDqln46GpjAPkTb0oHsZzLV514A-Dfz5bFQWzHE4BrhDsFxJoc9ZQntFjeNUp0KjCpUPD7wJuRaKPuP7hBdZ_ON?></g></svg>