<svg xmlns="http://www.w3.org/2000/svg" xmlns:xlink="http://www.w3.org/1999/xlink" contentStyleType="text/css" data-diagram-type="STATE" height="973px" preserveAspectRatio="none" style="width:427px;height:973px;background:#FFFFFF;" version="1.1" viewBox="0 0 427 973" width="427px" zoomAndPan="magnify"><?plantuml 1.2026.3?><defs/><g><g class="title" data-source-line="3"><text fill="#1F3A68" font-family="Arial" font-size="14" font-weight="700" lengthAdjust="spacing" textLength="400.5313" x="10" y="23.1318">&#1044;&#1080;&#1072;&#1075;&#1088;&#1072;&#1084;&#1084;&#1072; &#1089;&#1086;&#1089;&#1090;&#1086;&#1103;&#1085;&#1080;&#1081;: &#1046;&#1080;&#1079;&#1085;&#1077;&#1085;&#1085;&#1099;&#1081; &#1094;&#1080;&#1082;&#1083; &#1089;&#1084;&#1072;&#1088;&#1090;-&#1082;&#1086;&#1085;&#1090;&#1088;&#1072;&#1082;&#1090;&#1072;</text></g><!--cluster Finished--><g class="cluster" data-qualified-name="Finished" data-source-line="27" id="ent0006"><path d="M137.0156,662.0986 L391.0156,662.0986 A3,3 0 0 1 394.0156,665.0986 L394.0156,680.8975 L134.0156,680.8975 L134.0156,665.0986 A3,3 0 0 1 137.0156,662.0986" fill="#F4F7FB"/><rect fill="none" height="220" rx="3" ry="3" style="stroke:#C4D3E8;stroke-width:0.5;" width="260" x="134.0156" y="662.0986"/><line style="stroke:#C4D3E8;stroke-width:0.5;" x1="134.0156" x2="394.0156" y1="680.8975" y2="680.8975"/><text fill="#1F3A68" font-family="Arial" font-size="12" lengthAdjust="spacing" textLength="45.3574" x="241.3369" y="677.3545">Finished</text></g><g class="entity" data-qualified-name="Finished.StageFinished" id="ent0007"><rect fill="#F4F7FB" height="75.1953" rx="3" ry="3" style="stroke:#C4D3E8;stroke-width:0.5;" width="204.1367" x="166.0156" y="783.0986"/><line style="stroke:#C4D3E8;stroke-width:0.5;" x1="166.0156" x2="370.1523" y1="806.8975" y2="806.8975"/><text fill="#1F3A68" font-family="Arial" font-size="12" lengthAdjust="spacing" textLength="76.7168" x="229.7256" y="799.3545">StageFinished</text><text fill="#1F3A68" font-family="Arial" font-size="12" lengthAdjust="spacing" textLength="184.1367" x="171.0156" y="823.1533">- &#1082;&#1086;&#1085;&#1090;&#1088;&#1072;&#1082;&#1090; &#1087;&#1086;&#1083;&#1085;&#1086;&#1089;&#1090;&#1100;&#1102; &#1079;&#1072;&#1084;&#1086;&#1088;&#1086;&#1078;&#1077;&#1085;</text><text fill="#1F3A68" font-family="Arial" font-size="12" lengthAdjust="spacing" textLength="164.3262" x="171.0156" y="836.9521">- &#1092;&#1091;&#1085;&#1082;&#1094;&#1080;&#1080; &#1072;&#1091;&#1076;&#1080;&#1090;&#1072; &#1088;&#1072;&#1079;&#1088;&#1077;&#1096;&#1077;&#1085;&#1099;</text><text fill="#1F3A68" font-family="Arial" font-size="12" lengthAdjust="spacing" textLength="137.0098" x="171.0156" y="850.751">- &#1087;&#1086;&#1073;&#1077;&#1076;&#1080;&#1090;&#1077;&#1083;&#1100; &#1086;&#1087;&#1088;&#1077;&#1076;&#1077;&#1083;&#1077;&#1085;</text></g><g class="start_entity" data-qualified-name="Finished..start.Finished" data-source-line="28" id="ent0010"><ellipse cx="268.0156" cy="712.0986" fill="#0969DA" rx="10" ry="10" style="stroke:#222222;stroke-width:1;"/></g><path d="M34.5156,136.0986 L250.0078,136.0986 A3,3 0 0 1 253.0078,139.0986 L253.0078,159.8975 L31.5156,159.8975 L31.5156,139.0986 A3,3 0 0 1 34.5156,136.0986" fill="#F4F7FB"/><rect fill="none" height="192.793" rx="3" ry="3" style="stroke:#C4D3E8;stroke-width:0.5;" width="221.4922" x="31.5156" y="136.0986"/><line style="stroke:#C4D3E8;stroke-width:0.5;" x1="31.5156" x2="253.0078" y1="159.8975" y2="159.8975"/><text fill="#1F3A68" font-family="Arial" font-size="12" lengthAdjust="spacing" textLength="31.3594" x="126.582" y="152.3545">Setup</text><g class="entity" data-qualified-name="Setup.StageSetup" id="ent0003"><rect fill="#F4F7FB" height="88.9941" rx="3" ry="3" style="stroke:#C4D3E8;stroke-width:0.5;" width="185.4922" x="43.5156" y="226.8975"/><line style="stroke:#C4D3E8;stroke-width:0.5;" x1="43.5156" x2="229.0078" y1="250.6963" y2="250.6963"/><text fill="#1F3A68" font-family="Arial" font-size="12" lengthAdjust="spacing" textLength="62.7188" x="104.9023" y="243.1533">StageSetup</text><text fill="#1F3A68" font-family="Arial" font-size="12" lengthAdjust="spacing" textLength="163.9395" x="48.5156" y="266.9521">- candidates.length: &#1086;&#1090; 0 &#1076;&#1086; 10</text><text fill="#1F3A68" font-family="Arial" font-size="12" lengthAdjust="spacing" textLength="148.5117" x="48.5156" y="280.751">- addCandidate() &#1088;&#1072;&#1079;&#1088;&#1077;&#1096;&#1077;&#1085;</text><text fill="#1F3A68" font-family="Arial" font-size="12" lengthAdjust="spacing" textLength="159.1699" x="48.5156" y="294.5498">- addVotersBatch() &#1088;&#1072;&#1079;&#1088;&#1077;&#1096;&#1077;&#1085;</text><text fill="#1F3A68" font-family="Arial" font-size="12" lengthAdjust="spacing" textLength="165.4922" x="48.5156" y="308.3486">- &#1075;&#1086;&#1083;&#1086;&#1089;&#1086;&#1074;&#1072;&#1085;&#1080;&#1077; &#1079;&#1072;&#1073;&#1083;&#1086;&#1082;&#1080;&#1088;&#1086;&#1074;&#1072;&#1085;&#1086;</text></g><g class="start_entity" data-qualified-name="Setup..start.Setup" data-source-line="8" id="ent0004"><ellipse cx="136.0156" cy="180.8975" fill="#0969DA" rx="10" ry="10" style="stroke:#222222;stroke-width:1;"/></g><!--link *start*Setup to StageSetup--><g class="link" data-entity-1="ent0004" data-entity-2="ent0003" data-link-type="dependency" data-source-line="8" id="lnk5"><path d="M136.0156,191.0375 C136.0156,199.6075 136.0156,207.0675 136.0156,220.4975" fill="none" id="*start*Setup-to-StageSetup" style="stroke:#0969DA;stroke-width:1;"/><polygon fill="#0969DA" points="136.0156,226.4975,140.0156,217.4975,136.0156,221.4975,132.0156,217.4975,136.0156,226.4975" style="stroke:#0969DA;stroke-width:1;"/></g><path d="M28.5156,402.0986 L255.8906,402.0986 A3,3 0 0 1 258.8906,405.0986 L258.8906,425.8975 L25.5156,425.8975 L25.5156,405.0986 A3,3 0 0 1 28.5156,402.0986" fill="#F4F7FB"/><rect fill="none" height="192.793" rx="3" ry="3" style="stroke:#C4D3E8;stroke-width:0.5;" width="233.375" x="25.5156" y="402.0986"/><line style="stroke:#C4D3E8;stroke-width:0.5;" x1="25.5156" x2="258.8906" y1="425.8975" y2="425.8975"/><text fill="#1F3A68" font-family="Arial" font-size="12" lengthAdjust="spacing" textLength="32.6777" x="125.8643" y="418.3545">Active</text><g class="entity" data-qualified-name="Active.StageActive" id="ent0005"><rect fill="#F4F7FB" height="88.9941" rx="3" ry="3" style="stroke:#C4D3E8;stroke-width:0.5;" width="197.375" x="37.5156" y="492.8975"/><line style="stroke:#C4D3E8;stroke-width:0.5;" x1="37.5156" x2="234.8906" y1="516.6963" y2="516.6963"/><text fill="#1F3A68" font-family="Arial" font-size="12" lengthAdjust="spacing" textLength="64.0371" x="104.1846" y="509.1533">StageActive</text><text fill="#1F3A68" font-family="Arial" font-size="12" lengthAdjust="spacing" textLength="177.375" x="42.5156" y="532.9521">- &#1089;&#1087;&#1080;&#1089;&#1086;&#1082; &#1082;&#1072;&#1085;&#1076;&#1080;&#1076;&#1072;&#1090;&#1086;&#1074; &#1079;&#1072;&#1084;&#1086;&#1088;&#1086;&#1078;&#1077;&#1085;</text><text fill="#1F3A68" font-family="Arial" font-size="12" lengthAdjust="spacing" textLength="115.1191" x="42.5156" y="546.751">- whitelist &#1079;&#1072;&#1084;&#1086;&#1088;&#1086;&#1078;&#1077;&#1085;</text><text fill="#1F3A68" font-family="Arial" font-size="12" lengthAdjust="spacing" textLength="120.4746" x="42.5156" y="560.5498">- castVote() &#1088;&#1072;&#1079;&#1088;&#1077;&#1096;&#1077;&#1085;</text><text fill="#1F3A68" font-family="Arial" font-size="12" lengthAdjust="spacing" textLength="147.9258" x="42.5156" y="574.3486">- hasVoted &#1089;&#1090;&#1072;&#1085;&#1086;&#1074;&#1080;&#1090;&#1089;&#1103; true</text></g><g class="start_entity" data-qualified-name="Active..start.Active" data-source-line="18" id="ent0007"><ellipse cx="136.0156" cy="446.8975" fill="#0969DA" rx="10" ry="10" style="stroke:#222222;stroke-width:1;"/></g><!--link *start*Active to StageActive--><g class="link" data-entity-1="ent0007" data-entity-2="ent0005" data-link-type="dependency" data-source-line="18" id="lnk8"><path d="M136.0156,457.0375 C136.0156,465.6075 136.0156,473.0675 136.0156,486.4975" fill="none" id="*start*Active-to-StageActive" style="stroke:#0969DA;stroke-width:1;"/><polygon fill="#0969DA" points="136.0156,492.4975,140.0156,483.4975,136.0156,487.4975,132.0156,483.4975,136.0156,492.4975" style="stroke:#0969DA;stroke-width:1;"/></g><g class="start_entity" data-qualified-name=".start." data-source-line="5" id="ent0002"><ellipse cx="142.0156" cy="53.0986" fill="#0969DA" rx="10" ry="10" style="stroke:#222222;stroke-width:1;"/></g><g class="end_entity" data-qualified-name=".end." data-source-line="34" id="ent0012"><ellipse cx="268.0156" cy="948.0986" fill="none" rx="11" ry="11" style="stroke:#0969DA;stroke-width:1;"/><ellipse cx="268.0156" cy="948.0986" fill="#222222" rx="6" ry="6" style="stroke:#0969DA;stroke-width:1;"/></g><!--link *start* to Setup--><g class="link" data-entity-1="ent0002" data-entity-2="ent0002" data-link-type="dependency" data-source-line="5" id="lnk3"><path d="M142.0156,63.1486 C142.0156,77.2786 142.0156,100.0686 142.0156,129.9186" fill="none" id="*start*-to-Setup" style="stroke:#0969DA;stroke-width:1;"/><polygon fill="#0969DA" points="142.0156,135.9186,146.0156,126.9186,142.0156,130.9186,138.0156,126.9186,142.0156,135.9186" style="stroke:#0969DA;stroke-width:1;"/><text fill="#7286A5" font-family="Arial" font-size="10" lengthAdjust="spacing" textLength="107.1533" x="143.0156" y="103.4785">&#1050;&#1086;&#1085;&#1089;&#1090;&#1088;&#1091;&#1082;&#1090;&#1086;&#1088; &#1088;&#1072;&#1079;&#1074;&#1077;&#1088;&#1085;&#1091;&#1090;</text></g><!--link Setup to Active--><g class="link" data-entity-1="ent0002" data-entity-2="ent0004" data-link-type="dependency" data-source-line="15" id="lnk6"><path d="M142.0156,329.2786 C142.0156,352.8886 142.0156,372.1786 142.0156,395.7986" fill="none" id="Setup-to-Active" style="stroke:#0969DA;stroke-width:1;"/><polygon fill="#0969DA" points="142.0156,401.7986,146.0156,392.7986,142.0156,396.7986,138.0156,392.7986,142.0156,401.7986" style="stroke:#0969DA;stroke-width:1;"/><text fill="#7286A5" font-family="Arial" font-size="10" lengthAdjust="spacing" textLength="189.0918" x="143.0156" y="369.4785">startVoting() [&#1090;&#1088;&#1077;&#1073;&#1091;&#1077;&#1090;&#1089;&#1103; &gt;= 2 &#1082;&#1072;&#1085;&#1076;&#1080;&#1076;&#1072;&#1090;&#1086;&#1074;]</text></g><!--link Active to Finished--><g class="link" data-entity-1="ent0004" data-entity-2="ent0006" data-link-type="dependency" data-source-line="25" id="lnk9"><path d="M142.0156,595.1386 C142.0156,608.9311 142.0156,622.958 142.0156,636.2686 C142.0156,642.9239 142.0156,649.4002 142.0156,655.5786 C142.0156,657.1231 142.0156,658.6491 142.0156,660.1546 C142.0156,660.531 142.0156,660.9061 142.0156,661.2799 C142.0156,661.4668 142.0156,655.6533 142.0156,655.8396" fill="none" id="Active-to-Finished" style="stroke:#0969DA;stroke-width:1;"/><polygon fill="#0969DA" points="142.0156,661.8396,146.0156,652.8396,142.0156,656.8396,138.0156,652.8396,142.0156,661.8396" style="stroke:#0969DA;stroke-width:1;"/><text fill="#7286A5" font-family="Arial" font-size="10" lengthAdjust="spacing" textLength="58.3594" x="143.0156" y="635.4785">finishVoting()</text></g><!--link *start*Finished to StageFinished--><g class="link" data-entity-1="ent0010" data-entity-2="ent0007" data-link-type="dependency" data-source-line="28" id="lnk11"><path d="M268.0156,722.1786 C268.0156,735.5586 268.0156,755.3286 268.0156,777.0086" fill="none" id="*start*Finished-to-StageFinished" style="stroke:#0969DA;stroke-width:1;"/><polygon fill="#0969DA" points="268.0156,783.0086,272.0156,774.0086,268.0156,778.0086,264.0156,774.0086,268.0156,783.0086" style="stroke:#0969DA;stroke-width:1;"/></g><!--link StageFinished to *end*--><g class="link" data-entity-1="ent0007" data-entity-2="ent0012" data-link-type="dependency" data-source-line="34" id="lnk13"><path d="M268.0156,858.2386 C268.0156,885.1486 268.0156,913.8686 268.0156,930.8386" fill="none" id="StageFinished-to-*end*" style="stroke:#0969DA;stroke-width:1;"/><polygon fill="#0969DA" points="268.0156,936.8386,272.0156,927.8386,268.0156,931.8386,264.0156,927.8386,268.0156,936.8386" style="stroke:#0969DA;stroke-width:1;"/></g><?plantuml-src ZLFDRjD04BxlKmmtG79QE5QY4Y3n0aXSgWfPzX9RSXmKR-20a1878QHMz88uy1H96xTfKhkliFD6VBEEymDfLLjUx-xCzytCDxkFuZH8-g6cLcllVT3jTBhfdebqHxVYVYTHoiGcqMH_sPaTsmiUOBp1EoOUseg7d6CyioNCrmTaV-D_XLM1h-GJUqty7Ljpkn1_m7Z0kOTr1NFksEQW62jrzFIOFE-GtchJ_qYW-kDyXkB58-TLyO0SvCgUsmApaaUSAvKPt-Wby8iYF2iouxUrCxZjzH81F0hyD8n3OBDMejEsYH2rufpsoKvjHS_sTu7yC7pTu1u_MUQ3iU0VKlKTa7TTetlPAzy4qGD1zWBrBqHY_C_XBn8NXDh7TY86Y3W3HMEir5UbQhXK_Z8myISD9eZJCmWVfsr4FdAY5tO2IGlCXtn6Xo_eEO5DMAO8CaMNSk4zRgHTaktGjhQiyr-5zQJVjyXGqf_lfAzhkP6sOdcvBSG6qUSeDZg9C_DGGE1dKl7zxTdmZ_nCt4Donzc92L5dItbChwz5soL0IdyJft4M0N107zoqqRSHREMmGxB6javbWywZV-y6GKKv26Lzs_YKVzwhmnOPVqEVIz389PmHb1z93wJA_wJXaxioaWGcSAcHXLtmAIwAlNKdQIeRBWKvVrjWAHcbgxy0?></g></svg>