<svg xmlns="http://www.w3.org/2000/svg" xmlns:xlink="http://www.w3.org/1999/xlink" contentStyleType="text/css" data-diagram-type="STATE" height="973px" preserveAspectRatio="none" style="width:356px;height:973px;background:#FFFFFF;" version="1.1" viewBox="0 0 356 973" width="356px" zoomAndPan="magnify">
<!-- MYCELIUM-BG -->
<rect x="0" y="0" width="356" height="973" fill="white"/>
<?plantuml 1.2026.3?><defs/><g><g class="title" data-source-line="3"><text fill="#1F3A68" font-family="Arial" font-size="14" font-weight="700" lengthAdjust="spacing" textLength="318.9648" x="15.2676" y="23.1318">State Diagram - Voting Smart Contract Lifecycle</text></g><!--cluster Finished--><g class="cluster" data-qualified-name="Finished" data-source-line="27" id="ent0006"><path d="M108.5,662.0986 L338.5,662.0986 A3,3 0 0 1 341.5,665.0986 L341.5,680.8975 L105.5,680.8975 L105.5,665.0986 A3,3 0 0 1 108.5,662.0986" fill="#F4F7FB"/><rect fill="none" height="220" rx="3" ry="3" style="stroke:#C4D3E8;stroke-width:0.5;" width="236" x="105.5" y="662.0986"/><line style="stroke:#C4D3E8;stroke-width:0.5;" x1="105.5" x2="341.5" y1="680.8975" y2="680.8975"/><text fill="#1F3A68" font-family="Arial" font-size="12" lengthAdjust="spacing" textLength="45.3574" x="200.8213" y="677.3545">Finished</text></g><g class="entity" data-qualified-name="Finished.StageFinished" id="ent0007"><rect fill="#F4F7FB" height="75.1953" rx="3" ry="3" style="stroke:#C4D3E8;stroke-width:0.5;" width="179.3926" x="138" y="783.0986"/><line style="stroke:#C4D3E8;stroke-width:0.5;" x1="138" x2="317.3926" y1="806.8975" y2="806.8975"/><text fill="#1F3A68" font-family="Arial" font-size="12" lengthAdjust="spacing" textLength="76.7168" x="189.3379" y="799.3545">StageFinished</text><text fill="#1F3A68" font-family="Arial" font-size="12" lengthAdjust="spacing" textLength="159.3926" x="143" y="823.1533">- contract is completely frozen</text><text fill="#1F3A68" font-family="Arial" font-size="12" lengthAdjust="spacing" textLength="128.7422" x="143" y="836.9521">- audit functions allowed</text><text fill="#1F3A68" font-family="Arial" font-size="12" lengthAdjust="spacing" textLength="118.0488" x="143" y="850.751">- winner is determined</text></g><g class="start_entity" data-qualified-name="Finished..start.Finished" data-source-line="28" id="ent0010"><ellipse cx="227.5" cy="712.0986" fill="#0969DA" rx="10" ry="10" style="stroke:#222222;stroke-width:1;"/></g><path d="M16,136.0986 L210.7676,136.0986 A3,3 0 0 1 213.7676,139.0986 L213.7676,159.8975 L13,159.8975 L13,139.0986 A3,3 0 0 1 16,136.0986" fill="#F4F7FB"/><rect fill="none" height="192.793" rx="3" ry="3" style="stroke:#C4D3E8;stroke-width:0.5;" width="200.7676" x="13" y="136.0986"/><line style="stroke:#C4D3E8;stroke-width:0.5;" x1="13" x2="213.7676" y1="159.8975" y2="159.8975"/><text fill="#1F3A68" font-family="Arial" font-size="12" lengthAdjust="spacing" textLength="31.3594" x="97.7041" y="152.3545">Setup</text><g class="entity" data-qualified-name="Setup.StageSetup" id="ent0003"><rect fill="#F4F7FB" height="88.9941" rx="3" ry="3" style="stroke:#C4D3E8;stroke-width:0.5;" width="164.7676" x="25" y="226.8975"/><line style="stroke:#C4D3E8;stroke-width:0.5;" x1="25" x2="189.7676" y1="250.6963" y2="250.6963"/><text fill="#1F3A68" font-family="Arial" font-size="12" lengthAdjust="spacing" textLength="62.7188" x="76.0244" y="243.1533">StageSetup</text><text fill="#1F3A68" font-family="Arial" font-size="12" lengthAdjust="spacing" textLength="144.7676" x="30" y="266.9521">- candidates.length: 0 to 10</text><text fill="#1F3A68" font-family="Arial" font-size="12" lengthAdjust="spacing" textLength="134.0801" x="30" y="280.751">- addCandidate() allowed</text><text fill="#1F3A68" font-family="Arial" font-size="12" lengthAdjust="spacing" textLength="144.7383" x="30" y="294.5498">- addVotersBatch() allowed</text><text fill="#1F3A68" font-family="Arial" font-size="12" lengthAdjust="spacing" textLength="89.373" x="30" y="308.3486">- voting is locked</text></g><g class="start_entity" data-qualified-name="Setup..start.Setup" data-source-line="8" id="ent0004"><ellipse cx="107.5" cy="180.8975" fill="#0969DA" rx="10" ry="10" style="stroke:#222222;stroke-width:1;"/></g><!--link *start*Setup to StageSetup--><g class="link" data-entity-1="ent0004" data-entity-2="ent0003" data-link-type="dependency" data-source-line="8" id="lnk5"><path d="M107.5,191.0375 C107.5,199.6075 107.5,207.0675 107.5,220.4975" fill="none" id="*start*Setup-to-StageSetup" style="stroke:#0969DA;stroke-width:1;"/><polygon fill="#0969DA" points="107.5,226.4975,111.5,217.4975,107.5,221.4975,103.5,217.4975,107.5,226.4975" style="stroke:#0969DA;stroke-width:1;"/></g><path d="M10,402.0986 L217.4297,402.0986 A3,3 0 0 1 220.4297,405.0986 L220.4297,425.8975 L7,425.8975 L7,405.0986 A3,3 0 0 1 10,402.0986" fill="#F4F7FB"/><rect fill="none" height="192.793" rx="3" ry="3" style="stroke:#C4D3E8;stroke-width:0.5;" width="213.4297" x="7" y="402.0986"/><line style="stroke:#C4D3E8;stroke-width:0.5;" x1="7" x2="220.4297" y1="425.8975" y2="425.8975"/><text fill="#1F3A68" font-family="Arial" font-size="12" lengthAdjust="spacing" textLength="32.6777" x="97.376" y="418.3545">Active</text><g class="entity" data-qualified-name="Active.StageActive" id="ent0005"><rect fill="#F4F7FB" height="88.9941" rx="3" ry="3" style="stroke:#C4D3E8;stroke-width:0.5;" width="177.4297" x="19" y="492.8975"/><line style="stroke:#C4D3E8;stroke-width:0.5;" x1="19" x2="196.4297" y1="516.6963" y2="516.6963"/><text fill="#1F3A68" font-family="Arial" font-size="12" lengthAdjust="spacing" textLength="64.0371" x="75.6963" y="509.1533">StageActive</text><text fill="#1F3A68" font-family="Arial" font-size="12" lengthAdjust="spacing" textLength="132.0586" x="24" y="532.9521">- candidates list is frozen</text><text fill="#1F3A68" font-family="Arial" font-size="12" lengthAdjust="spacing" textLength="98.6953" x="24" y="546.751">- whitelist is frozen</text><text fill="#1F3A68" font-family="Arial" font-size="12" lengthAdjust="spacing" textLength="106.043" x="24" y="560.5498">- castVote() allowed</text><text fill="#1F3A68" font-family="Arial" font-size="12" lengthAdjust="spacing" textLength="157.4297" x="24" y="574.3486">- hasVoted set to true on vote</text></g><g class="start_entity" data-qualified-name="Active..start.Active" data-source-line="18" id="ent0007"><ellipse cx="107.5" cy="446.8975" fill="#0969DA" rx="10" ry="10" style="stroke:#222222;stroke-width:1;"/></g><!--link *start*Active to StageActive--><g class="link" data-entity-1="ent0007" data-entity-2="ent0005" data-link-type="dependency" data-source-line="18" id="lnk8"><path d="M107.5,457.0375 C107.5,465.6075 107.5,473.0675 107.5,486.4975" fill="none" id="*start*Active-to-StageActive" style="stroke:#0969DA;stroke-width:1;"/><polygon fill="#0969DA" points="107.5,492.4975,111.5,483.4975,107.5,487.4975,103.5,483.4975,107.5,492.4975" style="stroke:#0969DA;stroke-width:1;"/></g><g class="start_entity" data-qualified-name=".start." data-source-line="5" id="ent0002"><ellipse cx="113.5" cy="53.0986" fill="#0969DA" rx="10" ry="10" style="stroke:#222222;stroke-width:1;"/></g><g class="end_entity" data-qualified-name=".end." data-source-line="34" id="ent0012"><ellipse cx="227.5" cy="948.0986" fill="none" rx="11" ry="11" style="stroke:#0969DA;stroke-width:1;"/><ellipse cx="227.5" cy="948.0986" fill="#222222" rx="6" ry="6" style="stroke:#0969DA;stroke-width:1;"/></g><!--link *start* to Setup--><g class="link" data-entity-1="ent0002" data-entity-2="ent0002" data-link-type="dependency" data-source-line="5" id="lnk3"><path d="M113.5,63.1486 C113.5,77.2786 113.5,100.0686 113.5,129.9186" fill="none" id="*start*-to-Setup" style="stroke:#0969DA;stroke-width:1;"/><polygon fill="#0969DA" points="113.5,135.9186,117.5,126.9186,113.5,130.9186,109.5,126.9186,113.5,135.9186" style="stroke:#0969DA;stroke-width:1;"/><text fill="#7286A5" font-family="Arial" font-size="10" lengthAdjust="spacing" textLength="95.0537" x="114.5" y="103.4785">Constructor deployed</text></g><!--link Setup to Active--><g class="link" data-entity-1="ent0002" data-entity-2="ent0004" data-link-type="dependency" data-source-line="15" id="lnk6"><path d="M113.5,329.2786 C113.5,352.8886 113.5,372.1786 113.5,395.7986" fill="none" id="Setup-to-Active" style="stroke:#0969DA;stroke-width:1;"/><polygon fill="#0969DA" points="113.5,401.7986,117.5,392.7986,113.5,396.7986,109.5,392.7986,113.5,401.7986" style="stroke:#0969DA;stroke-width:1;"/><text fill="#7286A5" font-family="Arial" font-size="10" lengthAdjust="spacing" textLength="151.1865" x="114.5" y="369.4785">startVoting() [requires cands &gt;= 2]</text></g><!--link Active to Finished--><g class="link" data-entity-1="ent0004" data-entity-2="ent0006" data-link-type="dependency" data-source-line="25" id="lnk9"><path d="M113.5,595.1386 C113.5,608.9311 113.5,622.958 113.5,636.2686 C113.5,642.9239 113.5,649.4002 113.5,655.5786 C113.5,657.1231 113.5,658.6491 113.5,660.1546 C113.5,660.531 113.5,660.9061 113.5,661.2799 C113.5,661.4668 113.5,655.6533 113.5,655.8396" fill="none" id="Active-to-Finished" style="stroke:#0969DA;stroke-width:1;"/><polygon fill="#0969DA" points="113.5,661.8396,117.5,652.8396,113.5,656.8396,109.5,652.8396,113.5,661.8396" style="stroke:#0969DA;stroke-width:1;"/><text fill="#7286A5" font-family="Arial" font-size="10" lengthAdjust="spacing" textLength="58.3594" x="114.5" y="635.4785">finishVoting()</text></g><!--link *start*Finished to StageFinished--><g class="link" data-entity-1="ent0010" data-entity-2="ent0007" data-link-type="dependency" data-source-line="28" id="lnk11"><path d="M227.5,722.1786 C227.5,735.5586 227.5,755.3286 227.5,777.0086" fill="none" id="*start*Finished-to-StageFinished" style="stroke:#0969DA;stroke-width:1;"/><polygon fill="#0969DA" points="227.5,783.0086,231.5,774.0086,227.5,778.0086,223.5,774.0086,227.5,783.0086" style="stroke:#0969DA;stroke-width:1;"/></g><!--link StageFinished to *end*--><g class="link" data-entity-1="ent0007" data-entity-2="ent0012" data-link-type="dependency" data-source-line="34" id="lnk13"><path d="M227.5,858.2386 C227.5,885.1486 227.5,913.8686 227.5,930.8386" fill="none" id="StageFinished-to-*end*" style="stroke:#0969DA;stroke-width:1;"/><polygon fill="#0969DA" points="227.5,936.8386,231.5,927.8386,227.5,931.8386,223.5,927.8386,227.5,936.8386" style="stroke:#0969DA;stroke-width:1;"/></g><?plantuml-src ZPBDJiCm48JlVehb1aXD2yTAL88YJjmgSQagPDdRPeLZ5tlJgY3UdNNIz4UD43absMydCnDVaJUkjWX5CNmteQg27tA95HPKLquf9dO8CzQCy4nw5NK50tWBJ7u5iqf7Xcdm7BLXUAKbcfrngDJyTW63mGHcoFKQnfb976l38OB5jGixj4gbHhPblXN8TTXZlS9cqBm-FehM08psbgpifiAXNt4vXX5mWBjH7wsjdNOBrpUWdGjR-Ne_ASamfYVDfloRtRGLK08Np8SmFqgrq-p_qJ1jK4296BcjI_Jc4JzhYfYQ20ac3t2_w7hOx_GKqKwEBWxgfrM0eyJPppA6B_IzzBOandzmHgTikhUk4wpKALCM4dBkN_umGl2v6ynzxD6SuuKyfLBGCIoRswwJBlq1wCdVpOucJkJ4RNS09PGSuRL32Rcxo7UsesjB3ClQYqKvcvSnp-WjUOynwrlHZXNv_Gy_8xDVyQr-0G00?></g></svg>