<svg xmlns="http://www.w3.org/2000/svg" xmlns:xlink="http://www.w3.org/1999/xlink" contentStyleType="text/css" data-diagram-type="SEQUENCE" height="898px" preserveAspectRatio="none" style="width:1127px;height:898px;background:#FFFFFF;" version="1.1" viewBox="0 0 1127 898" width="1127px" zoomAndPan="magnify">
<!-- MYCELIUM-BG -->
<rect x="0" y="0" width="1127" height="898" fill="white"/>

<rect width="100%" height="100%" fill="white"/>
<?plantuml 1.2026.3?><defs/><g><g class="title" data-source-line="3"><text fill="#1F3A68" font-family="Arial" font-size="14" font-weight="700" lengthAdjust="spacing" textLength="441.5264" x="339.6704" y="28.1318">&#1044;&#1080;&#1072;&#1075;&#1088;&#1072;&#1084;&#1084;&#1072; &#1087;&#1086;&#1089;&#1083;&#1077;&#1076;&#1086;&#1074;&#1072;&#1090;&#1077;&#1083;&#1100;&#1085;&#1086;&#1089;&#1090;&#1080;: &#1044;&#1077;&#1087;&#1083;&#1086;&#1081; &#1082;&#1086;&#1085;&#1090;&#1088;&#1072;&#1082;&#1090;&#1072; VotingCore</text></g><g><title>....... Admin</title><rect fill="#F4F7FB" height="657.1758" style="stroke:#181818;stroke-width:1;" width="10" x="227.8223" y="143.3965"/></g><g><title>DeployWorker</title><rect fill="#F4F7FB" height="465.1816" style="stroke:#181818;stroke-width:1;" width="10" x="401.3291" y="232.8936"/></g><g><title>AppController</title><rect fill="#F4F7FB" height="124.0947" style="stroke:#181818;stroke-width:1;" width="10" x="560.0801" y="258.3926"/></g><g><title>AppController</title><rect fill="#F4F7FB" height="264.5898" style="stroke:#181818;stroke-width:1;" width="10" x="560.0801" y="407.9863"/></g><g><title>CompilerService</title><rect fill="#F4F7FB" height="73.0967" style="stroke:#181818;stroke-width:1;" width="10" x="718.8311" y="283.8916"/></g><g><title>VotingService</title><rect fill="#F4F7FB" height="175.0928" style="stroke:#181818;stroke-width:1;" width="10" x="823.8633" y="433.4854"/></g><g><title>Web3Provider</title><rect fill="#F4F7FB" height="73.0967" style="stroke:#181818;stroke-width:1;" width="10" x="1052.3652" y="458.9844"/></g><g><title>Web3Provider</title><rect fill="#F4F7FB" height="25.499" style="stroke:#181818;stroke-width:1;" width="10" x="1052.3652" y="557.5801"/></g><g class="participant-lifeline" data-entity-uid="part1" data-qualified-name="Admin" data-source-line="5" id="part1-lifeline"><g><title>.............</title><rect fill="#000000" fill-opacity="0.00000" height="702.6748" width="8" x="47.4883" y="115.8975"/><line style="stroke:#C4D3E8;stroke-width:0.5;stroke-dasharray:5,5;" x1="51" x2="51" y1="115.8975" y2="818.5723"/></g></g><g class="participant-lifeline" data-entity-uid="part2" data-qualified-name="UI" data-source-line="6" id="part2-lifeline"><g><title>....... Admin</title><rect fill="#000000" fill-opacity="0.00000" height="702.6748" width="8" x="228.8223" y="115.8975"/><line style="stroke:#C4D3E8;stroke-width:0.5;stroke-dasharray:5,5;" x1="232.2207" x2="232.2207" y1="115.8975" y2="818.5723"/></g></g><g class="participant-lifeline" data-entity-uid="part3" data-qualified-name="Worker" data-source-line="7" id="part3-lifeline"><g><title>DeployWorker</title><rect fill="#000000" fill-opacity="0.00000" height="702.6748" width="8" x="402.3291" y="115.8975"/><line style="stroke:#C4D3E8;stroke-width:0.5;stroke-dasharray:5,5;" x1="406.3193" x2="406.3193" y1="115.8975" y2="818.5723"/></g></g><g class="participant-lifeline" data-entity-uid="part4" data-qualified-name="AC" data-source-line="8" id="part4-lifeline"><g><title>AppController</title><rect fill="#000000" fill-opacity="0.00000" height="702.6748" width="8" x="561.0801" y="115.8975"/><line style="stroke:#C4D3E8;stroke-width:0.5;stroke-dasharray:5,5;" x1="564.3945" x2="564.3945" y1="115.8975" y2="818.5723"/></g></g><g class="participant-lifeline" data-entity-uid="part5" data-qualified-name="CS" data-source-line="9" id="part5-lifeline"><g><title>CompilerService</title><rect fill="#000000" fill-opacity="0.00000" height="702.6748" width="8" x="719.8311" y="115.8975"/><line style="stroke:#C4D3E8;stroke-width:0.5;stroke-dasharray:5,5;" x1="723.8184" x2="723.8184" y1="115.8975" y2="818.5723"/></g></g><g class="participant-lifeline" data-entity-uid="part6" data-qualified-name="VS" data-source-line="10" id="part6-lifeline"><g><title>VotingService</title><rect fill="#000000" fill-opacity="0.00000" height="702.6748" width="8" x="824.8633" y="115.8975"/><line style="stroke:#C4D3E8;stroke-width:0.5;stroke-dasharray:5,5;" x1="828.8438" x2="828.8438" y1="115.8975" y2="818.5723"/></g></g><g class="participant-lifeline" data-entity-uid="part7" data-qualified-name="WP" data-source-line="11" id="part7-lifeline"><g><title>Web3Provider</title><rect fill="#000000" fill-opacity="0.00000" height="702.6748" width="8" x="1053.3652" y="115.8975"/><line style="stroke:#C4D3E8;stroke-width:0.5;stroke-dasharray:5,5;" x1="1057.3496" x2="1057.3496" y1="115.8975" y2="818.5723"/></g></g><g class="participant participant-head" data-entity-uid="part1" data-qualified-name="Admin" data-source-line="5" id="part1-head"><text fill="#1F3A68" font-family="Arial" font-size="12" lengthAdjust="spacing" textLength="86.9766" x="5" y="113.3545">&#1040;&#1076;&#1084;&#1080;&#1085;&#1080;&#1089;&#1090;&#1088;&#1072;&#1090;&#1086;&#1088;</text><ellipse cx="51.4883" cy="50.5986" fill="#E2E2F0" rx="8" ry="8" style="stroke:#181818;stroke-width:0.5;"/><path d="M51.4883,58.5986 L51.4883,85.5986 M38.4883,66.5986 L64.4883,66.5986 M51.4883,85.5986 L38.4883,100.5986 M51.4883,85.5986 L64.4883,100.5986" fill="none" style="stroke:#181818;stroke-width:0.5;"/></g><g class="participant participant-tail" data-entity-uid="part1" data-qualified-name="Admin" data-source-line="5" id="part1-tail"><text fill="#1F3A68" font-family="Arial" font-size="12" lengthAdjust="spacing" textLength="86.9766" x="5" y="828.8281">&#1040;&#1076;&#1084;&#1080;&#1085;&#1080;&#1089;&#1090;&#1088;&#1072;&#1090;&#1086;&#1088;</text><ellipse cx="51.4883" cy="839.8711" fill="#E2E2F0" rx="8" ry="8" style="stroke:#181818;stroke-width:0.5;"/><path d="M51.4883,847.8711 L51.4883,874.8711 M38.4883,855.8711 L64.4883,855.8711 M51.4883,874.8711 L38.4883,889.8711 M51.4883,874.8711 L64.4883,889.8711" fill="none" style="stroke:#181818;stroke-width:0.5;"/></g><g class="participant participant-head" data-entity-uid="part2" data-qualified-name="UI" data-source-line="6" id="part2-head"><rect fill="#E7EEF7" height="27.7988" rx="3" ry="3" style="stroke:#C4D3E8;stroke-width:0.5;" width="97.2031" x="184.2207" y="87.0986"/><text fill="#1F3A68" font-family="Arial" font-size="12" lengthAdjust="spacing" textLength="83.2031" x="191.2207" y="105.3545">&#1042;&#1082;&#1083;&#1072;&#1076;&#1082;&#1072; Admin</text></g><g class="participant participant-tail" data-entity-uid="part2" data-qualified-name="UI" data-source-line="6" id="part2-tail"><rect fill="#E7EEF7" height="27.7988" rx="3" ry="3" style="stroke:#C4D3E8;stroke-width:0.5;" width="97.2031" x="184.2207" y="817.5723"/><text fill="#1F3A68" font-family="Arial" font-size="12" lengthAdjust="spacing" textLength="83.2031" x="191.2207" y="835.8281">&#1042;&#1082;&#1083;&#1072;&#1076;&#1082;&#1072; Admin</text></g><g class="participant participant-head" data-entity-uid="part3" data-qualified-name="Worker" data-source-line="7" id="part3-head"><rect fill="#E7EEF7" height="27.7988" rx="3" ry="3" style="stroke:#C4D3E8;stroke-width:0.5;" width="90.0195" x="361.3193" y="87.0986"/><text fill="#1F3A68" font-family="Arial" font-size="12" lengthAdjust="spacing" textLength="76.0195" x="368.3193" y="105.3545">DeployWorker</text></g><g class="participant participant-tail" data-entity-uid="part3" data-qualified-name="Worker" data-source-line="7" id="part3-tail"><rect fill="#E7EEF7" height="27.7988" rx="3" ry="3" style="stroke:#C4D3E8;stroke-width:0.5;" width="90.0195" x="361.3193" y="817.5723"/><text fill="#1F3A68" font-family="Arial" font-size="12" lengthAdjust="spacing" textLength="76.0195" x="368.3193" y="835.8281">DeployWorker</text></g><g class="participant participant-head" data-entity-uid="part4" data-qualified-name="AC" data-source-line="8" id="part4-head"><rect fill="#E7EEF7" height="27.7988" rx="3" ry="3" style="stroke:#C4D3E8;stroke-width:0.5;" width="87.3711" x="521.3945" y="87.0986"/><text fill="#1F3A68" font-family="Arial" font-size="12" lengthAdjust="spacing" textLength="73.3711" x="528.3945" y="105.3545">AppController</text></g><g class="participant participant-tail" data-entity-uid="part4" data-qualified-name="AC" data-source-line="8" id="part4-tail"><rect fill="#E7EEF7" height="27.7988" rx="3" ry="3" style="stroke:#C4D3E8;stroke-width:0.5;" width="87.3711" x="521.3945" y="817.5723"/><text fill="#1F3A68" font-family="Arial" font-size="12" lengthAdjust="spacing" textLength="73.3711" x="528.3945" y="835.8281">AppController</text></g><g class="participant participant-head" data-entity-uid="part5" data-qualified-name="CS" data-source-line="9" id="part5-head"><rect fill="#E7EEF7" height="27.7988" rx="3" ry="3" style="stroke:#C4D3E8;stroke-width:0.5;" width="102.0254" x="672.8184" y="87.0986"/><text fill="#1F3A68" font-family="Arial" font-size="12" lengthAdjust="spacing" textLength="88.0254" x="679.8184" y="105.3545">CompilerService</text></g><g class="participant participant-tail" data-entity-uid="part5" data-qualified-name="CS" data-source-line="9" id="part5-tail"><rect fill="#E7EEF7" height="27.7988" rx="3" ry="3" style="stroke:#C4D3E8;stroke-width:0.5;" width="102.0254" x="672.8184" y="817.5723"/><text fill="#1F3A68" font-family="Arial" font-size="12" lengthAdjust="spacing" textLength="88.0254" x="679.8184" y="835.8281">CompilerService</text></g><g class="participant participant-head" data-entity-uid="part6" data-qualified-name="VS" data-source-line="10" id="part6-head"><rect fill="#E7EEF7" height="27.7988" rx="3" ry="3" style="stroke:#C4D3E8;stroke-width:0.5;" width="88.0391" x="784.8438" y="87.0986"/><text fill="#1F3A68" font-family="Arial" font-size="12" lengthAdjust="spacing" textLength="74.0391" x="791.8438" y="105.3545">VotingService</text></g><g class="participant participant-tail" data-entity-uid="part6" data-qualified-name="VS" data-source-line="10" id="part6-tail"><rect fill="#E7EEF7" height="27.7988" rx="3" ry="3" style="stroke:#C4D3E8;stroke-width:0.5;" width="88.0391" x="784.8438" y="817.5723"/><text fill="#1F3A68" font-family="Arial" font-size="12" lengthAdjust="spacing" textLength="74.0391" x="791.8438" y="835.8281">VotingService</text></g><g class="participant participant-head" data-entity-uid="part7" data-qualified-name="WP" data-source-line="11" id="part7-head"><rect fill="#E7EEF7" height="27.7988" rx="3" ry="3" style="stroke:#C4D3E8;stroke-width:0.5;" width="90.0313" x="1012.3496" y="87.0986"/><text fill="#1F3A68" font-family="Arial" font-size="12" lengthAdjust="spacing" textLength="76.0313" x="1019.3496" y="105.3545">Web3Provider</text></g><g class="participant participant-tail" data-entity-uid="part7" data-qualified-name="WP" data-source-line="11" id="part7-tail"><rect fill="#E7EEF7" height="27.7988" rx="3" ry="3" style="stroke:#C4D3E8;stroke-width:0.5;" width="90.0313" x="1012.3496" y="817.5723"/><text fill="#1F3A68" font-family="Arial" font-size="12" lengthAdjust="spacing" textLength="76.0313" x="1019.3496" y="835.8281">Web3Provider</text></g><g><title>....... Admin</title><rect fill="#F4F7FB" height="657.1758" style="stroke:#181818;stroke-width:1;" width="10" x="227.8223" y="143.3965"/></g><g><title>DeployWorker</title><rect fill="#F4F7FB" height="465.1816" style="stroke:#181818;stroke-width:1;" width="10" x="401.3291" y="232.8936"/></g><g><title>AppController</title><rect fill="#F4F7FB" height="124.0947" style="stroke:#181818;stroke-width:1;" width="10" x="560.0801" y="258.3926"/></g><g><title>AppController</title><rect fill="#F4F7FB" height="264.5898" style="stroke:#181818;stroke-width:1;" width="10" x="560.0801" y="407.9863"/></g><g><title>CompilerService</title><rect fill="#F4F7FB" height="73.0967" style="stroke:#181818;stroke-width:1;" width="10" x="718.8311" y="283.8916"/></g><g><title>VotingService</title><rect fill="#F4F7FB" height="175.0928" style="stroke:#181818;stroke-width:1;" width="10" x="823.8633" y="433.4854"/></g><g><title>Web3Provider</title><rect fill="#F4F7FB" height="73.0967" style="stroke:#181818;stroke-width:1;" width="10" x="1052.3652" y="458.9844"/></g><g><title>Web3Provider</title><rect fill="#F4F7FB" height="25.499" style="stroke:#181818;stroke-width:1;" width="10" x="1052.3652" y="557.5801"/></g><g class="message" data-entity-1="part1" data-entity-2="part2" data-source-line="13" id="msg1"><polygon fill="#0969DA" points="215.8223,139.3965,225.8223,143.3965,215.8223,147.3965,219.8223,143.3965" style="stroke:#0969DA;stroke-width:1;"/><line style="stroke:#0969DA;stroke-width:1;" x1="51.4883" x2="221.8223" y1="143.3965" y2="143.3965"/><text fill="#7286A5" font-family="Arial" font-size="10" lengthAdjust="spacing" textLength="86.9434" x="58.4883" y="139.2773">&#1085;&#1072;&#1078;&#1080;&#1084;&#1072;&#1077;&#1090; "Deploy"</text></g><g class="message" data-entity-1="part2" data-entity-2="part2" data-source-line="15" id="msg2"><line style="stroke:#0969DA;stroke-width:1;" x1="237.8223" x2="279.8223" y1="168.8955" y2="168.8955"/><line style="stroke:#0969DA;stroke-width:1;" x1="279.8223" x2="279.8223" y1="168.8955" y2="181.8955"/><line style="stroke:#0969DA;stroke-width:1;" x1="238.8223" x2="279.8223" y1="181.8955" y2="181.8955"/><polygon fill="#0969DA" points="248.8223,177.8955,238.8223,181.8955,248.8223,185.8955,244.8223,181.8955" style="stroke:#0969DA;stroke-width:1;"/><text fill="#7286A5" font-family="Arial" font-size="10" lengthAdjust="spacing" textLength="97.8271" x="244.8223" y="164.7764">validate_private_key()</text></g><g class="message" data-entity-1="part2" data-entity-2="part3" data-source-line="16" id="msg3"><polygon fill="#0969DA" points="394.3291,203.3945,404.3291,207.3945,394.3291,211.3945,398.3291,207.3945" style="stroke:#0969DA;stroke-width:1;"/><line style="stroke:#0969DA;stroke-width:1;" x1="237.8223" x2="400.3291" y1="207.3945" y2="207.3945"/><text fill="#7286A5" font-family="Arial" font-size="10" lengthAdjust="spacing" textLength="82.8125" x="244.8223" y="203.2754">create(admin_key)</text></g><g class="message" data-entity-1="part2" data-entity-2="part3" data-source-line="17" id="msg4"><polygon fill="#0969DA" points="389.3291,228.8936,399.3291,232.8936,389.3291,236.8936,393.3291,232.8936" style="stroke:#0969DA;stroke-width:1;"/><line style="stroke:#0969DA;stroke-width:1;" x1="237.8223" x2="395.3291" y1="232.8936" y2="232.8936"/><text fill="#7286A5" font-family="Arial" font-size="10" lengthAdjust="spacing" textLength="26.1084" x="244.8223" y="228.7744">start()</text></g><g class="message" data-entity-1="part3" data-entity-2="part4" data-source-line="20" id="msg5"><polygon fill="#0969DA" points="548.0801,254.3926,558.0801,258.3926,548.0801,262.3926,552.0801,258.3926" style="stroke:#0969DA;stroke-width:1;"/><line style="stroke:#0969DA;stroke-width:1;" x1="411.3291" x2="554.0801" y1="258.3926" y2="258.3926"/><text fill="#7286A5" font-family="Arial" font-size="10" lengthAdjust="spacing" textLength="82.251" x="418.3291" y="254.2734">compile_contract()</text></g><g class="message" data-entity-1="part4" data-entity-2="part5" data-source-line="22" id="msg6"><polygon fill="#0969DA" points="706.8311,279.8916,716.8311,283.8916,706.8311,287.8916,710.8311,283.8916" style="stroke:#0969DA;stroke-width:1;"/><line style="stroke:#0969DA;stroke-width:1;" x1="570.0801" x2="712.8311" y1="283.8916" y2="283.8916"/><text fill="#7286A5" font-family="Arial" font-size="10" lengthAdjust="spacing" textLength="82.251" x="577.0801" y="279.7725">compile_contract()</text></g><path d="M650,299.8916 L650,330.8916 A3,3 0 0 0 653,333.8916 L793,333.8916 A3,3 0 0 0 796,330.8916 L796,306.8916 L786,296.8916 L653,296.8916 A3,3 0 0 0 650,299.8916" fill="#FEFFDD" style="stroke:#181818;stroke-width:0.5;"/><path d="M786,296.8916 L786,305.3916 A1.5,1.5 0 0 0 787.5,306.8916 L796,306.8916 L786,296.8916" fill="#FEFFDD" style="stroke:#181818;stroke-width:0.5;"/><text fill="#1F3A68" font-family="Arial" font-size="12" lengthAdjust="spacing" textLength="125.1387" x="656" y="313.1475">&#1050;&#1086;&#1084;&#1087;&#1080;&#1083;&#1080;&#1088;&#1091;&#1077;&#1090; &#1082;&#1086;&#1085;&#1090;&#1088;&#1072;&#1082;&#1090;</text><text fill="#1F3A68" font-family="Arial" font-size="12" lengthAdjust="spacing" textLength="83.1152" x="656" y="326.9463">&#1095;&#1077;&#1088;&#1077;&#1079; py-solc-x</text><g class="message" data-entity-1="part5" data-entity-2="part4" data-source-line="25" id="msg7"><polygon fill="#0969DA" points="581.0801,352.9883,571.0801,356.9883,581.0801,360.9883,577.0801,356.9883" style="stroke:#0969DA;stroke-width:1;"/><line style="stroke:#0969DA;stroke-width:1;stroke-dasharray:2,2;" x1="575.0801" x2="722.8311" y1="356.9883" y2="356.9883"/><text fill="#7286A5" font-family="Arial" font-size="10" lengthAdjust="spacing" textLength="124.751" x="587.0801" y="352.8691">&#1074;&#1086;&#1079;&#1074;&#1088;&#1072;&#1097;&#1072;&#1077;&#1090; (abi, bytecode)</text></g><g class="message" data-entity-1="part4" data-entity-2="part3" data-source-line="27" id="msg8"><polygon fill="#0969DA" points="422.3291,378.4873,412.3291,382.4873,422.3291,386.4873,418.3291,382.4873" style="stroke:#0969DA;stroke-width:1;"/><line style="stroke:#0969DA;stroke-width:1;stroke-dasharray:2,2;" x1="416.3291" x2="564.0801" y1="382.4873" y2="382.4873"/><text fill="#7286A5" font-family="Arial" font-size="10" lengthAdjust="spacing" textLength="124.751" x="428.3291" y="378.3682">&#1074;&#1086;&#1079;&#1074;&#1088;&#1072;&#1097;&#1072;&#1077;&#1090; (abi, bytecode)</text></g><g class="message" data-entity-1="part3" data-entity-2="part4" data-source-line="30" id="msg9"><polygon fill="#0969DA" points="548.0801,403.9863,558.0801,407.9863,548.0801,411.9863,552.0801,407.9863" style="stroke:#0969DA;stroke-width:1;"/><line style="stroke:#0969DA;stroke-width:1;" x1="411.3291" x2="554.0801" y1="407.9863" y2="407.9863"/><text fill="#7286A5" font-family="Arial" font-size="10" lengthAdjust="spacing" textLength="77.2607" x="418.3291" y="403.8672">deploy_contract()</text></g><g class="message" data-entity-1="part4" data-entity-2="part6" data-source-line="32" id="msg10"><polygon fill="#0969DA" points="811.8633,429.4854,821.8633,433.4854,811.8633,437.4854,815.8633,433.4854" style="stroke:#0969DA;stroke-width:1;"/><line style="stroke:#0969DA;stroke-width:1;" x1="570.0801" x2="817.8633" y1="433.4854" y2="433.4854"/><text fill="#7286A5" font-family="Arial" font-size="10" lengthAdjust="spacing" textLength="136.748" x="577.0801" y="429.3662">deploy_contract(abi, bytecode)</text></g><g class="message" data-entity-1="part6" data-entity-2="part7" data-source-line="34" id="msg11"><polygon fill="#0969DA" points="1040.3652,454.9844,1050.3652,458.9844,1040.3652,462.9844,1044.3652,458.9844" style="stroke:#0969DA;stroke-width:1;"/><line style="stroke:#0969DA;stroke-width:1;" x1="833.8633" x2="1046.3652" y1="458.9844" y2="458.9844"/><text fill="#7286A5" font-family="Arial" font-size="10" lengthAdjust="spacing" textLength="115.625" x="840.8633" y="454.8652">send_transaction(tx_data)</text></g><path d="M996,474.9844 L996,505.9844 A3,3 0 0 0 999,508.9844 L1113,508.9844 A3,3 0 0 0 1116,505.9844 L1116,481.9844 L1106,471.9844 L999,471.9844 A3,3 0 0 0 996,474.9844" fill="#FEFFDD" style="stroke:#181818;stroke-width:0.5;"/><path d="M1106,471.9844 L1106,480.4844 A1.5,1.5 0 0 0 1107.5,481.9844 L1116,481.9844 L1106,471.9844" fill="#FEFFDD" style="stroke:#181818;stroke-width:0.5;"/><text fill="#1F3A68" font-family="Arial" font-size="12" lengthAdjust="spacing" textLength="90.5215" x="1002" y="488.2402">&#1058;&#1088;&#1072;&#1085;&#1089;&#1083;&#1080;&#1088;&#1091;&#1077;&#1090; TX</text><text fill="#1F3A68" font-family="Arial" font-size="12" lengthAdjust="spacing" textLength="99.8672" x="1002" y="502.0391">&#1074; &#1083;&#1086;&#1082;&#1072;&#1083;&#1100;&#1085;&#1099;&#1081; Geth</text><g class="message" data-entity-1="part7" data-entity-2="part6" data-source-line="37" id="msg12"><polygon fill="#0969DA" points="844.8633,528.0811,834.8633,532.0811,844.8633,536.0811,840.8633,532.0811" style="stroke:#0969DA;stroke-width:1;"/><line style="stroke:#0969DA;stroke-width:1;stroke-dasharray:2,2;" x1="838.8633" x2="1056.3652" y1="532.0811" y2="532.0811"/><text fill="#7286A5" font-family="Arial" font-size="10" lengthAdjust="spacing" textLength="93.6279" x="850.8633" y="527.9619">&#1074;&#1086;&#1079;&#1074;&#1088;&#1072;&#1097;&#1072;&#1077;&#1090; tx_hash</text></g><g class="message" data-entity-1="part6" data-entity-2="part7" data-source-line="39" id="msg13"><polygon fill="#0969DA" points="1040.3652,553.5801,1050.3652,557.5801,1040.3652,561.5801,1044.3652,557.5801" style="stroke:#0969DA;stroke-width:1;"/><line style="stroke:#0969DA;stroke-width:1;" x1="833.8633" x2="1046.3652" y1="557.5801" y2="557.5801"/><text fill="#7286A5" font-family="Arial" font-size="10" lengthAdjust="spacing" textLength="112.2754" x="840.8633" y="553.4609">wait_for_receipt(tx_hash)</text></g><g class="message" data-entity-1="part7" data-entity-2="part6" data-source-line="41" id="msg14"><polygon fill="#0969DA" points="844.8633,579.0791,834.8633,583.0791,844.8633,587.0791,840.8633,583.0791" style="stroke:#0969DA;stroke-width:1;"/><line style="stroke:#0969DA;stroke-width:1;stroke-dasharray:2,2;" x1="838.8633" x2="1056.3652" y1="583.0791" y2="583.0791"/><text fill="#7286A5" font-family="Arial" font-size="10" lengthAdjust="spacing" textLength="194.502" x="850.8633" y="578.96">&#1074;&#1086;&#1079;&#1074;&#1088;&#1072;&#1097;&#1072;&#1077;&#1090; &#1082;&#1074;&#1080;&#1090;&#1072;&#1085;&#1094;&#1080;&#1102; (contract_address)</text></g><g class="message" data-entity-1="part6" data-entity-2="part4" data-source-line="43" id="msg15"><polygon fill="#0969DA" points="581.0801,604.5781,571.0801,608.5781,581.0801,612.5781,577.0801,608.5781" style="stroke:#0969DA;stroke-width:1;"/><line style="stroke:#0969DA;stroke-width:1;stroke-dasharray:2,2;" x1="575.0801" x2="827.8633" y1="608.5781" y2="608.5781"/><text fill="#7286A5" font-family="Arial" font-size="10" lengthAdjust="spacing" textLength="110.6104" x="587.0801" y="604.459">returns contract_address</text></g><g class="message" data-entity-1="part4" data-entity-2="part4" data-source-line="45" id="msg16"><line style="stroke:#0969DA;stroke-width:1;" x1="570.0801" x2="612.0801" y1="634.0771" y2="634.0771"/><line style="stroke:#0969DA;stroke-width:1;" x1="612.0801" x2="612.0801" y1="634.0771" y2="647.0771"/><line style="stroke:#0969DA;stroke-width:1;" x1="571.0801" x2="612.0801" y1="647.0771" y2="647.0771"/><polygon fill="#0969DA" points="581.0801,643.0771,571.0801,647.0771,581.0801,651.0771,577.0801,647.0771" style="stroke:#0969DA;stroke-width:1;"/><text fill="#7286A5" font-family="Arial" font-size="10" lengthAdjust="spacing" textLength="103.4033" x="577.0801" y="629.958">update SessionContext</text></g><g class="message" data-entity-1="part4" data-entity-2="part3" data-source-line="46" id="msg17"><polygon fill="#0969DA" points="422.3291,668.5762,412.3291,672.5762,422.3291,676.5762,418.3291,672.5762" style="stroke:#0969DA;stroke-width:1;"/><line style="stroke:#0969DA;stroke-width:1;stroke-dasharray:2,2;" x1="416.3291" x2="564.0801" y1="672.5762" y2="672.5762"/><text fill="#7286A5" font-family="Arial" font-size="10" lengthAdjust="spacing" textLength="110.6104" x="428.3291" y="668.457">returns contract_address</text></g><g class="message" data-entity-1="part3" data-entity-2="part2" data-source-line="49" id="msg18"><polygon fill="#0969DA" points="248.8223,694.0752,238.8223,698.0752,248.8223,702.0752,244.8223,698.0752" style="stroke:#0969DA;stroke-width:1;"/><line style="stroke:#0969DA;stroke-width:1;stroke-dasharray:2,2;" x1="242.8223" x2="405.3291" y1="698.0752" y2="698.0752"/><text fill="#7286A5" font-family="Arial" font-size="10" lengthAdjust="spacing" textLength="139.5068" x="254.8223" y="693.9561">finished.emit(contract_address)</text></g><g class="message" data-entity-1="part2" data-entity-2="part2" data-source-line="51" id="msg19"><line style="stroke:#0969DA;stroke-width:1;" x1="237.8223" x2="279.8223" y1="723.5742" y2="723.5742"/><line style="stroke:#0969DA;stroke-width:1;" x1="279.8223" x2="279.8223" y1="723.5742" y2="736.5742"/><line style="stroke:#0969DA;stroke-width:1;" x1="238.8223" x2="279.8223" y1="736.5742" y2="736.5742"/><polygon fill="#0969DA" points="248.8223,732.5742,238.8223,736.5742,248.8223,740.5742,244.8223,736.5742" style="stroke:#0969DA;stroke-width:1;"/><text fill="#7286A5" font-family="Arial" font-size="10" lengthAdjust="spacing" textLength="56.6895" x="244.8223" y="719.4551">lock_inputs()</text></g><g class="message" data-entity-1="part2" data-entity-2="part2" data-source-line="52" id="msg20"><line style="stroke:#0969DA;stroke-width:1;" x1="237.8223" x2="279.8223" y1="762.0732" y2="762.0732"/><line style="stroke:#0969DA;stroke-width:1;" x1="279.8223" x2="279.8223" y1="762.0732" y2="775.0732"/><line style="stroke:#0969DA;stroke-width:1;" x1="238.8223" x2="279.8223" y1="775.0732" y2="775.0732"/><polygon fill="#0969DA" points="248.8223,771.0732,238.8223,775.0732,248.8223,779.0732,244.8223,775.0732" style="stroke:#0969DA;stroke-width:1;"/><text fill="#7286A5" font-family="Arial" font-size="10" lengthAdjust="spacing" textLength="102.6855" x="244.8223" y="757.9541">show Toast("Success")</text></g><g class="message" data-entity-1="part2" data-entity-2="part1" data-source-line="53" id="msg21"><polygon fill="#0969DA" points="62.4883,796.5723,52.4883,800.5723,62.4883,804.5723,58.4883,800.5723" style="stroke:#0969DA;stroke-width:1;"/><line style="stroke:#0969DA;stroke-width:1;stroke-dasharray:2,2;" x1="56.4883" x2="231.8223" y1="800.5723" y2="800.5723"/><text fill="#7286A5" font-family="Arial" font-size="10" lengthAdjust="spacing" textLength="152.334" x="68.4883" y="796.4531">&#1086;&#1090;&#1088;&#1080;&#1089;&#1086;&#1074;&#1099;&#1074;&#1072;&#1077;&#1090; &#1089;&#1086;&#1089;&#1090;&#1086;&#1103;&#1085;&#1080;&#1077; &#1076;&#1077;&#1087;&#1083;&#1086;&#1103;</text></g><?plantuml-src bPJDRjD058NtVeeXArSYwO8T2wGeI8XT99UKHINBjQTaL7l66a_IPXU2148WYb1NB7c2A3GqD4ruXV4RSMPi5oUjA2XIx6I--tVctlk0yJ0UH9IqMhj-A994y5tLfmbjiK4IEuvYAgP4d-k5dkhl-HZVr_XCYVwbr_bhlTHpVQ7NUgQd-GJlo_oZNfaJ_5eyDePpa4iGFuc-mcELJwoNAm1JqXEAyLST8QdZ1A4IaZJqPpYyHhoLNXWtXWQxpiSD4cIa7IMCEsaW5GjP6d05Yo_ml8JF2pod1M7P5yytmQSqZSLeNyXZAYrGl6v2xJJj2AwaYEEIQdSsYOv8KeP3ZyeX2wbbEjucKnHM9tfRn3uzVDILOiYYAfckuzZSIVC9KYTGRuMYVa0A2Axd-QIge66qOiD0KLCYqCfW6CGimjz-AksnVqn7xav95CM22YN5cHkOM8Qu1MGAYSBk9agfarCIODiTuwWG0dq3lG3NJI0Q690TxnuIqd61fnZ2jQNrLpJADVfcWMjTvEFyZQr-ktyEUFuE1sEqs2L9HyrCn67pr86BPfKX-dAjB_NCDj7xKaKtE6GFoU58qL14TCU9Q3qNatLTZFzrWSAtTOhihVrTffvt1xWLvSOAlGJUPDarrqLvvCE0PmOGt5MdFheWg5zWjwQnDTBVh8mhEyD_DDvxUS3rZDY9nJ0Lyvn_mFG-ewhlmBHP9NkdC0ZT3x9-NH34hYLx4Z3b7mdfInfIbYgtjDXCzjuuI6w6j2UsXBTu-qJSIZO_Y299ispdZYogAv5K3IJFoBPDtQJdbNTZBGQfcIpY0OB6PaNGKtMhM_x5Rxr3giazOfnbVHgrQCBKFPKKmrWR-rY4npxZwK1bDzDk3xA-E25x8iYKs_06OGXNZG8mLTbT0ttNTgImRCqUnrtFIetD7tQHh_Cpiutrd635bliyFwldX3Nq6m00?></g></svg>