<svg xmlns="http://www.w3.org/2000/svg" xmlns:xlink="http://www.w3.org/1999/xlink" contentStyleType="text/css" data-diagram-type="SEQUENCE" height="450px" preserveAspectRatio="none" style="width:532px;height:450px;background:#FFFFFF;" version="1.1" viewBox="0 0 532 450" width="532px" zoomAndPan="magnify"><?plantuml 1.2026.3?><defs/><g><g class="title" data-source-line="3"><text fill="#1F3A68" font-family="Arial" font-size="14" font-weight="700" lengthAdjust="spacing" textLength="487.9902" x="18.8271" y="28.1318">&#1044;&#1080;&#1072;&#1075;&#1088;&#1072;&#1084;&#1084;&#1072; &#1087;&#1086;&#1089;&#1083;&#1077;&#1076;&#1086;&#1074;&#1072;&#1090;&#1077;&#1083;&#1100;&#1085;&#1086;&#1089;&#1090;&#1080;: &#1052;&#1086;&#1085;&#1080;&#1090;&#1086;&#1088;&#1080;&#1085;&#1075; &#1080; &#1074;&#1086;&#1089;&#1089;&#1090;&#1072;&#1085;&#1086;&#1074;&#1083;&#1077;&#1085;&#1080;&#1077; Geth</text></g><g><title>GethManager</title><rect fill="#F4F7FB" height="324.4893" style="stroke:#181818;stroke-width:1;" width="10" x="43.6885" y="80.8975"/></g><g><title>MonitorThread</title><rect fill="#F4F7FB" height="306.9902" style="stroke:#181818;stroke-width:1;" width="10" x="143.3945" y="98.3965"/></g><g><title>AppController</title><rect fill="#F4F7FB" height="55.499" style="stroke:#181818;stroke-width:1;" width="10" x="250.7783" y="207.9922"/></g><g><title>....... ....</title><rect fill="#F4F7FB" height="61.499" style="stroke:#181818;stroke-width:1;" width="10" x="369.8125" y="233.4912"/></g><rect fill="none" height="284.9902" rx="3" ry="3" style="stroke:#000000;stroke-width:1.5;" width="482.6445" x="34" y="113.3965"/><rect fill="none" height="216.6924" rx="3" ry="3" style="stroke:#000000;stroke-width:1.5;" width="462.6445" x="44" y="174.6943"/><g class="participant-lifeline" data-entity-uid="part1" data-qualified-name="GM" data-source-line="5" id="part1-lifeline"><g><title>GethManager</title><rect fill="#000000" fill-opacity="0.00000" height="344.4893" width="8" x="44.6885" y="70.8975"/><line style="stroke:#C4D3E8;stroke-width:0.5;stroke-dasharray:5,5;" x1="48" x2="48" y1="70.8975" y2="415.3867"/></g></g><g class="participant-lifeline" data-entity-uid="part2" data-qualified-name="MT" data-source-line="6" id="part2-lifeline"><g><title>MonitorThread</title><rect fill="#000000" fill-opacity="0.00000" height="344.4893" width="8" x="144.3945" y="70.8975"/><line style="stroke:#C4D3E8;stroke-width:0.5;stroke-dasharray:5,5;" x1="148.377" x2="148.377" y1="70.8975" y2="415.3867"/></g></g><g class="participant-lifeline" data-entity-uid="part3" data-qualified-name="AC" data-source-line="7" id="part3-lifeline"><g><title>AppController</title><rect fill="#000000" fill-opacity="0.00000" height="344.4893" width="8" x="251.7783" y="70.8975"/><line style="stroke:#C4D3E8;stroke-width:0.5;stroke-dasharray:5,5;" x1="255.0928" x2="255.0928" y1="70.8975" y2="415.3867"/></g></g><g class="participant-lifeline" data-entity-uid="part4" data-qualified-name="MW" data-source-line="8" id="part4-lifeline"><g><title>....... ....</title><rect fill="#000000" fill-opacity="0.00000" height="344.4893" width="8" x="370.8125" y="70.8975"/><line style="stroke:#C4D3E8;stroke-width:0.5;stroke-dasharray:5,5;" x1="374.2715" x2="374.2715" y1="70.8975" y2="415.3867"/></g></g><g class="participant participant-head" data-entity-uid="part1" data-qualified-name="GM" data-source-line="5" id="part1-head"><rect fill="#E7EEF7" height="27.7988" rx="3" ry="3" style="stroke:#C4D3E8;stroke-width:0.5;" width="87.377" x="5" y="42.0986"/><text fill="#1F3A68" font-family="Arial" font-size="12" lengthAdjust="spacing" textLength="73.377" x="12" y="60.3545">GethManager</text></g><g class="participant participant-tail" data-entity-uid="part1" data-qualified-name="GM" data-source-line="5" id="part1-tail"><rect fill="#E7EEF7" height="27.7988" rx="3" ry="3" style="stroke:#C4D3E8;stroke-width:0.5;" width="87.377" x="5" y="414.3867"/><text fill="#1F3A68" font-family="Arial" font-size="12" lengthAdjust="spacing" textLength="73.377" x="12" y="432.6426">GethManager</text></g><g class="participant participant-head" data-entity-uid="part2" data-qualified-name="MT" data-source-line="6" id="part2-head"><rect fill="#E7EEF7" height="27.7988" rx="3" ry="3" style="stroke:#C4D3E8;stroke-width:0.5;" width="92.0352" x="102.377" y="42.0986"/><text fill="#1F3A68" font-family="Arial" font-size="12" lengthAdjust="spacing" textLength="78.0352" x="109.377" y="60.3545">MonitorThread</text></g><g class="participant participant-tail" data-entity-uid="part2" data-qualified-name="MT" data-source-line="6" id="part2-tail"><rect fill="#E7EEF7" height="27.7988" rx="3" ry="3" style="stroke:#C4D3E8;stroke-width:0.5;" width="92.0352" x="102.377" y="414.3867"/><text fill="#1F3A68" font-family="Arial" font-size="12" lengthAdjust="spacing" textLength="78.0352" x="109.377" y="432.6426">MonitorThread</text></g><g class="participant participant-head" data-entity-uid="part3" data-qualified-name="AC" data-source-line="7" id="part3-head"><rect fill="#E7EEF7" height="27.7988" rx="3" ry="3" style="stroke:#C4D3E8;stroke-width:0.5;" width="87.3711" x="212.0928" y="42.0986"/><text fill="#1F3A68" font-family="Arial" font-size="12" lengthAdjust="spacing" textLength="73.3711" x="219.0928" y="60.3545">AppController</text></g><g class="participant participant-tail" data-entity-uid="part3" data-qualified-name="AC" data-source-line="7" id="part3-tail"><rect fill="#E7EEF7" height="27.7988" rx="3" ry="3" style="stroke:#C4D3E8;stroke-width:0.5;" width="87.3711" x="212.0928" y="414.3867"/><text fill="#1F3A68" font-family="Arial" font-size="12" lengthAdjust="spacing" textLength="73.3711" x="219.0928" y="432.6426">AppController</text></g><g class="participant participant-head" data-entity-uid="part4" data-qualified-name="MW" data-source-line="8" id="part4-head"><rect fill="#E7EEF7" height="27.7988" rx="3" ry="3" style="stroke:#C4D3E8;stroke-width:0.5;" width="89.082" x="330.2715" y="42.0986"/><text fill="#1F3A68" font-family="Arial" font-size="12" lengthAdjust="spacing" textLength="75.082" x="337.2715" y="60.3545">&#1043;&#1083;&#1072;&#1074;&#1085;&#1086;&#1077; &#1086;&#1082;&#1085;&#1086;</text></g><g class="participant participant-tail" data-entity-uid="part4" data-qualified-name="MW" data-source-line="8" id="part4-tail"><rect fill="#E7EEF7" height="27.7988" rx="3" ry="3" style="stroke:#C4D3E8;stroke-width:0.5;" width="89.082" x="330.2715" y="414.3867"/><text fill="#1F3A68" font-family="Arial" font-size="12" lengthAdjust="spacing" textLength="75.082" x="337.2715" y="432.6426">&#1043;&#1083;&#1072;&#1074;&#1085;&#1086;&#1077; &#1086;&#1082;&#1085;&#1086;</text></g><g><title>GethManager</title><rect fill="#F4F7FB" height="324.4893" style="stroke:#181818;stroke-width:1;" width="10" x="43.6885" y="80.8975"/></g><g><title>MonitorThread</title><rect fill="#F4F7FB" height="306.9902" style="stroke:#181818;stroke-width:1;" width="10" x="143.3945" y="98.3965"/></g><g><title>AppController</title><rect fill="#F4F7FB" height="55.499" style="stroke:#181818;stroke-width:1;" width="10" x="250.7783" y="207.9922"/></g><g><title>....... ....</title><rect fill="#F4F7FB" height="61.499" style="stroke:#181818;stroke-width:1;" width="10" x="369.8125" y="233.4912"/></g><g class="message" data-entity-1="part1" data-entity-2="part2" data-source-line="11" id="msg1"><polygon fill="#0969DA" points="131.3945,94.3965,141.3945,98.3965,131.3945,102.3965,135.3945,98.3965" style="stroke:#0969DA;stroke-width:1;"/><line style="stroke:#0969DA;stroke-width:1;" x1="53.6885" x2="137.3945" y1="98.3965" y2="98.3965"/><text fill="#7286A5" font-family="Arial" font-size="10" lengthAdjust="spacing" textLength="26.1084" x="60.6885" y="94.2773">start()</text></g><path d="M37,113.3965 L104.3242,113.3965 L104.3242,119.1953 L94.3242,129.1953 L34,129.1953 L34,116.3965 A3,3 0 0 1 37,113.3965" fill="#EEEEEE" style="stroke:#000000;stroke-width:1.5;"/><rect fill="none" height="284.9902" rx="3" ry="3" style="stroke:#000000;stroke-width:1.5;" width="482.6445" x="34" y="113.3965"/><text fill="#1F3A68" font-family="Arial" font-size="12" font-weight="700" lengthAdjust="spacing" textLength="25.3242" x="49" y="125.6523">loop</text><text fill="#1F3A68" font-family="Arial" font-size="12" font-weight="700" lengthAdjust="spacing" textLength="119.8594" x="119.3242" y="126.6523">[&#1087;&#1086;&#1082;&#1072; Geth &#1079;&#1072;&#1087;&#1091;&#1097;&#1077;&#1085;]</text><g class="message" data-entity-1="part2" data-entity-2="part2" data-source-line="15" id="msg2"><line style="stroke:#0969DA;stroke-width:1;" x1="153.3945" x2="195.3945" y1="146.6943" y2="146.6943"/><line style="stroke:#0969DA;stroke-width:1;" x1="195.3945" x2="195.3945" y1="146.6943" y2="159.6943"/><line style="stroke:#0969DA;stroke-width:1;" x1="154.3945" x2="195.3945" y1="159.6943" y2="159.6943"/><polygon fill="#0969DA" points="164.3945,155.6943,154.3945,159.6943,164.3945,163.6943,160.3945,159.6943" style="stroke:#0969DA;stroke-width:1;"/><text fill="#7286A5" font-family="Arial" font-size="10" lengthAdjust="spacing" textLength="36.1279" x="160.3945" y="142.5752">sleep(2)</text></g><path d="M47,174.6943 L103.0039,174.6943 L103.0039,180.4932 L93.0039,190.4932 L44,190.4932 L44,177.6943 A3,3 0 0 1 47,174.6943" fill="#EEEEEE" style="stroke:#000000;stroke-width:1.5;"/><rect fill="none" height="216.6924" rx="3" ry="3" style="stroke:#000000;stroke-width:1.5;" width="462.6445" x="44" y="174.6943"/><text fill="#1F3A68" font-family="Arial" font-size="12" font-weight="700" lengthAdjust="spacing" textLength="14.0039" x="59" y="186.9502">alt</text><text fill="#1F3A68" font-family="Arial" font-size="12" font-weight="700" lengthAdjust="spacing" textLength="285.9902" x="118.0039" y="187.9502">[&#1055;&#1088;&#1086;&#1094;&#1077;&#1089;&#1089; Geth &#1079;&#1072;&#1074;&#1077;&#1088;&#1096;&#1080;&#1083;&#1089;&#1103; &#1048; &#1053;&#1045; shutting_down]</text><g class="message" data-entity-1="part2" data-entity-2="part3" data-source-line="17" id="msg3"><polygon fill="#0969DA" points="238.7783,203.9922,248.7783,207.9922,238.7783,211.9922,242.7783,207.9922" style="stroke:#0969DA;stroke-width:1;"/><line style="stroke:#0969DA;stroke-width:1;stroke-dasharray:2,2;" x1="153.3945" x2="244.7783" y1="207.9922" y2="207.9922"/><text fill="#7286A5" font-family="Arial" font-size="10" lengthAdjust="spacing" textLength="78.3838" x="160.3945" y="203.873">_on_geth_crash()</text></g><g class="message" data-entity-1="part3" data-entity-2="part4" data-source-line="19" id="msg4"><polygon fill="#0969DA" points="357.8125,229.4912,367.8125,233.4912,357.8125,237.4912,361.8125,233.4912" style="stroke:#0969DA;stroke-width:1;"/><line style="stroke:#0969DA;stroke-width:1;stroke-dasharray:2,2;" x1="260.7783" x2="363.8125" y1="233.4912" y2="233.4912"/><text fill="#7286A5" font-family="Arial" font-size="10" lengthAdjust="spacing" textLength="90.0342" x="267.7783" y="229.3721">_crash_signal.emit()</text></g><g class="message" data-entity-1="part4" data-entity-2="part4" data-source-line="23" id="msg5"><line style="stroke:#0969DA;stroke-width:1;" x1="379.8125" x2="421.8125" y1="293.9902" y2="293.9902"/><line style="stroke:#0969DA;stroke-width:1;" x1="421.8125" x2="421.8125" y1="293.9902" y2="306.9902"/><line style="stroke:#0969DA;stroke-width:1;" x1="374.8125" x2="421.8125" y1="306.9902" y2="306.9902"/><polygon fill="#0969DA" points="384.8125,302.9902,374.8125,306.9902,384.8125,310.9902,380.8125,306.9902" style="stroke:#0969DA;stroke-width:1;"/><text fill="#7286A5" font-family="Arial" font-size="10" lengthAdjust="spacing" textLength="97.832" x="386.8125" y="289.8711">_show_crash_dialog()</text></g><path d="M269,317.9902 L269,348.9902 A3,3 0 0 0 272,351.9902 L476,351.9902 A3,3 0 0 0 479,348.9902 L479,324.9902 L469,314.9902 L272,314.9902 A3,3 0 0 0 269,317.9902" fill="#FEFFDD" style="stroke:#181818;stroke-width:0.5;"/><path d="M469,314.9902 L469,323.4902 A1.5,1.5 0 0 0 470.5,324.9902 L479,324.9902 L469,314.9902" fill="#FEFFDD" style="stroke:#181818;stroke-width:0.5;"/><text fill="#1F3A68" font-family="Arial" font-size="12" lengthAdjust="spacing" textLength="189.252" x="275" y="331.2461">&#1041;&#1083;&#1086;&#1082;&#1080;&#1088;&#1091;&#1077;&#1090; UI, &#1087;&#1086;&#1082;&#1072;&#1079;&#1099;&#1074;&#1072;&#1077;&#1090; &#1086;&#1096;&#1080;&#1073;&#1082;&#1091;</text><text fill="#1F3A68" font-family="Arial" font-size="12" lengthAdjust="spacing" textLength="94.1777" x="275" y="345.0449">"&#1059;&#1079;&#1077;&#1083; Geth &#1091;&#1087;&#1072;&#1083;"</text><path d="M54,365.5879 L54,382.5879 A3,3 0 0 0 57,385.5879 L238,385.5879 A3,3 0 0 0 241,382.5879 L241,372.5879 L231,362.5879 L57,362.5879 A3,3 0 0 0 54,365.5879" fill="#FEFFDD" style="stroke:#181818;stroke-width:0.5;"/><path d="M231,362.5879 L231,371.0879 A1.5,1.5 0 0 0 232.5,372.5879 L241,372.5879 L231,362.5879" fill="#FEFFDD" style="stroke:#181818;stroke-width:0.5;"/><text fill="#1F3A68" font-family="Arial" font-size="12" lengthAdjust="spacing" textLength="166.0898" x="60" y="378.8438">&#1047;&#1072;&#1074;&#1077;&#1088;&#1096;&#1072;&#1077;&#1090; &#1094;&#1080;&#1082;&#1083; &#1084;&#1086;&#1085;&#1080;&#1090;&#1086;&#1088;&#1080;&#1085;&#1075;&#1072;</text><?plantuml-src RLD1YzD05BxdLpnxQa6xu74FGkcXUCYjqeiGXcP81fAPa4nth-iMH54GKT63ui4_47Sj6pPk-nTU_f7VfDjkYat8CFFUzxxlpJUJHqhFaqKeQJWy2UOcJOq-iR5CvL0jqiJphBA99FxC5PTytLnW_8kt9Dxmkdd5DQ_u3w_vYilc4lEwUSztBeDLTKhy7Raxhh1QexZ2_9gu8k0Tng5AXyVQCG79Avf86tjU9dAhvYeJsbBFXNoXHIJp7ec29lvXtZTQMPDFuroAi4NuqqF4ACl6HjlS9CaznsXyYE1FwA549wwV5M6uTTCjsyppnDogCs6b4v_uzEGPDEYK2WkI_k0X3MKlCIPhBG97sMw8-0RacsRPl7KRzGWFwlSiYPHP_-cWZOl44l-4N-lcDQ-SJnsAAqGkcZTmgaRc0_4tuX_yXOfuOQtIKH2QSztIx2IWCHf38p0wYC0Jp7DHnFt17hHl7PRiOgXmXVxC5RO5GQ4YBPAXJ9KzLWoFTh5G7gDyQ6f6U-eYDkVt_A4IYOawrDg0m9p9V8lbZpWWvsW50vQmuP9UF7-yjvblcdVk7hO9MESi-istpVAbxl4lU8VRkVKHnHlWwjwnXZlRwEYxC-Al7VktCZYV2jeruP_uxw9psJ997NhkwsfCkolSfty0?></g></svg>