<svg xmlns="http://www.w3.org/2000/svg" xmlns:xlink="http://www.w3.org/1999/xlink" contentStyleType="text/css" data-diagram-type="SEQUENCE" height="450px" preserveAspectRatio="none" style="width:532px;height:450px;background:#FFFFFF;" version="1.1" viewBox="0 0 532 450" width="532px" zoomAndPan="magnify">
<!-- MYCELIUM-BG -->
<rect x="0" y="0" width="532" height="450" fill="white"/>

<rect width="100%" height="100%" fill="white"/>
<?plantuml 1.2026.3?><defs/><g><g class="title" data-source-line="3"><text fill="#1F3A68" font-family="Arial" font-size="14" font-weight="700" lengthAdjust="spacing" textLength="371.082" x="77.2813" y="28.1318">Sequence Diagram - Geth Crash Monitoring &amp; Recovery</text></g><g><title>GethManager</title><rect fill="#F4F7FB" height="324.4893" style="stroke:#181818;stroke-width:1;" width="10" x="43.6885" y="80.8975"/></g><g><title>MonitorThread</title><rect fill="#F4F7FB" height="306.9902" style="stroke:#181818;stroke-width:1;" width="10" x="143.3945" y="98.3965"/></g><g><title>AppController</title><rect fill="#F4F7FB" height="55.499" style="stroke:#181818;stroke-width:1;" width="10" x="250.7783" y="207.9922"/></g><g><title>MainWindow</title><rect fill="#F4F7FB" height="61.499" style="stroke:#181818;stroke-width:1;" width="10" x="369.8125" y="233.4912"/></g><rect fill="none" height="284.9902" rx="3" ry="3" style="stroke:#000000;stroke-width:1.5;" width="460.6445" x="56" y="113.3965"/><rect fill="none" height="216.6924" rx="3" ry="3" style="stroke:#000000;stroke-width:1.5;" width="440.6445" x="66" y="174.6943"/><g class="participant-lifeline" data-entity-uid="part1" data-qualified-name="GM" data-source-line="5" id="part1-lifeline"><g><title>GethManager</title><rect fill="#000000" fill-opacity="0.00000" height="344.4893" width="8" x="44.6885" y="70.8975"/><line style="stroke:#C4D3E8;stroke-width:0.5;stroke-dasharray:5,5;" x1="48" x2="48" y1="70.8975" y2="415.3867"/></g></g><g class="participant-lifeline" data-entity-uid="part2" data-qualified-name="MT" data-source-line="6" id="part2-lifeline"><g><title>MonitorThread</title><rect fill="#000000" fill-opacity="0.00000" height="344.4893" width="8" x="144.3945" y="70.8975"/><line style="stroke:#C4D3E8;stroke-width:0.5;stroke-dasharray:5,5;" x1="148.377" x2="148.377" y1="70.8975" y2="415.3867"/></g></g><g class="participant-lifeline" data-entity-uid="part3" data-qualified-name="AC" data-source-line="7" id="part3-lifeline"><g><title>AppController</title><rect fill="#000000" fill-opacity="0.00000" height="344.4893" width="8" x="251.7783" y="70.8975"/><line style="stroke:#C4D3E8;stroke-width:0.5;stroke-dasharray:5,5;" x1="255.0928" x2="255.0928" y1="70.8975" y2="415.3867"/></g></g><g class="participant-lifeline" data-entity-uid="part4" data-qualified-name="MW" data-source-line="8" id="part4-lifeline"><g><title>MainWindow</title><rect fill="#000000" fill-opacity="0.00000" height="344.4893" width="8" x="370.8125" y="70.8975"/><line style="stroke:#C4D3E8;stroke-width:0.5;stroke-dasharray:5,5;" x1="374.4678" x2="374.4678" y1="70.8975" y2="415.3867"/></g></g><g class="participant participant-head" data-entity-uid="part1" data-qualified-name="GM" data-source-line="5" id="part1-head"><rect fill="#E7EEF7" height="27.7988" rx="3" ry="3" style="stroke:#C4D3E8;stroke-width:0.5;" width="87.377" x="5" y="42.0986"/><text fill="#1F3A68" font-family="Arial" font-size="12" lengthAdjust="spacing" textLength="73.377" x="12" y="60.3545">GethManager</text></g><g class="participant participant-tail" data-entity-uid="part1" data-qualified-name="GM" data-source-line="5" id="part1-tail"><rect fill="#E7EEF7" height="27.7988" rx="3" ry="3" style="stroke:#C4D3E8;stroke-width:0.5;" width="87.377" x="5" y="414.3867"/><text fill="#1F3A68" font-family="Arial" font-size="12" lengthAdjust="spacing" textLength="73.377" x="12" y="432.6426">GethManager</text></g><g class="participant participant-head" data-entity-uid="part2" data-qualified-name="MT" data-source-line="6" id="part2-head"><rect fill="#E7EEF7" height="27.7988" rx="3" ry="3" style="stroke:#C4D3E8;stroke-width:0.5;" width="92.0352" x="102.377" y="42.0986"/><text fill="#1F3A68" font-family="Arial" font-size="12" lengthAdjust="spacing" textLength="78.0352" x="109.377" y="60.3545">MonitorThread</text></g><g class="participant participant-tail" data-entity-uid="part2" data-qualified-name="MT" data-source-line="6" id="part2-tail"><rect fill="#E7EEF7" height="27.7988" rx="3" ry="3" style="stroke:#C4D3E8;stroke-width:0.5;" width="92.0352" x="102.377" y="414.3867"/><text fill="#1F3A68" font-family="Arial" font-size="12" lengthAdjust="spacing" textLength="78.0352" x="109.377" y="432.6426">MonitorThread</text></g><g class="participant participant-head" data-entity-uid="part3" data-qualified-name="AC" data-source-line="7" id="part3-head"><rect fill="#E7EEF7" height="27.7988" rx="3" ry="3" style="stroke:#C4D3E8;stroke-width:0.5;" width="87.3711" x="212.0928" y="42.0986"/><text fill="#1F3A68" font-family="Arial" font-size="12" lengthAdjust="spacing" textLength="73.3711" x="219.0928" y="60.3545">AppController</text></g><g class="participant participant-tail" data-entity-uid="part3" data-qualified-name="AC" data-source-line="7" id="part3-tail"><rect fill="#E7EEF7" height="27.7988" rx="3" ry="3" style="stroke:#C4D3E8;stroke-width:0.5;" width="87.3711" x="212.0928" y="414.3867"/><text fill="#1F3A68" font-family="Arial" font-size="12" lengthAdjust="spacing" textLength="73.3711" x="219.0928" y="432.6426">AppController</text></g><g class="participant participant-head" data-entity-uid="part4" data-qualified-name="MW" data-source-line="8" id="part4-head"><rect fill="#E7EEF7" height="27.7988" rx="3" ry="3" style="stroke:#C4D3E8;stroke-width:0.5;" width="82.6895" x="333.4678" y="42.0986"/><text fill="#1F3A68" font-family="Arial" font-size="12" lengthAdjust="spacing" textLength="68.6895" x="340.4678" y="60.3545">MainWindow</text></g><g class="participant participant-tail" data-entity-uid="part4" data-qualified-name="MW" data-source-line="8" id="part4-tail"><rect fill="#E7EEF7" height="27.7988" rx="3" ry="3" style="stroke:#C4D3E8;stroke-width:0.5;" width="82.6895" x="333.4678" y="414.3867"/><text fill="#1F3A68" font-family="Arial" font-size="12" lengthAdjust="spacing" textLength="68.6895" x="340.4678" y="432.6426">MainWindow</text></g><g><title>GethManager</title><rect fill="#F4F7FB" height="324.4893" style="stroke:#181818;stroke-width:1;" width="10" x="43.6885" y="80.8975"/></g><g><title>MonitorThread</title><rect fill="#F4F7FB" height="306.9902" style="stroke:#181818;stroke-width:1;" width="10" x="143.3945" y="98.3965"/></g><g><title>AppController</title><rect fill="#F4F7FB" height="55.499" style="stroke:#181818;stroke-width:1;" width="10" x="250.7783" y="207.9922"/></g><g><title>MainWindow</title><rect fill="#F4F7FB" height="61.499" style="stroke:#181818;stroke-width:1;" width="10" x="369.8125" y="233.4912"/></g><g class="message" data-entity-1="part1" data-entity-2="part2" data-source-line="11" id="msg1"><polygon fill="#0969DA" points="131.3945,94.3965,141.3945,98.3965,131.3945,102.3965,135.3945,98.3965" style="stroke:#0969DA;stroke-width:1;"/><line style="stroke:#0969DA;stroke-width:1;" x1="53.6885" x2="137.3945" y1="98.3965" y2="98.3965"/><text fill="#7286A5" font-family="Arial" font-size="10" lengthAdjust="spacing" textLength="26.1084" x="60.6885" y="94.2773">start()</text></g><path d="M59,113.3965 L126.3242,113.3965 L126.3242,119.1953 L116.3242,129.1953 L56,129.1953 L56,116.3965 A3,3 0 0 1 59,113.3965" fill="#EEEEEE" style="stroke:#000000;stroke-width:1.5;"/><rect fill="none" height="284.9902" rx="3" ry="3" style="stroke:#000000;stroke-width:1.5;" width="460.6445" x="56" y="113.3965"/><text fill="#1F3A68" font-family="Arial" font-size="12" font-weight="700" lengthAdjust="spacing" textLength="25.3242" x="71" y="125.6523">loop</text><text fill="#1F3A68" font-family="Arial" font-size="12" font-weight="700" lengthAdjust="spacing" textLength="129.9961" x="141.3242" y="126.6523">[while Geth is running]</text><g class="message" data-entity-1="part2" data-entity-2="part2" data-source-line="15" id="msg2"><line style="stroke:#0969DA;stroke-width:1;" x1="153.3945" x2="195.3945" y1="146.6943" y2="146.6943"/><line style="stroke:#0969DA;stroke-width:1;" x1="195.3945" x2="195.3945" y1="146.6943" y2="159.6943"/><line style="stroke:#0969DA;stroke-width:1;" x1="154.3945" x2="195.3945" y1="159.6943" y2="159.6943"/><polygon fill="#0969DA" points="164.3945,155.6943,154.3945,159.6943,164.3945,163.6943,160.3945,159.6943" style="stroke:#0969DA;stroke-width:1;"/><text fill="#7286A5" font-family="Arial" font-size="10" lengthAdjust="spacing" textLength="36.1279" x="160.3945" y="142.5752">sleep(2)</text></g><path d="M69,174.6943 L125.0039,174.6943 L125.0039,180.4932 L115.0039,190.4932 L66,190.4932 L66,177.6943 A3,3 0 0 1 69,174.6943" fill="#EEEEEE" style="stroke:#000000;stroke-width:1.5;"/><rect fill="none" height="216.6924" rx="3" ry="3" style="stroke:#000000;stroke-width:1.5;" width="440.6445" x="66" y="174.6943"/><text fill="#1F3A68" font-family="Arial" font-size="12" font-weight="700" lengthAdjust="spacing" textLength="14.0039" x="81" y="186.9502">alt</text><text fill="#1F3A68" font-family="Arial" font-size="12" font-weight="700" lengthAdjust="spacing" textLength="264.6855" x="140.0039" y="187.9502">[Geth process exited and NOT shutting_down]</text><g class="message" data-entity-1="part2" data-entity-2="part3" data-source-line="17" id="msg3"><polygon fill="#0969DA" points="238.7783,203.9922,248.7783,207.9922,238.7783,211.9922,242.7783,207.9922" style="stroke:#0969DA;stroke-width:1;"/><line style="stroke:#0969DA;stroke-width:1;stroke-dasharray:2,2;" x1="153.3945" x2="244.7783" y1="207.9922" y2="207.9922"/><text fill="#7286A5" font-family="Arial" font-size="10" lengthAdjust="spacing" textLength="78.3838" x="160.3945" y="203.873">_on_geth_crash()</text></g><g class="message" data-entity-1="part3" data-entity-2="part4" data-source-line="19" id="msg4"><polygon fill="#0969DA" points="357.8125,229.4912,367.8125,233.4912,357.8125,237.4912,361.8125,233.4912" style="stroke:#0969DA;stroke-width:1;"/><line style="stroke:#0969DA;stroke-width:1;stroke-dasharray:2,2;" x1="260.7783" x2="363.8125" y1="233.4912" y2="233.4912"/><text fill="#7286A5" font-family="Arial" font-size="10" lengthAdjust="spacing" textLength="90.0342" x="267.7783" y="229.3721">_crash_signal.emit()</text></g><g class="message" data-entity-1="part4" data-entity-2="part4" data-source-line="23" id="msg5"><line style="stroke:#0969DA;stroke-width:1;" x1="379.8125" x2="421.8125" y1="293.9902" y2="293.9902"/><line style="stroke:#0969DA;stroke-width:1;" x1="421.8125" x2="421.8125" y1="293.9902" y2="306.9902"/><line style="stroke:#0969DA;stroke-width:1;" x1="374.8125" x2="421.8125" y1="306.9902" y2="306.9902"/><polygon fill="#0969DA" points="384.8125,302.9902,374.8125,306.9902,384.8125,310.9902,380.8125,306.9902" style="stroke:#0969DA;stroke-width:1;"/><text fill="#7286A5" font-family="Arial" font-size="10" lengthAdjust="spacing" textLength="97.832" x="386.8125" y="289.8711">_show_crash_dialog()</text></g><path d="M304,317.9902 L304,348.9902 A3,3 0 0 0 307,351.9902 L442,351.9902 A3,3 0 0 0 445,348.9902 L445,324.9902 L435,314.9902 L307,314.9902 A3,3 0 0 0 304,317.9902" fill="#FEFFDD" style="stroke:#181818;stroke-width:0.5;"/><path d="M435,314.9902 L435,323.4902 A1.5,1.5 0 0 0 436.5,324.9902 L445,324.9902 L435,314.9902" fill="#FEFFDD" style="stroke:#181818;stroke-width:0.5;"/><text fill="#1F3A68" font-family="Arial" font-size="12" lengthAdjust="spacing" textLength="120.0293" x="310" y="331.2461">Blocks UI, shows error</text><text fill="#1F3A68" font-family="Arial" font-size="12" lengthAdjust="spacing" textLength="110.5898" x="310" y="345.0449">"Geth node crashed"</text><path d="M76,365.5879 L76,382.5879 A3,3 0 0 0 79,385.5879 L217,385.5879 A3,3 0 0 0 220,382.5879 L220,372.5879 L210,362.5879 L79,362.5879 A3,3 0 0 0 76,365.5879" fill="#FEFFDD" style="stroke:#181818;stroke-width:0.5;"/><path d="M210,362.5879 L210,371.0879 A1.5,1.5 0 0 0 211.5,372.5879 L220,372.5879 L210,362.5879" fill="#FEFFDD" style="stroke:#181818;stroke-width:0.5;"/><text fill="#1F3A68" font-family="Arial" font-size="12" lengthAdjust="spacing" textLength="123.3867" x="82" y="378.8438">Terminate monitor loop</text><?plantuml-src RP9DQnin48Rl-XLJ7ueDZGCzvb1m7J0vR0lD5by2Yv26tI7QcOsaZTD_tz7w8vjWWGuQlU-Z-T0NOXT6Zx1UtpPE-bxuDdVOuvh6FXYJAGU4HtmPaHt2FTassXvkO8UvWssqgODAcB94uXQ-mXzqyehndp63ZPaS3POpB8gyicnRZ0km2NRLn_iJe-uYMZyfglgZOZCCM-4S9OGJOxFznB34Us8lXoDWRunrcLvjnlBUheAR7ug5EqXPVSlL-xK-PeB808UEjDwfE4eGHsOjou0kDLxi0N5OVbzDSHloKJz4SPWIu1jbz63Pmw_VDQHkp5aXZUR5a-DCKzncgxX6k6cLqBZIpkNg8hgafvMUO-eencfVZ9EXITIo3MliALypQn_ECO_NaEz9xU62JfqSJdnFDaWxGxCee4pvgFqPn3qd-Flm3OfBEn2Zn2UUXgvY_LqJ2FtYMYQp_6RWqkSQOqzSDFtnUq2PqQH6zgRiEQUUdtJW_m40?></g></svg>