<svg xmlns="http://www.w3.org/2000/svg" xmlns:xlink="http://www.w3.org/1999/xlink" contentStyleType="text/css" data-diagram-type="SEQUENCE" height="747px" preserveAspectRatio="none" style="width:919px;height:747px;background:#FFFFFF;" version="1.1" viewBox="0 0 919 747" width="919px" zoomAndPan="magnify">
<!-- MYCELIUM-BG -->
<rect x="0" y="0" width="919" height="747" fill="white"/>

<rect width="100%" height="100%" fill="white"/>
<?plantuml 1.2026.3?><defs/><g><g class="title" data-source-line="3"><text fill="#1F3A68" font-family="Arial" font-size="14" font-weight="700" lengthAdjust="spacing" textLength="398.9932" x="256.8242" y="28.1318">&#1044;&#1080;&#1072;&#1075;&#1088;&#1072;&#1084;&#1084;&#1072; &#1087;&#1086;&#1089;&#1083;&#1077;&#1076;&#1086;&#1074;&#1072;&#1090;&#1077;&#1083;&#1100;&#1085;&#1086;&#1089;&#1090;&#1080;: &#1052;&#1072;&#1089;&#1089;&#1086;&#1074;&#1086;&#1077; &#1075;&#1086;&#1083;&#1086;&#1089;&#1086;&#1074;&#1072;&#1085;&#1080;&#1077;</text></g><g><title>....... Vote</title><rect fill="#F4F7FB" height="505.9805" style="stroke:#181818;stroke-width:1;" width="10" x="229.2432" y="143.3965"/></g><g><title>MassVoteWorker</title><rect fill="#F4F7FB" height="352.4854" style="stroke:#181818;stroke-width:1;" width="10" x="445.5723" y="232.8936"/></g><g><title>AppController</title><rect fill="#F4F7FB" height="25.499" style="stroke:#181818;stroke-width:1;" width="10" x="624.0986" y="281.1914"/></g><g><title>AppController</title><rect fill="#F4F7FB" height="127.4951" style="stroke:#181818;stroke-width:1;" width="10" x="624.0986" y="354.9883"/></g><g><title>VotingService</title><rect fill="#F4F7FB" height="76.4971" style="stroke:#181818;stroke-width:1;" width="10" x="721.8037" y="380.4873"/></g><g><title>Web3Provider</title><rect fill="#F4F7FB" height="25.499" style="stroke:#181818;stroke-width:1;" width="10" x="833.626" y="405.9863"/></g><rect fill="none" height="312.9863" rx="3" ry="3" style="stroke:#000000;stroke-width:1.5;" width="551.6416" x="352" y="247.8936"/><rect fill="none" height="232.1895" rx="3" ry="3" style="stroke:#000000;stroke-width:1.5;" width="531.6416" x="362" y="321.6904"/><g class="participant-lifeline" data-entity-uid="part1" data-qualified-name="Admin" data-source-line="5" id="part1-lifeline"><g><title>.............</title><rect fill="#000000" fill-opacity="0.00000" height="551.4795" width="8" x="47.4883" y="115.8975"/><line style="stroke:#C4D3E8;stroke-width:0.5;stroke-dasharray:5,5;" x1="51" x2="51" y1="115.8975" y2="667.377"/></g></g><g class="participant-lifeline" data-entity-uid="part2" data-qualified-name="UI" data-source-line="6" id="part2-lifeline"><g><title>....... Vote</title><rect fill="#000000" fill-opacity="0.00000" height="551.4795" width="8" x="230.2432" y="115.8975"/><line style="stroke:#C4D3E8;stroke-width:0.5;stroke-dasharray:5,5;" x1="233.3057" x2="233.3057" y1="115.8975" y2="667.377"/></g></g><g class="participant-lifeline" data-entity-uid="part3" data-qualified-name="Worker" data-source-line="7" id="part3-lifeline"><g><title>MassVoteWorker</title><rect fill="#000000" fill-opacity="0.00000" height="551.4795" width="8" x="446.5723" y="115.8975"/><line style="stroke:#C4D3E8;stroke-width:0.5;stroke-dasharray:5,5;" x1="450.5615" x2="450.5615" y1="115.8975" y2="667.377"/></g></g><g class="participant-lifeline" data-entity-uid="part4" data-qualified-name="AC" data-source-line="8" id="part4-lifeline"><g><title>AppController</title><rect fill="#000000" fill-opacity="0.00000" height="551.4795" width="8" x="625.0986" y="115.8975"/><line style="stroke:#C4D3E8;stroke-width:0.5;stroke-dasharray:5,5;" x1="628.4131" x2="628.4131" y1="115.8975" y2="667.377"/></g></g><g class="participant-lifeline" data-entity-uid="part5" data-qualified-name="VS" data-source-line="9" id="part5-lifeline"><g><title>VotingService</title><rect fill="#000000" fill-opacity="0.00000" height="551.4795" width="8" x="722.8037" y="115.8975"/><line style="stroke:#C4D3E8;stroke-width:0.5;stroke-dasharray:5,5;" x1="726.7842" x2="726.7842" y1="115.8975" y2="667.377"/></g></g><g class="participant-lifeline" data-entity-uid="part6" data-qualified-name="WP" data-source-line="10" id="part6-lifeline"><g><title>Web3Provider</title><rect fill="#000000" fill-opacity="0.00000" height="551.4795" width="8" x="834.626" y="115.8975"/><line style="stroke:#C4D3E8;stroke-width:0.5;stroke-dasharray:5,5;" x1="838.6104" x2="838.6104" y1="115.8975" y2="667.377"/></g></g><g class="participant participant-head" data-entity-uid="part1" data-qualified-name="Admin" data-source-line="5" id="part1-head"><text fill="#1F3A68" font-family="Arial" font-size="12" lengthAdjust="spacing" textLength="86.9766" x="5" y="113.3545">&#1040;&#1076;&#1084;&#1080;&#1085;&#1080;&#1089;&#1090;&#1088;&#1072;&#1090;&#1086;&#1088;</text><ellipse cx="51.4883" cy="50.5986" fill="#E2E2F0" rx="8" ry="8" style="stroke:#181818;stroke-width:0.5;"/><path d="M51.4883,58.5986 L51.4883,85.5986 M38.4883,66.5986 L64.4883,66.5986 M51.4883,85.5986 L38.4883,100.5986 M51.4883,85.5986 L64.4883,100.5986" fill="none" style="stroke:#181818;stroke-width:0.5;"/></g><g class="participant participant-tail" data-entity-uid="part1" data-qualified-name="Admin" data-source-line="5" id="part1-tail"><text fill="#1F3A68" font-family="Arial" font-size="12" lengthAdjust="spacing" textLength="86.9766" x="5" y="677.6328">&#1040;&#1076;&#1084;&#1080;&#1085;&#1080;&#1089;&#1090;&#1088;&#1072;&#1090;&#1086;&#1088;</text><ellipse cx="51.4883" cy="688.6758" fill="#E2E2F0" rx="8" ry="8" style="stroke:#181818;stroke-width:0.5;"/><path d="M51.4883,696.6758 L51.4883,723.6758 M38.4883,704.6758 L64.4883,704.6758 M51.4883,723.6758 L38.4883,738.6758 M51.4883,723.6758 L64.4883,738.6758" fill="none" style="stroke:#181818;stroke-width:0.5;"/></g><g class="participant participant-head" data-entity-uid="part2" data-qualified-name="UI" data-source-line="6" id="part2-head"><rect fill="#E7EEF7" height="27.7988" rx="3" ry="3" style="stroke:#C4D3E8;stroke-width:0.5;" width="87.875" x="190.3057" y="87.0986"/><text fill="#1F3A68" font-family="Arial" font-size="12" lengthAdjust="spacing" textLength="73.875" x="197.3057" y="105.3545">&#1042;&#1082;&#1083;&#1072;&#1076;&#1082;&#1072; Vote</text></g><g class="participant participant-tail" data-entity-uid="part2" data-qualified-name="UI" data-source-line="6" id="part2-tail"><rect fill="#E7EEF7" height="27.7988" rx="3" ry="3" style="stroke:#C4D3E8;stroke-width:0.5;" width="87.875" x="190.3057" y="666.377"/><text fill="#1F3A68" font-family="Arial" font-size="12" lengthAdjust="spacing" textLength="73.875" x="197.3057" y="684.6328">&#1042;&#1082;&#1083;&#1072;&#1076;&#1082;&#1072; Vote</text></g><g class="participant participant-head" data-entity-uid="part3" data-qualified-name="Worker" data-source-line="7" id="part3-head"><rect fill="#E7EEF7" height="27.7988" rx="3" ry="3" style="stroke:#C4D3E8;stroke-width:0.5;" width="106.0215" x="397.5615" y="87.0986"/><text fill="#1F3A68" font-family="Arial" font-size="12" lengthAdjust="spacing" textLength="92.0215" x="404.5615" y="105.3545">MassVoteWorker</text></g><g class="participant participant-tail" data-entity-uid="part3" data-qualified-name="Worker" data-source-line="7" id="part3-tail"><rect fill="#E7EEF7" height="27.7988" rx="3" ry="3" style="stroke:#C4D3E8;stroke-width:0.5;" width="106.0215" x="397.5615" y="666.377"/><text fill="#1F3A68" font-family="Arial" font-size="12" lengthAdjust="spacing" textLength="92.0215" x="404.5615" y="684.6328">MassVoteWorker</text></g><g class="participant participant-head" data-entity-uid="part4" data-qualified-name="AC" data-source-line="8" id="part4-head"><rect fill="#E7EEF7" height="27.7988" rx="3" ry="3" style="stroke:#C4D3E8;stroke-width:0.5;" width="87.3711" x="585.4131" y="87.0986"/><text fill="#1F3A68" font-family="Arial" font-size="12" lengthAdjust="spacing" textLength="73.3711" x="592.4131" y="105.3545">AppController</text></g><g class="participant participant-tail" data-entity-uid="part4" data-qualified-name="AC" data-source-line="8" id="part4-tail"><rect fill="#E7EEF7" height="27.7988" rx="3" ry="3" style="stroke:#C4D3E8;stroke-width:0.5;" width="87.3711" x="585.4131" y="666.377"/><text fill="#1F3A68" font-family="Arial" font-size="12" lengthAdjust="spacing" textLength="73.3711" x="592.4131" y="684.6328">AppController</text></g><g class="participant participant-head" data-entity-uid="part5" data-qualified-name="VS" data-source-line="9" id="part5-head"><rect fill="#E7EEF7" height="27.7988" rx="3" ry="3" style="stroke:#C4D3E8;stroke-width:0.5;" width="88.0391" x="682.7842" y="87.0986"/><text fill="#1F3A68" font-family="Arial" font-size="12" lengthAdjust="spacing" textLength="74.0391" x="689.7842" y="105.3545">VotingService</text></g><g class="participant participant-tail" data-entity-uid="part5" data-qualified-name="VS" data-source-line="9" id="part5-tail"><rect fill="#E7EEF7" height="27.7988" rx="3" ry="3" style="stroke:#C4D3E8;stroke-width:0.5;" width="88.0391" x="682.7842" y="666.377"/><text fill="#1F3A68" font-family="Arial" font-size="12" lengthAdjust="spacing" textLength="74.0391" x="689.7842" y="684.6328">VotingService</text></g><g class="participant participant-head" data-entity-uid="part6" data-qualified-name="WP" data-source-line="10" id="part6-head"><rect fill="#E7EEF7" height="27.7988" rx="3" ry="3" style="stroke:#C4D3E8;stroke-width:0.5;" width="90.0313" x="793.6104" y="87.0986"/><text fill="#1F3A68" font-family="Arial" font-size="12" lengthAdjust="spacing" textLength="76.0313" x="800.6104" y="105.3545">Web3Provider</text></g><g class="participant participant-tail" data-entity-uid="part6" data-qualified-name="WP" data-source-line="10" id="part6-tail"><rect fill="#E7EEF7" height="27.7988" rx="3" ry="3" style="stroke:#C4D3E8;stroke-width:0.5;" width="90.0313" x="793.6104" y="666.377"/><text fill="#1F3A68" font-family="Arial" font-size="12" lengthAdjust="spacing" textLength="76.0313" x="800.6104" y="684.6328">Web3Provider</text></g><g><title>....... Vote</title><rect fill="#F4F7FB" height="505.9805" style="stroke:#181818;stroke-width:1;" width="10" x="229.2432" y="143.3965"/></g><g><title>MassVoteWorker</title><rect fill="#F4F7FB" height="352.4854" style="stroke:#181818;stroke-width:1;" width="10" x="445.5723" y="232.8936"/></g><g><title>AppController</title><rect fill="#F4F7FB" height="25.499" style="stroke:#181818;stroke-width:1;" width="10" x="624.0986" y="281.1914"/></g><g><title>AppController</title><rect fill="#F4F7FB" height="127.4951" style="stroke:#181818;stroke-width:1;" width="10" x="624.0986" y="354.9883"/></g><g><title>VotingService</title><rect fill="#F4F7FB" height="76.4971" style="stroke:#181818;stroke-width:1;" width="10" x="721.8037" y="380.4873"/></g><g><title>Web3Provider</title><rect fill="#F4F7FB" height="25.499" style="stroke:#181818;stroke-width:1;" width="10" x="833.626" y="405.9863"/></g><g class="message" data-entity-1="part1" data-entity-2="part2" data-source-line="12" id="msg1"><polygon fill="#0969DA" points="217.2432,139.3965,227.2432,143.3965,217.2432,147.3965,221.2432,143.3965" style="stroke:#0969DA;stroke-width:1;"/><line style="stroke:#0969DA;stroke-width:1;" x1="51.4883" x2="223.2432" y1="143.3965" y2="143.3965"/><text fill="#7286A5" font-family="Arial" font-size="10" lengthAdjust="spacing" textLength="158.7549" x="58.4883" y="139.2773">&#1085;&#1072;&#1078;&#1080;&#1084;&#1072;&#1077;&#1090; "&#1048;&#1079; &#1089;&#1077;&#1089;&#1089;&#1080;&#1080;" / "&#1048;&#1079; JSON"</text></g><g class="message" data-entity-1="part2" data-entity-2="part2" data-source-line="14" id="msg2"><line style="stroke:#0969DA;stroke-width:1;" x1="239.2432" x2="281.2432" y1="168.8955" y2="168.8955"/><line style="stroke:#0969DA;stroke-width:1;" x1="281.2432" x2="281.2432" y1="168.8955" y2="181.8955"/><line style="stroke:#0969DA;stroke-width:1;" x1="240.2432" x2="281.2432" y1="181.8955" y2="181.8955"/><polygon fill="#0969DA" points="250.2432,177.8955,240.2432,181.8955,250.2432,185.8955,246.2432,181.8955" style="stroke:#0969DA;stroke-width:1;"/><text fill="#7286A5" font-family="Arial" font-size="10" lengthAdjust="spacing" textLength="117.8467" x="246.2432" y="164.7764">_check_stage_for_voting()</text></g><g class="message" data-entity-1="part2" data-entity-2="part3" data-source-line="15" id="msg3"><polygon fill="#0969DA" points="438.5723,203.3945,448.5723,207.3945,438.5723,211.3945,442.5723,207.3945" style="stroke:#0969DA;stroke-width:1;"/><line style="stroke:#0969DA;stroke-width:1;" x1="239.2432" x2="444.5723" y1="207.3945" y2="207.3945"/><text fill="#7286A5" font-family="Arial" font-size="10" lengthAdjust="spacing" textLength="151.1768" x="246.2432" y="203.2754">create(voters_list, candidates_list)</text></g><g class="message" data-entity-1="part2" data-entity-2="part3" data-source-line="16" id="msg4"><polygon fill="#0969DA" points="433.5723,228.8936,443.5723,232.8936,433.5723,236.8936,437.5723,232.8936" style="stroke:#0969DA;stroke-width:1;"/><line style="stroke:#0969DA;stroke-width:1;" x1="239.2432" x2="439.5723" y1="232.8936" y2="232.8936"/><text fill="#7286A5" font-family="Arial" font-size="10" lengthAdjust="spacing" textLength="26.1084" x="246.2432" y="228.7744">start()</text></g><path d="M355,247.8936 L422.3242,247.8936 L422.3242,253.6924 L412.3242,263.6924 L352,263.6924 L352,250.8936 A3,3 0 0 1 355,247.8936" fill="#EEEEEE" style="stroke:#000000;stroke-width:1.5;"/><rect fill="none" height="312.9863" rx="3" ry="3" style="stroke:#000000;stroke-width:1.5;" width="551.6416" x="352" y="247.8936"/><text fill="#1F3A68" font-family="Arial" font-size="12" font-weight="700" lengthAdjust="spacing" textLength="25.3242" x="367" y="260.1494">loop</text><text fill="#1F3A68" font-family="Arial" font-size="12" font-weight="700" lengthAdjust="spacing" textLength="209.373" x="437.3242" y="261.1494">[&#1076;&#1083;&#1103; &#1082;&#1072;&#1078;&#1076;&#1086;&#1075;&#1086; &#1080;&#1079;&#1073;&#1080;&#1088;&#1072;&#1090;&#1077;&#1083;&#1103; &#1074; &#1089;&#1087;&#1080;&#1089;&#1082;&#1077;]</text><g class="message" data-entity-1="part3" data-entity-2="part4" data-source-line="20" id="msg5"><polygon fill="#0969DA" points="612.0986,277.1914,622.0986,281.1914,612.0986,285.1914,616.0986,281.1914" style="stroke:#0969DA;stroke-width:1;"/><line style="stroke:#0969DA;stroke-width:1;" x1="455.5723" x2="618.0986" y1="281.1914" y2="281.1914"/><text fill="#7286A5" font-family="Arial" font-size="10" lengthAdjust="spacing" textLength="112.2705" x="462.5723" y="277.0723">precheck_vote(voter.key)</text></g><g class="message" data-entity-1="part4" data-entity-2="part3" data-source-line="22" id="msg6"><polygon fill="#0969DA" points="466.5723,302.6904,456.5723,306.6904,466.5723,310.6904,462.5723,306.6904" style="stroke:#0969DA;stroke-width:1;"/><line style="stroke:#0969DA;stroke-width:1;stroke-dasharray:2,2;" x1="460.5723" x2="628.0986" y1="306.6904" y2="306.6904"/><text fill="#7286A5" font-family="Arial" font-size="10" lengthAdjust="spacing" textLength="128.6328" x="472.5723" y="302.5713">&#1074;&#1086;&#1079;&#1074;&#1088;&#1072;&#1097;&#1072;&#1077;&#1090; PrecheckResult</text></g><path d="M365,321.6904 L421.0039,321.6904 L421.0039,327.4893 L411.0039,337.4893 L362,337.4893 L362,324.6904 A3,3 0 0 1 365,321.6904" fill="#EEEEEE" style="stroke:#000000;stroke-width:1.5;"/><rect fill="none" height="232.1895" rx="3" ry="3" style="stroke:#000000;stroke-width:1.5;" width="531.6416" x="362" y="321.6904"/><text fill="#1F3A68" font-family="Arial" font-size="12" font-weight="700" lengthAdjust="spacing" textLength="14.0039" x="377" y="333.9463">alt</text><text fill="#1F3A68" font-family="Arial" font-size="12" font-weight="700" lengthAdjust="spacing" textLength="115.2188" x="436.0039" y="334.9463">[precheck &#1091;&#1089;&#1087;&#1077;&#1096;&#1077;&#1085;]</text><g class="message" data-entity-1="part3" data-entity-2="part4" data-source-line="26" id="msg7"><polygon fill="#0969DA" points="612.0986,350.9883,622.0986,354.9883,612.0986,358.9883,616.0986,354.9883" style="stroke:#0969DA;stroke-width:1;"/><line style="stroke:#0969DA;stroke-width:1;" x1="455.5723" x2="618.0986" y1="354.9883" y2="354.9883"/><text fill="#7286A5" font-family="Arial" font-size="10" lengthAdjust="spacing" textLength="149.5264" x="462.5723" y="350.8691">cast_vote(private_key, candidate)</text></g><g class="message" data-entity-1="part4" data-entity-2="part5" data-source-line="28" id="msg8"><polygon fill="#0969DA" points="709.8037,376.4873,719.8037,380.4873,709.8037,384.4873,713.8037,380.4873" style="stroke:#0969DA;stroke-width:1;"/><line style="stroke:#0969DA;stroke-width:1;" x1="634.0986" x2="715.8037" y1="380.4873" y2="380.4873"/><text fill="#7286A5" font-family="Arial" font-size="10" lengthAdjust="spacing" textLength="49.4629" x="641.0986" y="376.3682">cast_vote()</text></g><g class="message" data-entity-1="part5" data-entity-2="part6" data-source-line="30" id="msg9"><polygon fill="#0969DA" points="821.626,401.9863,831.626,405.9863,821.626,409.9863,825.626,405.9863" style="stroke:#0969DA;stroke-width:1;"/><line style="stroke:#0969DA;stroke-width:1;" x1="731.8037" x2="827.626" y1="405.9863" y2="405.9863"/><text fill="#7286A5" font-family="Arial" font-size="10" lengthAdjust="spacing" textLength="82.8223" x="738.8037" y="401.8672">send_transaction()</text></g><g class="message" data-entity-1="part6" data-entity-2="part5" data-source-line="32" id="msg10"><polygon fill="#0969DA" points="742.8037,427.4854,732.8037,431.4854,742.8037,435.4854,738.8037,431.4854" style="stroke:#0969DA;stroke-width:1;"/><line style="stroke:#0969DA;stroke-width:1;stroke-dasharray:2,2;" x1="736.8037" x2="837.626" y1="431.4854" y2="431.4854"/><text fill="#7286A5" font-family="Arial" font-size="10" lengthAdjust="spacing" textLength="35.0244" x="748.8037" y="427.3662">tx_hash</text></g><g class="message" data-entity-1="part5" data-entity-2="part4" data-source-line="34" id="msg11"><polygon fill="#0969DA" points="645.0986,452.9844,635.0986,456.9844,645.0986,460.9844,641.0986,456.9844" style="stroke:#0969DA;stroke-width:1;"/><line style="stroke:#0969DA;stroke-width:1;stroke-dasharray:2,2;" x1="639.0986" x2="725.8037" y1="456.9844" y2="456.9844"/><text fill="#7286A5" font-family="Arial" font-size="10" lengthAdjust="spacing" textLength="30.0146" x="651.0986" y="452.8652">receipt</text></g><g class="message" data-entity-1="part4" data-entity-2="part3" data-source-line="36" id="msg12"><polygon fill="#0969DA" points="466.5723,478.4834,456.5723,482.4834,466.5723,486.4834,462.5723,482.4834" style="stroke:#0969DA;stroke-width:1;"/><line style="stroke:#0969DA;stroke-width:1;stroke-dasharray:2,2;" x1="460.5723" x2="628.0986" y1="482.4834" y2="482.4834"/><text fill="#7286A5" font-family="Arial" font-size="10" lengthAdjust="spacing" textLength="25.9766" x="472.5723" y="478.3643">&#1091;&#1089;&#1087;&#1077;&#1093;</text></g><line style="stroke:#000000;stroke-width:1;stroke-dasharray:2,2;" x1="362" x2="893.6416" y1="491.4834" y2="491.4834"/><text fill="#1F3A68" font-family="Arial" font-size="12" font-weight="700" lengthAdjust="spacing" textLength="132.1055" x="367" y="502.7393">[precheck &#1085;&#1077; &#1087;&#1088;&#1086;&#1081;&#1076;&#1077;&#1085;]</text><path d="M372,514.2822 L372,545.2822 A3,3 0 0 0 375,548.2822 L526,548.2822 A3,3 0 0 0 529,545.2822 L529,521.2822 L519,511.2822 L375,511.2822 A3,3 0 0 0 372,514.2822" fill="#FEFFDD" style="stroke:#181818;stroke-width:0.5;"/><path d="M519,511.2822 L519,519.7822 A1.5,1.5 0 0 0 520.5,521.2822 L529,521.2822 L519,511.2822" fill="#FEFFDD" style="stroke:#181818;stroke-width:0.5;"/><text fill="#1F3A68" font-family="Arial" font-size="12" lengthAdjust="spacing" textLength="136.0313" x="378" y="527.5381">&#1055;&#1088;&#1086;&#1087;&#1091;&#1089;&#1082;&#1072;&#1077;&#1090; &#1080;&#1079;&#1073;&#1080;&#1088;&#1072;&#1090;&#1077;&#1083;&#1103;,</text><text fill="#1F3A68" font-family="Arial" font-size="12" lengthAdjust="spacing" textLength="98.3906" x="378" y="541.3369">&#1083;&#1086;&#1075;&#1080;&#1088;&#1091;&#1077;&#1090; &#1087;&#1088;&#1080;&#1095;&#1080;&#1085;&#1091;</text><g class="message" data-entity-1="part3" data-entity-2="part2" data-source-line="43" id="msg13"><polygon fill="#0969DA" points="250.2432,581.3789,240.2432,585.3789,250.2432,589.3789,246.2432,585.3789" style="stroke:#0969DA;stroke-width:1;"/><line style="stroke:#0969DA;stroke-width:1;stroke-dasharray:2,2;" x1="244.2432" x2="449.5723" y1="585.3789" y2="585.3789"/><text fill="#7286A5" font-family="Arial" font-size="10" lengthAdjust="spacing" textLength="138.9258" x="256.2432" y="581.2598">finished.emit(summary_results)</text></g><g class="message" data-entity-1="part2" data-entity-2="part2" data-source-line="46" id="msg14"><line style="stroke:#0969DA;stroke-width:1;" x1="239.2432" x2="281.2432" y1="610.8779" y2="610.8779"/><line style="stroke:#0969DA;stroke-width:1;" x1="281.2432" x2="281.2432" y1="610.8779" y2="623.8779"/><line style="stroke:#0969DA;stroke-width:1;" x1="240.2432" x2="281.2432" y1="623.8779" y2="623.8779"/><polygon fill="#0969DA" points="250.2432,619.8779,240.2432,623.8779,250.2432,627.8779,246.2432,623.8779" style="stroke:#0969DA;stroke-width:1;"/><text fill="#7286A5" font-family="Arial" font-size="10" lengthAdjust="spacing" textLength="182.3291" x="246.2432" y="606.7588">show Toast(voted_count, skipped_count)</text></g><g class="message" data-entity-1="part2" data-entity-2="part1" data-source-line="47" id="msg15"><polygon fill="#0969DA" points="62.4883,645.377,52.4883,649.377,62.4883,653.377,58.4883,649.377" style="stroke:#0969DA;stroke-width:1;"/><line style="stroke:#0969DA;stroke-width:1;stroke-dasharray:2,2;" x1="56.4883" x2="233.2432" y1="649.377" y2="649.377"/><text fill="#7286A5" font-family="Arial" font-size="10" lengthAdjust="spacing" textLength="143.3154" x="68.4883" y="645.2578">&#1086;&#1090;&#1088;&#1080;&#1089;&#1086;&#1074;&#1099;&#1074;&#1072;&#1077;&#1090; &#1083;&#1086;&#1075; &#1088;&#1077;&#1079;&#1091;&#1083;&#1100;&#1090;&#1072;&#1090;&#1086;&#1074;</text></g><?plantuml-src RLJBRjD05DtxAuQi6gbD5-nOL8gw0Wc8ABGR9ClOqsOKUyQQcGIwwqC844WWn8854hyGKanCqYQ_CFuZpepjr4bHbCIUEVVSSy-zC_SO3-DXH4cdi-k78aa4tzLzcj0E6oQnvsccOqhCDvERiRagpl1xZS-OcALP5ETcRZBpsopCn8oB2ppFYq_cnkxWBNz0p0-idmDd4GkJ4NE5lxaBTK40voRpl23KGfAM-GAsQonXsNBOX61Q56Sj4YZIZHB6lJIGceKi3RX6n5Sp0-4OSJF8EXIQEkYBX-kunu5ITlD8o06L3b8-hiEwQRelk9OYZYjKTtyT0HB6Jmwe7B6mJ7Lui8uueg_kzwGOiQXErFCy9vtix44OWIytKFm7TS9AanKNgEExcHAuaZcxSfEto6wr-kZWwPEMTOYD0arjPU2ecVomJyE1htHmGlrZ8VsHqxVLha1baG26aY9w2zjKAZzcIc-JCE0HYx1SBjo90QlKe5hbhYppOY5I0ildnMTYVKSjTWhGN0BjK_CBxJjRZGGm4rlRqZOLyCmZTGvaw-uZKoffMOZLLuhi3EXf6yXLSdI2MFHEKwARgwcPk7GVAZTx5TipgeQnHbH4cooMDDQhdAIuTEAouZtatc3tZhmmKBgKbaf7uqDSmx-s2rfNMchTmtYi4Mn0CJps7I1RLS-QJddaQnbmPK62RqPWcfp2dZF2iUitVZzGVRVUABL2Mkww49HCMQetaPMAJNDNnhpT370LqbZHMnSnqpZVIpHYOVvY76ehEQecOWJ2swRzTAYbuvzLJVlVu6o_vFQsm61XkRWiSJP5NhopjqHnQMNmoBDVhsvQVJQE6MUgJwCEJPZUKiCa2UIfBzrGgBRNTAgQwyR1KdtncZmNw9iRnmYtuv3ZpAW1IzFwjJmnrbntl57PmbrQUNc_5H_T7UTKkp88zZ8pHIMuA56akzpCf2a5n_iV?></g></svg>