<svg xmlns="http://www.w3.org/2000/svg" xmlns:xlink="http://www.w3.org/1999/xlink" contentStyleType="text/css" data-diagram-type="SEQUENCE" height="747px" preserveAspectRatio="none" style="width:911px;height:747px;background:#FFFFFF;" version="1.1" viewBox="0 0 911 747" width="911px" zoomAndPan="magnify"><?plantuml 1.2026.3?><defs/><g><g class="title" data-source-line="3"><text fill="#1F3A68" font-family="Arial" font-size="14" font-weight="700" lengthAdjust="spacing" textLength="266.1094" x="319.4258" y="28.1318">Sequence Diagram - Mass Vote Process</text></g><g><title>VoteTab</title><rect fill="#F4F7FB" height="505.9805" style="stroke:#181818;stroke-width:1;" width="10" x="221.5625" y="143.3965"/></g><g><title>MassVoteWorker</title><rect fill="#F4F7FB" height="352.4854" style="stroke:#181818;stroke-width:1;" width="10" x="437.8916" y="232.8936"/></g><g><title>AppController</title><rect fill="#F4F7FB" height="25.499" style="stroke:#181818;stroke-width:1;" width="10" x="616.418" y="281.1914"/></g><g><title>AppController</title><rect fill="#F4F7FB" height="127.4951" style="stroke:#181818;stroke-width:1;" width="10" x="616.418" y="354.9883"/></g><g><title>VotingService</title><rect fill="#F4F7FB" height="76.4971" style="stroke:#181818;stroke-width:1;" width="10" x="714.123" y="380.4873"/></g><g><title>Web3Provider</title><rect fill="#F4F7FB" height="25.499" style="stroke:#181818;stroke-width:1;" width="10" x="825.9453" y="405.9863"/></g><rect fill="none" height="312.9863" rx="3" ry="3" style="stroke:#000000;stroke-width:1.5;" width="526.0801" x="369.8809" y="247.8936"/><rect fill="none" height="232.1895" rx="3" ry="3" style="stroke:#000000;stroke-width:1.5;" width="506.0801" x="379.8809" y="321.6904"/><g class="participant-lifeline" data-entity-uid="part1" data-qualified-name="Admin" data-source-line="5" id="part1-lifeline"><g><title>Administrator</title><rect fill="#000000" fill-opacity="0.00000" height="551.4795" width="8" x="39.3438" y="115.8975"/><line style="stroke:#C4D3E8;stroke-width:0.5;stroke-dasharray:5,5;" x1="43" x2="43" y1="115.8975" y2="667.377"/></g></g><g class="participant-lifeline" data-entity-uid="part2" data-qualified-name="UI" data-source-line="6" id="part2-lifeline"><g><title>VoteTab</title><rect fill="#000000" fill-opacity="0.00000" height="551.4795" width="8" x="222.5625" y="115.8975"/><line style="stroke:#C4D3E8;stroke-width:0.5;stroke-dasharray:5,5;" x1="225.8809" x2="225.8809" y1="115.8975" y2="667.377"/></g></g><g class="participant-lifeline" data-entity-uid="part3" data-qualified-name="Worker" data-source-line="7" id="part3-lifeline"><g><title>MassVoteWorker</title><rect fill="#000000" fill-opacity="0.00000" height="551.4795" width="8" x="438.8916" y="115.8975"/><line style="stroke:#C4D3E8;stroke-width:0.5;stroke-dasharray:5,5;" x1="442.8809" x2="442.8809" y1="115.8975" y2="667.377"/></g></g><g class="participant-lifeline" data-entity-uid="part4" data-qualified-name="AC" data-source-line="8" id="part4-lifeline"><g><title>AppController</title><rect fill="#000000" fill-opacity="0.00000" height="551.4795" width="8" x="617.418" y="115.8975"/><line style="stroke:#C4D3E8;stroke-width:0.5;stroke-dasharray:5,5;" x1="620.7324" x2="620.7324" y1="115.8975" y2="667.377"/></g></g><g class="participant-lifeline" data-entity-uid="part5" data-qualified-name="VS" data-source-line="9" id="part5-lifeline"><g><title>VotingService</title><rect fill="#000000" fill-opacity="0.00000" height="551.4795" width="8" x="715.123" y="115.8975"/><line style="stroke:#C4D3E8;stroke-width:0.5;stroke-dasharray:5,5;" x1="719.1035" x2="719.1035" y1="115.8975" y2="667.377"/></g></g><g class="participant-lifeline" data-entity-uid="part6" data-qualified-name="WP" data-source-line="10" id="part6-lifeline"><g><title>Web3Provider</title><rect fill="#000000" fill-opacity="0.00000" height="551.4795" width="8" x="826.9453" y="115.8975"/><line style="stroke:#C4D3E8;stroke-width:0.5;stroke-dasharray:5,5;" x1="830.9297" x2="830.9297" y1="115.8975" y2="667.377"/></g></g><g class="participant participant-head" data-entity-uid="part1" data-qualified-name="Admin" data-source-line="5" id="part1-head"><text fill="#1F3A68" font-family="Arial" font-size="12" lengthAdjust="spacing" textLength="70.6875" x="5" y="113.3545">Administrator</text><ellipse cx="43.3438" cy="50.5986" fill="#E2E2F0" rx="8" ry="8" style="stroke:#181818;stroke-width:0.5;"/><path d="M43.3438,58.5986 L43.3438,85.5986 M30.3438,66.5986 L56.3438,66.5986 M43.3438,85.5986 L30.3438,100.5986 M43.3438,85.5986 L56.3438,100.5986" fill="none" style="stroke:#181818;stroke-width:0.5;"/></g><g class="participant participant-tail" data-entity-uid="part1" data-qualified-name="Admin" data-source-line="5" id="part1-tail"><text fill="#1F3A68" font-family="Arial" font-size="12" lengthAdjust="spacing" textLength="70.6875" x="5" y="677.6328">Administrator</text><ellipse cx="43.3438" cy="688.6758" fill="#E2E2F0" rx="8" ry="8" style="stroke:#181818;stroke-width:0.5;"/><path d="M43.3438,696.6758 L43.3438,723.6758 M30.3438,704.6758 L56.3438,704.6758 M43.3438,723.6758 L30.3438,738.6758 M43.3438,723.6758 L56.3438,738.6758" fill="none" style="stroke:#181818;stroke-width:0.5;"/></g><g class="participant participant-head" data-entity-uid="part2" data-qualified-name="UI" data-source-line="6" id="part2-head"><rect fill="#E7EEF7" height="27.7988" rx="3" ry="3" style="stroke:#C4D3E8;stroke-width:0.5;" width="59.3633" x="196.8809" y="87.0986"/><text fill="#1F3A68" font-family="Arial" font-size="12" lengthAdjust="spacing" textLength="45.3633" x="203.8809" y="105.3545">VoteTab</text></g><g class="participant participant-tail" data-entity-uid="part2" data-qualified-name="UI" data-source-line="6" id="part2-tail"><rect fill="#E7EEF7" height="27.7988" rx="3" ry="3" style="stroke:#C4D3E8;stroke-width:0.5;" width="59.3633" x="196.8809" y="666.377"/><text fill="#1F3A68" font-family="Arial" font-size="12" lengthAdjust="spacing" textLength="45.3633" x="203.8809" y="684.6328">VoteTab</text></g><g class="participant participant-head" data-entity-uid="part3" data-qualified-name="Worker" data-source-line="7" id="part3-head"><rect fill="#E7EEF7" height="27.7988" rx="3" ry="3" style="stroke:#C4D3E8;stroke-width:0.5;" width="106.0215" x="389.8809" y="87.0986"/><text fill="#1F3A68" font-family="Arial" font-size="12" lengthAdjust="spacing" textLength="92.0215" x="396.8809" y="105.3545">MassVoteWorker</text></g><g class="participant participant-tail" data-entity-uid="part3" data-qualified-name="Worker" data-source-line="7" id="part3-tail"><rect fill="#E7EEF7" height="27.7988" rx="3" ry="3" style="stroke:#C4D3E8;stroke-width:0.5;" width="106.0215" x="389.8809" y="666.377"/><text fill="#1F3A68" font-family="Arial" font-size="12" lengthAdjust="spacing" textLength="92.0215" x="396.8809" y="684.6328">MassVoteWorker</text></g><g class="participant participant-head" data-entity-uid="part4" data-qualified-name="AC" data-source-line="8" id="part4-head"><rect fill="#E7EEF7" height="27.7988" rx="3" ry="3" style="stroke:#C4D3E8;stroke-width:0.5;" width="87.3711" x="577.7324" y="87.0986"/><text fill="#1F3A68" font-family="Arial" font-size="12" lengthAdjust="spacing" textLength="73.3711" x="584.7324" y="105.3545">AppController</text></g><g class="participant participant-tail" data-entity-uid="part4" data-qualified-name="AC" data-source-line="8" id="part4-tail"><rect fill="#E7EEF7" height="27.7988" rx="3" ry="3" style="stroke:#C4D3E8;stroke-width:0.5;" width="87.3711" x="577.7324" y="666.377"/><text fill="#1F3A68" font-family="Arial" font-size="12" lengthAdjust="spacing" textLength="73.3711" x="584.7324" y="684.6328">AppController</text></g><g class="participant participant-head" data-entity-uid="part5" data-qualified-name="VS" data-source-line="9" id="part5-head"><rect fill="#E7EEF7" height="27.7988" rx="3" ry="3" style="stroke:#C4D3E8;stroke-width:0.5;" width="88.0391" x="675.1035" y="87.0986"/><text fill="#1F3A68" font-family="Arial" font-size="12" lengthAdjust="spacing" textLength="74.0391" x="682.1035" y="105.3545">VotingService</text></g><g class="participant participant-tail" data-entity-uid="part5" data-qualified-name="VS" data-source-line="9" id="part5-tail"><rect fill="#E7EEF7" height="27.7988" rx="3" ry="3" style="stroke:#C4D3E8;stroke-width:0.5;" width="88.0391" x="675.1035" y="666.377"/><text fill="#1F3A68" font-family="Arial" font-size="12" lengthAdjust="spacing" textLength="74.0391" x="682.1035" y="684.6328">VotingService</text></g><g class="participant participant-head" data-entity-uid="part6" data-qualified-name="WP" data-source-line="10" id="part6-head"><rect fill="#E7EEF7" height="27.7988" rx="3" ry="3" style="stroke:#C4D3E8;stroke-width:0.5;" width="90.0313" x="785.9297" y="87.0986"/><text fill="#1F3A68" font-family="Arial" font-size="12" lengthAdjust="spacing" textLength="76.0313" x="792.9297" y="105.3545">Web3Provider</text></g><g class="participant participant-tail" data-entity-uid="part6" data-qualified-name="WP" data-source-line="10" id="part6-tail"><rect fill="#E7EEF7" height="27.7988" rx="3" ry="3" style="stroke:#C4D3E8;stroke-width:0.5;" width="90.0313" x="785.9297" y="666.377"/><text fill="#1F3A68" font-family="Arial" font-size="12" lengthAdjust="spacing" textLength="76.0313" x="792.9297" y="684.6328">Web3Provider</text></g><g><title>VoteTab</title><rect fill="#F4F7FB" height="505.9805" style="stroke:#181818;stroke-width:1;" width="10" x="221.5625" y="143.3965"/></g><g><title>MassVoteWorker</title><rect fill="#F4F7FB" height="352.4854" style="stroke:#181818;stroke-width:1;" width="10" x="437.8916" y="232.8936"/></g><g><title>AppController</title><rect fill="#F4F7FB" height="25.499" style="stroke:#181818;stroke-width:1;" width="10" x="616.418" y="281.1914"/></g><g><title>AppController</title><rect fill="#F4F7FB" height="127.4951" style="stroke:#181818;stroke-width:1;" width="10" x="616.418" y="354.9883"/></g><g><title>VotingService</title><rect fill="#F4F7FB" height="76.4971" style="stroke:#181818;stroke-width:1;" width="10" x="714.123" y="380.4873"/></g><g><title>Web3Provider</title><rect fill="#F4F7FB" height="25.499" style="stroke:#181818;stroke-width:1;" width="10" x="825.9453" y="405.9863"/></g><g class="message" data-entity-1="part1" data-entity-2="part2" data-source-line="12" id="msg1"><polygon fill="#0969DA" points="209.5625,139.3965,219.5625,143.3965,209.5625,147.3965,213.5625,143.3965" style="stroke:#0969DA;stroke-width:1;"/><line style="stroke:#0969DA;stroke-width:1;" x1="43.3438" x2="215.5625" y1="143.3965" y2="143.3965"/><text fill="#7286A5" font-family="Arial" font-size="10" lengthAdjust="spacing" textLength="159.2188" x="50.3438" y="139.2773">click "From Session" / "From JSON"</text></g><g class="message" data-entity-1="part2" data-entity-2="part2" data-source-line="14" id="msg2"><line style="stroke:#0969DA;stroke-width:1;" x1="231.5625" x2="273.5625" y1="168.8955" y2="168.8955"/><line style="stroke:#0969DA;stroke-width:1;" x1="273.5625" x2="273.5625" y1="168.8955" y2="181.8955"/><line style="stroke:#0969DA;stroke-width:1;" x1="232.5625" x2="273.5625" y1="181.8955" y2="181.8955"/><polygon fill="#0969DA" points="242.5625,177.8955,232.5625,181.8955,242.5625,185.8955,238.5625,181.8955" style="stroke:#0969DA;stroke-width:1;"/><text fill="#7286A5" font-family="Arial" font-size="10" lengthAdjust="spacing" textLength="117.8467" x="238.5625" y="164.7764">_check_stage_for_voting()</text></g><g class="message" data-entity-1="part2" data-entity-2="part3" data-source-line="15" id="msg3"><polygon fill="#0969DA" points="430.8916,203.3945,440.8916,207.3945,430.8916,211.3945,434.8916,207.3945" style="stroke:#0969DA;stroke-width:1;"/><line style="stroke:#0969DA;stroke-width:1;" x1="231.5625" x2="436.8916" y1="207.3945" y2="207.3945"/><text fill="#7286A5" font-family="Arial" font-size="10" lengthAdjust="spacing" textLength="151.1768" x="238.5625" y="203.2754">create(voters_list, candidates_list)</text></g><g class="message" data-entity-1="part2" data-entity-2="part3" data-source-line="16" id="msg4"><polygon fill="#0969DA" points="425.8916,228.8936,435.8916,232.8936,425.8916,236.8936,429.8916,232.8936" style="stroke:#0969DA;stroke-width:1;"/><line style="stroke:#0969DA;stroke-width:1;" x1="231.5625" x2="431.8916" y1="232.8936" y2="232.8936"/><text fill="#7286A5" font-family="Arial" font-size="10" lengthAdjust="spacing" textLength="26.1084" x="238.5625" y="228.7744">start()</text></g><path d="M372.8809,247.8936 L440.2051,247.8936 L440.2051,253.6924 L430.2051,263.6924 L369.8809,263.6924 L369.8809,250.8936 A3,3 0 0 1 372.8809,247.8936" fill="#EEEEEE" style="stroke:#000000;stroke-width:1.5;"/><rect fill="none" height="312.9863" rx="3" ry="3" style="stroke:#000000;stroke-width:1.5;" width="526.0801" x="369.8809" y="247.8936"/><text fill="#1F3A68" font-family="Arial" font-size="12" font-weight="700" lengthAdjust="spacing" textLength="25.3242" x="384.8809" y="260.1494">loop</text><text fill="#1F3A68" font-family="Arial" font-size="12" font-weight="700" lengthAdjust="spacing" textLength="122.0215" x="455.2051" y="261.1494">[for each voter in list]</text><g class="message" data-entity-1="part3" data-entity-2="part4" data-source-line="20" id="msg5"><polygon fill="#0969DA" points="604.418,277.1914,614.418,281.1914,604.418,285.1914,608.418,281.1914" style="stroke:#0969DA;stroke-width:1;"/><line style="stroke:#0969DA;stroke-width:1;" x1="447.8916" x2="610.418" y1="281.1914" y2="281.1914"/><text fill="#7286A5" font-family="Arial" font-size="10" lengthAdjust="spacing" textLength="112.2705" x="454.8916" y="277.0723">precheck_vote(voter.key)</text></g><g class="message" data-entity-1="part4" data-entity-2="part3" data-source-line="22" id="msg6"><polygon fill="#0969DA" points="458.8916,302.6904,448.8916,306.6904,458.8916,310.6904,454.8916,306.6904" style="stroke:#0969DA;stroke-width:1;"/><line style="stroke:#0969DA;stroke-width:1;stroke-dasharray:2,2;" x1="452.8916" x2="620.418" y1="306.6904" y2="306.6904"/><text fill="#7286A5" font-family="Arial" font-size="10" lengthAdjust="spacing" textLength="103.9307" x="464.8916" y="302.5713">returns PrecheckResult</text></g><path d="M382.8809,321.6904 L438.8848,321.6904 L438.8848,327.4893 L428.8848,337.4893 L379.8809,337.4893 L379.8809,324.6904 A3,3 0 0 1 382.8809,321.6904" fill="#EEEEEE" style="stroke:#000000;stroke-width:1.5;"/><rect fill="none" height="232.1895" rx="3" ry="3" style="stroke:#000000;stroke-width:1.5;" width="506.0801" x="379.8809" y="321.6904"/><text fill="#1F3A68" font-family="Arial" font-size="12" font-weight="700" lengthAdjust="spacing" textLength="14.0039" x="394.8809" y="333.9463">alt</text><text fill="#1F3A68" font-family="Arial" font-size="12" font-weight="700" lengthAdjust="spacing" textLength="95.3672" x="453.8848" y="334.9463">[precheck is OK]</text><g class="message" data-entity-1="part3" data-entity-2="part4" data-source-line="26" id="msg7"><polygon fill="#0969DA" points="604.418,350.9883,614.418,354.9883,604.418,358.9883,608.418,354.9883" style="stroke:#0969DA;stroke-width:1;"/><line style="stroke:#0969DA;stroke-width:1;" x1="447.8916" x2="610.418" y1="354.9883" y2="354.9883"/><text fill="#7286A5" font-family="Arial" font-size="10" lengthAdjust="spacing" textLength="149.5264" x="454.8916" y="350.8691">cast_vote(private_key, candidate)</text></g><g class="message" data-entity-1="part4" data-entity-2="part5" data-source-line="28" id="msg8"><polygon fill="#0969DA" points="702.123,376.4873,712.123,380.4873,702.123,384.4873,706.123,380.4873" style="stroke:#0969DA;stroke-width:1;"/><line style="stroke:#0969DA;stroke-width:1;" x1="626.418" x2="708.123" y1="380.4873" y2="380.4873"/><text fill="#7286A5" font-family="Arial" font-size="10" lengthAdjust="spacing" textLength="49.4629" x="633.418" y="376.3682">cast_vote()</text></g><g class="message" data-entity-1="part5" data-entity-2="part6" data-source-line="30" id="msg9"><polygon fill="#0969DA" points="813.9453,401.9863,823.9453,405.9863,813.9453,409.9863,817.9453,405.9863" style="stroke:#0969DA;stroke-width:1;"/><line style="stroke:#0969DA;stroke-width:1;" x1="724.123" x2="819.9453" y1="405.9863" y2="405.9863"/><text fill="#7286A5" font-family="Arial" font-size="10" lengthAdjust="spacing" textLength="82.8223" x="731.123" y="401.8672">send_transaction()</text></g><g class="message" data-entity-1="part6" data-entity-2="part5" data-source-line="32" id="msg10"><polygon fill="#0969DA" points="735.123,427.4854,725.123,431.4854,735.123,435.4854,731.123,431.4854" style="stroke:#0969DA;stroke-width:1;"/><line style="stroke:#0969DA;stroke-width:1;stroke-dasharray:2,2;" x1="729.123" x2="829.9453" y1="431.4854" y2="431.4854"/><text fill="#7286A5" font-family="Arial" font-size="10" lengthAdjust="spacing" textLength="35.0244" x="741.123" y="427.3662">tx_hash</text></g><g class="message" data-entity-1="part5" data-entity-2="part4" data-source-line="34" id="msg11"><polygon fill="#0969DA" points="637.418,452.9844,627.418,456.9844,637.418,460.9844,633.418,456.9844" style="stroke:#0969DA;stroke-width:1;"/><line style="stroke:#0969DA;stroke-width:1;stroke-dasharray:2,2;" x1="631.418" x2="718.123" y1="456.9844" y2="456.9844"/><text fill="#7286A5" font-family="Arial" font-size="10" lengthAdjust="spacing" textLength="30.0146" x="643.418" y="452.8652">receipt</text></g><g class="message" data-entity-1="part4" data-entity-2="part3" data-source-line="36" id="msg12"><polygon fill="#0969DA" points="458.8916,478.4834,448.8916,482.4834,458.8916,486.4834,454.8916,482.4834" style="stroke:#0969DA;stroke-width:1;"/><line style="stroke:#0969DA;stroke-width:1;stroke-dasharray:2,2;" x1="452.8916" x2="620.418" y1="482.4834" y2="482.4834"/><text fill="#7286A5" font-family="Arial" font-size="10" lengthAdjust="spacing" textLength="36.123" x="464.8916" y="478.3643">success</text></g><line style="stroke:#000000;stroke-width:1;stroke-dasharray:2,2;" x1="379.8809" x2="885.9609" y1="491.4834" y2="491.4834"/><text fill="#1F3A68" font-family="Arial" font-size="12" font-weight="700" lengthAdjust="spacing" textLength="95.3672" x="384.8809" y="502.7393">[precheck failed]</text><path d="M392,514.2822 L392,545.2822 A3,3 0 0 0 395,548.2822 L490,548.2822 A3,3 0 0 0 493,545.2822 L493,521.2822 L483,511.2822 L395,511.2822 A3,3 0 0 0 392,514.2822" fill="#FEFFDD" style="stroke:#181818;stroke-width:0.5;"/><path d="M483,511.2822 L483,519.7822 A1.5,1.5 0 0 0 484.5,521.2822 L493,521.2822 L483,511.2822" fill="#FEFFDD" style="stroke:#181818;stroke-width:0.5;"/><text fill="#1F3A68" font-family="Arial" font-size="12" lengthAdjust="spacing" textLength="56.6895" x="398" y="527.5381">Skip voter,</text><text fill="#1F3A68" font-family="Arial" font-size="12" lengthAdjust="spacing" textLength="80.7129" x="398" y="541.3369">log skip reason</text><g class="message" data-entity-1="part3" data-entity-2="part2" data-source-line="43" id="msg13"><polygon fill="#0969DA" points="242.5625,581.3789,232.5625,585.3789,242.5625,589.3789,238.5625,585.3789" style="stroke:#0969DA;stroke-width:1;"/><line style="stroke:#0969DA;stroke-width:1;stroke-dasharray:2,2;" x1="236.5625" x2="441.8916" y1="585.3789" y2="585.3789"/><text fill="#7286A5" font-family="Arial" font-size="10" lengthAdjust="spacing" textLength="138.9258" x="248.5625" y="581.2598">finished.emit(summary_results)</text></g><g class="message" data-entity-1="part2" data-entity-2="part2" data-source-line="46" id="msg14"><line style="stroke:#0969DA;stroke-width:1;" x1="231.5625" x2="273.5625" y1="610.8779" y2="610.8779"/><line style="stroke:#0969DA;stroke-width:1;" x1="273.5625" x2="273.5625" y1="610.8779" y2="623.8779"/><line style="stroke:#0969DA;stroke-width:1;" x1="232.5625" x2="273.5625" y1="623.8779" y2="623.8779"/><polygon fill="#0969DA" points="242.5625,619.8779,232.5625,623.8779,242.5625,627.8779,238.5625,623.8779" style="stroke:#0969DA;stroke-width:1;"/><text fill="#7286A5" font-family="Arial" font-size="10" lengthAdjust="spacing" textLength="182.3291" x="238.5625" y="606.7588">show Toast(voted_count, skipped_count)</text></g><g class="message" data-entity-1="part2" data-entity-2="part1" data-source-line="47" id="msg15"><polygon fill="#0969DA" points="54.3438,645.377,44.3438,649.377,54.3438,653.377,50.3438,649.377" style="stroke:#0969DA;stroke-width:1;"/><line style="stroke:#0969DA;stroke-width:1;stroke-dasharray:2,2;" x1="48.3438" x2="225.5625" y1="649.377" y2="649.377"/><text fill="#7286A5" font-family="Arial" font-size="10" lengthAdjust="spacing" textLength="82.2607" x="60.3438" y="645.2578">renders results log</text></g><?plantuml-src PLJ1Rjim3BthApYV4g193hljK238C60jjWPBrru66AhCn49aoHFbRFtxaRATESaXG4GzFZu-aVvWlN5TXR1ShaeJcYRuLQgnmQNj6gTKiiaXxF1tXzuWVBRw47K32_YcYU0b98Hj30Q9bD8cXGZ5kcgijvIYvcC1cY17LAjZiiQssYSe9FDPl-NhdrylxuHQxbz3F6BFqF-zXAtRTXDyYi6v0RNUt1In_h33UB86C-9bTubunRUFhFzagx7GLgai5nRtB0m-WN7M7A7u4aF3FX3Pu0jO3O67tTFtGXgt9yrMS2USCsQMfaPpB2df0vRx4CjJrZER3w2-AIaHaRDdV8sHIiVUtO7Hlh8LX_l0JGwpniHKvzg3HSg5q09N0zIcXim9t8wGA1ZpcMczOPOsOYzISBs0vH7Vvumy4xEh8EZ5j7p4r4LF_FWzmG-apac12gU9mkFIkGnOWgT73ju8CPfIBwADERja6HCNvZdfKbElwfuVzOBW2ifFBcS6YVwjM8U-AdayFGae-EiCde6iS9jRpkpfRrbhgdDyqk605Ewn4UuKRPkkaOEAQnkfCtbthj2vFNI4_vtRQ-kmoa0lMnTEJ73csHrjsx_rtI_lmW580ZnM5BnG-Kh9JuskZoEwbqsjiLfYOzECkgRHyRsC-J5fhgQj3kCrcM-gmnzu3cnydfoAln-Tvz6Lskrux0TNtCbR9GPvNZQ2eGYmscaTNg5_?></g></svg>