<svg xmlns="http://www.w3.org/2000/svg" xmlns:xlink="http://www.w3.org/1999/xlink" contentStyleType="text/css" data-diagram-type="SEQUENCE" height="728px" preserveAspectRatio="none" style="width:709px;height:728px;background:#FFFFFF;" version="1.1" viewBox="0 0 709 728" width="709px" zoomAndPan="magnify"><?plantuml 1.2026.3?><defs/><g><g class="title" data-source-line="3"><text fill="#1F3A68" font-family="Arial" font-size="14" font-weight="700" lengthAdjust="spacing" textLength="307.2959" x="197.7275" y="28.1318">Sequence Diagram - New Session (Fast Mode)</text></g><g><title>MainWindow</title><rect fill="#F4F7FB" height="486.9824" style="stroke:#181818;stroke-width:1;" width="10" x="160.1758" y="143.3965"/></g><g><title>AppController</title><rect fill="#F4F7FB" height="223.1914" style="stroke:#181818;stroke-width:1;" width="10" x="323.1553" y="241.1934"/></g><g><title>AdminTab</title><rect fill="#F4F7FB" height="25.499" style="stroke:#181818;stroke-width:1;" width="10" x="590.042" y="489.8838"/></g><g><title>VoteTab</title><rect fill="#F4F7FB" height="25.499" style="stroke:#181818;stroke-width:1;" width="10" x="664.0693" y="540.8818"/></g><g class="participant-lifeline" data-entity-uid="part1" data-qualified-name="Admin" data-source-line="5" id="part1-lifeline"><g><title>Administrator</title><rect fill="#000000" fill-opacity="0.00000" height="532.4814" width="8" x="39.3438" y="115.8975"/><line style="stroke:#C4D3E8;stroke-width:0.5;stroke-dasharray:5,5;" x1="43" x2="43" y1="115.8975" y2="648.3789"/></g></g><g class="participant-lifeline" data-entity-uid="part2" data-qualified-name="MW" data-source-line="6" id="part2-lifeline"><g><title>MainWindow</title><rect fill="#000000" fill-opacity="0.00000" height="532.4814" width="8" x="161.1758" y="115.8975"/><line style="stroke:#C4D3E8;stroke-width:0.5;stroke-dasharray:5,5;" x1="164.8311" x2="164.8311" y1="115.8975" y2="648.3789"/></g></g><g class="participant-lifeline" data-entity-uid="part3" data-qualified-name="AC" data-source-line="7" id="part3-lifeline"><g><title>AppController</title><rect fill="#000000" fill-opacity="0.00000" height="532.4814" width="8" x="324.1553" y="115.8975"/><line style="stroke:#C4D3E8;stroke-width:0.5;stroke-dasharray:5,5;" x1="327.4697" x2="327.4697" y1="115.8975" y2="648.3789"/></g></g><g class="participant-lifeline" data-entity-uid="part4" data-qualified-name="VS" data-source-line="8" id="part4-lifeline"><g><title>VotingService</title><rect fill="#000000" fill-opacity="0.00000" height="532.4814" width="8" x="502.6768" y="115.8975"/><line style="stroke:#C4D3E8;stroke-width:0.5;stroke-dasharray:5,5;" x1="506.6572" x2="506.6572" y1="115.8975" y2="648.3789"/></g></g><g class="participant-lifeline" data-entity-uid="part5" data-qualified-name="AT" data-source-line="9" id="part5-lifeline"><g><title>AdminTab</title><rect fill="#000000" fill-opacity="0.00000" height="532.4814" width="8" x="591.042" y="115.8975"/><line style="stroke:#C4D3E8;stroke-width:0.5;stroke-dasharray:5,5;" x1="594.6963" x2="594.6963" y1="115.8975" y2="648.3789"/></g></g><g class="participant-lifeline" data-entity-uid="part6" data-qualified-name="VT" data-source-line="10" id="part6-lifeline"><g><title>VoteTab</title><rect fill="#000000" fill-opacity="0.00000" height="532.4814" width="8" x="665.0693" y="115.8975"/><line style="stroke:#C4D3E8;stroke-width:0.5;stroke-dasharray:5,5;" x1="668.3877" x2="668.3877" y1="115.8975" y2="648.3789"/></g></g><g class="participant participant-head" data-entity-uid="part1" data-qualified-name="Admin" data-source-line="5" id="part1-head"><text fill="#1F3A68" font-family="Arial" font-size="12" lengthAdjust="spacing" textLength="70.6875" x="5" y="113.3545">Administrator</text><ellipse cx="43.3438" cy="50.5986" fill="#E2E2F0" rx="8" ry="8" style="stroke:#181818;stroke-width:0.5;"/><path d="M43.3438,58.5986 L43.3438,85.5986 M30.3438,66.5986 L56.3438,66.5986 M43.3438,85.5986 L30.3438,100.5986 M43.3438,85.5986 L56.3438,100.5986" fill="none" style="stroke:#181818;stroke-width:0.5;"/></g><g class="participant participant-tail" data-entity-uid="part1" data-qualified-name="Admin" data-source-line="5" id="part1-tail"><text fill="#1F3A68" font-family="Arial" font-size="12" lengthAdjust="spacing" textLength="70.6875" x="5" y="658.6348">Administrator</text><ellipse cx="43.3438" cy="669.6777" fill="#E2E2F0" rx="8" ry="8" style="stroke:#181818;stroke-width:0.5;"/><path d="M43.3438,677.6777 L43.3438,704.6777 M30.3438,685.6777 L56.3438,685.6777 M43.3438,704.6777 L30.3438,719.6777 M43.3438,704.6777 L56.3438,719.6777" fill="none" style="stroke:#181818;stroke-width:0.5;"/></g><g class="participant participant-head" data-entity-uid="part2" data-qualified-name="MW" data-source-line="6" id="part2-head"><rect fill="#E7EEF7" height="27.7988" rx="3" ry="3" style="stroke:#C4D3E8;stroke-width:0.5;" width="82.6895" x="123.8311" y="87.0986"/><text fill="#1F3A68" font-family="Arial" font-size="12" lengthAdjust="spacing" textLength="68.6895" x="130.8311" y="105.3545">MainWindow</text></g><g class="participant participant-tail" data-entity-uid="part2" data-qualified-name="MW" data-source-line="6" id="part2-tail"><rect fill="#E7EEF7" height="27.7988" rx="3" ry="3" style="stroke:#C4D3E8;stroke-width:0.5;" width="82.6895" x="123.8311" y="647.3789"/><text fill="#1F3A68" font-family="Arial" font-size="12" lengthAdjust="spacing" textLength="68.6895" x="130.8311" y="665.6348">MainWindow</text></g><g class="participant participant-head" data-entity-uid="part3" data-qualified-name="AC" data-source-line="7" id="part3-head"><rect fill="#E7EEF7" height="27.7988" rx="3" ry="3" style="stroke:#C4D3E8;stroke-width:0.5;" width="87.3711" x="284.4697" y="87.0986"/><text fill="#1F3A68" font-family="Arial" font-size="12" lengthAdjust="spacing" textLength="73.3711" x="291.4697" y="105.3545">AppController</text></g><g class="participant participant-tail" data-entity-uid="part3" data-qualified-name="AC" data-source-line="7" id="part3-tail"><rect fill="#E7EEF7" height="27.7988" rx="3" ry="3" style="stroke:#C4D3E8;stroke-width:0.5;" width="87.3711" x="284.4697" y="647.3789"/><text fill="#1F3A68" font-family="Arial" font-size="12" lengthAdjust="spacing" textLength="73.3711" x="291.4697" y="665.6348">AppController</text></g><g class="participant participant-head" data-entity-uid="part4" data-qualified-name="VS" data-source-line="8" id="part4-head"><rect fill="#E7EEF7" height="27.7988" rx="3" ry="3" style="stroke:#C4D3E8;stroke-width:0.5;" width="88.0391" x="462.6572" y="87.0986"/><text fill="#1F3A68" font-family="Arial" font-size="12" lengthAdjust="spacing" textLength="74.0391" x="469.6572" y="105.3545">VotingService</text></g><g class="participant participant-tail" data-entity-uid="part4" data-qualified-name="VS" data-source-line="8" id="part4-tail"><rect fill="#E7EEF7" height="27.7988" rx="3" ry="3" style="stroke:#C4D3E8;stroke-width:0.5;" width="88.0391" x="462.6572" y="647.3789"/><text fill="#1F3A68" font-family="Arial" font-size="12" lengthAdjust="spacing" textLength="74.0391" x="469.6572" y="665.6348">VotingService</text></g><g class="participant participant-head" data-entity-uid="part5" data-qualified-name="AT" data-source-line="9" id="part5-head"><rect fill="#E7EEF7" height="27.7988" rx="3" ry="3" style="stroke:#C4D3E8;stroke-width:0.5;" width="68.6914" x="560.6963" y="87.0986"/><text fill="#1F3A68" font-family="Arial" font-size="12" lengthAdjust="spacing" textLength="54.6914" x="567.6963" y="105.3545">AdminTab</text></g><g class="participant participant-tail" data-entity-uid="part5" data-qualified-name="AT" data-source-line="9" id="part5-tail"><rect fill="#E7EEF7" height="27.7988" rx="3" ry="3" style="stroke:#C4D3E8;stroke-width:0.5;" width="68.6914" x="560.6963" y="647.3789"/><text fill="#1F3A68" font-family="Arial" font-size="12" lengthAdjust="spacing" textLength="54.6914" x="567.6963" y="665.6348">AdminTab</text></g><g class="participant participant-head" data-entity-uid="part6" data-qualified-name="VT" data-source-line="10" id="part6-head"><rect fill="#E7EEF7" height="27.7988" rx="3" ry="3" style="stroke:#C4D3E8;stroke-width:0.5;" width="59.3633" x="639.3877" y="87.0986"/><text fill="#1F3A68" font-family="Arial" font-size="12" lengthAdjust="spacing" textLength="45.3633" x="646.3877" y="105.3545">VoteTab</text></g><g class="participant participant-tail" data-entity-uid="part6" data-qualified-name="VT" data-source-line="10" id="part6-tail"><rect fill="#E7EEF7" height="27.7988" rx="3" ry="3" style="stroke:#C4D3E8;stroke-width:0.5;" width="59.3633" x="639.3877" y="647.3789"/><text fill="#1F3A68" font-family="Arial" font-size="12" lengthAdjust="spacing" textLength="45.3633" x="646.3877" y="665.6348">VoteTab</text></g><g><title>MainWindow</title><rect fill="#F4F7FB" height="486.9824" style="stroke:#181818;stroke-width:1;" width="10" x="160.1758" y="143.3965"/></g><g><title>AppController</title><rect fill="#F4F7FB" height="223.1914" style="stroke:#181818;stroke-width:1;" width="10" x="323.1553" y="241.1934"/></g><g><title>AdminTab</title><rect fill="#F4F7FB" height="25.499" style="stroke:#181818;stroke-width:1;" width="10" x="590.042" y="489.8838"/></g><g><title>VoteTab</title><rect fill="#F4F7FB" height="25.499" style="stroke:#181818;stroke-width:1;" width="10" x="664.0693" y="540.8818"/></g><g class="message" data-entity-1="part1" data-entity-2="part2" data-source-line="12" id="msg1"><polygon fill="#0969DA" points="148.1758,139.3965,158.1758,143.3965,148.1758,147.3965,152.1758,143.3965" style="stroke:#0969DA;stroke-width:1;"/><line style="stroke:#0969DA;stroke-width:1;" x1="43.3438" x2="154.1758" y1="143.3965" y2="143.3965"/><text fill="#7286A5" font-family="Arial" font-size="10" lengthAdjust="spacing" textLength="87.6807" x="50.3438" y="139.2773">click "New Session"</text></g><g class="message" data-entity-1="part2" data-entity-2="part2" data-source-line="14" id="msg2"><line style="stroke:#0969DA;stroke-width:1;" x1="170.1758" x2="212.1758" y1="168.8955" y2="168.8955"/><line style="stroke:#0969DA;stroke-width:1;" x1="212.1758" x2="212.1758" y1="168.8955" y2="181.8955"/><line style="stroke:#0969DA;stroke-width:1;" x1="171.1758" x2="212.1758" y1="181.8955" y2="181.8955"/><polygon fill="#0969DA" points="181.1758,177.8955,171.1758,181.8955,181.1758,185.8955,177.1758,181.8955" style="stroke:#0969DA;stroke-width:1;"/><text fill="#7286A5" font-family="Arial" font-size="10" lengthAdjust="spacing" textLength="71.6943" x="177.1758" y="164.7764">confirm_dialog()</text></g><path d="M102,197.8955 L102,214.8955 A3,3 0 0 0 105,217.8955 L224,217.8955 A3,3 0 0 0 227,214.8955 L227,204.8955 L217,194.8955 L105,194.8955 A3,3 0 0 0 102,197.8955" fill="#FEFFDD" style="stroke:#181818;stroke-width:0.5;"/><path d="M217,194.8955 L217,203.3955 A1.5,1.5 0 0 0 218.5,204.8955 L227,204.8955 L217,194.8955" fill="#FEFFDD" style="stroke:#181818;stroke-width:0.5;"/><text fill="#1F3A68" font-family="Arial" font-size="12" lengthAdjust="spacing" textLength="104.0215" x="108" y="211.1514">User confirms reset</text><g class="message" data-entity-1="part2" data-entity-2="part3" data-source-line="17" id="msg3"><polygon fill="#0969DA" points="311.1553,237.1934,321.1553,241.1934,311.1553,245.1934,315.1553,241.1934" style="stroke:#0969DA;stroke-width:1;"/><line style="stroke:#0969DA;stroke-width:1;" x1="170.1758" x2="317.1553" y1="241.1934" y2="241.1934"/><text fill="#7286A5" font-family="Arial" font-size="10" lengthAdjust="spacing" textLength="64.4727" x="177.1758" y="237.0742">new_session()</text></g><g class="message" data-entity-1="part3" data-entity-2="part3" data-source-line="19" id="msg4"><line style="stroke:#0969DA;stroke-width:1;" x1="333.1553" x2="375.1553" y1="266.6924" y2="266.6924"/><line style="stroke:#0969DA;stroke-width:1;" x1="375.1553" x2="375.1553" y1="266.6924" y2="279.6924"/><line style="stroke:#0969DA;stroke-width:1;" x1="334.1553" x2="375.1553" y1="279.6924" y2="279.6924"/><polygon fill="#0969DA" points="344.1553,275.6924,334.1553,279.6924,344.1553,283.6924,340.1553,279.6924" style="stroke:#0969DA;stroke-width:1;"/><text fill="#7286A5" font-family="Arial" font-size="10" lengthAdjust="spacing" textLength="144.5215" x="340.1553" y="262.5732">archive_session_log(session_id)</text></g><path d="M271,295.6924 L271,326.6924 A3,3 0 0 0 274,329.6924 L380,329.6924 A3,3 0 0 0 383,326.6924 L383,302.6924 L373,292.6924 L274,292.6924 A3,3 0 0 0 271,295.6924" fill="#FEFFDD" style="stroke:#181818;stroke-width:0.5;"/><path d="M373,292.6924 L373,301.1924 A1.5,1.5 0 0 0 374.5,302.6924 L383,302.6924 L373,292.6924" fill="#FEFFDD" style="stroke:#181818;stroke-width:0.5;"/><text fill="#1F3A68" font-family="Arial" font-size="12" lengthAdjust="spacing" textLength="91.3828" x="277" y="308.9482">Copies active log</text><text fill="#1F3A68" font-family="Arial" font-size="12" lengthAdjust="spacing" textLength="85.377" x="277" y="322.7471">to archive folder</text><g class="message" data-entity-1="part3" data-entity-2="part4" data-source-line="21" id="msg5"><polygon fill="#0969DA" points="494.6768,348.7891,504.6768,352.7891,494.6768,356.7891,498.6768,352.7891" style="stroke:#0969DA;stroke-width:1;"/><line style="stroke:#0969DA;stroke-width:1;" x1="333.1553" x2="500.6768" y1="352.7891" y2="352.7891"/><text fill="#7286A5" font-family="Arial" font-size="10" lengthAdjust="spacing" textLength="28.8916" x="340.1553" y="348.6699">reset()</text></g><path d="M449,368.7891 L449,399.7891 A3,3 0 0 0 452,402.7891 L560,402.7891 A3,3 0 0 0 563,399.7891 L563,375.7891 L553,365.7891 L452,365.7891 A3,3 0 0 0 449,368.7891" fill="#FEFFDD" style="stroke:#181818;stroke-width:0.5;"/><path d="M553,365.7891 L553,374.2891 A1.5,1.5 0 0 0 554.5,375.7891 L563,375.7891 L553,365.7891" fill="#FEFFDD" style="stroke:#181818;stroke-width:0.5;"/><text fill="#1F3A68" font-family="Arial" font-size="12" lengthAdjust="spacing" textLength="80.6953" x="455" y="382.0449">Clears contract</text><text fill="#1F3A68" font-family="Arial" font-size="12" lengthAdjust="spacing" textLength="93.3691" x="455" y="395.8438">reference in RAM</text><g class="message" data-entity-1="part3" data-entity-2="part3" data-source-line="23" id="msg6"><line style="stroke:#0969DA;stroke-width:1;" x1="333.1553" x2="375.1553" y1="425.8857" y2="425.8857"/><line style="stroke:#0969DA;stroke-width:1;" x1="375.1553" x2="375.1553" y1="425.8857" y2="438.8857"/><line style="stroke:#0969DA;stroke-width:1;" x1="334.1553" x2="375.1553" y1="438.8857" y2="438.8857"/><polygon fill="#0969DA" points="344.1553,434.8857,334.1553,438.8857,344.1553,442.8857,340.1553,438.8857" style="stroke:#0969DA;stroke-width:1;"/><text fill="#7286A5" font-family="Arial" font-size="10" lengthAdjust="spacing" textLength="128.9258" x="340.1553" y="421.7666">create_session() (new UUID)</text></g><g class="message" data-entity-1="part3" data-entity-2="part2" data-source-line="24" id="msg7"><polygon fill="#0969DA" points="181.1758,460.3848,171.1758,464.3848,181.1758,468.3848,177.1758,464.3848" style="stroke:#0969DA;stroke-width:1;"/><line style="stroke:#0969DA;stroke-width:1;stroke-dasharray:2,2;" x1="175.1758" x2="327.1553" y1="464.3848" y2="464.3848"/><text fill="#7286A5" font-family="Arial" font-size="10" lengthAdjust="spacing" textLength="70.0391" x="187.1758" y="460.2656">session created</text></g><g class="message" data-entity-1="part2" data-entity-2="part5" data-source-line="27" id="msg8"><polygon fill="#0969DA" points="578.042,485.8838,588.042,489.8838,578.042,493.8838,582.042,489.8838" style="stroke:#0969DA;stroke-width:1;"/><line style="stroke:#0969DA;stroke-width:1;" x1="170.1758" x2="584.042" y1="489.8838" y2="489.8838"/><text fill="#7286A5" font-family="Arial" font-size="10" lengthAdjust="spacing" textLength="42.2363" x="177.1758" y="485.7646">reset_ui()</text></g><g class="message" data-entity-1="part5" data-entity-2="part2" data-source-line="29" id="msg9"><polygon fill="#0969DA" points="181.1758,511.3828,171.1758,515.3828,181.1758,519.3828,177.1758,515.3828" style="stroke:#0969DA;stroke-width:1;"/><line style="stroke:#0969DA;stroke-width:1;stroke-dasharray:2,2;" x1="175.1758" x2="594.042" y1="515.3828" y2="515.3828"/><text fill="#7286A5" font-family="Arial" font-size="10" lengthAdjust="spacing" textLength="45.5762" x="187.1758" y="511.2637">UI cleared</text></g><g class="message" data-entity-1="part2" data-entity-2="part6" data-source-line="32" id="msg10"><polygon fill="#0969DA" points="652.0693,536.8818,662.0693,540.8818,652.0693,544.8818,656.0693,540.8818" style="stroke:#0969DA;stroke-width:1;"/><line style="stroke:#0969DA;stroke-width:1;" x1="170.1758" x2="658.0693" y1="540.8818" y2="540.8818"/><text fill="#7286A5" font-family="Arial" font-size="10" lengthAdjust="spacing" textLength="42.2363" x="177.1758" y="536.7627">reset_ui()</text></g><g class="message" data-entity-1="part6" data-entity-2="part2" data-source-line="34" id="msg11"><polygon fill="#0969DA" points="181.1758,562.3809,171.1758,566.3809,181.1758,570.3809,177.1758,566.3809" style="stroke:#0969DA;stroke-width:1;"/><line style="stroke:#0969DA;stroke-width:1;stroke-dasharray:2,2;" x1="175.1758" x2="668.0693" y1="566.3809" y2="566.3809"/><text fill="#7286A5" font-family="Arial" font-size="10" lengthAdjust="spacing" textLength="45.5762" x="187.1758" y="562.2617">UI cleared</text></g><g class="message" data-entity-1="part2" data-entity-2="part2" data-source-line="37" id="msg12"><line style="stroke:#0969DA;stroke-width:1;" x1="170.1758" x2="212.1758" y1="591.8799" y2="591.8799"/><line style="stroke:#0969DA;stroke-width:1;" x1="212.1758" x2="212.1758" y1="591.8799" y2="604.8799"/><line style="stroke:#0969DA;stroke-width:1;" x1="171.1758" x2="212.1758" y1="604.8799" y2="604.8799"/><polygon fill="#0969DA" points="181.1758,600.8799,171.1758,604.8799,181.1758,608.8799,177.1758,604.8799" style="stroke:#0969DA;stroke-width:1;"/><text fill="#7286A5" font-family="Arial" font-size="10" lengthAdjust="spacing" textLength="128.9795" x="177.1758" y="587.7607">update status labels to Setup</text></g><g class="message" data-entity-1="part2" data-entity-2="part1" data-source-line="38" id="msg13"><polygon fill="#0969DA" points="54.3438,626.3789,44.3438,630.3789,54.3438,634.3789,50.3438,630.3789" style="stroke:#0969DA;stroke-width:1;"/><line style="stroke:#0969DA;stroke-width:1;stroke-dasharray:2,2;" x1="48.3438" x2="164.1758" y1="630.3789" y2="630.3789"/><text fill="#7286A5" font-family="Arial" font-size="10" lengthAdjust="spacing" textLength="92.832" x="60.3438" y="626.2598">ready for new deploy</text></g><?plantuml-src XPB1Rjim38RlUWhEf-JGzBx3WC35W1xIm-oubmA6AZ4fKLdo93b1ttwKOcLEXw4tc_puyoUfRsILcJJ2PdFVApSCpjx7DnnmGzDWX8WK3KA3loUq2k61vD7B0UxW2SyS3e6SXTLF6IBidCQr4595vw7Qwe4iXUWb_rOW0-I86AMFf6YKDaArasIVoMftpiJk-JQz7SVQsUYTCJXhrBT4voBPOuF-H0epqJMVD5BNLhvUojj_oh7akbQ83CFT3tO2tq4PKkzGBIQjqdHqaX6JLuQkgBC7yaElIHftNAs5PMLm9_IN_3xmrmm5y1WmYhb-MtFUuhaFbnvSV6t2utAwGDAhDpfX0VlKgNoJNlRCUEr6mW1P387X5njT4O63CnhzBDyrp6TNDzPpk3OeVKZc-POglbYF1_JvDV2kVcrtIulA8_l-EmgiU3BOxnyVrXah-vg1cTT2utBcifcskEedkbbBApXt5Ti_ygdOv2UTjkXq_zFXatTVwdHNdGnDeqxH46MS0XZvYYO0xxN1E8qPJCxpEqfDfVxWLVjqOD0u6lUnrEP7z0S0?></g></svg>