<svg xmlns="http://www.w3.org/2000/svg" xmlns:xlink="http://www.w3.org/1999/xlink" contentStyleType="text/css" data-diagram-type="SEQUENCE" height="728px" preserveAspectRatio="none" style="width:793px;height:728px;background:#FFFFFF;" version="1.1" viewBox="0 0 793 728" width="793px" zoomAndPan="magnify"><?plantuml 1.2026.3?><defs/><g><g class="title" data-source-line="3"><text fill="#1F3A68" font-family="Arial" font-size="14" font-weight="700" lengthAdjust="spacing" textLength="460.3184" x="163.251" y="28.1318">&#1044;&#1080;&#1072;&#1075;&#1088;&#1072;&#1084;&#1084;&#1072; &#1087;&#1086;&#1089;&#1083;&#1077;&#1076;&#1086;&#1074;&#1072;&#1090;&#1077;&#1083;&#1100;&#1085;&#1086;&#1089;&#1090;&#1080;: &#1053;&#1086;&#1074;&#1072;&#1103; &#1089;&#1077;&#1089;&#1089;&#1080;&#1103; (&#1041;&#1099;&#1089;&#1090;&#1088;&#1099;&#1081; &#1088;&#1077;&#1078;&#1080;&#1084;)</text></g><g><title>....... ....</title><rect fill="#F4F7FB" height="486.9824" style="stroke:#181818;stroke-width:1;" width="10" x="184.6631" y="143.3965"/></g><g><title>AppController</title><rect fill="#F4F7FB" height="223.1914" style="stroke:#181818;stroke-width:1;" width="10" x="350.2012" y="241.1934"/></g><g><title>....... Admin</title><rect fill="#F4F7FB" height="25.499" style="stroke:#181818;stroke-width:1;" width="10" x="631.3438" y="489.8838"/></g><g><title>....... Vote</title><rect fill="#F4F7FB" height="25.499" style="stroke:#181818;stroke-width:1;" width="10" x="733.8828" y="540.8818"/></g><g class="participant-lifeline" data-entity-uid="part1" data-qualified-name="Admin" data-source-line="5" id="part1-lifeline"><g><title>.............</title><rect fill="#000000" fill-opacity="0.00000" height="532.4814" width="8" x="47.4883" y="115.8975"/><line style="stroke:#C4D3E8;stroke-width:0.5;stroke-dasharray:5,5;" x1="51" x2="51" y1="115.8975" y2="648.3789"/></g></g><g class="participant-lifeline" data-entity-uid="part2" data-qualified-name="MW" data-source-line="6" id="part2-lifeline"><g><title>....... ....</title><rect fill="#000000" fill-opacity="0.00000" height="532.4814" width="8" x="185.6631" y="115.8975"/><line style="stroke:#C4D3E8;stroke-width:0.5;stroke-dasharray:5,5;" x1="189.1221" x2="189.1221" y1="115.8975" y2="648.3789"/></g></g><g class="participant-lifeline" data-entity-uid="part3" data-qualified-name="AC" data-source-line="7" id="part3-lifeline"><g><title>AppController</title><rect fill="#000000" fill-opacity="0.00000" height="532.4814" width="8" x="351.2012" y="115.8975"/><line style="stroke:#C4D3E8;stroke-width:0.5;stroke-dasharray:5,5;" x1="354.5156" x2="354.5156" y1="115.8975" y2="648.3789"/></g></g><g class="participant-lifeline" data-entity-uid="part4" data-qualified-name="VS" data-source-line="8" id="part4-lifeline"><g><title>VotingService</title><rect fill="#000000" fill-opacity="0.00000" height="532.4814" width="8" x="529.7227" y="115.8975"/><line style="stroke:#C4D3E8;stroke-width:0.5;stroke-dasharray:5,5;" x1="533.7031" x2="533.7031" y1="115.8975" y2="648.3789"/></g></g><g class="participant-lifeline" data-entity-uid="part5" data-qualified-name="AT" data-source-line="9" id="part5-lifeline"><g><title>....... Admin</title><rect fill="#000000" fill-opacity="0.00000" height="532.4814" width="8" x="632.3438" y="115.8975"/><line style="stroke:#C4D3E8;stroke-width:0.5;stroke-dasharray:5,5;" x1="635.7422" x2="635.7422" y1="115.8975" y2="648.3789"/></g></g><g class="participant-lifeline" data-entity-uid="part6" data-qualified-name="VT" data-source-line="10" id="part6-lifeline"><g><title>....... Vote</title><rect fill="#000000" fill-opacity="0.00000" height="532.4814" width="8" x="734.8828" y="115.8975"/><line style="stroke:#C4D3E8;stroke-width:0.5;stroke-dasharray:5,5;" x1="737.9453" x2="737.9453" y1="115.8975" y2="648.3789"/></g></g><g class="participant participant-head" data-entity-uid="part1" data-qualified-name="Admin" data-source-line="5" id="part1-head"><text fill="#1F3A68" font-family="Arial" font-size="12" lengthAdjust="spacing" textLength="86.9766" x="5" y="113.3545">&#1040;&#1076;&#1084;&#1080;&#1085;&#1080;&#1089;&#1090;&#1088;&#1072;&#1090;&#1086;&#1088;</text><ellipse cx="51.4883" cy="50.5986" fill="#E2E2F0" rx="8" ry="8" style="stroke:#181818;stroke-width:0.5;"/><path d="M51.4883,58.5986 L51.4883,85.5986 M38.4883,66.5986 L64.4883,66.5986 M51.4883,85.5986 L38.4883,100.5986 M51.4883,85.5986 L64.4883,100.5986" fill="none" style="stroke:#181818;stroke-width:0.5;"/></g><g class="participant participant-tail" data-entity-uid="part1" data-qualified-name="Admin" data-source-line="5" id="part1-tail"><text fill="#1F3A68" font-family="Arial" font-size="12" lengthAdjust="spacing" textLength="86.9766" x="5" y="658.6348">&#1040;&#1076;&#1084;&#1080;&#1085;&#1080;&#1089;&#1090;&#1088;&#1072;&#1090;&#1086;&#1088;</text><ellipse cx="51.4883" cy="669.6777" fill="#E2E2F0" rx="8" ry="8" style="stroke:#181818;stroke-width:0.5;"/><path d="M51.4883,677.6777 L51.4883,704.6777 M38.4883,685.6777 L64.4883,685.6777 M51.4883,704.6777 L38.4883,719.6777 M51.4883,704.6777 L64.4883,719.6777" fill="none" style="stroke:#181818;stroke-width:0.5;"/></g><g class="participant participant-head" data-entity-uid="part2" data-qualified-name="MW" data-source-line="6" id="part2-head"><rect fill="#E7EEF7" height="27.7988" rx="3" ry="3" style="stroke:#C4D3E8;stroke-width:0.5;" width="89.082" x="145.1221" y="87.0986"/><text fill="#1F3A68" font-family="Arial" font-size="12" lengthAdjust="spacing" textLength="75.082" x="152.1221" y="105.3545">&#1043;&#1083;&#1072;&#1074;&#1085;&#1086;&#1077; &#1086;&#1082;&#1085;&#1086;</text></g><g class="participant participant-tail" data-entity-uid="part2" data-qualified-name="MW" data-source-line="6" id="part2-tail"><rect fill="#E7EEF7" height="27.7988" rx="3" ry="3" style="stroke:#C4D3E8;stroke-width:0.5;" width="89.082" x="145.1221" y="647.3789"/><text fill="#1F3A68" font-family="Arial" font-size="12" lengthAdjust="spacing" textLength="75.082" x="152.1221" y="665.6348">&#1043;&#1083;&#1072;&#1074;&#1085;&#1086;&#1077; &#1086;&#1082;&#1085;&#1086;</text></g><g class="participant participant-head" data-entity-uid="part3" data-qualified-name="AC" data-source-line="7" id="part3-head"><rect fill="#E7EEF7" height="27.7988" rx="3" ry="3" style="stroke:#C4D3E8;stroke-width:0.5;" width="87.3711" x="311.5156" y="87.0986"/><text fill="#1F3A68" font-family="Arial" font-size="12" lengthAdjust="spacing" textLength="73.3711" x="318.5156" y="105.3545">AppController</text></g><g class="participant participant-tail" data-entity-uid="part3" data-qualified-name="AC" data-source-line="7" id="part3-tail"><rect fill="#E7EEF7" height="27.7988" rx="3" ry="3" style="stroke:#C4D3E8;stroke-width:0.5;" width="87.3711" x="311.5156" y="647.3789"/><text fill="#1F3A68" font-family="Arial" font-size="12" lengthAdjust="spacing" textLength="73.3711" x="318.5156" y="665.6348">AppController</text></g><g class="participant participant-head" data-entity-uid="part4" data-qualified-name="VS" data-source-line="8" id="part4-head"><rect fill="#E7EEF7" height="27.7988" rx="3" ry="3" style="stroke:#C4D3E8;stroke-width:0.5;" width="88.0391" x="489.7031" y="87.0986"/><text fill="#1F3A68" font-family="Arial" font-size="12" lengthAdjust="spacing" textLength="74.0391" x="496.7031" y="105.3545">VotingService</text></g><g class="participant participant-tail" data-entity-uid="part4" data-qualified-name="VS" data-source-line="8" id="part4-tail"><rect fill="#E7EEF7" height="27.7988" rx="3" ry="3" style="stroke:#C4D3E8;stroke-width:0.5;" width="88.0391" x="489.7031" y="647.3789"/><text fill="#1F3A68" font-family="Arial" font-size="12" lengthAdjust="spacing" textLength="74.0391" x="496.7031" y="665.6348">VotingService</text></g><g class="participant participant-head" data-entity-uid="part5" data-qualified-name="AT" data-source-line="9" id="part5-head"><rect fill="#E7EEF7" height="27.7988" rx="3" ry="3" style="stroke:#C4D3E8;stroke-width:0.5;" width="97.2031" x="587.7422" y="87.0986"/><text fill="#1F3A68" font-family="Arial" font-size="12" lengthAdjust="spacing" textLength="83.2031" x="594.7422" y="105.3545">&#1042;&#1082;&#1083;&#1072;&#1076;&#1082;&#1072; Admin</text></g><g class="participant participant-tail" data-entity-uid="part5" data-qualified-name="AT" data-source-line="9" id="part5-tail"><rect fill="#E7EEF7" height="27.7988" rx="3" ry="3" style="stroke:#C4D3E8;stroke-width:0.5;" width="97.2031" x="587.7422" y="647.3789"/><text fill="#1F3A68" font-family="Arial" font-size="12" lengthAdjust="spacing" textLength="83.2031" x="594.7422" y="665.6348">&#1042;&#1082;&#1083;&#1072;&#1076;&#1082;&#1072; Admin</text></g><g class="participant participant-head" data-entity-uid="part6" data-qualified-name="VT" data-source-line="10" id="part6-head"><rect fill="#E7EEF7" height="27.7988" rx="3" ry="3" style="stroke:#C4D3E8;stroke-width:0.5;" width="87.875" x="694.9453" y="87.0986"/><text fill="#1F3A68" font-family="Arial" font-size="12" lengthAdjust="spacing" textLength="73.875" x="701.9453" y="105.3545">&#1042;&#1082;&#1083;&#1072;&#1076;&#1082;&#1072; Vote</text></g><g class="participant participant-tail" data-entity-uid="part6" data-qualified-name="VT" data-source-line="10" id="part6-tail"><rect fill="#E7EEF7" height="27.7988" rx="3" ry="3" style="stroke:#C4D3E8;stroke-width:0.5;" width="87.875" x="694.9453" y="647.3789"/><text fill="#1F3A68" font-family="Arial" font-size="12" lengthAdjust="spacing" textLength="73.875" x="701.9453" y="665.6348">&#1042;&#1082;&#1083;&#1072;&#1076;&#1082;&#1072; Vote</text></g><g><title>....... ....</title><rect fill="#F4F7FB" height="486.9824" style="stroke:#181818;stroke-width:1;" width="10" x="184.6631" y="143.3965"/></g><g><title>AppController</title><rect fill="#F4F7FB" height="223.1914" style="stroke:#181818;stroke-width:1;" width="10" x="350.2012" y="241.1934"/></g><g><title>....... Admin</title><rect fill="#F4F7FB" height="25.499" style="stroke:#181818;stroke-width:1;" width="10" x="631.3438" y="489.8838"/></g><g><title>....... Vote</title><rect fill="#F4F7FB" height="25.499" style="stroke:#181818;stroke-width:1;" width="10" x="733.8828" y="540.8818"/></g><g class="message" data-entity-1="part1" data-entity-2="part2" data-source-line="12" id="msg1"><polygon fill="#0969DA" points="172.6631,139.3965,182.6631,143.3965,172.6631,147.3965,176.6631,143.3965" style="stroke:#0969DA;stroke-width:1;"/><line style="stroke:#0969DA;stroke-width:1;" x1="51.4883" x2="178.6631" y1="143.3965" y2="143.3965"/><text fill="#7286A5" font-family="Arial" font-size="10" lengthAdjust="spacing" textLength="114.1748" x="58.4883" y="139.2773">&#1085;&#1072;&#1078;&#1080;&#1084;&#1072;&#1077;&#1090; "New Session"</text></g><g class="message" data-entity-1="part2" data-entity-2="part2" data-source-line="14" id="msg2"><line style="stroke:#0969DA;stroke-width:1;" x1="194.6631" x2="236.6631" y1="168.8955" y2="168.8955"/><line style="stroke:#0969DA;stroke-width:1;" x1="236.6631" x2="236.6631" y1="168.8955" y2="181.8955"/><line style="stroke:#0969DA;stroke-width:1;" x1="195.6631" x2="236.6631" y1="181.8955" y2="181.8955"/><polygon fill="#0969DA" points="205.6631,177.8955,195.6631,181.8955,205.6631,185.8955,201.6631,181.8955" style="stroke:#0969DA;stroke-width:1;"/><text fill="#7286A5" font-family="Arial" font-size="10" lengthAdjust="spacing" textLength="71.6943" x="201.6631" y="164.7764">confirm_dialog()</text></g><path d="M80,197.8955 L80,214.8955 A3,3 0 0 0 83,217.8955 L295,217.8955 A3,3 0 0 0 298,214.8955 L298,204.8955 L288,194.8955 L83,194.8955 A3,3 0 0 0 80,197.8955" fill="#FEFFDD" style="stroke:#181818;stroke-width:0.5;"/><path d="M288,194.8955 L288,203.3955 A1.5,1.5 0 0 0 289.5,204.8955 L298,204.8955 L288,194.8955" fill="#FEFFDD" style="stroke:#181818;stroke-width:0.5;"/><text fill="#1F3A68" font-family="Arial" font-size="12" lengthAdjust="spacing" textLength="197.3555" x="86" y="211.1514">&#1055;&#1086;&#1083;&#1100;&#1079;&#1086;&#1074;&#1072;&#1090;&#1077;&#1083;&#1100; &#1087;&#1086;&#1076;&#1090;&#1074;&#1077;&#1088;&#1078;&#1076;&#1072;&#1077;&#1090; &#1089;&#1073;&#1088;&#1086;&#1089;</text><g class="message" data-entity-1="part2" data-entity-2="part3" data-source-line="17" id="msg3"><polygon fill="#0969DA" points="338.2012,237.1934,348.2012,241.1934,338.2012,245.1934,342.2012,241.1934" style="stroke:#0969DA;stroke-width:1;"/><line style="stroke:#0969DA;stroke-width:1;" x1="194.6631" x2="344.2012" y1="241.1934" y2="241.1934"/><text fill="#7286A5" font-family="Arial" font-size="10" lengthAdjust="spacing" textLength="64.4727" x="201.6631" y="237.0742">new_session()</text></g><g class="message" data-entity-1="part3" data-entity-2="part3" data-source-line="19" id="msg4"><line style="stroke:#0969DA;stroke-width:1;" x1="360.2012" x2="402.2012" y1="266.6924" y2="266.6924"/><line style="stroke:#0969DA;stroke-width:1;" x1="402.2012" x2="402.2012" y1="266.6924" y2="279.6924"/><line style="stroke:#0969DA;stroke-width:1;" x1="361.2012" x2="402.2012" y1="279.6924" y2="279.6924"/><polygon fill="#0969DA" points="371.2012,275.6924,361.2012,279.6924,371.2012,283.6924,367.2012,279.6924" style="stroke:#0969DA;stroke-width:1;"/><text fill="#7286A5" font-family="Arial" font-size="10" lengthAdjust="spacing" textLength="144.5215" x="367.2012" y="262.5732">archive_session_log(session_id)</text></g><path d="M280,295.6924 L280,326.6924 A3,3 0 0 0 283,329.6924 L426,329.6924 A3,3 0 0 0 429,326.6924 L429,302.6924 L419,292.6924 L283,292.6924 A3,3 0 0 0 280,295.6924" fill="#FEFFDD" style="stroke:#181818;stroke-width:0.5;"/><path d="M419,292.6924 L419,301.1924 A1.5,1.5 0 0 0 420.5,302.6924 L429,302.6924 L419,292.6924" fill="#FEFFDD" style="stroke:#181818;stroke-width:0.5;"/><text fill="#1F3A68" font-family="Arial" font-size="12" lengthAdjust="spacing" textLength="128.8828" x="286" y="308.9482">&#1050;&#1086;&#1087;&#1080;&#1088;&#1091;&#1077;&#1090; &#1072;&#1082;&#1090;&#1080;&#1074;&#1085;&#1099;&#1081; &#1083;&#1086;&#1075;</text><text fill="#1F3A68" font-family="Arial" font-size="12" lengthAdjust="spacing" textLength="83.0625" x="286" y="322.7471">&#1074; &#1087;&#1072;&#1087;&#1082;&#1091; &#1072;&#1088;&#1093;&#1080;&#1074;&#1072;</text><g class="message" data-entity-1="part3" data-entity-2="part4" data-source-line="21" id="msg5"><polygon fill="#0969DA" points="521.7227,348.7891,531.7227,352.7891,521.7227,356.7891,525.7227,352.7891" style="stroke:#0969DA;stroke-width:1;"/><line style="stroke:#0969DA;stroke-width:1;" x1="360.2012" x2="527.7227" y1="352.7891" y2="352.7891"/><text fill="#7286A5" font-family="Arial" font-size="10" lengthAdjust="spacing" textLength="28.8916" x="367.2012" y="348.6699">reset()</text></g><path d="M468,368.7891 L468,399.7891 A3,3 0 0 0 471,402.7891 L595,402.7891 A3,3 0 0 0 598,399.7891 L598,375.7891 L588,365.7891 L471,365.7891 A3,3 0 0 0 468,368.7891" fill="#FEFFDD" style="stroke:#181818;stroke-width:0.5;"/><path d="M588,365.7891 L588,374.2891 A1.5,1.5 0 0 0 589.5,375.7891 L598,375.7891 L588,365.7891" fill="#FEFFDD" style="stroke:#181818;stroke-width:0.5;"/><text fill="#1F3A68" font-family="Arial" font-size="12" lengthAdjust="spacing" textLength="109.8516" x="474" y="382.0449">&#1054;&#1095;&#1080;&#1097;&#1072;&#1077;&#1090; &#1089;&#1089;&#1099;&#1083;&#1082;&#1091; &#1085;&#1072;</text><text fill="#1F3A68" font-family="Arial" font-size="12" lengthAdjust="spacing" textLength="85.3887" x="474" y="395.8438">&#1082;&#1086;&#1085;&#1090;&#1088;&#1072;&#1082;&#1090; &#1074; &#1054;&#1047;&#1059;</text><g class="message" data-entity-1="part3" data-entity-2="part3" data-source-line="23" id="msg6"><line style="stroke:#0969DA;stroke-width:1;" x1="360.2012" x2="402.2012" y1="425.8857" y2="425.8857"/><line style="stroke:#0969DA;stroke-width:1;" x1="402.2012" x2="402.2012" y1="425.8857" y2="438.8857"/><line style="stroke:#0969DA;stroke-width:1;" x1="361.2012" x2="402.2012" y1="438.8857" y2="438.8857"/><polygon fill="#0969DA" points="371.2012,434.8857,361.2012,438.8857,371.2012,442.8857,367.2012,438.8857" style="stroke:#0969DA;stroke-width:1;"/><text fill="#7286A5" font-family="Arial" font-size="10" lengthAdjust="spacing" textLength="128.9258" x="367.2012" y="421.7666">create_session() (new UUID)</text></g><g class="message" data-entity-1="part3" data-entity-2="part2" data-source-line="24" id="msg7"><polygon fill="#0969DA" points="205.6631,460.3848,195.6631,464.3848,205.6631,468.3848,201.6631,464.3848" style="stroke:#0969DA;stroke-width:1;"/><line style="stroke:#0969DA;stroke-width:1;stroke-dasharray:2,2;" x1="199.6631" x2="354.2012" y1="464.3848" y2="464.3848"/><text fill="#7286A5" font-family="Arial" font-size="10" lengthAdjust="spacing" textLength="71.9678" x="211.6631" y="460.2656">&#1089;&#1077;&#1089;&#1089;&#1080;&#1103; &#1089;&#1086;&#1079;&#1076;&#1072;&#1085;&#1072;</text></g><g class="message" data-entity-1="part2" data-entity-2="part5" data-source-line="27" id="msg8"><polygon fill="#0969DA" points="619.3438,485.8838,629.3438,489.8838,619.3438,493.8838,623.3438,489.8838" style="stroke:#0969DA;stroke-width:1;"/><line style="stroke:#0969DA;stroke-width:1;" x1="194.6631" x2="625.3438" y1="489.8838" y2="489.8838"/><text fill="#7286A5" font-family="Arial" font-size="10" lengthAdjust="spacing" textLength="42.2363" x="201.6631" y="485.7646">reset_ui()</text></g><g class="message" data-entity-1="part5" data-entity-2="part2" data-source-line="29" id="msg9"><polygon fill="#0969DA" points="205.6631,511.3828,195.6631,515.3828,205.6631,519.3828,201.6631,515.3828" style="stroke:#0969DA;stroke-width:1;"/><line style="stroke:#0969DA;stroke-width:1;stroke-dasharray:2,2;" x1="199.6631" x2="635.3438" y1="515.3828" y2="515.3828"/><text fill="#7286A5" font-family="Arial" font-size="10" lengthAdjust="spacing" textLength="48.4473" x="211.6631" y="511.2637">UI &#1086;&#1095;&#1080;&#1097;&#1077;&#1085;</text></g><g class="message" data-entity-1="part2" data-entity-2="part6" data-source-line="32" id="msg10"><polygon fill="#0969DA" points="721.8828,536.8818,731.8828,540.8818,721.8828,544.8818,725.8828,540.8818" style="stroke:#0969DA;stroke-width:1;"/><line style="stroke:#0969DA;stroke-width:1;" x1="194.6631" x2="727.8828" y1="540.8818" y2="540.8818"/><text fill="#7286A5" font-family="Arial" font-size="10" lengthAdjust="spacing" textLength="42.2363" x="201.6631" y="536.7627">reset_ui()</text></g><g class="message" data-entity-1="part6" data-entity-2="part2" data-source-line="34" id="msg11"><polygon fill="#0969DA" points="205.6631,562.3809,195.6631,566.3809,205.6631,570.3809,201.6631,566.3809" style="stroke:#0969DA;stroke-width:1;"/><line style="stroke:#0969DA;stroke-width:1;stroke-dasharray:2,2;" x1="199.6631" x2="737.8828" y1="566.3809" y2="566.3809"/><text fill="#7286A5" font-family="Arial" font-size="10" lengthAdjust="spacing" textLength="48.4473" x="211.6631" y="562.2617">UI &#1086;&#1095;&#1080;&#1097;&#1077;&#1085;</text></g><g class="message" data-entity-1="part2" data-entity-2="part2" data-source-line="37" id="msg12"><line style="stroke:#0969DA;stroke-width:1;" x1="194.6631" x2="236.6631" y1="591.8799" y2="591.8799"/><line style="stroke:#0969DA;stroke-width:1;" x1="236.6631" x2="236.6631" y1="591.8799" y2="604.8799"/><line style="stroke:#0969DA;stroke-width:1;" x1="195.6631" x2="236.6631" y1="604.8799" y2="604.8799"/><polygon fill="#0969DA" points="205.6631,600.8799,195.6631,604.8799,205.6631,608.8799,201.6631,604.8799" style="stroke:#0969DA;stroke-width:1;"/><text fill="#7286A5" font-family="Arial" font-size="10" lengthAdjust="spacing" textLength="131.5381" x="201.6631" y="587.7607">&#1086;&#1073;&#1085;&#1086;&#1074;&#1083;&#1103;&#1077;&#1090; &#1089;&#1090;&#1072;&#1090;&#1091;&#1089;&#1099; &#1085;&#1072; Setup</text></g><g class="message" data-entity-1="part2" data-entity-2="part1" data-source-line="38" id="msg13"><polygon fill="#0969DA" points="62.4883,626.3789,52.4883,630.3789,62.4883,634.3789,58.4883,630.3789" style="stroke:#0969DA;stroke-width:1;"/><line style="stroke:#0969DA;stroke-width:1;stroke-dasharray:2,2;" x1="56.4883" x2="188.6631" y1="630.3789" y2="630.3789"/><text fill="#7286A5" font-family="Arial" font-size="10" lengthAdjust="spacing" textLength="106.9141" x="68.4883" y="626.2598">&#1075;&#1086;&#1090;&#1086;&#1074; &#1082; &#1085;&#1086;&#1074;&#1086;&#1084;&#1091; &#1076;&#1077;&#1087;&#1083;&#1086;&#1102;</text></g><?plantuml-src ZLDDZz906BxFhnWvmK7sxi64u6KFUW7gnOGqPToTf9sIKjWhoyOOWt7zIanCN0_-WIvGHHRANtZd7_dCj4LgeZ4D_PXvtkTvvdbVxadb-UE1uCtcITyBWo1K9_6v24HJZWEViLZ6lk3qaTQKq59FST_YIZZjATENT4SfhIYZ1ILwXlSx_PfsPWTVwmUSlXHxrnpW5CkNjCP7dTxfkG7fgPxJJmxYbBv3PDjWpFNYCE8rUWlcBTPsAB5Ggv7fQOsx8zuQ15AneHl5qfD3LyMe-00_2VJWW5AEsyQyMlZZfrLiQpXiXogEGjyNKKxOhYASC9Rgh2EYYVI4HJYTF_JUGy0ehl1CSaSvLVUVG30NX5t6R1M__n0EEGBR0MM3m3FLCrvx8YvuHun6CbGr4usSkB4mnm6-hF92zLn6GNyWNJyygpUOWW8F9o8gMByY2zEQ7zLMsIxI2fyBY4qXl2faqQTRBA2Hh11gjK6an4L_b9k1oi4DeiDs2N8ZxrnEH0di6qlbknmScxDm-WmFU_Hugg-iDYnipFYOHjhfG7GPBPyfMXZ32NuRVGKOAbvOM5B8EntmHM8auae6Tfbkz4k8l3eS4DSSp9OAgOD-0vbTFcZ60JTwD_I9lXsVpei4Zlmx1Lv7ABpNEttKiB2o9vLvnoD3-2PTIB61E8wk3BXRck-FPINTBiFUWRXtYiakpfBIhaBMBScSlv5Xv9p_8tCEPFaCPNHh_rWBJCvrcU7C39E-CbdQ536gyNXewyoHx6oZTWcHcQdbjE45IqPR4_qAkdlJOVtcM1q3_Wi0?></g></svg>