<svg xmlns="http://www.w3.org/2000/svg" xmlns:xlink="http://www.w3.org/1999/xlink" contentStyleType="text/css" data-diagram-type="SEQUENCE" height="941px" preserveAspectRatio="none" style="width:958px;height:941px;background:#FFFFFF;" version="1.1" viewBox="0 0 958 941" width="958px" zoomAndPan="magnify"><?plantuml 1.2026.3?><defs/><g><g class="title" data-source-line="3"><text fill="#1F3A68" font-family="Arial" font-size="14" font-weight="700" lengthAdjust="spacing" textLength="474.5576" x="238.3306" y="28.1318">&#1044;&#1080;&#1072;&#1075;&#1088;&#1072;&#1084;&#1084;&#1072; &#1087;&#1086;&#1089;&#1083;&#1077;&#1076;&#1086;&#1074;&#1072;&#1090;&#1077;&#1083;&#1100;&#1085;&#1086;&#1089;&#1090;&#1080;: &#1057;&#1073;&#1088;&#1086;&#1089; &#1073;&#1083;&#1086;&#1082;&#1095;&#1077;&#1081;&#1085;&#1072; (&#1063;&#1080;&#1089;&#1090;&#1099;&#1081; &#1088;&#1077;&#1078;&#1080;&#1084;)</text></g><g><title>....... ....</title><rect fill="#F4F7FB" height="700.373" style="stroke:#181818;stroke-width:1;" width="10" x="260.3076" y="143.3965"/></g><g><title>ResetBlockchainWorker</title><rect fill="#F4F7FB" height="460.7813" style="stroke:#181818;stroke-width:1;" width="10" x="487.5938" y="280.4912"/></g><g><title>AppController</title><rect fill="#F4F7FB" height="409.7832" style="stroke:#181818;stroke-width:1;" width="10" x="623.3223" y="305.9902"/></g><g><title>GethManager</title><rect fill="#F4F7FB" height="73.0967" style="stroke:#181818;stroke-width:1;" width="10" x="798.499" y="331.4893"/></g><g><title>GethManager</title><rect fill="#F4F7FB" height="25.499" style="stroke:#181818;stroke-width:1;" width="10" x="798.499" y="575.2783"/></g><g><title>Web3Provider</title><rect fill="#F4F7FB" height="25.499" style="stroke:#181818;stroke-width:1;" width="10" x="897.2031" y="626.2764"/></g><g class="participant-lifeline" data-entity-uid="part1" data-qualified-name="Admin" data-source-line="5" id="part1-lifeline"><g><title>.............</title><rect fill="#000000" fill-opacity="0.00000" height="745.8721" width="8" x="47.4883" y="115.8975"/><line style="stroke:#C4D3E8;stroke-width:0.5;stroke-dasharray:5,5;" x1="51" x2="51" y1="115.8975" y2="861.7695"/></g></g><g class="participant-lifeline" data-entity-uid="part2" data-qualified-name="MW" data-source-line="6" id="part2-lifeline"><g><title>....... ....</title><rect fill="#000000" fill-opacity="0.00000" height="745.8721" width="8" x="261.3076" y="115.8975"/><line style="stroke:#C4D3E8;stroke-width:0.5;stroke-dasharray:5,5;" x1="264.7666" x2="264.7666" y1="115.8975" y2="861.7695"/></g></g><g class="participant-lifeline" data-entity-uid="part3" data-qualified-name="Worker" data-source-line="7" id="part3-lifeline"><g><title>ResetBlockchainWorker</title><rect fill="#000000" fill-opacity="0.00000" height="745.8721" width="8" x="488.5938" y="115.8975"/><line style="stroke:#C4D3E8;stroke-width:0.5;stroke-dasharray:5,5;" x1="492.5713" x2="492.5713" y1="115.8975" y2="861.7695"/></g></g><g class="participant-lifeline" data-entity-uid="part4" data-qualified-name="AC" data-source-line="8" id="part4-lifeline"><g><title>AppController</title><rect fill="#000000" fill-opacity="0.00000" height="745.8721" width="8" x="624.3223" y="115.8975"/><line style="stroke:#C4D3E8;stroke-width:0.5;stroke-dasharray:5,5;" x1="627.6367" x2="627.6367" y1="115.8975" y2="861.7695"/></g></g><g class="participant-lifeline" data-entity-uid="part5" data-qualified-name="GM" data-source-line="9" id="part5-lifeline"><g><title>GethManager</title><rect fill="#000000" fill-opacity="0.00000" height="745.8721" width="8" x="799.499" y="115.8975"/><line style="stroke:#C4D3E8;stroke-width:0.5;stroke-dasharray:5,5;" x1="802.8105" x2="802.8105" y1="115.8975" y2="861.7695"/></g></g><g class="participant-lifeline" data-entity-uid="part6" data-qualified-name="WP" data-source-line="10" id="part6-lifeline"><g><title>Web3Provider</title><rect fill="#000000" fill-opacity="0.00000" height="745.8721" width="8" x="898.2031" y="115.8975"/><line style="stroke:#C4D3E8;stroke-width:0.5;stroke-dasharray:5,5;" x1="902.1875" x2="902.1875" y1="115.8975" y2="861.7695"/></g></g><g class="participant participant-head" data-entity-uid="part1" data-qualified-name="Admin" data-source-line="5" id="part1-head"><text fill="#1F3A68" font-family="Arial" font-size="12" lengthAdjust="spacing" textLength="86.9766" x="5" y="113.3545">&#1040;&#1076;&#1084;&#1080;&#1085;&#1080;&#1089;&#1090;&#1088;&#1072;&#1090;&#1086;&#1088;</text><ellipse cx="51.4883" cy="50.5986" fill="#E2E2F0" rx="8" ry="8" style="stroke:#181818;stroke-width:0.5;"/><path d="M51.4883,58.5986 L51.4883,85.5986 M38.4883,66.5986 L64.4883,66.5986 M51.4883,85.5986 L38.4883,100.5986 M51.4883,85.5986 L64.4883,100.5986" fill="none" style="stroke:#181818;stroke-width:0.5;"/></g><g class="participant participant-tail" data-entity-uid="part1" data-qualified-name="Admin" data-source-line="5" id="part1-tail"><text fill="#1F3A68" font-family="Arial" font-size="12" lengthAdjust="spacing" textLength="86.9766" x="5" y="872.0254">&#1040;&#1076;&#1084;&#1080;&#1085;&#1080;&#1089;&#1090;&#1088;&#1072;&#1090;&#1086;&#1088;</text><ellipse cx="51.4883" cy="883.0684" fill="#E2E2F0" rx="8" ry="8" style="stroke:#181818;stroke-width:0.5;"/><path d="M51.4883,891.0684 L51.4883,918.0684 M38.4883,899.0684 L64.4883,899.0684 M51.4883,918.0684 L38.4883,933.0684 M51.4883,918.0684 L64.4883,933.0684" fill="none" style="stroke:#181818;stroke-width:0.5;"/></g><g class="participant participant-head" data-entity-uid="part2" data-qualified-name="MW" data-source-line="6" id="part2-head"><rect fill="#E7EEF7" height="27.7988" rx="3" ry="3" style="stroke:#C4D3E8;stroke-width:0.5;" width="89.082" x="220.7666" y="87.0986"/><text fill="#1F3A68" font-family="Arial" font-size="12" lengthAdjust="spacing" textLength="75.082" x="227.7666" y="105.3545">&#1043;&#1083;&#1072;&#1074;&#1085;&#1086;&#1077; &#1086;&#1082;&#1085;&#1086;</text></g><g class="participant participant-tail" data-entity-uid="part2" data-qualified-name="MW" data-source-line="6" id="part2-tail"><rect fill="#E7EEF7" height="27.7988" rx="3" ry="3" style="stroke:#C4D3E8;stroke-width:0.5;" width="89.082" x="220.7666" y="860.7695"/><text fill="#1F3A68" font-family="Arial" font-size="12" lengthAdjust="spacing" textLength="75.082" x="227.7666" y="879.0254">&#1043;&#1083;&#1072;&#1074;&#1085;&#1086;&#1077; &#1086;&#1082;&#1085;&#1086;</text></g><g class="participant participant-head" data-entity-uid="part3" data-qualified-name="Worker" data-source-line="7" id="part3-head"><rect fill="#E7EEF7" height="27.7988" rx="3" ry="3" style="stroke:#C4D3E8;stroke-width:0.5;" width="142.0449" x="421.5713" y="87.0986"/><text fill="#1F3A68" font-family="Arial" font-size="12" lengthAdjust="spacing" textLength="128.0449" x="428.5713" y="105.3545">ResetBlockchainWorker</text></g><g class="participant participant-tail" data-entity-uid="part3" data-qualified-name="Worker" data-source-line="7" id="part3-tail"><rect fill="#E7EEF7" height="27.7988" rx="3" ry="3" style="stroke:#C4D3E8;stroke-width:0.5;" width="142.0449" x="421.5713" y="860.7695"/><text fill="#1F3A68" font-family="Arial" font-size="12" lengthAdjust="spacing" textLength="128.0449" x="428.5713" y="879.0254">ResetBlockchainWorker</text></g><g class="participant participant-head" data-entity-uid="part4" data-qualified-name="AC" data-source-line="8" id="part4-head"><rect fill="#E7EEF7" height="27.7988" rx="3" ry="3" style="stroke:#C4D3E8;stroke-width:0.5;" width="87.3711" x="584.6367" y="87.0986"/><text fill="#1F3A68" font-family="Arial" font-size="12" lengthAdjust="spacing" textLength="73.3711" x="591.6367" y="105.3545">AppController</text></g><g class="participant participant-tail" data-entity-uid="part4" data-qualified-name="AC" data-source-line="8" id="part4-tail"><rect fill="#E7EEF7" height="27.7988" rx="3" ry="3" style="stroke:#C4D3E8;stroke-width:0.5;" width="87.3711" x="584.6367" y="860.7695"/><text fill="#1F3A68" font-family="Arial" font-size="12" lengthAdjust="spacing" textLength="73.3711" x="591.6367" y="879.0254">AppController</text></g><g class="participant participant-head" data-entity-uid="part5" data-qualified-name="GM" data-source-line="9" id="part5-head"><rect fill="#E7EEF7" height="27.7988" rx="3" ry="3" style="stroke:#C4D3E8;stroke-width:0.5;" width="87.377" x="759.8105" y="87.0986"/><text fill="#1F3A68" font-family="Arial" font-size="12" lengthAdjust="spacing" textLength="73.377" x="766.8105" y="105.3545">GethManager</text></g><g class="participant participant-tail" data-entity-uid="part5" data-qualified-name="GM" data-source-line="9" id="part5-tail"><rect fill="#E7EEF7" height="27.7988" rx="3" ry="3" style="stroke:#C4D3E8;stroke-width:0.5;" width="87.377" x="759.8105" y="860.7695"/><text fill="#1F3A68" font-family="Arial" font-size="12" lengthAdjust="spacing" textLength="73.377" x="766.8105" y="879.0254">GethManager</text></g><g class="participant participant-head" data-entity-uid="part6" data-qualified-name="WP" data-source-line="10" id="part6-head"><rect fill="#E7EEF7" height="27.7988" rx="3" ry="3" style="stroke:#C4D3E8;stroke-width:0.5;" width="90.0313" x="857.1875" y="87.0986"/><text fill="#1F3A68" font-family="Arial" font-size="12" lengthAdjust="spacing" textLength="76.0313" x="864.1875" y="105.3545">Web3Provider</text></g><g class="participant participant-tail" data-entity-uid="part6" data-qualified-name="WP" data-source-line="10" id="part6-tail"><rect fill="#E7EEF7" height="27.7988" rx="3" ry="3" style="stroke:#C4D3E8;stroke-width:0.5;" width="90.0313" x="857.1875" y="860.7695"/><text fill="#1F3A68" font-family="Arial" font-size="12" lengthAdjust="spacing" textLength="76.0313" x="864.1875" y="879.0254">Web3Provider</text></g><g><title>....... ....</title><rect fill="#F4F7FB" height="700.373" style="stroke:#181818;stroke-width:1;" width="10" x="260.3076" y="143.3965"/></g><g><title>ResetBlockchainWorker</title><rect fill="#F4F7FB" height="460.7813" style="stroke:#181818;stroke-width:1;" width="10" x="487.5938" y="280.4912"/></g><g><title>AppController</title><rect fill="#F4F7FB" height="409.7832" style="stroke:#181818;stroke-width:1;" width="10" x="623.3223" y="305.9902"/></g><g><title>GethManager</title><rect fill="#F4F7FB" height="73.0967" style="stroke:#181818;stroke-width:1;" width="10" x="798.499" y="331.4893"/></g><g><title>GethManager</title><rect fill="#F4F7FB" height="25.499" style="stroke:#181818;stroke-width:1;" width="10" x="798.499" y="575.2783"/></g><g><title>Web3Provider</title><rect fill="#F4F7FB" height="25.499" style="stroke:#181818;stroke-width:1;" width="10" x="897.2031" y="626.2764"/></g><g class="message" data-entity-1="part1" data-entity-2="part2" data-source-line="12" id="msg1"><polygon fill="#0969DA" points="248.3076,139.3965,258.3076,143.3965,248.3076,147.3965,252.3076,143.3965" style="stroke:#0969DA;stroke-width:1;"/><line style="stroke:#0969DA;stroke-width:1;" x1="51.4883" x2="254.3076" y1="143.3965" y2="143.3965"/><text fill="#7286A5" font-family="Arial" font-size="10" lengthAdjust="spacing" textLength="133.0762" x="58.4883" y="139.2773">&#1085;&#1072;&#1078;&#1080;&#1084;&#1072;&#1077;&#1090; "Reset Blockchain"</text></g><g class="message" data-entity-1="part2" data-entity-2="part2" data-source-line="14" id="msg2"><line style="stroke:#0969DA;stroke-width:1;" x1="270.3076" x2="312.3076" y1="168.8955" y2="168.8955"/><line style="stroke:#0969DA;stroke-width:1;" x1="312.3076" x2="312.3076" y1="168.8955" y2="181.8955"/><line style="stroke:#0969DA;stroke-width:1;" x1="271.3076" x2="312.3076" y1="181.8955" y2="181.8955"/><polygon fill="#0969DA" points="281.3076,177.8955,271.3076,181.8955,281.3076,185.8955,277.3076,181.8955" style="stroke:#0969DA;stroke-width:1;"/><text fill="#7286A5" font-family="Arial" font-size="10" lengthAdjust="spacing" textLength="113.3838" x="277.3076" y="164.7764">show ResetChainDialog()</text></g><path d="M185,197.8955 L185,228.8955 A3,3 0 0 0 188,231.8955 L341,231.8955 A3,3 0 0 0 344,228.8955 L344,204.8955 L334,194.8955 L188,194.8955 A3,3 0 0 0 185,197.8955" fill="#FEFFDD" style="stroke:#181818;stroke-width:0.5;"/><path d="M334,194.8955 L334,203.3955 A1.5,1.5 0 0 0 335.5,204.8955 L344,204.8955 L334,194.8955" fill="#FEFFDD" style="stroke:#181818;stroke-width:0.5;"/><text fill="#1F3A68" font-family="Arial" font-size="12" lengthAdjust="spacing" textLength="138.082" x="191" y="211.1514">&#1055;&#1086;&#1076;&#1090;&#1074;&#1077;&#1088;&#1078;&#1076;&#1072;&#1077;&#1090; &#1091;&#1076;&#1072;&#1083;&#1077;&#1085;&#1080;&#1077;</text><text fill="#1F3A68" font-family="Arial" font-size="12" lengthAdjust="spacing" textLength="56.0391" x="191" y="224.9502">chain-data</text><g class="message" data-entity-1="part2" data-entity-2="part3" data-source-line="17" id="msg3"><polygon fill="#0969DA" points="480.5938,250.9922,490.5938,254.9922,480.5938,258.9922,484.5938,254.9922" style="stroke:#0969DA;stroke-width:1;"/><line style="stroke:#0969DA;stroke-width:1;" x1="270.3076" x2="486.5938" y1="254.9922" y2="254.9922"/><text fill="#7286A5" font-family="Arial" font-size="10" lengthAdjust="spacing" textLength="112.0068" x="277.3076" y="250.873">create(delete_logs=True)</text></g><g class="message" data-entity-1="part2" data-entity-2="part3" data-source-line="18" id="msg4"><polygon fill="#0969DA" points="475.5938,276.4912,485.5938,280.4912,475.5938,284.4912,479.5938,280.4912" style="stroke:#0969DA;stroke-width:1;"/><line style="stroke:#0969DA;stroke-width:1;" x1="270.3076" x2="481.5938" y1="280.4912" y2="280.4912"/><text fill="#7286A5" font-family="Arial" font-size="10" lengthAdjust="spacing" textLength="26.1084" x="277.3076" y="276.3721">start()</text></g><g class="message" data-entity-1="part3" data-entity-2="part4" data-source-line="21" id="msg5"><polygon fill="#0969DA" points="611.3223,301.9902,621.3223,305.9902,611.3223,309.9902,615.3223,305.9902" style="stroke:#0969DA;stroke-width:1;"/><line style="stroke:#0969DA;stroke-width:1;" x1="497.5938" x2="617.3223" y1="305.9902" y2="305.9902"/><text fill="#7286A5" font-family="Arial" font-size="10" lengthAdjust="spacing" textLength="106.7285" x="504.5938" y="301.8711">reset_blockchain_data()</text></g><g class="message" data-entity-1="part4" data-entity-2="part5" data-source-line="23" id="msg6"><polygon fill="#0969DA" points="786.499,327.4893,796.499,331.4893,786.499,335.4893,790.499,331.4893" style="stroke:#0969DA;stroke-width:1;"/><line style="stroke:#0969DA;stroke-width:1;" x1="633.3223" x2="792.499" y1="331.4893" y2="331.4893"/><text fill="#7286A5" font-family="Arial" font-size="10" lengthAdjust="spacing" textLength="25.5615" x="640.3223" y="327.3701">stop()</text></g><path d="M705,347.4893 L705,378.4893 A3,3 0 0 0 708,381.4893 L897,381.4893 A3,3 0 0 0 900,378.4893 L900,354.4893 L890,344.4893 L708,344.4893 A3,3 0 0 0 705,347.4893" fill="#FEFFDD" style="stroke:#181818;stroke-width:0.5;"/><path d="M890,344.4893 L890,352.9893 A1.5,1.5 0 0 0 891.5,354.4893 L900,354.4893 L890,344.4893" fill="#FEFFDD" style="stroke:#181818;stroke-width:0.5;"/><text fill="#1F3A68" font-family="Arial" font-size="12" lengthAdjust="spacing" textLength="174.7793" x="711" y="360.7451">&#1054;&#1089;&#1090;&#1072;&#1085;&#1072;&#1074;&#1083;&#1080;&#1074;&#1072;&#1077;&#1090; Geth &#1082;&#1086;&#1088;&#1088;&#1077;&#1082;&#1090;&#1085;&#1086;</text><text fill="#1F3A68" font-family="Arial" font-size="12" lengthAdjust="spacing" textLength="104.1445" x="711" y="374.5439">&#1080; &#1079;&#1072;&#1087;&#1091;&#1089;&#1082;&#1072;&#1077;&#1090; taskkill</text><g class="message" data-entity-1="part5" data-entity-2="part4" data-source-line="26" id="msg7"><polygon fill="#0969DA" points="644.3223,400.5859,634.3223,404.5859,644.3223,408.5859,640.3223,404.5859" style="stroke:#0969DA;stroke-width:1;"/><line style="stroke:#0969DA;stroke-width:1;stroke-dasharray:2,2;" x1="638.3223" x2="802.499" y1="404.5859" y2="404.5859"/><text fill="#7286A5" font-family="Arial" font-size="10" lengthAdjust="spacing" textLength="54.0186" x="650.3223" y="400.4668">&#1086;&#1089;&#1090;&#1072;&#1085;&#1086;&#1074;&#1083;&#1077;&#1085;</text></g><path d="M528,420.5859 L528,451.5859 A3,3 0 0 0 531,454.5859 L725,454.5859 A3,3 0 0 0 728,451.5859 L728,427.5859 L718,417.5859 L531,417.5859 A3,3 0 0 0 528,420.5859" fill="#FEFFDD" style="stroke:#181818;stroke-width:0.5;"/><path d="M718,417.5859 L718,426.0859 A1.5,1.5 0 0 0 719.5,427.5859 L728,427.5859 L718,417.5859" fill="#FEFFDD" style="stroke:#181818;stroke-width:0.5;"/><text fill="#1F3A68" font-family="Arial" font-size="12" lengthAdjust="spacing" textLength="141.0996" x="534" y="433.8418">&#1054;&#1078;&#1080;&#1076;&#1072;&#1085;&#1080;&#1077; 2 &#1089;&#1077;&#1082;&#1091;&#1085;&#1076;&#1099; &#1076;&#1083;&#1103;</text><text fill="#1F3A68" font-family="Arial" font-size="12" lengthAdjust="spacing" textLength="179.4492" x="534" y="447.6406">&#1086;&#1089;&#1074;&#1086;&#1073;&#1086;&#1078;&#1076;&#1077;&#1085;&#1080;&#1103; &#1092;&#1072;&#1081;&#1083;&#1086;&#1074; Windows</text><g class="message" data-entity-1="part4" data-entity-2="part4" data-source-line="31" id="msg8"><line style="stroke:#0969DA;stroke-width:1;" x1="633.3223" x2="675.3223" y1="489.1816" y2="489.1816"/><line style="stroke:#0969DA;stroke-width:1;" x1="675.3223" x2="675.3223" y1="489.1816" y2="502.1816"/><line style="stroke:#0969DA;stroke-width:1;" x1="634.3223" x2="675.3223" y1="502.1816" y2="502.1816"/><polygon fill="#0969DA" points="644.3223,498.1816,634.3223,502.1816,644.3223,506.1816,640.3223,502.1816" style="stroke:#0969DA;stroke-width:1;"/><text fill="#7286A5" font-family="Arial" font-size="10" lengthAdjust="spacing" textLength="94.3604" x="640.3223" y="473.5635">&#1091;&#1076;&#1072;&#1083;&#1103;&#1077;&#1090; &#1076;&#1080;&#1088;&#1077;&#1082;&#1090;&#1086;&#1088;&#1080;&#1080;</text><text fill="#7286A5" font-family="Arial" font-size="10" lengthAdjust="spacing" textLength="141.1768" x="640.3223" y="485.0625">(chain-data/active, logs/archive)</text></g><path d="M524,518.1816 L524,549.1816 A3,3 0 0 0 527,552.1816 L728,552.1816 A3,3 0 0 0 731,549.1816 L731,525.1816 L721,515.1816 L527,515.1816 A3,3 0 0 0 524,518.1816" fill="#FEFFDD" style="stroke:#181818;stroke-width:0.5;"/><path d="M721,515.1816 L721,523.6816 A1.5,1.5 0 0 0 722.5,525.1816 L731,525.1816 L721,515.1816" fill="#FEFFDD" style="stroke:#181818;stroke-width:0.5;"/><text fill="#1F3A68" font-family="Arial" font-size="12" lengthAdjust="spacing" textLength="161.4141" x="530" y="531.4375">&#1048;&#1089;&#1087;&#1086;&#1083;&#1100;&#1079;&#1091;&#1077;&#1090; rmtree_with_retry</text><text fill="#1F3A68" font-family="Arial" font-size="12" lengthAdjust="spacing" textLength="186.2988" x="530" y="545.2363">&#1076;&#1083;&#1103; &#1087;&#1088;&#1077;&#1076;&#1086;&#1090;&#1074;&#1088;&#1072;&#1097;&#1077;&#1085;&#1080;&#1103; WinError 32</text><g class="message" data-entity-1="part4" data-entity-2="part5" data-source-line="34" id="msg9"><polygon fill="#0969DA" points="786.499,571.2783,796.499,575.2783,786.499,579.2783,790.499,575.2783" style="stroke:#0969DA;stroke-width:1;"/><line style="stroke:#0969DA;stroke-width:1;" x1="633.3223" x2="792.499" y1="575.2783" y2="575.2783"/><text fill="#7286A5" font-family="Arial" font-size="10" lengthAdjust="spacing" textLength="26.1084" x="640.3223" y="571.1592">start()</text></g><g class="message" data-entity-1="part5" data-entity-2="part4" data-source-line="36" id="msg10"><polygon fill="#0969DA" points="644.3223,596.7773,634.3223,600.7773,644.3223,604.7773,640.3223,600.7773" style="stroke:#0969DA;stroke-width:1;"/><line style="stroke:#0969DA;stroke-width:1;stroke-dasharray:2,2;" x1="638.3223" x2="802.499" y1="600.7773" y2="600.7773"/><text fill="#7286A5" font-family="Arial" font-size="10" lengthAdjust="spacing" textLength="39.873" x="650.3223" y="596.6582">&#1079;&#1072;&#1087;&#1091;&#1097;&#1077;&#1085;</text></g><g class="message" data-entity-1="part4" data-entity-2="part6" data-source-line="39" id="msg11"><polygon fill="#0969DA" points="885.2031,622.2764,895.2031,626.2764,885.2031,630.2764,889.2031,626.2764" style="stroke:#0969DA;stroke-width:1;"/><line style="stroke:#0969DA;stroke-width:1;" x1="633.3223" x2="891.2031" y1="626.2764" y2="626.2764"/><text fill="#7286A5" font-family="Arial" font-size="10" lengthAdjust="spacing" textLength="41.6846" x="640.3223" y="622.1572">connect()</text></g><g class="message" data-entity-1="part6" data-entity-2="part4" data-source-line="41" id="msg12"><polygon fill="#0969DA" points="644.3223,647.7754,634.3223,651.7754,644.3223,655.7754,640.3223,651.7754" style="stroke:#0969DA;stroke-width:1;"/><line style="stroke:#0969DA;stroke-width:1;stroke-dasharray:2,2;" x1="638.3223" x2="901.2031" y1="651.7754" y2="651.7754"/><text fill="#7286A5" font-family="Arial" font-size="10" lengthAdjust="spacing" textLength="50.8154" x="650.3223" y="647.6563">&#1087;&#1086;&#1076;&#1082;&#1083;&#1102;&#1095;&#1077;&#1085;</text></g><g class="message" data-entity-1="part4" data-entity-2="part4" data-source-line="44" id="msg13"><line style="stroke:#0969DA;stroke-width:1;" x1="633.3223" x2="675.3223" y1="677.2744" y2="677.2744"/><line style="stroke:#0969DA;stroke-width:1;" x1="675.3223" x2="675.3223" y1="677.2744" y2="690.2744"/><line style="stroke:#0969DA;stroke-width:1;" x1="634.3223" x2="675.3223" y1="690.2744" y2="690.2744"/><polygon fill="#0969DA" points="644.3223,686.2744,634.3223,690.2744,644.3223,694.2744,640.3223,690.2744" style="stroke:#0969DA;stroke-width:1;"/><text fill="#7286A5" font-family="Arial" font-size="10" lengthAdjust="spacing" textLength="64.4727" x="640.3223" y="673.1553">new_session()</text></g><g class="message" data-entity-1="part4" data-entity-2="part3" data-source-line="45" id="msg14"><polygon fill="#0969DA" points="508.5938,711.7734,498.5938,715.7734,508.5938,719.7734,504.5938,715.7734" style="stroke:#0969DA;stroke-width:1;"/><line style="stroke:#0969DA;stroke-width:1;stroke-dasharray:2,2;" x1="502.5938" x2="627.3223" y1="715.7734" y2="715.7734"/><text fill="#7286A5" font-family="Arial" font-size="10" lengthAdjust="spacing" textLength="25.9766" x="514.5938" y="711.6543">&#1091;&#1089;&#1087;&#1077;&#1093;</text></g><g class="message" data-entity-1="part3" data-entity-2="part2" data-source-line="48" id="msg15"><polygon fill="#0969DA" points="281.3076,737.2725,271.3076,741.2725,281.3076,745.2725,277.3076,741.2725" style="stroke:#0969DA;stroke-width:1;"/><line style="stroke:#0969DA;stroke-width:1;stroke-dasharray:2,2;" x1="275.3076" x2="491.5938" y1="741.2725" y2="741.2725"/><text fill="#7286A5" font-family="Arial" font-size="10" lengthAdjust="spacing" textLength="83.3594" x="287.3076" y="737.1533">finished.emit(True)</text></g><g class="message" data-entity-1="part2" data-entity-2="part2" data-source-line="50" id="msg16"><line style="stroke:#0969DA;stroke-width:1;" x1="270.3076" x2="312.3076" y1="766.7715" y2="766.7715"/><line style="stroke:#0969DA;stroke-width:1;" x1="312.3076" x2="312.3076" y1="766.7715" y2="779.7715"/><line style="stroke:#0969DA;stroke-width:1;" x1="271.3076" x2="312.3076" y1="779.7715" y2="779.7715"/><polygon fill="#0969DA" points="281.3076,775.7715,271.3076,779.7715,281.3076,783.7715,277.3076,779.7715" style="stroke:#0969DA;stroke-width:1;"/><text fill="#7286A5" font-family="Arial" font-size="10" lengthAdjust="spacing" textLength="82.2656" x="277.3076" y="762.6523">reset_ui_all_tabs()</text></g><g class="message" data-entity-1="part2" data-entity-2="part2" data-source-line="51" id="msg17"><line style="stroke:#0969DA;stroke-width:1;" x1="270.3076" x2="312.3076" y1="805.2705" y2="805.2705"/><line style="stroke:#0969DA;stroke-width:1;" x1="312.3076" x2="312.3076" y1="805.2705" y2="818.2705"/><line style="stroke:#0969DA;stroke-width:1;" x1="271.3076" x2="312.3076" y1="818.2705" y2="818.2705"/><polygon fill="#0969DA" points="281.3076,814.2705,271.3076,818.2705,281.3076,822.2705,277.3076,818.2705" style="stroke:#0969DA;stroke-width:1;"/><text fill="#7286A5" font-family="Arial" font-size="10" lengthAdjust="spacing" textLength="193.2861" x="277.3076" y="801.1514">show Toast("Blockchain Reset Successful")</text></g><g class="message" data-entity-1="part2" data-entity-2="part1" data-source-line="52" id="msg18"><polygon fill="#0969DA" points="62.4883,839.7695,52.4883,843.7695,62.4883,847.7695,58.4883,843.7695" style="stroke:#0969DA;stroke-width:1;"/><line style="stroke:#0969DA;stroke-width:1;stroke-dasharray:2,2;" x1="56.4883" x2="264.3076" y1="843.7695" y2="843.7695"/><text fill="#7286A5" font-family="Arial" font-size="10" lengthAdjust="spacing" textLength="184.8193" x="68.4883" y="839.6504">&#1086;&#1090;&#1088;&#1080;&#1089;&#1086;&#1074;&#1099;&#1074;&#1072;&#1077;&#1090; &#1085;&#1072;&#1095;&#1072;&#1083;&#1100;&#1085;&#1091;&#1102; &#1089;&#1090;&#1072;&#1076;&#1080;&#1102; Setup</text></g><?plantuml-src RLJ1Rjf04BtxAxQSG6f0IcwLMedIAYSar4JY4ibox4rOONRHUWdgZIQjgYXLKgazz9IgfruT2Wq92Vc5zH_rxTg0dLGen6RVphnvysQUCUw7Wu2IQhNc-gBN4xocEhH7gspG2nr7CHLIeh_hcOxrdsI4xpjyOg8Vz2BveETwgYTweSSwJexnF4--w7jpWhVP2w9_wIjSmZlHLm0lz6to6R0RW69Irh_rp42JCtr3W9lglqXqLt4SprT2afB-YkXt-Eq-0uvidaKoAX4l8lMWnxZJzwHYFkjxNE76DwI9mGSiz9IOZERHmflj8lOTZQXw7Gg_wtSynjj2TgcqoFInYAxt-mt1bHHXcA7gZI9YcwfEq-FUONQ-tIoUj-d-LakA8nOiqxGSnzP0Dbw17O5Wq2KL0V-doN56agnPbemsxCXJrDI3IykhKKSCYKKt3EuDyq9nMAuuN00gZgZCClo49XE8E4Ry4N9Diap9YNqq7ONQUhh7RRwDm5EUaoLATK4KNr8mA0Sqf8gwI1Izt9K3MdcCYnG408aLvqnP9qC0Msy09mrlTtzLfMkovkz1Qm01tsxQiAAVFuNIwp8jGbzQ3yPMq36gcXcFsa9DcmXi0HTPpzq21uliSJqZ-XgWX-G4rhxDuCgBkbqMXWxYRYpvPXQFhSt6gMXEGFE4SepIAvUsiHDx2VgIJO8i9lq9VfWaPmHdy-G2FCnaZH7u2d-cGROZoGL9FkBoZPsZCMap7eXXv6Iws1pB7YONbZfUPgiIKIxIplPuUTtNcYLCdnFJmPed_GxUAa-O_m0VpBkTxclaCB5bJqbAtI5J7LTI9T-3j-MFrM1pOYqObzcHFLsL0DPlfSHiRsqwnOu-CWeKB0Y-RCpf_wHE0xLRnfc2S-eNFTToSBGEPKgPeB_pvDnkeq8uEvDhHJaTkX6D8YOuGfg3lBsjKHwWnwTy27XrvU_bT1umpg8E3QgqnrGvdPLyrdGiSkESJiI0kLuOkihRZygL9zE-Axn8bKlhvP3EFzaP-3uu7mp2Kdh9L6FtZ7MkMQDOfyP5sBpBiJ2J0ZdYT8UZidEIUTouw9piK3NevpbZ_Vm3?></g></svg>