<svg xmlns="http://www.w3.org/2000/svg" xmlns:xlink="http://www.w3.org/1999/xlink" contentStyleType="text/css" data-diagram-type="SEQUENCE" height="941px" preserveAspectRatio="none" style="width:879px;height:941px;background:#FFFFFF;" version="1.1" viewBox="0 0 879 941" width="879px" zoomAndPan="magnify"><?plantuml 1.2026.3?><defs/><g><g class="title" data-source-line="3"><text fill="#1F3A68" font-family="Arial" font-size="14" font-weight="700" lengthAdjust="spacing" textLength="346.9785" x="262.6157" y="28.1318">Sequence Diagram - Reset Blockchain (Clean Mode)</text></g><g><title>MainWindow</title><rect fill="#F4F7FB" height="700.373" style="stroke:#181818;stroke-width:1;" width="10" x="181.2988" y="143.3965"/></g><g><title>ResetBlockchainWorker</title><rect fill="#F4F7FB" height="460.7813" style="stroke:#181818;stroke-width:1;" width="10" x="408.585" y="280.4912"/></g><g><title>AppController</title><rect fill="#F4F7FB" height="409.7832" style="stroke:#181818;stroke-width:1;" width="10" x="544.3135" y="305.9902"/></g><g><title>GethManager</title><rect fill="#F4F7FB" height="73.0967" style="stroke:#181818;stroke-width:1;" width="10" x="719.4902" y="331.4893"/></g><g><title>GethManager</title><rect fill="#F4F7FB" height="25.499" style="stroke:#181818;stroke-width:1;" width="10" x="719.4902" y="575.2783"/></g><g><title>Web3Provider</title><rect fill="#F4F7FB" height="25.499" style="stroke:#181818;stroke-width:1;" width="10" x="818.1943" y="626.2764"/></g><g class="participant-lifeline" data-entity-uid="part1" data-qualified-name="Admin" data-source-line="5" id="part1-lifeline"><g><title>Administrator</title><rect fill="#000000" fill-opacity="0.00000" height="745.8721" width="8" x="39.3438" y="115.8975"/><line style="stroke:#C4D3E8;stroke-width:0.5;stroke-dasharray:5,5;" x1="43" x2="43" y1="115.8975" y2="861.7695"/></g></g><g class="participant-lifeline" data-entity-uid="part2" data-qualified-name="MW" data-source-line="6" id="part2-lifeline"><g><title>MainWindow</title><rect fill="#000000" fill-opacity="0.00000" height="745.8721" width="8" x="182.2988" y="115.8975"/><line style="stroke:#C4D3E8;stroke-width:0.5;stroke-dasharray:5,5;" x1="185.9541" x2="185.9541" y1="115.8975" y2="861.7695"/></g></g><g class="participant-lifeline" data-entity-uid="part3" data-qualified-name="Worker" data-source-line="7" id="part3-lifeline"><g><title>ResetBlockchainWorker</title><rect fill="#000000" fill-opacity="0.00000" height="745.8721" width="8" x="409.585" y="115.8975"/><line style="stroke:#C4D3E8;stroke-width:0.5;stroke-dasharray:5,5;" x1="413.5625" x2="413.5625" y1="115.8975" y2="861.7695"/></g></g><g class="participant-lifeline" data-entity-uid="part4" data-qualified-name="AC" data-source-line="8" id="part4-lifeline"><g><title>AppController</title><rect fill="#000000" fill-opacity="0.00000" height="745.8721" width="8" x="545.3135" y="115.8975"/><line style="stroke:#C4D3E8;stroke-width:0.5;stroke-dasharray:5,5;" x1="548.6279" x2="548.6279" y1="115.8975" y2="861.7695"/></g></g><g class="participant-lifeline" data-entity-uid="part5" data-qualified-name="GM" data-source-line="9" id="part5-lifeline"><g><title>GethManager</title><rect fill="#000000" fill-opacity="0.00000" height="745.8721" width="8" x="720.4902" y="115.8975"/><line style="stroke:#C4D3E8;stroke-width:0.5;stroke-dasharray:5,5;" x1="723.8018" x2="723.8018" y1="115.8975" y2="861.7695"/></g></g><g class="participant-lifeline" data-entity-uid="part6" data-qualified-name="WP" data-source-line="10" id="part6-lifeline"><g><title>Web3Provider</title><rect fill="#000000" fill-opacity="0.00000" height="745.8721" width="8" x="819.1943" y="115.8975"/><line style="stroke:#C4D3E8;stroke-width:0.5;stroke-dasharray:5,5;" x1="823.1787" x2="823.1787" y1="115.8975" y2="861.7695"/></g></g><g class="participant participant-head" data-entity-uid="part1" data-qualified-name="Admin" data-source-line="5" id="part1-head"><text fill="#1F3A68" font-family="Arial" font-size="12" lengthAdjust="spacing" textLength="70.6875" x="5" y="113.3545">Administrator</text><ellipse cx="43.3438" cy="50.5986" fill="#E2E2F0" rx="8" ry="8" style="stroke:#181818;stroke-width:0.5;"/><path d="M43.3438,58.5986 L43.3438,85.5986 M30.3438,66.5986 L56.3438,66.5986 M43.3438,85.5986 L30.3438,100.5986 M43.3438,85.5986 L56.3438,100.5986" fill="none" style="stroke:#181818;stroke-width:0.5;"/></g><g class="participant participant-tail" data-entity-uid="part1" data-qualified-name="Admin" data-source-line="5" id="part1-tail"><text fill="#1F3A68" font-family="Arial" font-size="12" lengthAdjust="spacing" textLength="70.6875" x="5" y="872.0254">Administrator</text><ellipse cx="43.3438" cy="883.0684" fill="#E2E2F0" rx="8" ry="8" style="stroke:#181818;stroke-width:0.5;"/><path d="M43.3438,891.0684 L43.3438,918.0684 M30.3438,899.0684 L56.3438,899.0684 M43.3438,918.0684 L30.3438,933.0684 M43.3438,918.0684 L56.3438,933.0684" fill="none" style="stroke:#181818;stroke-width:0.5;"/></g><g class="participant participant-head" data-entity-uid="part2" data-qualified-name="MW" data-source-line="6" id="part2-head"><rect fill="#E7EEF7" height="27.7988" rx="3" ry="3" style="stroke:#C4D3E8;stroke-width:0.5;" width="82.6895" x="144.9541" y="87.0986"/><text fill="#1F3A68" font-family="Arial" font-size="12" lengthAdjust="spacing" textLength="68.6895" x="151.9541" y="105.3545">MainWindow</text></g><g class="participant participant-tail" data-entity-uid="part2" data-qualified-name="MW" data-source-line="6" id="part2-tail"><rect fill="#E7EEF7" height="27.7988" rx="3" ry="3" style="stroke:#C4D3E8;stroke-width:0.5;" width="82.6895" x="144.9541" y="860.7695"/><text fill="#1F3A68" font-family="Arial" font-size="12" lengthAdjust="spacing" textLength="68.6895" x="151.9541" y="879.0254">MainWindow</text></g><g class="participant participant-head" data-entity-uid="part3" data-qualified-name="Worker" data-source-line="7" id="part3-head"><rect fill="#E7EEF7" height="27.7988" rx="3" ry="3" style="stroke:#C4D3E8;stroke-width:0.5;" width="142.0449" x="342.5625" y="87.0986"/><text fill="#1F3A68" font-family="Arial" font-size="12" lengthAdjust="spacing" textLength="128.0449" x="349.5625" y="105.3545">ResetBlockchainWorker</text></g><g class="participant participant-tail" data-entity-uid="part3" data-qualified-name="Worker" data-source-line="7" id="part3-tail"><rect fill="#E7EEF7" height="27.7988" rx="3" ry="3" style="stroke:#C4D3E8;stroke-width:0.5;" width="142.0449" x="342.5625" y="860.7695"/><text fill="#1F3A68" font-family="Arial" font-size="12" lengthAdjust="spacing" textLength="128.0449" x="349.5625" y="879.0254">ResetBlockchainWorker</text></g><g class="participant participant-head" data-entity-uid="part4" data-qualified-name="AC" data-source-line="8" id="part4-head"><rect fill="#E7EEF7" height="27.7988" rx="3" ry="3" style="stroke:#C4D3E8;stroke-width:0.5;" width="87.3711" x="505.6279" y="87.0986"/><text fill="#1F3A68" font-family="Arial" font-size="12" lengthAdjust="spacing" textLength="73.3711" x="512.6279" y="105.3545">AppController</text></g><g class="participant participant-tail" data-entity-uid="part4" data-qualified-name="AC" data-source-line="8" id="part4-tail"><rect fill="#E7EEF7" height="27.7988" rx="3" ry="3" style="stroke:#C4D3E8;stroke-width:0.5;" width="87.3711" x="505.6279" y="860.7695"/><text fill="#1F3A68" font-family="Arial" font-size="12" lengthAdjust="spacing" textLength="73.3711" x="512.6279" y="879.0254">AppController</text></g><g class="participant participant-head" data-entity-uid="part5" data-qualified-name="GM" data-source-line="9" id="part5-head"><rect fill="#E7EEF7" height="27.7988" rx="3" ry="3" style="stroke:#C4D3E8;stroke-width:0.5;" width="87.377" x="680.8018" y="87.0986"/><text fill="#1F3A68" font-family="Arial" font-size="12" lengthAdjust="spacing" textLength="73.377" x="687.8018" y="105.3545">GethManager</text></g><g class="participant participant-tail" data-entity-uid="part5" data-qualified-name="GM" data-source-line="9" id="part5-tail"><rect fill="#E7EEF7" height="27.7988" rx="3" ry="3" style="stroke:#C4D3E8;stroke-width:0.5;" width="87.377" x="680.8018" y="860.7695"/><text fill="#1F3A68" font-family="Arial" font-size="12" lengthAdjust="spacing" textLength="73.377" x="687.8018" y="879.0254">GethManager</text></g><g class="participant participant-head" data-entity-uid="part6" data-qualified-name="WP" data-source-line="10" id="part6-head"><rect fill="#E7EEF7" height="27.7988" rx="3" ry="3" style="stroke:#C4D3E8;stroke-width:0.5;" width="90.0313" x="778.1787" y="87.0986"/><text fill="#1F3A68" font-family="Arial" font-size="12" lengthAdjust="spacing" textLength="76.0313" x="785.1787" y="105.3545">Web3Provider</text></g><g class="participant participant-tail" data-entity-uid="part6" data-qualified-name="WP" data-source-line="10" id="part6-tail"><rect fill="#E7EEF7" height="27.7988" rx="3" ry="3" style="stroke:#C4D3E8;stroke-width:0.5;" width="90.0313" x="778.1787" y="860.7695"/><text fill="#1F3A68" font-family="Arial" font-size="12" lengthAdjust="spacing" textLength="76.0313" x="785.1787" y="879.0254">Web3Provider</text></g><g><title>MainWindow</title><rect fill="#F4F7FB" height="700.373" style="stroke:#181818;stroke-width:1;" width="10" x="181.2988" y="143.3965"/></g><g><title>ResetBlockchainWorker</title><rect fill="#F4F7FB" height="460.7813" style="stroke:#181818;stroke-width:1;" width="10" x="408.585" y="280.4912"/></g><g><title>AppController</title><rect fill="#F4F7FB" height="409.7832" style="stroke:#181818;stroke-width:1;" width="10" x="544.3135" y="305.9902"/></g><g><title>GethManager</title><rect fill="#F4F7FB" height="73.0967" style="stroke:#181818;stroke-width:1;" width="10" x="719.4902" y="331.4893"/></g><g><title>GethManager</title><rect fill="#F4F7FB" height="25.499" style="stroke:#181818;stroke-width:1;" width="10" x="719.4902" y="575.2783"/></g><g><title>Web3Provider</title><rect fill="#F4F7FB" height="25.499" style="stroke:#181818;stroke-width:1;" width="10" x="818.1943" y="626.2764"/></g><g class="message" data-entity-1="part1" data-entity-2="part2" data-source-line="12" id="msg1"><polygon fill="#0969DA" points="169.2988,139.3965,179.2988,143.3965,169.2988,147.3965,173.2988,143.3965" style="stroke:#0969DA;stroke-width:1;"/><line style="stroke:#0969DA;stroke-width:1;" x1="43.3438" x2="175.2988" y1="143.3965" y2="143.3965"/><text fill="#7286A5" font-family="Arial" font-size="10" lengthAdjust="spacing" textLength="106.582" x="50.3438" y="139.2773">click "Reset Blockchain"</text></g><g class="message" data-entity-1="part2" data-entity-2="part2" data-source-line="14" id="msg2"><line style="stroke:#0969DA;stroke-width:1;" x1="191.2988" x2="233.2988" y1="168.8955" y2="168.8955"/><line style="stroke:#0969DA;stroke-width:1;" x1="233.2988" x2="233.2988" y1="168.8955" y2="181.8955"/><line style="stroke:#0969DA;stroke-width:1;" x1="192.2988" x2="233.2988" y1="181.8955" y2="181.8955"/><polygon fill="#0969DA" points="202.2988,177.8955,192.2988,181.8955,202.2988,185.8955,198.2988,181.8955" style="stroke:#0969DA;stroke-width:1;"/><text fill="#7286A5" font-family="Arial" font-size="10" lengthAdjust="spacing" textLength="113.3838" x="198.2988" y="164.7764">show ResetChainDialog()</text></g><path d="M129,197.8955 L129,228.8955 A3,3 0 0 0 132,231.8955 L240,231.8955 A3,3 0 0 0 243,228.8955 L243,204.8955 L233,194.8955 L132,194.8955 A3,3 0 0 0 129,197.8955" fill="#FEFFDD" style="stroke:#181818;stroke-width:0.5;"/><path d="M233,194.8955 L233,203.3955 A1.5,1.5 0 0 0 234.5,204.8955 L243,204.8955 L233,194.8955" fill="#FEFFDD" style="stroke:#181818;stroke-width:0.5;"/><text fill="#1F3A68" font-family="Arial" font-size="12" lengthAdjust="spacing" textLength="93.375" x="135" y="211.1514">Confirms deletion</text><text fill="#1F3A68" font-family="Arial" font-size="12" lengthAdjust="spacing" textLength="69.3809" x="135" y="224.9502">of chain-data</text><g class="message" data-entity-1="part2" data-entity-2="part3" data-source-line="17" id="msg3"><polygon fill="#0969DA" points="401.585,250.9922,411.585,254.9922,401.585,258.9922,405.585,254.9922" style="stroke:#0969DA;stroke-width:1;"/><line style="stroke:#0969DA;stroke-width:1;" x1="191.2988" x2="407.585" y1="254.9922" y2="254.9922"/><text fill="#7286A5" font-family="Arial" font-size="10" lengthAdjust="spacing" textLength="112.0068" x="198.2988" y="250.873">create(delete_logs=True)</text></g><g class="message" data-entity-1="part2" data-entity-2="part3" data-source-line="18" id="msg4"><polygon fill="#0969DA" points="396.585,276.4912,406.585,280.4912,396.585,284.4912,400.585,280.4912" style="stroke:#0969DA;stroke-width:1;"/><line style="stroke:#0969DA;stroke-width:1;" x1="191.2988" x2="402.585" y1="280.4912" y2="280.4912"/><text fill="#7286A5" font-family="Arial" font-size="10" lengthAdjust="spacing" textLength="26.1084" x="198.2988" y="276.3721">start()</text></g><g class="message" data-entity-1="part3" data-entity-2="part4" data-source-line="21" id="msg5"><polygon fill="#0969DA" points="532.3135,301.9902,542.3135,305.9902,532.3135,309.9902,536.3135,305.9902" style="stroke:#0969DA;stroke-width:1;"/><line style="stroke:#0969DA;stroke-width:1;" x1="418.585" x2="538.3135" y1="305.9902" y2="305.9902"/><text fill="#7286A5" font-family="Arial" font-size="10" lengthAdjust="spacing" textLength="106.7285" x="425.585" y="301.8711">reset_blockchain_data()</text></g><g class="message" data-entity-1="part4" data-entity-2="part5" data-source-line="23" id="msg6"><polygon fill="#0969DA" points="707.4902,327.4893,717.4902,331.4893,707.4902,335.4893,711.4902,331.4893" style="stroke:#0969DA;stroke-width:1;"/><line style="stroke:#0969DA;stroke-width:1;" x1="554.3135" x2="713.4902" y1="331.4893" y2="331.4893"/><text fill="#7286A5" font-family="Arial" font-size="10" lengthAdjust="spacing" textLength="25.5615" x="561.3135" y="327.3701">stop()</text></g><path d="M656,347.4893 L656,378.4893 A3,3 0 0 0 659,381.4893 L788,381.4893 A3,3 0 0 0 791,378.4893 L791,354.4893 L781,344.4893 L659,344.4893 A3,3 0 0 0 656,347.4893" fill="#FEFFDD" style="stroke:#181818;stroke-width:0.5;"/><path d="M781,344.4893 L781,352.9893 A1.5,1.5 0 0 0 782.5,354.4893 L791,354.4893 L781,344.4893" fill="#FEFFDD" style="stroke:#181818;stroke-width:0.5;"/><text fill="#1F3A68" font-family="Arial" font-size="12" lengthAdjust="spacing" textLength="114.7266" x="662" y="360.7451">Stops Geth gracefully</text><text fill="#1F3A68" font-family="Arial" font-size="12" lengthAdjust="spacing" textLength="86.0391" x="662" y="374.5439">and runs taskkill</text><g class="message" data-entity-1="part5" data-entity-2="part4" data-source-line="26" id="msg7"><polygon fill="#0969DA" points="565.3135,400.5859,555.3135,404.5859,565.3135,408.5859,561.3135,404.5859" style="stroke:#0969DA;stroke-width:1;"/><line style="stroke:#0969DA;stroke-width:1;stroke-dasharray:2,2;" x1="559.3135" x2="723.4902" y1="404.5859" y2="404.5859"/><text fill="#7286A5" font-family="Arial" font-size="10" lengthAdjust="spacing" textLength="35.5859" x="571.3135" y="400.4668">stopped</text></g><path d="M471,420.5859 L471,451.5859 A3,3 0 0 0 474,454.5859 L623,454.5859 A3,3 0 0 0 626,451.5859 L626,427.5859 L616,417.5859 L474,417.5859 A3,3 0 0 0 471,420.5859" fill="#FEFFDD" style="stroke:#181818;stroke-width:0.5;"/><path d="M616,417.5859 L616,426.0859 A1.5,1.5 0 0 0 617.5,427.5859 L626,427.5859 L616,417.5859" fill="#FEFFDD" style="stroke:#181818;stroke-width:0.5;"/><text fill="#1F3A68" font-family="Arial" font-size="12" lengthAdjust="spacing" textLength="99.375" x="477" y="433.8418">Wait 2 seconds for</text><text fill="#1F3A68" font-family="Arial" font-size="12" lengthAdjust="spacing" textLength="134.7188" x="477" y="447.6406">Windows file lock release</text><g class="message" data-entity-1="part4" data-entity-2="part4" data-source-line="31" id="msg8"><line style="stroke:#0969DA;stroke-width:1;" x1="554.3135" x2="596.3135" y1="489.1816" y2="489.1816"/><line style="stroke:#0969DA;stroke-width:1;" x1="596.3135" x2="596.3135" y1="489.1816" y2="502.1816"/><line style="stroke:#0969DA;stroke-width:1;" x1="555.3135" x2="596.3135" y1="502.1816" y2="502.1816"/><polygon fill="#0969DA" points="565.3135,498.1816,555.3135,502.1816,565.3135,506.1816,561.3135,502.1816" style="stroke:#0969DA;stroke-width:1;"/><text fill="#7286A5" font-family="Arial" font-size="10" lengthAdjust="spacing" textLength="76.1523" x="561.3135" y="473.5635">delete directories</text><text fill="#7286A5" font-family="Arial" font-size="10" lengthAdjust="spacing" textLength="141.1768" x="561.3135" y="485.0625">(chain-data/active, logs/archive)</text></g><path d="M476,518.1816 L476,549.1816 A3,3 0 0 0 479,552.1816 L618,552.1816 A3,3 0 0 0 621,549.1816 L621,525.1816 L611,515.1816 L479,515.1816 A3,3 0 0 0 476,518.1816" fill="#FEFFDD" style="stroke:#181818;stroke-width:0.5;"/><path d="M611,515.1816 L611,523.6816 A1.5,1.5 0 0 0 612.5,525.1816 L621,525.1816 L611,515.1816" fill="#FEFFDD" style="stroke:#181818;stroke-width:0.5;"/><text fill="#1F3A68" font-family="Arial" font-size="12" lengthAdjust="spacing" textLength="124.0313" x="482" y="531.4375">Uses rmtree_with_retry</text><text fill="#1F3A68" font-family="Arial" font-size="12" lengthAdjust="spacing" textLength="120.7148" x="482" y="545.2363">to prevent WinError 32</text><g class="message" data-entity-1="part4" data-entity-2="part5" data-source-line="34" id="msg9"><polygon fill="#0969DA" points="707.4902,571.2783,717.4902,575.2783,707.4902,579.2783,711.4902,575.2783" style="stroke:#0969DA;stroke-width:1;"/><line style="stroke:#0969DA;stroke-width:1;" x1="554.3135" x2="713.4902" y1="575.2783" y2="575.2783"/><text fill="#7286A5" font-family="Arial" font-size="10" lengthAdjust="spacing" textLength="26.1084" x="561.3135" y="571.1592">start()</text></g><g class="message" data-entity-1="part5" data-entity-2="part4" data-source-line="36" id="msg10"><polygon fill="#0969DA" points="565.3135,596.7773,555.3135,600.7773,565.3135,604.7773,561.3135,600.7773" style="stroke:#0969DA;stroke-width:1;"/><line style="stroke:#0969DA;stroke-width:1;stroke-dasharray:2,2;" x1="559.3135" x2="723.4902" y1="600.7773" y2="600.7773"/><text fill="#7286A5" font-family="Arial" font-size="10" lengthAdjust="spacing" textLength="30.5713" x="571.3135" y="596.6582">started</text></g><g class="message" data-entity-1="part4" data-entity-2="part6" data-source-line="39" id="msg11"><polygon fill="#0969DA" points="806.1943,622.2764,816.1943,626.2764,806.1943,630.2764,810.1943,626.2764" style="stroke:#0969DA;stroke-width:1;"/><line style="stroke:#0969DA;stroke-width:1;" x1="554.3135" x2="812.1943" y1="626.2764" y2="626.2764"/><text fill="#7286A5" font-family="Arial" font-size="10" lengthAdjust="spacing" textLength="41.6846" x="561.3135" y="622.1572">connect()</text></g><g class="message" data-entity-1="part6" data-entity-2="part4" data-source-line="41" id="msg12"><polygon fill="#0969DA" points="565.3135,647.7754,555.3135,651.7754,565.3135,655.7754,561.3135,651.7754" style="stroke:#0969DA;stroke-width:1;"/><line style="stroke:#0969DA;stroke-width:1;stroke-dasharray:2,2;" x1="559.3135" x2="822.1943" y1="651.7754" y2="651.7754"/><text fill="#7286A5" font-family="Arial" font-size="10" lengthAdjust="spacing" textLength="46.1475" x="571.3135" y="647.6563">connected</text></g><g class="message" data-entity-1="part4" data-entity-2="part4" data-source-line="44" id="msg13"><line style="stroke:#0969DA;stroke-width:1;" x1="554.3135" x2="596.3135" y1="677.2744" y2="677.2744"/><line style="stroke:#0969DA;stroke-width:1;" x1="596.3135" x2="596.3135" y1="677.2744" y2="690.2744"/><line style="stroke:#0969DA;stroke-width:1;" x1="555.3135" x2="596.3135" y1="690.2744" y2="690.2744"/><polygon fill="#0969DA" points="565.3135,686.2744,555.3135,690.2744,565.3135,694.2744,561.3135,690.2744" style="stroke:#0969DA;stroke-width:1;"/><text fill="#7286A5" font-family="Arial" font-size="10" lengthAdjust="spacing" textLength="64.4727" x="561.3135" y="673.1553">new_session()</text></g><g class="message" data-entity-1="part4" data-entity-2="part3" data-source-line="45" id="msg14"><polygon fill="#0969DA" points="429.585,711.7734,419.585,715.7734,429.585,719.7734,425.585,715.7734" style="stroke:#0969DA;stroke-width:1;"/><line style="stroke:#0969DA;stroke-width:1;stroke-dasharray:2,2;" x1="423.585" x2="548.3135" y1="715.7734" y2="715.7734"/><text fill="#7286A5" font-family="Arial" font-size="10" lengthAdjust="spacing" textLength="36.123" x="435.585" y="711.6543">success</text></g><g class="message" data-entity-1="part3" data-entity-2="part2" data-source-line="48" id="msg15"><polygon fill="#0969DA" points="202.2988,737.2725,192.2988,741.2725,202.2988,745.2725,198.2988,741.2725" style="stroke:#0969DA;stroke-width:1;"/><line style="stroke:#0969DA;stroke-width:1;stroke-dasharray:2,2;" x1="196.2988" x2="412.585" y1="741.2725" y2="741.2725"/><text fill="#7286A5" font-family="Arial" font-size="10" lengthAdjust="spacing" textLength="83.3594" x="208.2988" y="737.1533">finished.emit(True)</text></g><g class="message" data-entity-1="part2" data-entity-2="part2" data-source-line="50" id="msg16"><line style="stroke:#0969DA;stroke-width:1;" x1="191.2988" x2="233.2988" y1="766.7715" y2="766.7715"/><line style="stroke:#0969DA;stroke-width:1;" x1="233.2988" x2="233.2988" y1="766.7715" y2="779.7715"/><line style="stroke:#0969DA;stroke-width:1;" x1="192.2988" x2="233.2988" y1="779.7715" y2="779.7715"/><polygon fill="#0969DA" points="202.2988,775.7715,192.2988,779.7715,202.2988,783.7715,198.2988,779.7715" style="stroke:#0969DA;stroke-width:1;"/><text fill="#7286A5" font-family="Arial" font-size="10" lengthAdjust="spacing" textLength="82.2656" x="198.2988" y="762.6523">reset_ui_all_tabs()</text></g><g class="message" data-entity-1="part2" data-entity-2="part2" data-source-line="51" id="msg17"><line style="stroke:#0969DA;stroke-width:1;" x1="191.2988" x2="233.2988" y1="805.2705" y2="805.2705"/><line style="stroke:#0969DA;stroke-width:1;" x1="233.2988" x2="233.2988" y1="805.2705" y2="818.2705"/><line style="stroke:#0969DA;stroke-width:1;" x1="192.2988" x2="233.2988" y1="818.2705" y2="818.2705"/><polygon fill="#0969DA" points="202.2988,814.2705,192.2988,818.2705,202.2988,822.2705,198.2988,818.2705" style="stroke:#0969DA;stroke-width:1;"/><text fill="#7286A5" font-family="Arial" font-size="10" lengthAdjust="spacing" textLength="193.2861" x="198.2988" y="801.1514">show Toast("Blockchain Reset Successful")</text></g><g class="message" data-entity-1="part2" data-entity-2="part1" data-source-line="52" id="msg18"><polygon fill="#0969DA" points="54.3438,839.7695,44.3438,843.7695,54.3438,847.7695,50.3438,843.7695" style="stroke:#0969DA;stroke-width:1;"/><line style="stroke:#0969DA;stroke-width:1;stroke-dasharray:2,2;" x1="48.3438" x2="185.2988" y1="843.7695" y2="843.7695"/><text fill="#7286A5" font-family="Arial" font-size="10" lengthAdjust="spacing" textLength="113.9551" x="60.3438" y="839.6504">renders initial setup stage</text></g><?plantuml-src PLJ1Zjem4BtxAwQSWbH0shrLQYLAgpqXeMuhBaYHrnw8XMEdzWJKl-_O3f3itZ3pFFFUyvjyCaxPNYCibwjQ-RRrRaKDjhWqVMk584CMuHN_zkWKmWyZJq6si81V697Wk_Ngh1ff75GRYzB1rckS2o4L-G2pjMwDCv62vECCP8JyZ-Xa8ADC9nt1RClNzyPfVys8xNvQpfCUW_O-dB7qAZ-dw7NNRRoZuAqTKElD5F62r6obawUX_hATrlVuzhmB_cBqRSnEY4mR5j-O7Nm1POqw3yn67ioIR7EHX4a48s_usFXhSMoJSEoYzQTgBfndgBzWA30cVZIXZQ3H8Xdl3iuV8RTUQ4bI33sBxiGZ80-hCXnhxXc__Wuz-_yE5ua5yhmxlS4vCI0OkzumBYIAzTjTK9scZk-nbmna-Cisj_NTkCfEFXHbn2iZs65s73Wt2e-zjVyEJZeDeNSHICRpsLWh6BsuiKXjEzH2uxZpg7L6xQKXU8A8oZiTuUZ3OKWH7mo7DgbWHPpAY6AWdMyMkq2RW2cb1kF1LG-NLtagVeRavqe6rV1f_dxyduWHGai1iRuQQkg055WQUUW2Nf2Jn6n-Xi1hyFmafhQzUmrMDzNFzO_wIuVzBhsxTuwvJrvq9xXqxp4Wfbroa1y-EBpMh29oqBXJAamoqol5nV5zVlrxOcxHFgRzRb0liJLKbVIDHvQWZNQXPAmtjRIs9laMg_c7LVdjPQHgDlgwb5LxBPmuHRDoAKd9cvdwEbxO2Co7UByu6DHtoSiJZWdnOlu7?></g></svg>